<svg width="1002" height="232" viewBox="0 0 1002 232" fill="none" xmlns="http://www.w3.org/2000/svg">
<path d="M166.02 0L0.710007 216.91C36.06 216.91 69.03 205.31 90.56 185.95L80.27 155.96L82.76 155.06C84.29 154.51 85.79 153.96 87.28 153.41C90.57 152.21 93.68 151.07 96.87 149.95L99.27 149.11C110.05 145.33 121.19 141.42 131.49 136.15C141.7 130.93 151.75 124.62 162.22 116.87C164.73 115.01 167.16 114.97 169.84 116.73C172.17 118.26 174.49 119.8 176.81 121.35C184.59 126.52 192.64 131.86 200.75 136.72C213.69 144.46 228.43 150.26 247.16 154.96C247.53 155.05 247.9 155.16 248.35 155.29L251.79 156.26L248.97 164.57C247.62 168.57 246.28 172.5 244.94 176.44L243.12 181.76C242.62 183.22 242.12 184.69 241.62 186.15C263.17 205.39 296.04 216.92 331.29 216.92L166.02 0ZM215.65 126.13C210.44 123.81 205.55 121.29 200.91 118.51C192.81 113.66 184.76 108.32 176.99 103.16C174.67 101.62 172.35 100.08 170.02 98.54C167.13 96.64 164.41 96.69 161.7 98.7C151.25 106.43 141.23 112.72 131.05 117.93C126.29 120.36 121.35 122.5 116.34 124.48V80.68C116.34 77.81 118.69 75.46 121.56 75.46H210.43C213.3 75.46 215.65 77.81 215.65 80.68V126.13Z" fill="white"/>
<path d="M239.84 174.68C241.18 170.75 242.51 166.82 243.87 162.83L244.85 159.93C226.07 155.14 211.16 149.22 197.99 141.34C189.77 136.42 181.67 131.04 173.83 125.84C171.51 124.3 169.2 122.76 166.88 121.23C166.31 120.85 166.09 120.82 166.08 120.82C166.08 120.82 165.89 120.86 165.44 121.2C154.73 129.13 144.43 135.59 133.96 140.95C123.34 146.39 112.02 150.36 101.07 154.2L98.67 155.04C95.51 156.15 92.42 157.28 89.14 158.48C88.46 158.73 87.78 158.98 87.1 159.23L108.66 222.07L113.16 220.33C124.88 215.79 136.52 213.51 147.93 213.51C153.78 213.51 159.57 214.11 165.29 215.31C171.84 216.69 178.32 218.65 184.58 220.55C186.91 221.26 189.32 221.99 191.68 222.67C195.72 223.84 199.82 225.06 203.78 226.24C209.11 227.83 214.62 229.47 220.06 231.01L220.38 231.1C220.43 231.12 220.49 231.13 220.54 231.15C220.62 230.92 220.7 230.67 220.79 230.4C226.55 213.62 232.39 196.54 238.03 180.03L239.84 174.68Z" fill="#23B577"/>
<mask id="mask0_703_39983" style="mask-type:luminance" maskUnits="userSpaceOnUse" x="87" y="120" width="158" height="112">
<path d="M239.84 174.68C241.18 170.75 242.51 166.82 243.87 162.83L244.85 159.93C226.07 155.14 211.16 149.22 197.99 141.34C189.77 136.42 181.67 131.04 173.83 125.84C171.51 124.3 169.2 122.76 166.88 121.23C166.31 120.85 166.09 120.82 166.08 120.82C166.08 120.82 165.89 120.86 165.44 121.2C154.73 129.13 144.43 135.59 133.96 140.95C123.34 146.39 112.02 150.36 101.07 154.2L98.67 155.04C95.51 156.15 92.42 157.28 89.14 158.48C88.46 158.73 87.78 158.98 87.1 159.23L108.66 222.07L113.16 220.33C124.88 215.79 136.52 213.51 147.93 213.51C153.78 213.51 159.57 214.11 165.29 215.31C171.84 216.69 178.32 218.65 184.58 220.55C186.91 221.26 189.32 221.99 191.68 222.67C195.72 223.84 199.82 225.06 203.78 226.24C209.11 227.83 214.62 229.47 220.06 231.01L220.38 231.1C220.43 231.12 220.49 231.13 220.54 231.15C220.62 230.92 220.7 230.67 220.79 230.4C226.55 213.62 232.39 196.54 238.03 180.03L239.84 174.68Z" fill="white"/>
</mask>
<g mask="url(#mask0_703_39983)">
<path d="M211.62 236.51C211.32 236.51 211.02 236.48 210.72 236.41C208.78 235.99 207.4 234.3 207.29 232.21C207.26 231.66 206.91 231.14 206.62 230.87C206.33 230.59 206.01 230.37 205.7 230.15C205.49 230 205.28 229.85 205.08 229.69C204.72 229.39 204.66 229 204.92 228.63C205.06 228.43 205.25 228.32 205.47 228.32C205.63 228.32 205.8 228.37 205.97 228.47C206.13 228.56 206.27 228.68 206.42 228.79C206.5 228.85 206.58 228.91 206.67 228.97L207.81 229.79L208.16 229.52C208.33 229.39 208.5 229.25 208.66 229.12C209.01 228.84 209.33 228.57 209.68 228.38C210 228.21 210.37 228.1 210.81 227.98C211.03 227.92 211.25 227.85 211.49 227.78L211.95 227.63L211.1 219.38L210.59 219.35C209.03 219.27 207.8 218.82 206.83 217.97C205.07 216.44 204.45 214.57 204.93 212.25C205.05 211.69 205.06 211.09 204.38 210.51C202.99 209.34 201.56 208.07 200.12 206.73C199.81 206.44 199.5 206.31 199.15 206.31C198.9 206.31 198.66 206.38 198.44 206.45C196.69 206.99 196.54 208.27 196.61 209.32C196.68 210.52 196.68 211.75 196.68 212.95C196.68 213.7 196.67 214.45 196.69 215.2C196.7 215.63 196.93 216.23 197.35 216.49C199.98 218.09 200.53 219.88 199.31 222.87L199.14 223.29L199.89 223.86C200.17 224.07 200.45 224.29 200.73 224.51C201.25 224.93 201.36 225.34 201.07 225.74C200.93 225.92 200.77 226.01 200.56 226.01C200.34 226.01 200.07 225.91 199.8 225.72C199.69 225.64 199.59 225.56 199.49 225.47C198.93 225 198.23 224.52 197.23 224.52C196.93 224.52 196.62 224.56 196.29 224.65C195.98 224.73 195.67 224.77 195.37 224.77C194.17 224.77 193.03 224.11 192 222.82L191.7 222.44L189.97 223.32C188.39 224.12 186.75 224.94 185.15 225.78C184.74 225.99 184.58 226.5 184.52 226.89C184.14 229.2 182.43 230.76 180.26 230.76C180.12 230.76 179.97 230.75 179.82 230.74C177.49 230.52 175.85 228.56 175.92 226.08C175.93 225.63 175.69 224.99 175.26 224.7C173.69 223.62 172.22 222.65 170.75 221.76C170.56 221.64 170.33 221.59 170.06 221.59C169.91 221.59 169.76 221.61 169.6 221.62C169.52 221.63 169.43 221.64 169.35 221.64C169.11 221.65 168.93 221.78 168.83 221.85C168.51 222.02 168.23 222.09 168 222.09C167.68 222.09 167.47 221.96 167.34 221.67C167.25 221.47 167.04 221.02 168.12 220.49C169.25 219.93 170.08 219 170.45 217.86C170.8 216.79 170.69 215.64 170.15 214.62C169.42 213.25 167.94 212.37 166.36 212.37C165.66 212.37 164.98 212.55 164.39 212.88C163.3 213.5 162.54 214.47 162.26 215.61C161.98 216.74 162.2 217.93 162.86 218.96C163.25 219.56 163.2 219.84 162.99 220.12C162.84 220.32 162.68 220.41 162.45 220.41C162.31 220.41 162.14 220.38 161.94 220.32L161.28 219.45C161.27 219.36 161.26 219.27 161.22 219.18C159.86 215.84 160.84 213.13 164.05 211.33C164.45 211.11 164.76 210.56 164.74 210.1C164.65 207.98 164.53 205.83 164.42 203.76L164.31 201.72L163.92 201.59C162.01 200.97 159.82 199.64 160.17 196.76C160.46 194.4 162.3 192.88 164.85 192.88L165.46 192.89L166.53 189.87C167.78 186.35 169.08 182.72 170.32 179.13C170.5 178.62 170.27 177.96 169.99 177.56C168.76 175.84 168.84 173.64 170.19 172.09C171.01 171.15 172.18 170.6 173.4 170.6C174.11 170.6 174.83 170.79 175.46 171.15C175.81 171.35 176.11 171.44 176.42 171.44C176.87 171.44 177.23 171.24 177.46 171.08C178.26 170.55 179.06 170.03 179.86 169.51C180.63 169.01 181.41 168.51 182.18 168C182.49 167.8 182.72 167.7 182.91 167.7C183.04 167.7 183.16 167.74 183.29 167.83C183.51 167.97 183.64 168.17 183.64 168.4C183.64 168.68 183.47 168.96 183.17 169.17C182.4 169.7 181.6 170.22 180.75 170.76C180.36 171.01 179.96 171.26 179.55 171.53L178.28 172.35L187.73 174.06C187.76 174.06 187.78 174.07 187.81 174.08C187.91 174.11 188.04 174.15 188.2 174.15C188.31 174.15 188.41 174.13 188.5 174.1C188.76 174 189.14 173.82 189.38 173.5C190.17 172.43 191.14 171.8 192.35 171.57C192.83 171.48 193.35 170.94 193.41 170.47C193.57 169.24 193.67 168.01 193.77 166.55C193.8 166.18 193.66 165.67 193.31 165.42C192.89 165.11 192.46 164.84 192 164.56C191.84 164.46 191.19 164.05 191.19 164.05L190.57 164.41C190.32 164.56 190.06 164.71 189.8 164.87C189.63 164.98 189.46 165.1 189.29 165.21C189.11 165.33 188.93 165.46 188.75 165.57C188.53 165.7 188.31 165.78 188.11 165.78C187.87 165.78 187.68 165.68 187.54 165.48C187.28 165.1 187.4 164.68 187.87 164.35C188.47 163.93 189.09 163.52 189.73 163.15C190.39 162.76 190.67 162.24 190.65 161.45C190.61 160.11 191.12 158.99 192.18 158.1C192.96 157.44 193.9 157.09 194.88 157.09C196.34 157.09 197.69 157.83 198.59 159.13C198.69 159.28 199.25 160.03 199.97 160.07C202.42 160.22 205.03 160.33 208.43 160.43C208.91 160.43 209.43 160.16 209.71 159.79C210.71 158.46 211.86 157.81 213.22 157.81C213.57 157.81 213.95 157.86 214.33 157.94C216.19 158.37 217.28 159.58 217.66 161.63C217.71 161.91 217.94 162.5 218.42 162.69C220.02 163.31 221.66 163.92 223.25 164.51L224.96 165.15C224.96 165.15 225.43 164.52 225.48 164.46C226.72 162.88 228.37 162.01 230.14 162.01C231.45 162.01 232.77 162.49 233.95 163.4C234.06 163.48 234.16 163.53 234.25 163.57L235.3 164.94C235.37 165.21 235.45 165.47 235.53 165.74C235.72 166.39 235.9 167 235.94 167.6C236.06 169.4 235.34 170.97 233.73 172.4L233.37 172.72L234.05 173.97C234.48 174.77 234.89 175.53 235.34 176.29C235.63 176.77 236.3 176.92 236.5 176.95C237.79 177.16 238.89 177.83 239.59 178.84C240.24 179.78 240.47 180.93 240.25 182.07C239.83 184.14 238.13 185.53 236 185.53C235.64 185.53 235.28 185.49 234.92 185.41C234.79 185.38 234.64 185.37 234.49 185.37C234.18 185.37 233.75 185.43 233.48 185.73C232.79 186.49 232.13 187.3 231.5 188.08L230.52 189.27L231.1 189.96C231.27 190.16 231.42 190.34 231.57 190.52C232.38 191.54 232.7 192.84 232.44 194.09C232.18 195.36 231.35 196.45 230.18 197.08C229.72 197.32 229.33 197.86 229.25 198.35C229.08 199.41 228.95 200.56 228.89 201.76C228.86 202.25 229.17 202.87 229.57 203.13C231.25 204.22 231.95 205.64 231.72 207.47C231.5 209.23 230.48 210.45 228.78 210.99C228.29 211.15 227.81 211.23 227.35 211.23C226.16 211.23 225.08 210.7 224.15 209.65C223.92 209.39 223.59 209.09 223.1 209.09C222.88 209.09 222.65 209.15 222.37 209.29C220.87 210.02 219.25 210.78 217.28 211.66C216.55 211.99 216.25 212.48 216.27 213.32C216.32 215.61 215.39 217.33 213.42 218.56C213 218.82 212.68 219.46 212.73 219.96C212.96 222.53 213.22 225.06 213.51 227.48C213.57 228.01 213.96 228.5 214.3 228.79C215.9 230.15 216.39 232.27 215.52 234.07C214.79 235.55 213.27 236.51 211.62 236.51ZM211.64 229.42C211.03 229.42 210.46 229.61 209.97 229.98C209.36 230.44 208.97 231.1 208.87 231.83C208.77 232.55 208.97 233.28 209.42 233.88C209.95 234.57 210.78 234.99 211.65 234.99C212.27 234.99 212.85 234.79 213.33 234.41C213.91 233.96 214.28 233.3 214.37 232.55C214.46 231.8 214.26 231.06 213.8 230.47C213.29 229.81 212.5 229.42 211.64 229.42ZM180.24 223.68C179.6 223.68 178.98 223.9 178.47 224.3C177.28 225.24 177.08 226.93 178.01 228.13C178.55 228.83 179.36 229.23 180.24 229.23C180.86 229.23 181.44 229.03 181.93 228.65C182.5 228.2 182.88 227.52 182.97 226.77C183.06 226.03 182.85 225.27 182.4 224.71C181.87 224.06 181.08 223.68 180.24 223.68ZM183.46 213.58C183.27 213.69 183.09 213.78 182.91 213.88C182.48 214.11 182.07 214.33 181.67 214.58C181.39 214.76 181.06 215.15 181.02 215.58C180.87 217.14 180.75 218.7 180.63 220.13L180.51 221.63L184.57 224.33L185.98 223.62C187.49 222.86 189.09 222.06 190.68 221.24C191.1 221.03 191.26 220.54 191.31 220.39C191.51 219.69 191.64 218.67 190.36 217.87C188.81 216.9 187.3 215.84 185.83 214.82C185.25 214.41 184.67 214.01 184.09 213.62L183.79 213.41L183.46 213.58ZM167.16 200.84C166.99 200.84 166.83 200.88 166.7 200.95C166.29 201.17 165.87 201.75 165.89 202.3C165.97 204.35 166.08 206.35 166.19 208.48L166.31 210.78L166.8 210.85C169.06 211.18 170.6 212.23 171.52 214.04C172.42 215.82 172.36 217.66 171.34 219.67L171.1 220.15L176.68 223.79C176.68 223.79 177.26 223.35 177.38 223.26C177.66 223.05 177.92 222.86 178.18 222.63L178.28 222.55C178.55 222.32 178.92 222 178.97 221.55C179.13 219.94 179.26 218.31 179.39 216.74L179.53 215.04L179.3 214.84L179.23 214.78C179.17 214.72 179.09 214.65 178.97 214.59C176.43 213.38 175.72 212 176.17 209.14C176.25 208.63 175.96 208.06 175.64 207.78C173.22 205.61 170.72 203.4 168.21 201.23C167.94 201 167.51 200.84 167.16 200.84ZM195.62 217.69C195.01 217.69 194.44 217.88 193.97 218.23C192.77 219.13 192.5 220.84 193.37 222.06C193.89 222.8 194.74 223.24 195.64 223.24C196.22 223.24 196.78 223.06 197.26 222.71C197.87 222.27 198.28 221.61 198.39 220.87C198.5 220.14 198.33 219.41 197.89 218.81C197.37 218.11 196.52 217.69 195.62 217.69ZM210.54 209.3C209.62 209.3 208.74 209.6 208 210.16C207.07 210.86 206.47 211.87 206.32 213C206.17 214.13 206.47 215.24 207.17 216.15C207.96 217.17 209.23 217.79 210.55 217.79C211.49 217.79 212.38 217.49 213.11 216.93C214.95 215.52 215.31 212.86 213.9 211C213.09 209.92 211.87 209.3 210.54 209.3ZM186.65 194.53C186.55 194.53 186.46 194.55 186.38 194.58C185.6 194.85 184.83 195.19 184.07 195.57C183.66 195.78 183.45 196.28 183.38 196.64C183.13 198.06 182.89 199.48 182.65 200.9C182.41 202.35 182.16 203.79 181.91 205.24C181.78 205.96 181.99 206.45 182.61 206.87C184.1 207.88 184.75 209.26 184.54 210.96C184.43 211.89 184.87 212.32 185.32 212.62L186.39 213.34C187.69 214.21 189.04 215.1 190.3 216.04C191.01 216.57 191.72 217.04 192.57 217.04C193.13 217.04 193.68 216.83 194.24 216.4L194.29 216.36C194.72 216.03 195.17 215.69 195.16 214.84C195.12 212.67 195.11 210.44 195.13 208.23C195.14 207.44 194.84 206.95 194.14 206.58C192.36 205.65 191.45 203.67 191.99 201.86C192.22 201.1 192.4 200.01 191.41 199.24L190.54 198.24C189.56 197.12 188.62 196.05 187.67 195C187.44 194.78 187.02 194.53 186.65 194.53ZM180.25 207.69C179.63 207.69 179.02 207.9 178.54 208.29C177.39 209.22 177.17 210.94 178.04 212.14C178.55 212.83 179.38 213.25 180.26 213.25C180.88 213.25 181.47 213.05 181.96 212.68C182.57 212.22 182.95 211.56 183.05 210.83C183.14 210.11 182.94 209.38 182.47 208.78C181.93 208.08 181.13 207.69 180.25 207.69ZM214.4 194.46L214.28 194.87C213.82 196.42 213.02 197.42 211.76 198.01C211.26 198.24 211.05 198.93 211.03 199.33C210.98 200.45 210.95 201.59 210.92 202.69L210.89 203.88L210.79 207.75L211.31 207.83C212.97 208.1 214.3 208.92 215.37 210.35L215.66 210.74L217.59 209.84C219.22 209.08 220.76 208.36 222.32 207.6C222.77 207.38 223.08 206.84 223.15 206.42C223.47 204.53 224.51 203.32 226.32 202.72C226.66 202.61 227.22 202.23 227.29 201.7C227.42 200.8 227.51 199.89 227.6 199.02L227.74 197.69L227.33 197.52C225.29 196.65 224.91 196.29 223.96 194.33L223.79 193.97L214.4 194.46ZM204.87 197.83C203.59 198.62 202.27 199.45 200.98 200.29C200.55 200.57 200.36 201.17 200.33 201.59C200.27 202.38 200.27 203.15 200.29 204.07C200.3 204.36 200.36 204.89 200.71 205.2C201.97 206.34 203.24 207.46 204.49 208.56L205.8 209.71L206.87 209.09C207.47 208.75 208.03 208.42 208.58 208.07C208.83 207.91 209.26 207.51 209.28 207.01C209.36 204.82 209.42 202.63 209.47 200.5L209.52 198.61L206.39 196.87L204.87 197.83ZM227.43 204.12C226.81 204.12 226.21 204.33 225.73 204.71C225.16 205.17 224.78 205.86 224.7 206.61C224.62 207.35 224.83 208.1 225.29 208.65C225.82 209.3 226.6 209.67 227.44 209.67C228.05 209.67 228.64 209.47 229.13 209.1C229.74 208.64 230.12 207.99 230.22 207.26C230.32 206.53 230.11 205.8 229.65 205.2C229.12 204.53 228.29 204.12 227.43 204.12ZM168.67 198.14C168.17 199.15 168.87 199.76 169.17 200.03L169.48 200.3C171.57 202.13 173.73 204.01 175.8 205.93C176.3 206.39 176.89 206.88 177.64 206.88C178.08 206.88 178.51 206.71 178.95 206.37C178.95 206.37 178.96 206.37 178.97 206.37C178.99 206.37 179.02 206.37 179.05 206.36C179.19 206.33 179.39 206.3 179.57 206.19C180.03 205.92 180.29 205.61 180.35 205.28C180.78 202.84 181.19 200.39 181.61 197.93L182 195.62L181.51 195.46C180.08 194.99 178.98 194.2 178.16 193.06C177.93 192.75 177.52 192.68 177.22 192.68C177.06 192.68 176.83 192.7 176.62 192.79C175.74 193.16 174.87 193.55 174 193.94C172.96 194.4 171.88 194.88 170.82 195.32L170.71 195.37C169.7 195.76 168.35 196.32 168.67 198.14ZM196.16 200.03C195.59 200.03 195.03 200.21 194.56 200.55C193.3 201.45 193 203.2 193.89 204.44C194.4 205.16 195.26 205.58 196.18 205.58C196.78 205.58 197.34 205.4 197.81 205.06C199.02 204.18 199.3 202.46 198.44 201.23C197.9 200.48 197.05 200.03 196.16 200.03ZM164.45 194.47C163.85 194.47 163.28 194.66 162.79 195.03C162.19 195.48 161.79 196.14 161.69 196.89C161.59 197.63 161.78 198.35 162.22 198.94C162.74 199.62 163.57 200.02 164.45 200.02C165.07 200.02 165.67 199.82 166.15 199.45C167.33 198.54 167.56 196.82 166.67 195.61C166.14 194.89 165.33 194.47 164.45 194.47ZM196.14 198.52C196.94 198.52 197.71 198.74 198.5 199.18C198.72 199.31 198.97 199.33 199.14 199.33C199.3 199.33 199.61 199.31 199.88 199.14C201.74 198.01 203.57 196.84 204.96 195.95C205.19 195.8 205.34 195.6 205.47 195.44C205.51 195.39 205.55 195.33 205.6 195.28L206.11 194.7L205.43 194.34C205.36 194.31 205.3 194.27 205.24 194.23C205.05 194.11 204.81 193.96 204.52 193.91C202.21 193.49 199.89 193.1 197.57 192.7L188.92 191.22L188.7 191.48C187.73 192.61 188.3 193.47 188.8 194.01C189.54 194.8 190.26 195.63 190.96 196.44C191.56 197.13 192.16 197.81 192.77 198.48C193.06 198.8 193.56 198.95 193.91 198.95C194.05 198.95 194.18 198.93 194.3 198.88C194.93 198.64 195.55 198.52 196.14 198.52ZM210.03 191.27C209.43 191.27 208.85 191.46 208.37 191.82C207.76 192.27 207.37 192.93 207.27 193.67C207.17 194.4 207.36 195.13 207.8 195.72C208.32 196.41 209.16 196.82 210.04 196.82C210.65 196.82 211.25 196.62 211.72 196.25C212.3 195.8 212.67 195.14 212.76 194.39C212.85 193.65 212.64 192.89 212.19 192.32C211.67 191.65 210.88 191.27 210.03 191.27ZM228.22 190.43C227.59 190.43 227 190.64 226.5 191.03C225.34 191.95 225.11 193.67 225.98 194.87C226.49 195.57 227.33 195.99 228.22 195.99C228.84 195.99 229.42 195.8 229.9 195.43C230.5 194.98 230.88 194.32 230.98 193.59C231.08 192.86 230.87 192.12 230.41 191.52C229.88 190.82 229.08 190.43 228.22 190.43ZM170.99 181.92C169.73 185.47 168.42 189.14 167.16 192.76C166.99 193.24 167.22 193.87 167.53 194.2C167.81 194.5 168.26 194.53 168.44 194.53C168.58 194.53 168.78 194.51 168.97 194.43C171 193.56 173.67 192.41 176.37 191.16C176.87 190.93 177.21 190.25 177.24 189.76C177.42 186.48 179.83 184.1 182.98 184.1C183.32 184.1 183.66 184.13 184.01 184.18C184.14 184.2 184.26 184.21 184.37 184.21C185.04 184.21 185.4 183.84 185.63 183.51C186.17 182.77 186.74 182.03 187.3 181.31C187.57 180.97 187.83 180.63 188.1 180.28C189.39 178.59 189.43 178.38 188.76 176.48C188.64 176.14 188.28 175.73 187.84 175.65C185.31 175.18 182.78 174.72 180.19 174.25L177.73 173.81L177.75 174.55C177.79 175.85 177.33 177.08 176.49 177.94C175.67 178.79 174.51 179.23 173.15 179.23C172.92 179.23 172.67 179.22 172.42 179.19L171.95 179.14L170.99 181.92ZM182.98 185.61C182.05 185.61 181.17 185.9 180.43 186.46C179.54 187.13 178.96 188.12 178.8 189.25C178.64 190.39 178.93 191.52 179.61 192.42C180.42 193.49 181.65 194.1 182.98 194.1C183.91 194.1 184.8 193.8 185.55 193.23C186.46 192.54 187.05 191.54 187.2 190.41C187.35 189.3 187.06 188.19 186.37 187.29C185.57 186.22 184.33 185.61 182.98 185.61ZM214.07 178.38C213.58 178.38 213.13 178.75 212.95 178.91C212.68 179.15 212.43 179.42 212.18 179.68C211.77 180.11 211.38 180.51 210.94 180.83C210.34 181.26 210.14 181.69 210.23 182.4C210.34 183.25 210.45 184.11 210.55 184.96C210.71 186.25 210.87 187.58 211.05 188.88C211.12 189.37 211.48 189.75 211.77 190.05C212.53 190.84 213.26 191.57 213.97 192.24C214.28 192.53 214.7 192.87 215.18 192.87C217.73 192.77 220.32 192.64 222.94 192.46C223.44 192.43 224.01 192.04 224.22 191.6C225 189.92 226.27 189.04 228.1 188.91C228.31 188.9 228.5 188.85 228.64 188.82L228.76 188.79L228.97 188.75L229.11 188.58C229.37 188.27 229.61 187.97 229.85 187.67C230.38 187.01 230.89 186.39 231.43 185.8C232.05 185.13 233.08 184.02 231.93 182.56C231.94 182.56 231.93 182.51 231.93 182.47C231.9 182.32 231.86 182.11 231.74 181.92C231.53 181.61 231.22 181.14 230.73 181.06C225.27 180.15 219.72 179.25 214.23 178.39L214.18 178.38H214.07ZM191.07 179.83C190.87 179.83 190.39 179.87 190.12 180.21C189.2 181.36 188.3 182.54 187.5 183.58L186.65 184.68L189.29 189.74L191.85 190.18C196.11 190.91 200.54 191.67 204.98 192.42C205.04 192.43 205.1 192.43 205.16 192.43C205.54 192.43 206.04 192.24 206.26 191.88C206.88 190.86 207.79 190.2 209.1 189.78L209.58 189.63L209.35 187.71C209.12 185.82 208.89 183.95 208.64 182.08C208.59 181.68 208.22 181.24 207.83 181.11C206.3 180.59 205.32 179.57 204.84 177.98C204.71 177.56 204.25 177.15 203.83 177.09C202.31 176.89 200.75 176.7 199.24 176.53L197.46 176.32L197.29 176.76C196.42 179.02 195.08 180.12 193.18 180.12C192.65 180.12 192.06 180.03 191.43 179.86C191.33 179.85 191.21 179.83 191.07 179.83ZM236.05 178.46C235.44 178.46 234.86 178.66 234.37 179.03C233.77 179.48 233.39 180.14 233.29 180.88C233.19 181.62 233.39 182.35 233.84 182.94C234.36 183.61 235.19 184.02 236.06 184.02C236.65 184.02 237.21 183.84 237.68 183.5C238.28 183.07 238.67 182.43 238.78 181.7C238.9 180.95 238.72 180.21 238.27 179.59C237.74 178.88 236.93 178.46 236.05 178.46ZM209.04 174.21C208.43 174.21 207.86 174.4 207.38 174.76C206.79 175.21 206.4 175.85 206.3 176.59C206.2 177.33 206.39 178.07 206.86 178.67C207.39 179.37 208.2 179.77 209.06 179.77C209.68 179.77 210.27 179.56 210.77 179.17C211.35 178.72 211.73 178.02 211.82 177.28C211.91 176.53 211.7 175.81 211.24 175.24C210.7 174.58 209.9 174.21 209.04 174.21ZM217.09 164.35C216.47 165.33 215.63 165.96 214.45 166.33C214.05 166.45 213.64 166.82 213.46 167.22C212.87 168.53 212.31 169.84 211.73 171.21L210.94 173.05L211.35 173.33C212.32 173.99 212.94 174.86 213.26 175.99C213.4 176.48 213.96 176.78 214.33 176.84C219.84 177.75 225.45 178.65 231.02 179.54C231.08 179.55 231.15 179.56 231.22 179.56C231.52 179.56 231.96 179.46 232.25 179.17C232.64 178.77 232.98 178.35 233.35 177.91C233.49 177.75 233.62 177.58 233.76 177.41L234.02 177.1C234.02 177.1 233.59 176.31 233.47 176.09C233.19 175.59 232.91 175.07 232.65 174.56C232.41 174.08 232.02 173.52 231.11 173.52C231.01 173.52 230.9 173.53 230.78 173.54C230.54 173.57 230.3 173.59 230.06 173.59C228.75 173.59 227.54 173.12 226.46 172.18C225 170.91 224.36 169.25 224.49 167.09L224.52 166.65L217.36 163.97L217.09 164.35ZM193.06 173.09C192.45 173.09 191.87 173.28 191.39 173.65C190.78 174.11 190.39 174.76 190.29 175.49C190.19 176.22 190.39 176.95 190.85 177.55C191.38 178.25 192.19 178.65 193.08 178.65C193.7 178.65 194.28 178.45 194.77 178.07C195.92 177.17 196.17 175.41 195.3 174.22C194.78 173.51 193.95 173.09 193.06 173.09ZM173.41 172.16C172.81 172.16 172.23 172.35 171.76 172.71C171.18 173.14 170.79 173.82 170.69 174.56C170.59 175.3 170.78 176.06 171.23 176.64C171.76 177.32 172.56 177.72 173.43 177.72C174.02 177.72 174.58 177.54 175.06 177.19C175.68 176.74 176.08 176.09 176.19 175.35C176.3 174.62 176.12 173.89 175.67 173.3C175.15 172.58 174.3 172.16 173.41 172.16ZM199.25 162.09C198.8 163.89 197.84 164.99 196.22 165.55C195.7 165.73 195.39 166.38 195.34 166.77C195.27 167.33 195.22 167.89 195.18 168.44C195.13 169.05 195.08 169.68 194.99 170.28C194.88 171.07 194.9 171.98 195.92 172.71C196.13 172.86 196.32 173.14 196.51 173.43C196.66 173.65 196.81 173.87 196.99 174.08C197.25 174.38 197.66 174.78 198.16 174.85C200.05 175.12 201.97 175.34 203.87 175.52H203.97C204.45 175.52 205.02 175.22 205.27 174.83C206.08 173.57 207.16 172.86 208.6 172.66C208.92 172.62 209.5 172.42 209.71 171.96C210.3 170.66 210.84 169.38 211.42 168.02L212.14 166.34L211.66 166.08C210.15 165.26 209.34 164.12 209.1 162.48L209.03 161.99L204.2 161.78L199.37 161.59L199.25 162.09ZM230.25 163.56C229.33 163.56 228.45 163.86 227.71 164.41C226.79 165.1 226.2 166.09 226.04 167.2C225.88 168.31 226.16 169.43 226.85 170.34C227.65 171.41 228.93 172.04 230.28 172.04C231.2 172.04 232.06 171.75 232.79 171.22C233.68 170.56 234.27 169.57 234.43 168.44C234.6 167.3 234.32 166.17 233.64 165.27C232.82 164.18 231.59 163.56 230.25 163.56ZM213.41 159.35C212.84 159.35 212.28 159.53 211.81 159.87C210.53 160.78 210.24 162.49 211.14 163.75C211.65 164.47 212.51 164.9 213.42 164.9C214.02 164.9 214.58 164.72 215.05 164.38C216.25 163.51 216.53 161.79 215.68 160.56C215.15 159.8 214.3 159.35 213.41 159.35ZM194.95 158.63C194.39 158.63 193.84 158.8 193.37 159.13C192.77 159.55 192.36 160.19 192.23 160.94C192.1 161.69 192.26 162.43 192.69 163.03C193.2 163.75 194.05 164.18 194.97 164.18C195.53 164.18 196.06 164.02 196.51 163.72C197.14 163.3 197.56 162.66 197.7 161.92C197.83 161.19 197.67 160.45 197.24 159.84C196.71 159.08 195.85 158.63 194.95 158.63Z" fill="white"/>
</g>
<path d="M415.681 78.0969H382.075L375.664 93.6039H358.502L390.766 21.231H407.303L439.658 93.6039H422.074L415.681 78.0969ZM410.407 65.3824L398.924 37.6752L387.441 65.3824H410.407Z" fill="white"/>
<path d="M493.327 93.6039L479.363 73.4484H478.537H463.966V93.6039H447.21V21.231H478.537C497.866 21.231 509.974 31.2628 509.974 47.4867C509.974 58.3454 504.498 66.3012 495.091 70.3434L511.315 93.6039H493.327ZM477.6 34.8825H463.949V60.1092H477.6C487.834 60.1092 492.996 55.3505 492.996 47.4867C493.015 39.531 487.852 34.8825 477.6 34.8825Z" fill="white"/>
<path d="M549.569 65.1804L539.849 75.3041V93.6039H523.202V21.231H539.849V55.0382L571.892 21.231H590.505L560.519 53.4949L592.269 93.6039H572.719L549.569 65.1804Z" fill="white"/>
<path d="M666.075 21.231V93.6039H652.332L616.246 49.6732V93.6039H599.71V21.231H613.563L649.538 65.162V21.231H666.075Z" fill="white"/>
<path d="M739.275 80.1733V93.6226H683.236V21.2495H737.933V34.6805H699.883V50.3899H733.488V63.4166H699.883V80.1733H739.275Z" fill="white"/>
<path d="M767.588 34.8825H744.438V21.231H807.514V34.8825H784.364V93.6039H767.607V34.8825H767.588Z" fill="white"/>
<path d="M816.499 21.231H833.256V93.6039H816.499V21.231Z" fill="white"/>
<path d="M845.86 57.4269C845.86 35.6175 862.617 20 885.143 20C897.655 20 908.091 24.5567 914.926 32.8247L904.178 42.7464C899.327 37.1609 893.226 34.2762 885.988 34.2762C872.446 34.2762 862.836 43.7937 862.836 57.4269C862.836 71.0784 872.446 80.5775 885.988 80.5775C893.226 80.5775 899.327 77.6745 904.178 71.9971L914.926 81.9188C908.109 90.2971 897.655 94.8359 885.051 94.8359C862.599 94.8533 845.86 79.2363 845.86 57.4269Z" fill="white"/>
<path d="M919.868 86.4754L925.564 73.8711C931.664 78.3175 940.759 81.4226 949.45 81.4226C959.371 81.4226 963.413 78.1154 963.413 73.6691C963.413 60.1277 921.338 69.4248 921.338 42.5444C921.338 30.234 931.26 20 951.838 20C960.933 20 970.248 22.1681 976.955 26.4123L971.792 39.1269C965.068 35.3051 958.14 33.4494 951.728 33.4494C941.806 33.4494 937.985 37.1792 937.985 41.7175C937.985 55.0567 980.06 45.8515 980.06 72.4196C980.06 84.5094 970.028 94.8533 949.358 94.8533C937.856 94.8533 926.281 91.4362 919.868 86.4754Z" fill="white"/>
<path d="M387.697 150.746H370.39V147.585H408.515V150.746H391.207V195.669H387.697V150.746Z" fill="white"/>
<path d="M456.322 147.585V195.669H452.813V172.794H420.66V195.669H417.169V147.585H420.679V169.708H452.832V147.585H456.322Z" fill="white"/>
<path d="M473.08 147.585H476.588V195.669H473.08V147.585Z" fill="white"/>
<path d="M532.481 147.585V195.669H529.597L496.836 153.906V195.669H493.327V147.585H496.285L528.972 189.349V147.585H532.481Z" fill="white"/>
<path d="M563.532 171.967L552.747 183.028V195.669H549.238V147.585H552.747V178.491L582.77 147.585H587.032L565.885 169.432L588.483 195.669H584.221L563.532 171.967Z" fill="white"/>
<path d="M610.311 189.477L611.891 186.868C615.181 190.304 621.299 192.913 627.766 192.913C637.376 192.913 641.638 188.724 641.638 183.506C641.638 169.083 611.616 177.737 611.616 160.005C611.616 153.208 616.834 147.237 628.649 147.237C633.94 147.237 639.433 148.89 643.145 151.572L641.84 154.383C637.854 151.628 632.984 150.323 628.649 150.323C619.314 150.323 615.125 154.66 615.125 159.932C615.125 174.356 645.148 165.849 645.148 183.286C645.148 190.084 639.728 196 627.839 196C620.674 196 613.821 193.318 610.311 189.477Z" fill="white"/>
<path d="M652.423 171.618C652.423 157.673 663.062 147.237 677.429 147.237C691.725 147.237 702.436 157.617 702.436 171.618C702.436 185.618 691.725 196 677.429 196C663.062 196 652.423 185.564 652.423 171.618ZM698.853 171.618C698.853 159.455 689.648 150.471 677.429 150.471C665.138 150.471 655.932 159.474 655.932 171.618C655.932 183.782 665.138 192.766 677.429 192.766C689.648 192.766 698.853 183.782 698.853 171.618Z" fill="white"/>
<path d="M714.581 147.585H718.09V192.509H745.779V195.669H714.6V147.585H714.581Z" fill="white"/>
<path d="M753.385 175.256V147.568H756.894V175.109C756.894 187.126 762.664 192.766 772.696 192.766C782.728 192.766 788.424 187.126 788.424 175.109V147.568H791.933V175.256C791.933 189 784.583 196 772.623 196C760.661 196 753.385 189 753.385 175.256Z" fill="white"/>
<path d="M816.518 150.746H799.209V147.585H837.334V150.746H820.026V195.669H816.518V150.746Z" fill="white"/>
<path d="M845.97 147.585H849.479V195.669H845.97V147.585Z" fill="white"/>
<path d="M861.643 171.618C861.643 157.673 872.281 147.237 886.649 147.237C900.944 147.237 911.655 157.617 911.655 171.618C911.655 185.618 900.944 196 886.649 196C872.281 196 861.643 185.564 861.643 171.618ZM908.072 171.618C908.072 159.455 898.867 150.471 886.649 150.471C874.357 150.471 865.152 159.474 865.152 171.618C865.152 183.782 874.357 192.766 886.649 192.766C898.867 192.766 908.072 183.782 908.072 171.618Z" fill="white"/>
<path d="M962.954 147.585V195.669H960.069L927.309 153.906V195.669H923.801V147.585H926.758L959.444 189.349V147.585H962.954Z" fill="white"/>
<path d="M1001.45 128.239H340V132.06H1001.45V128.239Z" fill="#23B577"/>
</svg>
