<svg width="213" height="36" viewBox="0 0 213 36" fill="none" xmlns="http://www.w3.org/2000/svg">
<path d="M29.2275 15.1649L22.392 3.92848C20.8002 1.30665 17.3356 0.463927 14.6202 2.05575C11.9984 3.64757 11.1556 7.11212 12.7475 9.82757L19.5829 21.064C21.1747 23.6858 24.6393 24.5285 27.3547 22.9367C29.9766 21.2512 30.8193 17.7867 29.2275 15.1649Z" fill="url(#paint0_linear_662_548)"/>
<path d="M36.063 26.2139C34.4711 23.5921 31.0066 22.7493 28.2911 24.3411C25.6693 25.933 24.8266 29.3975 26.4184 32.113C28.0102 34.7348 31.4748 35.5775 34.1902 33.9857C36.812 32.3939 37.6548 28.9293 36.063 26.2139Z" fill="#43DDB1"/>
<path d="M3.0093 34.173C0.29384 32.6748 -0.829797 29.3039 0.668386 26.4948L12.5602 4.20929C14.0584 1.49384 17.4293 0.3702 20.2384 1.86838C21.2684 2.4302 22.0175 3.17929 22.5793 4.11566L27.6357 12.4493C27.7293 12.5429 27.823 12.7302 27.823 12.8238C27.7293 12.7302 27.7293 12.6366 27.6357 12.5429C23.7966 6.2693 20.8002 12.9175 20.8002 12.9175L10.6875 31.8321C9.1893 34.5475 5.72476 35.5775 3.0093 34.173Z" fill="url(#paint1_linear_662_548)"/>
<path d="M54.4066 7.75626C50.0976 7.75626 44.8484 11.2035 44.8484 18.1763C44.8484 25.2666 50.0584 28.6355 54.4066 28.6355C58.128 28.6355 60.5568 26.1676 60.831 24.4048V26.5201C60.831 27.6561 61.7711 28.5963 62.9071 28.5963C64.0432 28.5963 65.0225 27.6561 65.0225 26.5201V9.94995C65.0225 8.81393 64.0432 7.87378 62.9071 7.87378C61.7711 7.87378 60.831 8.81393 60.831 9.94995V11.5169C59.8125 9.24483 57.3054 7.75626 54.4066 7.75626ZM55.0725 25.0707C52.2129 25.0707 49.0007 22.8379 49.0007 18.1763C49.0007 13.5539 52.2129 11.321 55.0725 11.321C57.7363 11.321 61.0268 13.2797 61.0268 18.1763C61.0268 23.0337 57.7363 25.0707 55.0725 25.0707Z" fill="white"/>
<path d="M80.3875 7.79543C76.5485 7.79543 74.0806 11.2035 73.8848 12.5745V9.98912C73.8848 8.81393 72.9446 7.87378 71.8086 7.87378C70.6726 7.87378 69.7324 8.81393 69.7324 9.98912V26.481C69.7324 27.617 70.6726 28.5571 71.8086 28.5571C72.9446 28.5571 73.8848 27.617 73.8848 26.481V16.4135C74.159 14.3373 76.3918 11.6736 79.8391 11.6736C81.6019 11.6736 82.5028 10.8901 82.5028 9.71491C82.5028 8.65724 81.7585 7.79543 80.3875 7.79543Z" fill="white"/>
<path d="M96.6841 7.79543C92.8451 7.79543 90.3772 11.2035 90.1814 12.5745V9.98912C90.1814 8.81393 89.2412 7.87378 88.1052 7.87378C86.9692 7.87378 86.029 8.81393 86.029 9.98912V26.481C86.029 27.617 86.9692 28.5571 88.1052 28.5571C89.2412 28.5571 90.1814 27.617 90.1814 26.481V16.4135C90.4556 14.3373 92.6884 11.6736 96.1357 11.6736C97.8984 11.6736 98.7994 10.8901 98.7994 9.71491C98.7994 8.65724 98.0551 7.79543 96.6841 7.79543Z" fill="white"/>
<path d="M109.914 7.75626C105.605 7.75626 100.356 11.2035 100.356 18.1763C100.356 25.2666 105.566 28.6355 109.914 28.6355C113.636 28.6355 116.065 26.1676 116.339 24.4048V26.5201C116.339 27.6561 117.279 28.5963 118.415 28.5963C119.551 28.5963 120.53 27.6561 120.53 26.5201V9.94995C120.53 8.81393 119.551 7.87378 118.415 7.87378C117.279 7.87378 116.339 8.81393 116.339 9.94995V11.5169C115.32 9.24483 112.813 7.75626 109.914 7.75626ZM110.58 25.0707C107.721 25.0707 104.509 22.8379 104.509 18.1763C104.509 13.5539 107.721 11.321 110.58 11.321C113.244 11.321 116.535 13.2797 116.535 18.1763C116.535 23.0337 113.244 25.0707 110.58 25.0707Z" fill="white"/>
<path d="M141.31 7.87378C140.527 7.87378 139.783 8.30468 139.352 9.28401L133.437 22.9554L127.561 9.28401C127.13 8.30468 126.385 7.87378 125.602 7.87378C124.505 7.87378 123.683 8.73558 123.683 9.75408C123.683 10.1458 123.8 10.42 123.918 10.6942L131.4 27.5778L128.971 33.1795C128.853 33.4538 128.736 33.728 128.736 34.1197C128.736 35.1382 129.48 36 130.577 36C131.36 36 132.105 35.5691 132.536 34.5898L142.995 10.6942C143.112 10.42 143.23 10.1458 143.23 9.75408C143.23 8.73558 142.407 7.87378 141.31 7.87378Z" fill="white"/>
<path d="M155.358 24.7965C154.927 24.8357 154.339 24.9924 153.83 24.9924C152.929 24.9924 152.459 24.444 152.459 23.2688V11.321H155.318C156.337 11.321 157.042 10.6551 157.042 9.63656C157.042 8.65724 156.337 7.9913 155.318 7.9913H152.459V4.9358C152.459 3.83896 151.519 2.8988 150.383 2.8988C149.286 2.8988 148.346 3.83896 148.346 4.9358V7.9913H146.857C145.839 7.9913 145.173 8.65724 145.173 9.63656C145.173 10.6551 145.839 11.321 146.857 11.321H148.346V23.2296C148.346 27.7345 150.657 28.5571 153.007 28.5571C155.201 28.5571 157.042 27.852 157.042 26.2459C157.042 25.2666 156.337 24.6398 155.358 24.7965Z" fill="white"/>
<path d="M162.665 4.15234C163.801 4.15234 164.78 3.21219 164.78 2.07617C164.78 0.940153 163.801 0 162.665 0C161.529 0 160.55 0.940153 160.55 2.07617C160.55 3.21219 161.529 4.15234 162.665 4.15234ZM162.665 7.87378C161.529 7.87378 160.589 8.81393 160.589 9.98912V26.481C160.589 27.6561 161.529 28.5963 162.665 28.5963C163.801 28.5963 164.741 27.6561 164.741 26.481V9.98912C164.741 8.81393 163.801 7.87378 162.665 7.87378Z" fill="white"/>
<path d="M184.975 22.407C184.192 22.407 183.604 22.8379 183.291 23.1513C182.233 24.4048 180.588 24.9532 179.139 24.9532C175.848 24.9532 172.793 22.6028 172.793 18.1763C172.793 13.7106 175.848 11.3602 179.139 11.3602C180.588 11.3602 182.233 11.9086 183.291 13.1621C183.604 13.4755 184.192 13.9064 184.975 13.9064C185.837 13.9064 186.66 13.2797 186.66 12.3003C186.66 11.3602 185.994 10.8509 185.563 10.42C183.879 8.65724 181.685 7.75626 178.982 7.75626C174.32 7.75626 168.679 11.1643 168.679 18.1763C168.679 25.1491 174.32 28.5571 178.982 28.5571C181.685 28.5571 183.879 27.6562 185.563 25.8934C185.994 25.4625 186.66 24.9532 186.66 24.0131C186.66 23.0337 185.837 22.407 184.975 22.407Z" fill="white"/>
<path d="M196.974 7.75626C193.174 7.75626 189.845 9.8716 189.845 13.5539C189.845 16.2176 191.49 18.2546 195.29 19.3123L197.914 20.0174C199.873 20.5658 200.695 21.4276 200.695 22.6028C200.695 24.1698 199.129 25.1099 196.856 25.1099C195.172 25.1099 193.566 24.5615 192.587 22.9162C192.195 22.3286 191.725 21.7802 190.824 21.7802C189.727 21.7802 189.218 22.642 189.218 23.4646C189.218 24.4048 189.845 25.1883 190.04 25.4625C191.059 27.0686 193.448 28.5571 196.856 28.5571C200.93 28.5571 204.809 26.481 204.809 22.3678C204.809 19.0773 202.302 17.5887 198.972 16.6877L196.543 16.0218C194.467 15.4342 193.919 14.494 193.919 13.5147C193.919 12.1045 195.094 11.1251 197.052 11.1251C198.658 11.1251 199.755 11.7911 200.539 12.7704C201.126 13.5539 201.714 13.8281 202.341 13.8281C203.281 13.8281 204.025 13.2405 204.025 12.2612C204.025 11.5952 203.712 11.1643 203.477 10.8118C202.223 8.89228 199.794 7.75626 196.974 7.75626Z" fill="white"/>
<path d="M210.54 28C211.871 28 213 26.88 213 25.48C213 24.12 211.871 23 210.54 23C209.129 23 208 24.12 208 25.48C208 26.88 209.129 28 210.54 28Z" fill="#43DDB1"/>
<defs>
<linearGradient id="paint0_linear_662_548" x1="28" y1="26" x2="19.4213" y2="8.78998" gradientUnits="userSpaceOnUse">
<stop offset="0.273695" stop-color="#46CBBB"/>
<stop offset="0.808599" stop-color="#4AA2BD"/>
</linearGradient>
<linearGradient id="paint1_linear_662_548" x1="24.5563" y1="0.413586" x2="8.20226" y2="30.3385" gradientUnits="userSpaceOnUse">
<stop offset="0.1667" stop-color="#43DDB1"/>
<stop offset="0.4529" stop-color="#46CBBB"/>
<stop offset="0.838542" stop-color="#4AA2BD"/>
</linearGradient>
</defs>
</svg>
