<svg width="435" height="75" viewBox="0 0 435 75" fill="none" xmlns="http://www.w3.org/2000/svg">
<g clip-path="url(#clip0_466_13019)">
<path d="M15 15H0V0H15V15ZM15 30H0V15H15V30ZM15 45H0V30H15V45ZM15 60H0V45H15V60ZM15 75H0V60H15V75ZM30 15H15V0H30V15ZM30 45H15V30H30V45ZM45 15H30V0H45V15ZM45 30H30V15H45V30ZM45 45H30V30H45V45ZM45 60H30V45H45V60ZM45 75H30V60H45V75Z" fill="white"/>
<path d="M75 15H60V0H75V15ZM75 30H60V15H75V30ZM75 45H60V30H75V45ZM75 75H60V60H75V75ZM90 15H75V0H90V15ZM90 45H75V30H90V45ZM90 75H75V60H90V75ZM105 15H90V0H105V15ZM105 45H90V30H105V45ZM105 60H90V45H105V60ZM105 75H90V60H105V75Z" fill="white"/>
<path d="M135 15.6H120V0H135V15.6ZM150 15.6H135V0H150V15.6ZM150 30.45H135V15.6H150V30.45ZM150 45.3H135V30H150V45.3ZM150 60.15H135V45.3H150V60.15ZM150 75H135V60.15H150V75ZM165 15.6H150V0H165V15.6Z" fill="white"/>
<path d="M195 15H180V0H195V15ZM195 30H180V15H195V30ZM195 45H180V30H195V45ZM195 60H180V45H195V60ZM195 75H180V60H195V75ZM210 45H195V30H210V45ZM225 15H210V0H225V15ZM225 30H210V15H225V30ZM225 45H210V30H225V45ZM225 60H210V45H225V60ZM225 75H210V60H225V75Z" fill="white"/>
<path d="M255 15H240V0H255V15ZM255 30H240V15H255V30ZM255 45H240V30H255V45ZM255 60H240V45H255V60ZM255 75H240V60H255V75ZM270 15H255V0H270V15ZM270 45H255V30H270V45ZM285 15H270V0H285V15ZM285 30H270V15H285V30ZM285 45H270V30H285V45ZM285 60H270V45H285V60ZM285 75H270V60H285V75Z" fill="white"/>
<path d="M345 15H330V0H345V15ZM345 75H330V60H345V75ZM360 15H345V0H360V15ZM360 30H345V15H360V30ZM360 45H345V30H360V45ZM360 60H345V45H360V60ZM360 75H345V60H360V75ZM375 15H360V0H375V15ZM375 75H360V60H375V75Z" fill="#A7A9AC"/>
<path d="M404.99 15.6H389.99V0H404.99V15.6ZM419.99 15.6H404.99V0H419.99V15.6ZM419.99 30.45H404.99V15.6H419.99V30.45ZM419.99 45.3H404.99V30H419.99V45.3ZM419.99 60.15H404.99V45.3H419.99V60.15ZM419.99 75H404.99V60.15H419.99V75ZM434.99 15.6H419.99V0H434.99V15.6Z" fill="#A7A9AC"/>
</g>
<defs>
<clipPath id="clip0_466_13019">
<rect width="434.99" height="75" fill="white"/>
</clipPath>
</defs>
</svg>
