<svg xmlns="http://www.w3.org/2000/svg" viewBox="0 0 1109.18 239.85">
  <defs>
    <style>
      .cls-1 {
        fill: #2491eb;
      }

      .cls-2 {
        fill: #fff;
      }

      .cls-3 {
        fill: #025fae;
      }
    </style>
  </defs>
  <title>Asset 1</title>
  <g id="Layer_2" data-name="Layer 2">
    <g id="Layer_1-2" data-name="Layer 1">
      <g>
        <path class="cls-1" d="M89.09,177.9v-132h24.49V93q11.6-11.23,29.83-11.23,19.51,0,31.85,13.25t12.34,34.25q0,21-12.34,34.25t-31.85,13.26c-13.38,0-24.93-3.31-32.54-12Zm49.35-22.48q10.86,0,17.86-7.37t7-18.78q0-11.42-7-18.78t-17.86-7.37q-11.06,0-18,7.37t-7,18.78q0,11.41,7,18.78T138.44,155.42Z"/>
        <path class="cls-2" d="M471.13,163.7q-11.42,13.08-31.49,13.08-19.51,0-31.85-13.26t-12.34-34.25q0-21,12.34-34.25t31.85-13.25q18.24,0,29.83,11.23V45.86H494V174.75Zm-26.51-8.28q11,0,18-7.37t7-18.78q0-11.42-7-18.78t-18-7.37q-10.87,0-17.86,7.37t-7,18.78q0,11.41,7,18.78T444.62,155.42Z"/>
        <path class="cls-2" d="M278.76,174.75V45.86h24.49V93q11.6-11.23,29.83-11.23,19.51,0,31.85,13.25t12.34,34.25q0,21-12.34,34.25t-31.85,13.26q-20.07,0-31.49-13.08ZM346,148.05q7-7.37,7-18.78t-7-18.78q-7-7.36-17.86-7.37-11.06,0-18.05,7.37t-7,18.78q0,11.41,7,18.78t18.05,7.37Q339,155.42,346,148.05Z"/>
        <path class="cls-1" d="M578.33,177.51q-30.57,0-49.53-18.69t-19-48.51q0-29.84,19.05-48.52T578,43.1q28.72,0,48.43,20.07L610,78.82q-12.71-12.7-31.3-12.7-19.16,0-31.12,12.24t-12,32q0,19.69,12,31.94T578.7,154.5q19.69,0,33.51-13.45L627.68,158Q608,177.52,578.33,177.51Z"/>
        <path class="cls-2" d="M710.19,163.7q-11.61,13.08-31.49,13.08-19.51,0-31.85-13.26t-12.34-34.25q0-21,12.34-34.25T678.7,81.77q20.07,0,31.49,12.89l1.65-10.87H733v91Zm-26.52-8.28q11.05,0,18.05-7.37t7-18.78q0-11.42-7-18.78t-18.05-7.37q-10.86,0-17.86,7.37t-7,18.78q0,11.41,7,18.78T683.67,155.42Z"/>
        <path class="cls-2" d="M756.58,174.75V45.86h24.49V174.75Z"/>
        <path class="cls-2" d="M804.64,174.75V45.86h24.49V174.75Z"/>
        <path class="cls-2" d="M875.8,68.42a15.37,15.37,0,0,1-10.77,4,15,15,0,0,1-10.68-4,13.14,13.14,0,0,1-4.24-10,13.63,13.63,0,0,1,4.24-10.31A14.82,14.82,0,0,1,865,44a15.17,15.17,0,0,1,10.77,4,13.53,13.53,0,0,1,4.33,10.31A13,13,0,0,1,875.8,68.42ZM852.69,174.75v-91h24.49v91Z"/>
        <path class="cls-2" d="M953.41,82q17.49,0,27.8,11.32t10.31,30.66v50.82H967V125.4q0-10.49-5.25-16.29t-14.45-5.8q-9.95,0-16,6.63t-6.07,17.12v47.69H900.75v-91h21.17l1.66,10.5Q934.8,81.95,953.41,82Z"/>
        <path class="cls-2" d="M1106.78,127.43q0,23-20.8,33.88,20.8,8.66,20.8,28.91,0,17.29-13.35,27.61t-35.81,10.32q-23,0-36.36-11.6t-12.06-30.2H1033q-.37,9.57,6.26,15.1t18.41,5.52q10.86,0,17.58-4.79t6.73-12.52a14,14,0,0,0-6.26-12.24q-6.27-4.32-17.68-4.33-22.83,0-36.27-12.43t-13.44-33.23q0-20.07,13.8-33t35.36-12.89q13.07,0,22.83,5.34l11.23-13.81,17.68,13.26-12.34,14.55A39.57,39.57,0,0,1,1106.78,127.43ZM1039.49,145q6.9,6.74,18.13,6.72t18.14-6.72q6.9-6.72,6.9-17.58,0-11.06-6.9-17.77t-18.14-6.72q-11.23,0-18.13,6.72t-6.91,17.77Q1032.58,138.29,1039.49,145Z"/>
        <g>
          <path class="cls-2" d="M281.86,220.08V192.84h3.78v23.7h14.7v3.54Z"/>
          <path class="cls-2" d="M319.8,200.47q5,0,7.59,3.05c1.73,2,2.47,4.83,2.21,8.39H313.69a5.56,5.56,0,0,0,2,3.91,7.05,7.05,0,0,0,4.53,1.42,9.41,9.41,0,0,0,3.37-.62A5.94,5.94,0,0,0,326.1,215l2.34,2.22a9.21,9.21,0,0,1-3.56,2.49,12.27,12.27,0,0,1-4.69.89,10.11,10.11,0,0,1-7.43-2.76,11,11,0,0,1-.08-14.57A9.53,9.53,0,0,1,319.8,200.47Zm.11,3.23a6.3,6.3,0,0,0-4.14,1.34,6.06,6.06,0,0,0-2,3.79h12.45a5.36,5.36,0,0,0-1.91-3.73A6.52,6.52,0,0,0,319.91,203.7Z"/>
          <path class="cls-2" d="M357.27,200.86h3.19v19.22h-3.19l0-2.84c-1.64,2.18-4.07,3.27-7.32,3.27a9.19,9.19,0,0,1-6.92-2.8,11.09,11.09,0,0,1,0-14.48,9.16,9.16,0,0,1,6.92-2.8c3.25,0,5.68,1.09,7.32,3.27Zm-11.54,14.43a6.72,6.72,0,0,0,9.3,0,7.34,7.34,0,0,0,0-9.65,6.74,6.74,0,0,0-9.3,0,7.34,7.34,0,0,0,0,9.65Z"/>
          <path class="cls-2" d="M383.18,200.51a7.14,7.14,0,0,1,4.71,1.51l-1.64,3a5.9,5.9,0,0,0-3.26-1,4.9,4.9,0,0,0-4,1.81,7.2,7.2,0,0,0-1.5,4.76v9.46h-3.62V200.86h3.23l0,3.23A6.84,6.84,0,0,1,383.18,200.51Z"/>
          <path class="cls-2" d="M408.63,200.51a7.81,7.81,0,0,1,6,2.41,9.15,9.15,0,0,1,2.26,6.5v10.66h-3.62V209.65a6.18,6.18,0,0,0-1.37-4.28,4.84,4.84,0,0,0-3.81-1.52,5.76,5.76,0,0,0-4.28,1.7,5.86,5.86,0,0,0-1.67,4.3v10.23h-3.62V200.86h3.23l0,2.68A8.38,8.38,0,0,1,408.63,200.51Z"/>
          <path class="cls-2" d="M430.22,216.48a2.29,2.29,0,0,1,1.67-.64,2.19,2.19,0,0,1,2.3,2.29,7.45,7.45,0,0,1-.39,2.18c-.26.83-.8,2.26-1.63,4.28H430l1.13-4.43a1.91,1.91,0,0,1-1.52-2A2.21,2.21,0,0,1,430.22,216.48Z"/>
          <path class="cls-2" d="M469.17,216.54h16.18v3.54h-20V192.84h19.73v3.5H469.17v8.21h15.25V208H469.17Z"/>
          <path class="cls-2" d="M513.41,200.86h3.19v19.22h-3.19l0-2.84c-1.64,2.18-4.07,3.27-7.32,3.27a9.19,9.19,0,0,1-6.92-2.8,11.09,11.09,0,0,1,0-14.48,9.16,9.16,0,0,1,6.92-2.8c3.25,0,5.68,1.09,7.32,3.27Zm-11.54,14.43a6.72,6.72,0,0,0,9.3,0,7.34,7.34,0,0,0,0-9.65,6.74,6.74,0,0,0-9.3,0,7.34,7.34,0,0,0,0,9.65Z"/>
          <path class="cls-2" d="M539.32,200.51A7.14,7.14,0,0,1,544,202l-1.64,3a5.9,5.9,0,0,0-3.27-1,4.88,4.88,0,0,0-4,1.81,7.2,7.2,0,0,0-1.5,4.76v9.46H530V200.86h3.23l0,3.23A6.84,6.84,0,0,1,539.32,200.51Z"/>
          <path class="cls-2" d="M564.77,200.51a7.81,7.81,0,0,1,6,2.41,9.14,9.14,0,0,1,2.25,6.5v10.66H569.4V209.65a6.18,6.18,0,0,0-1.37-4.28,4.85,4.85,0,0,0-3.81-1.52,5.76,5.76,0,0,0-4.28,1.7,5.86,5.86,0,0,0-1.67,4.3v10.23h-3.62V200.86h3.23l0,2.68A8.38,8.38,0,0,1,564.77,200.51Z"/>
          <path class="cls-2" d="M626.55,217.94l-2.45,2.45L620.6,217a12.24,12.24,0,0,1-8.79,3.57,10.06,10.06,0,0,1-6.35-1.9,6,6,0,0,1-2.45-4.9q0-5,5.88-8.21-3-3.32-3-6.46a6,6,0,0,1,2.24-4.81,8.52,8.52,0,0,1,5.7-1.89,7.08,7.08,0,0,1,5,1.76,5.82,5.82,0,0,1,1.93,4.51q0,4.28-6.07,7.51l5.87,5.8a13.78,13.78,0,0,0,1.95-5.61l3.27.63a16.75,16.75,0,0,1-2.77,7.39Zm-14.71-.78a9.47,9.47,0,0,0,6.39-2.49l-7.12-6.93a9.54,9.54,0,0,0-3.21,2.59,5,5,0,0,0-1.15,3.1,3.18,3.18,0,0,0,1.44,2.7A6.1,6.1,0,0,0,611.84,217.16Zm1.76-21.44a4.49,4.49,0,0,0-3,1,3.16,3.16,0,0,0-1.15,2.53,3.94,3.94,0,0,0,.57,2.05,15.81,15.81,0,0,0,2.31,2.7A14.51,14.51,0,0,0,616,201.4a3.83,3.83,0,0,0,1.07-2.64,2.8,2.8,0,0,0-.95-2.2A3.68,3.68,0,0,0,613.6,195.72Z"/>
          <path class="cls-2" d="M667.45,204.94H679v11.21a14.78,14.78,0,0,1-10.86,4.47A13.62,13.62,0,0,1,658,216.73a14,14,0,0,1-3.85-10.27,13.75,13.75,0,0,1,4-10.21,13.9,13.9,0,0,1,10.27-3.95,13.55,13.55,0,0,1,10,4.16L676,199a11,11,0,0,0-15.11-.18,10.44,10.44,0,0,0-2.9,7.65,10.61,10.61,0,0,0,2.78,7.7,9.84,9.84,0,0,0,7.41,2.88,11.27,11.27,0,0,0,7.32-2.49v-6.18h-8Z"/>
          <path class="cls-2" d="M700.91,200.51a7.11,7.11,0,0,1,4.7,1.51l-1.63,3a6,6,0,0,0-3.27-1,4.91,4.91,0,0,0-4,1.81,7.2,7.2,0,0,0-1.49,4.76v9.46h-3.62V200.86h3.23l0,3.23A6.84,6.84,0,0,1,700.91,200.51Z"/>
          <path class="cls-2" d="M724.49,220.51a9.66,9.66,0,1,1,7.31-2.84A9.89,9.89,0,0,1,724.49,220.51Zm0-3.35a6.09,6.09,0,0,0,4.68-1.95,7.12,7.12,0,0,0,0-9.49,6.68,6.68,0,0,0-9.41,0,7.12,7.12,0,0,0,0,9.49A6.14,6.14,0,0,0,724.49,217.16Z"/>
          <path class="cls-2" d="M770.67,200.86h3.81l-6.42,19.22h-4l-1.86-5.6-3-8.45-3,8.45-1.91,5.6h-4l-6.46-19.22h3.86l2.33,7.39,2.3,7.67,5.25-15.06h3.23L766,216Z"/>
          <path class="cls-2" d="M836.11,192.84h4l-9.18,27.24h-4.32l-3.31-10.23-3.61-11-3.62,11-3.35,10.23h-4.2l-9.3-27.24h4l4.43,13.81,2.92,8.84,7.24-22.65h3.69l7.28,22.61,2.88-8.8Z"/>
          <path class="cls-2" d="M852.81,197.55a2.41,2.41,0,0,1-1.75-.68,2.25,2.25,0,0,1-.7-1.69,2.29,2.29,0,0,1,.7-1.73,2.59,2.59,0,0,1,3.52,0,2.35,2.35,0,0,1,.68,1.73,2.31,2.31,0,0,1-.68,1.69A2.43,2.43,0,0,1,852.81,197.55ZM851,220.08V200.86h3.62v19.22Z"/>
          <path class="cls-2" d="M879.26,216.46l1.06,3a10.16,10.16,0,0,1-4.09.89q-6.08,0-6.07-6.65V204h-3.77v-3.15h3.77v-5.18l3.58-.39v5.57h5.84V204h-5.84v9.69q0,3.38,2.92,3.38A6.7,6.7,0,0,0,879.26,216.46Z"/>
          <path class="cls-2" d="M901.64,200.51a7.8,7.8,0,0,1,6,2.41,9.18,9.18,0,0,1,2.24,6.5v10.66h-3.62V209.65a6.23,6.23,0,0,0-1.36-4.28,4.88,4.88,0,0,0-3.82-1.52,5.76,5.76,0,0,0-4.28,1.7,5.86,5.86,0,0,0-1.67,4.3v10.23h-3.62V192.84h3.62v10.51A8.07,8.07,0,0,1,901.64,200.51Z"/>
          <path class="cls-2" d="M960.62,217.47a12.44,12.44,0,0,1-16.55,0A11.49,11.49,0,0,1,941,209V192.84h3.74V209a8.24,8.24,0,0,0,2.08,5.88,8.07,8.07,0,0,0,11.09,0A8.18,8.18,0,0,0,960,209V192.84h3.77V209A11.46,11.46,0,0,1,960.62,217.47Z"/>
          <path class="cls-2" d="M984.08,220.51a13.6,13.6,0,0,1-8.63-3l1.82-2.69a10,10,0,0,0,6.89,2.38,6.56,6.56,0,0,0,3.27-.7,2.15,2.15,0,0,0,1.21-1.91,2,2,0,0,0-1.11-1.79,11,11,0,0,0-3.72-.93q-7.74-.94-7.74-5.76a4.82,4.82,0,0,1,2.26-4.14,10.1,10.1,0,0,1,5.91-1.58,12.78,12.78,0,0,1,7.55,2.29l-1.68,2.65a9.66,9.66,0,0,0-5.71-1.79c-3.2,0-4.79.84-4.79,2.53a1.86,1.86,0,0,0,1,1.69,10,10,0,0,0,3.48.92q4.32.54,6.21,1.94a4.7,4.7,0,0,1,1.89,4,5,5,0,0,1-2.24,4.22A9.84,9.84,0,0,1,984.08,220.51Z"/>
        </g>
        <g>
          <path class="cls-3" d="M235.1,172.52c-.88,19.63-7.41,37.31-23.55,50.73-19,15.83-42.18,19.17-67.14,14.9-28.69-4.91-53.15-17.9-74.55-35.5-32.45-26.68-55.29-59-65.49-97.8-6.18-23.53-6.86-47,4.94-69.2C22.16,11.52,44.23,0,73.67,0,80.83,0,88,1.23,95.18,2.33c-4.33,1.8-9,.89-13.4,1.36C53.2,6.75,32.36,23.8,25.94,49.37,22.47,63.2,22.52,77,25.17,91.06,35.57,146.18,86.36,202.18,144,217.11c24.76,6.42,48.51,5.49,69.06-10.1C224.86,198,231.08,185.92,235.1,172.52Z"/>
          <path class="cls-1" d="M35.42,63.11c-.35-25.62,19-55.7,57.83-56.63,12.15-.29,23.75,2.16,35.54,5.87,36,11.31,60.75,34.26,80.73,62.19,13.09,18.3,21.71,38.49,24.12,60.3,1.44,13,1.21,25.92-3.95,38.34-9.8,23.61-30.4,37.43-60.49,36.58-5.21-.15-10.42-.92-15.81-1.42,1.3-1.87,3.05-1.6,4.83-1.58,16.45.17,31-4.9,41.71-15.7,8.73-8.79,13-20.17,14.37-32.35,2.37-21-2.89-40.75-12.9-59.56C186.27,70.74,164,48.07,133.15,33,119.47,26.38,105,22.18,89.23,22.49c-26.46.53-45.55,14.31-52.74,38C36.23,61.41,36.5,62.5,35.42,63.11Z"/>
        </g>
        <path class="cls-2" d="M455.07,121.11h0a7.68,7.68,0,0,1,0-.83Z"/>
        <path class="cls-2" d="M455.07,120.27v.84h0A7.68,7.68,0,0,1,455.07,120.27Z"/>
        <path class="cls-2" d="M455.07,120.27v.84h0A7.68,7.68,0,0,1,455.07,120.27Z"/>
        <path class="cls-2" d="M455.07,120.27v.84h0A7.68,7.68,0,0,1,455.07,120.27Z"/>
      </g>
    </g>
  </g>
</svg>
