<svg xmlns="http://www.w3.org/2000/svg" xmlns:xlink="http://www.w3.org/1999/xlink" viewBox="0 0 611.24 78.05">
  <defs>
    <style>
      .cls-1 {
        fill: url(#linear-gradient);
      }

      .cls-2 {
        fill: url(#linear-gradient-2);
      }

      .cls-3 {
        fill: #fff;
      }

      .cls-4 {
        fill: url(#linear-gradient-3);
      }

      .cls-5 {
        fill: url(#linear-gradient-4);
      }

      .cls-6 {
        fill: url(#linear-gradient-5);
      }
    </style>
    <linearGradient id="linear-gradient" x1="-1382.76" y1="-43.96" x2="-1382.21" y2="-43.96" gradientTransform="matrix(14.24, -13.97, -13.97, -14.24, 19155.09, -19879.99)" gradientUnits="userSpaceOnUse">
      <stop offset="0" stop-color="#91b3f6"/>
      <stop offset="1" stop-color="#fefcfd"/>
    </linearGradient>
    <linearGradient id="linear-gradient-2" x1="37.92" y1="65.77" x2="8.9" y2="46.88" gradientUnits="userSpaceOnUse">
      <stop offset="0" stop-color="#fefcfd"/>
      <stop offset="1" stop-color="#91b3f6"/>
    </linearGradient>
    <linearGradient id="linear-gradient-3" x1="29.4" y1="6.02" x2="60.64" y2="6.02" xlink:href="#linear-gradient-2"/>
    <linearGradient id="linear-gradient-4" x1="97.22" y1="9.07" x2="103.38" y2="9.07" xlink:href="#linear-gradient-2"/>
    <linearGradient id="linear-gradient-5" x1="-1430.19" y1="-0.22" x2="-1429.64" y2="-0.22" gradientTransform="matrix(191.64, 0, 0, -191.64, 274075.44, 9.43)" xlink:href="#linear-gradient-2"/>
  </defs>
  <title>Asset 3</title>
  <g id="Layer_2" data-name="Layer 2">
    <g id="Layer_3" data-name="Layer 3">
      <g>
        <path class="cls-1" d="M73.77,65.44l.19.21a12.31,12.31,0,0,0,1.48,1.78q.38.36.72.66a42.12,42.12,0,0,0,9.38-11L73.37,62.89"/>
        <path class="cls-2" d="M10.76,49.54A28.89,28.89,0,0,0,18.51,62c9.75,9,25.92,10.35,41.32,3.76,2.41-.65,3.65-.86,3.74-.62q.27.7-12.91,6.6L22.34,73l-12-15.39.39-2Z"/>
        <path class="cls-3" d="M55.59,43.27s9.33-3.77,9.1-13.64c0,0,1.45-12.2-11.11-16.21a28.32,28.32,0,0,0-6-1.32c-2-.18-4.11-.08-6.14-.08H11.31a.55.55,0,0,0-.55.55V77.05a.55.55,0,0,0,.55.55H46.78C54.08,77.6,63.2,74,66.25,66A19.11,19.11,0,0,0,67,55.15C66.66,53.55,65.88,47.08,55.59,43.27ZM44.25,62.89H26.14a.55.55,0,0,1-.55-.55V27.28a.55.55,0,0,1,.55-.55h6.22c3.28,0,6.56.06,9.83,0,3.64-.08,6.69,2.32,6.29,6.59C48.16,36.72,45,38,42.35,38.16c-.51,0-7.2,0-8.91,0a.57.57,0,0,0-.53.39L29.24,50.13a.55.55,0,0,0,.52.72h15s5.77.12,6.21,5.08C50.94,55.93,52.13,62.52,44.25,62.89Z"/>
        <path class="cls-3" d="M99.38,50.86h9V62.34a.55.55,0,0,1-.55.55H97.38a15.53,15.53,0,0,1-11.12-5q-.37-.37-.72-.78a19.52,19.52,0,0,1-2-2.75q-.3-.48-.57-1a20.18,20.18,0,0,1-2.25-12.27c.11-.7.25-1.4.42-2.08a20.1,20.1,0,0,1,2.35-5.54c2.45-3.95,6.25-6.83,10.78-6.81l8.22.05h6.25v0c5,0,0,0,2.66,0h2.87c2,0,3.29,0,3.87,0a.57.57,0,0,0,.53-.39l4.42-13.94a.28.28,0,0,0-.26-.36c-1.59,0-7.74,0-7.74,0H95.18a26.58,26.58,0,0,0-21.6,11.25c-.23.31-.45.63-.67,1a34.68,34.68,0,0,0-5.54,13.1,37.41,37.41,0,0,0,.55,16.79,30.41,30.41,0,0,0,2.92,7c.27.49.55.95.82,1.37.76,1.19,1.48,2.14,2,2.87l.07.1c.3.39.62.76,1,1.13a29.21,29.21,0,0,0,6.07,5.14,36.58,36.58,0,0,0,20.14,5.84h7.45v0h14.27a.55.55,0,0,0,.55-.55V38.72a.55.55,0,0,0-.55-.55H103.23a.28.28,0,0,0-.26.2L99.12,50.5A.27.27,0,0,0,99.38,50.86Z"/>
        <g>
          <path class="cls-4" d="M33,12H29.4l.39-.23A93.05,93.05,0,0,1,44.41,4.68,92.09,92.09,0,0,1,60.64,0,16.9,16.9,0,0,1,59,.51,80.34,80.34,0,0,0,46.64,4.68a93.53,93.53,0,0,0-12.1,6.4Z"/>
          <path class="cls-5" d="M103.15,11.8a12.26,12.26,0,0,0-1.87-2.5,21.83,21.83,0,0,0-2.19-2.11,20.84,20.84,0,0,0-1.87-1.37,10.39,10.39,0,0,1,1,.76,18.82,18.82,0,0,1,1.61,1.48,19,19,0,0,1,1.89,2.22,8.22,8.22,0,0,1,.67,1.08,7.43,7.43,0,0,1,.42,1h.58C103.31,12.16,103.24,12,103.15,11.8Z"/>
          <path class="cls-6" d="M105.43,26.69a51.55,51.55,0,0,1-4.55,12.18A55.94,55.94,0,0,1,97,45.09a69.94,69.94,0,0,1-8.83,9.7c-.22.2-.44.4-.67.59q-1,.87-2,1.68c-1.79,1.49-3.59,2.85-5.31,4.15-1,.75-2.12,1.53-3.35,2.33l-.89.57c-.71.44-1.45.89-2.22,1.33-1.59.93-3.29,1.86-5,2.76S65.17,70,63.35,70.73a80.15,80.15,0,0,1-25.27,6.58c-2.08.18-4.22.29-6.39.29A44.2,44.2,0,0,1,16.2,75.13a28.26,28.26,0,0,1-5.44-2.73c-.41-.28-.82-.55-1.22-.85-3.77-2.79-7.31-7-8.62-11.65-2.73-9.64.93-20.63,6.57-28.57A20.81,20.81,0,0,1,9,29.46c.26-.28,1.69-1.71,1.69-1.71V42.27c-.87,3.87-1.38,8.72,0,13.08,0,.08.05.16.08.24a14.14,14.14,0,0,0,2.92,5.07,24.54,24.54,0,0,0,8.7,6.4,38.16,38.16,0,0,0,11.69,2.39,54.93,54.93,0,0,0,17.16-1,85.27,85.27,0,0,0,15.13-5.19l.72-.31,0,0c1.24-.57,2.49-1.16,3.71-1.78.7-.36,1.4-.72,2.09-1.09l1.41-.8A75.07,75.07,0,0,0,83,53.32c.6-.47,1.22-1,1.83-1.47l1-.86a89.17,89.17,0,0,0,7.67-7.43,46.45,46.45,0,0,0,5-6.56,41.23,41.23,0,0,0,3.09-5.84,34.16,34.16,0,0,0,1.58-4.49h2.23Z"/>
        </g>
        <g>
          <path class="cls-3" d="M162.68,72.68a3,3,0,0,1,.57,1.83,3.11,3.11,0,0,1-1,2.41,3.83,3.83,0,0,1-2.7.94h-4.94V66.34h4a3.58,3.58,0,0,1,2.5.86,2.82,2.82,0,0,1,.95,2.21,2.7,2.7,0,0,1-1,2.17A3.08,3.08,0,0,1,162.68,72.68ZM156.39,68v3.1h2.05a1.85,1.85,0,0,0,1.31-.43,1.46,1.46,0,0,0,.47-1.14,1.41,1.41,0,0,0-.47-1.12,1.89,1.89,0,0,0-1.31-.41Zm4.46,7.79a1.87,1.87,0,0,0,0-2.61,2.09,2.09,0,0,0-1.49-.49h-3v3.58h3A2.14,2.14,0,0,0,160.85,75.76Z"/>
          <path class="cls-3" d="M185.63,73.2a4.76,4.76,0,0,1-1.31,3.55,4.62,4.62,0,0,1-3.4,1.3,4.68,4.68,0,0,1-3.43-1.3,4.79,4.79,0,0,1-1.31-3.55V66.34H178v7a3,3,0,0,0,.81,2.25,2.84,2.84,0,0,0,2.08.79,2.79,2.79,0,0,0,2.06-.79,3,3,0,0,0,.8-2.25v-7h1.85Z"/>
          <path class="cls-3" d="M204.93,66.72a4.07,4.07,0,0,1,1.51,1.49l-1.29,1a2.78,2.78,0,0,0-2.42-1.39,2.09,2.09,0,0,0-1.24.36,1.18,1.18,0,0,0-.51,1,1.15,1.15,0,0,0,.37.91,5.94,5.94,0,0,0,1.24.74l1.29.59A6.52,6.52,0,0,1,206,72.83a2.72,2.72,0,0,1,.68,1.89,3,3,0,0,1-1.09,2.42,4.16,4.16,0,0,1-2.77.91,5,5,0,0,1-2.55-.66,4.84,4.84,0,0,1-1.79-1.83l1.3-1a3.66,3.66,0,0,0,3,1.83A2.23,2.23,0,0,0,204.2,76a1.41,1.41,0,0,0,.55-1.17,1.21,1.21,0,0,0-.39-1,5.72,5.72,0,0,0-1.3-.77l-1.27-.59a6.27,6.27,0,0,1-2-1.33,2.58,2.58,0,0,1-.71-1.87A2.79,2.79,0,0,1,200.15,67a3.92,3.92,0,0,1,2.58-.86A4.29,4.29,0,0,1,204.93,66.72Z"/>
          <path class="cls-3" d="M221.8,77.86H220V66.34h1.85Z"/>
          <path class="cls-3" d="M245.12,66.34V78.05h-.63l-7-8v7.78h-1.85V66.15h.64l7,8V66.34Z"/>
          <path class="cls-3" d="M266.54,68h-5.72v3h4.31v1.6h-4.31V76.2h5.93v1.66H259V66.34h7.57Z"/>
          <path class="cls-3" d="M285.5,66.72A4.1,4.1,0,0,1,287,68.21l-1.29,1a2.81,2.81,0,0,0-2.43-1.39,2.06,2.06,0,0,0-1.23.36,1.18,1.18,0,0,0-.51,1,1.11,1.11,0,0,0,.37.91,5.81,5.81,0,0,0,1.23.74l1.3.59a6.35,6.35,0,0,1,2.07,1.39,2.68,2.68,0,0,1,.68,1.89,3,3,0,0,1-1.09,2.42,4.14,4.14,0,0,1-2.76.91,4.94,4.94,0,0,1-2.55-.66,4.79,4.79,0,0,1-1.8-1.83l1.31-1a3.66,3.66,0,0,0,3,1.83,2.26,2.26,0,0,0,1.44-.43,1.43,1.43,0,0,0,.55-1.17,1.21,1.21,0,0,0-.39-1,6,6,0,0,0-1.3-.77l-1.28-.59a6.27,6.27,0,0,1-2-1.33,2.62,2.62,0,0,1-.7-1.87,2.78,2.78,0,0,1,1-2.26,4,4,0,0,1,2.58-.86A4.27,4.27,0,0,1,285.5,66.72Z"/>
          <path class="cls-3" d="M306.11,66.72a4.07,4.07,0,0,1,1.51,1.49l-1.29,1a2.78,2.78,0,0,0-2.42-1.39,2.07,2.07,0,0,0-1.24.36,1.18,1.18,0,0,0-.51,1,1.11,1.11,0,0,0,.37.91,5.94,5.94,0,0,0,1.24.74l1.29.59a6.52,6.52,0,0,1,2.08,1.39,2.72,2.72,0,0,1,.68,1.89,3,3,0,0,1-1.09,2.42,4.16,4.16,0,0,1-2.77.91,5,5,0,0,1-2.55-.66,4.94,4.94,0,0,1-1.8-1.83l1.31-1a3.66,3.66,0,0,0,3,1.83,2.23,2.23,0,0,0,1.44-.43,1.41,1.41,0,0,0,.55-1.17,1.21,1.21,0,0,0-.39-1,5.72,5.72,0,0,0-1.3-.77L303,72.47a6.33,6.33,0,0,1-2-1.33,2.62,2.62,0,0,1-.7-1.87,2.81,2.81,0,0,1,1-2.26,4,4,0,0,1,2.59-.86A4.32,4.32,0,0,1,306.11,66.72Z"/>
          <path class="cls-3" d="M345.3,72.68a3,3,0,0,1,.56,1.83,3.11,3.11,0,0,1-1,2.41,3.81,3.81,0,0,1-2.7.94h-4.94V66.34h4a3.62,3.62,0,0,1,2.51.86,2.85,2.85,0,0,1,.95,2.21,2.7,2.7,0,0,1-1,2.17A3.11,3.11,0,0,1,345.3,72.68ZM339,68v3.1h2a1.82,1.82,0,0,0,1.31-.43,1.46,1.46,0,0,0,.47-1.14,1.41,1.41,0,0,0-.47-1.12,1.86,1.86,0,0,0-1.31-.41Zm4.45,7.79a1.85,1.85,0,0,0,0-2.61,2.09,2.09,0,0,0-1.49-.49h-3v3.58h3A2.14,2.14,0,0,0,343.46,75.76Z"/>
          <path class="cls-3" d="M366.48,68h-5.72v3h4.31v1.6h-4.31V76.2h5.93v1.66h-7.78V66.34h7.57Z"/>
          <path class="cls-3" d="M384.66,73.2v4.66h-1.85V73.22l-4-6.88h2.06l2.84,5,2.87-5h2Z"/>
          <path class="cls-3" d="M410.63,67.87a5.94,5.94,0,0,1,0,8.46,6.2,6.2,0,0,1-8.57,0,6,6,0,0,1,0-8.46,6.2,6.2,0,0,1,8.57,0Zm-7.24,1.18a4.2,4.2,0,0,0-1.17,3,4.28,4.28,0,0,0,1.17,3.07,4.24,4.24,0,0,0,5.93,0,4.25,4.25,0,0,0,1.18-3.07,4.13,4.13,0,0,0-1.19-3,4.21,4.21,0,0,0-5.92,0Z"/>
          <path class="cls-3" d="M435,66.34V78.05h-.63l-7-8v7.78h-1.85V66.15h.65l7,8V66.34Z"/>
          <path class="cls-3" d="M457.06,67.93a5.4,5.4,0,0,1,1.71,4.15,5.46,5.46,0,0,1-1.72,4.17,6.4,6.4,0,0,1-4.55,1.61h-3.61V66.34h3.61A6.43,6.43,0,0,1,457.06,67.93Zm-6.32.09V76.2h1.75a4.38,4.38,0,0,0,3.19-1.15,4,4,0,0,0,1.19-3,3.86,3.86,0,0,0-1.18-3,4.48,4.48,0,0,0-3.2-1.11Z"/>
          <path class="cls-3" d="M496.07,72.68a3,3,0,0,1,.57,1.83,3.11,3.11,0,0,1-1,2.41,3.85,3.85,0,0,1-2.7.94H488V66.34h4a3.6,3.6,0,0,1,2.5.86,2.82,2.82,0,0,1,.95,2.21,2.7,2.7,0,0,1-1,2.17A3.08,3.08,0,0,1,496.07,72.68ZM489.78,68v3.1h2a1.86,1.86,0,0,0,1.32-.43,1.46,1.46,0,0,0,.46-1.14,1.4,1.4,0,0,0-.46-1.12,1.9,1.9,0,0,0-1.32-.41Zm4.46,7.79a1.87,1.87,0,0,0,0-2.61,2.09,2.09,0,0,0-1.49-.49h-3v3.58h3A2.14,2.14,0,0,0,494.24,75.76Z"/>
          <path class="cls-3" d="M519.31,67.87a5.94,5.94,0,0,1,0,8.46,6.2,6.2,0,0,1-8.57,0,6,6,0,0,1,0-8.46,6.2,6.2,0,0,1,8.57,0Zm-7.23,1.18a4.16,4.16,0,0,0-1.17,3,4.24,4.24,0,0,0,1.17,3.07,4.23,4.23,0,0,0,5.92,0,4.21,4.21,0,0,0,1.18-3.07,4.13,4.13,0,0,0-1.19-3,4.2,4.2,0,0,0-5.91,0Z"/>
          <path class="cls-3" d="M541.47,77.86l-3.28-4.45h-2.11v4.45h-1.85V66.34h4.21a4.05,4.05,0,0,1,2.82,1,3.25,3.25,0,0,1,1.09,2.55,3.46,3.46,0,0,1-.59,2,3.32,3.32,0,0,1-1.63,1.25l3.46,4.75Zm-5.39-6.09h2.32a2.1,2.1,0,0,0,1.5-.52,2,2,0,0,0,0-2.74,2.06,2.06,0,0,0-1.5-.53h-2.32Z"/>
          <path class="cls-3" d="M564.35,67.93a5.4,5.4,0,0,1,1.71,4.15,5.5,5.5,0,0,1-1.72,4.17,6.4,6.4,0,0,1-4.55,1.61h-3.61V66.34h3.61A6.43,6.43,0,0,1,564.35,67.93ZM558,68V76.2h1.74a4.39,4.39,0,0,0,3.2-1.15,4,4,0,0,0,1.18-3,3.86,3.86,0,0,0-1.17-3A4.51,4.51,0,0,0,559.77,68Z"/>
          <path class="cls-3" d="M586.76,68H581v3h4.31v1.6H581V76.2H587v1.66h-7.78V66.34h7.57Z"/>
          <path class="cls-3" d="M609.13,77.86l-3.28-4.45h-2.11v4.45h-1.85V66.34h4.21a4.05,4.05,0,0,1,2.82,1A3.27,3.27,0,0,1,610,69.87a3.45,3.45,0,0,1-.58,2,3.32,3.32,0,0,1-1.63,1.25l3.45,4.75Zm-5.39-6.09h2.32a2.1,2.1,0,0,0,1.5-.52,2,2,0,0,0,0-2.74,2.06,2.06,0,0,0-1.5-.53h-2.32Z"/>
        </g>
        <g>
          <path class="cls-3" d="M179,39a8.46,8.46,0,0,1,1.54,5.11,9.05,9.05,0,0,1-3.06,7.09,11.45,11.45,0,0,1-7.92,2.73H154.64V20.5h11.84a11.12,11.12,0,0,1,7.61,2.6,8.54,8.54,0,0,1,3,6.71,8,8,0,0,1-2.48,6A9,9,0,0,1,179,39ZM161.22,26.37V34h4.7a4.61,4.61,0,0,0,3.21-1,3.61,3.61,0,0,0,1.14-2.81,3.52,3.52,0,0,0-1.14-2.78,4.65,4.65,0,0,0-3.21-1ZM172.5,46.91a4.38,4.38,0,0,0,0-6.15A5,5,0,0,0,169,39.62h-7.79V48H169A5.13,5.13,0,0,0,172.5,46.91Z"/>
          <path class="cls-3" d="M208.43,42.86A11.11,11.11,0,0,1,196.94,54.5a11.43,11.43,0,0,1-8.32-3.19,11.27,11.27,0,0,1-3.27-8.45v-14h6.83V43.42a4.56,4.56,0,0,0,4.76,4.8,4.51,4.51,0,0,0,3.31-1.31,4.66,4.66,0,0,0,1.35-3.49V28.85h6.83Z"/>
          <path class="cls-3" d="M232.46,32,229,36.23a8,8,0,0,0-5.61-2.38c-1.79,0-2.69.59-2.69,1.78a1.47,1.47,0,0,0,.59,1.18,7.71,7.71,0,0,0,2.05,1l2.42,1A16.12,16.12,0,0,1,231.12,42a6,6,0,0,1,1.7,4.47,7,7,0,0,1-2.76,5.87,11.13,11.13,0,0,1-7,2.13,12.27,12.27,0,0,1-10.37-4.86l3.44-4.15a9.74,9.74,0,0,0,7,3.39,4.52,4.52,0,0,0,2.28-.53,1.68,1.68,0,0,0,.91-1.54,1.43,1.43,0,0,0-.58-1.24,10.53,10.53,0,0,0-2-1l-2.68-1.11a15.56,15.56,0,0,1-5.14-3.14,6.14,6.14,0,0,1-1.69-4.5,6.64,6.64,0,0,1,2.55-5.54,10.46,10.46,0,0,1,6.66-2A11.47,11.47,0,0,1,232.46,32Z"/>
          <path class="cls-3" d="M244.48,16.7a4,4,0,0,1,1.29,3,3.93,3.93,0,0,1-1.29,3,4.37,4.37,0,0,1-3.11,1.22,4.28,4.28,0,0,1-3.08-1.22,4,4,0,0,1-1.27-3,4,4,0,0,1,1.27-3,4.27,4.27,0,0,1,3.08-1.21A4.36,4.36,0,0,1,244.48,16.7Zm.33,37.19H238v-25h6.83Z"/>
          <path class="cls-3" d="M272.08,31.05a10.35,10.35,0,0,1,2.53,7.31V53.89h-6.77V39.27a4.88,4.88,0,0,0-1.29-3.52,4.49,4.49,0,0,0-3.37-1.34,4.63,4.63,0,0,0-3.41,1.34,4.76,4.76,0,0,0-1.35,3.52V53.89h-6.83v-25h6.28v2.27a9.91,9.91,0,0,1,7.33-2.83A8.86,8.86,0,0,1,272.08,31.05Z"/>
          <path class="cls-3" d="M304.22,43.67H286.61a6.37,6.37,0,0,0,2.5,3.67,7.83,7.83,0,0,0,4.58,1.29,11.26,11.26,0,0,0,7-2.53l2.83,4.65a15.16,15.16,0,0,1-10,3.75,13.54,13.54,0,0,1-9.81-3.77,12.48,12.48,0,0,1-3.9-9.34,12.91,12.91,0,0,1,13.1-13.1,11.34,11.34,0,0,1,11.79,11.64A16.39,16.39,0,0,1,304.22,43.67Zm-15.38-8.5a7,7,0,0,0-2.23,3.69H298a4.79,4.79,0,0,0-1.61-3.69,5.6,5.6,0,0,0-3.8-1.37A5.7,5.7,0,0,0,288.84,35.17Z"/>
          <path class="cls-3" d="M327.5,32l-3.44,4.2a8.06,8.06,0,0,0-5.62-2.38c-1.79,0-2.68.59-2.68,1.78a1.46,1.46,0,0,0,.58,1.18,7.71,7.71,0,0,0,2.05,1l2.43,1A16.12,16.12,0,0,1,326.16,42a6,6,0,0,1,1.69,4.47,7,7,0,0,1-2.76,5.87,11.12,11.12,0,0,1-7,2.13,12.29,12.29,0,0,1-10.38-4.86l3.44-4.15c2.2,2.26,4.54,3.39,7,3.39a4.46,4.46,0,0,0,2.27-.53,1.68,1.68,0,0,0,.91-1.54,1.43,1.43,0,0,0-.58-1.24,9.92,9.92,0,0,0-2-1l-2.68-1.11A15.5,15.5,0,0,1,311,40.28a6.15,6.15,0,0,1-1.7-4.5,6.62,6.62,0,0,1,2.56-5.54,10.43,10.43,0,0,1,6.65-2A11.5,11.5,0,0,1,327.5,32Z"/>
          <path class="cls-3" d="M350.52,32l-3.44,4.2a8.06,8.06,0,0,0-5.62-2.38c-1.78,0-2.68.59-2.68,1.78a1.49,1.49,0,0,0,.58,1.18,7.88,7.88,0,0,0,2.05,1l2.43,1A16.12,16.12,0,0,1,349.18,42a6,6,0,0,1,1.7,4.47,7,7,0,0,1-2.76,5.87,11.14,11.14,0,0,1-7,2.13,12.27,12.27,0,0,1-10.37-4.86l3.44-4.15a9.74,9.74,0,0,0,7,3.39,4.52,4.52,0,0,0,2.28-.53,1.68,1.68,0,0,0,.91-1.54,1.43,1.43,0,0,0-.58-1.24,10.53,10.53,0,0,0-2-1l-2.68-1.11A15.45,15.45,0,0,1,334,40.28a6.14,6.14,0,0,1-1.69-4.5,6.64,6.64,0,0,1,2.55-5.54,10.44,10.44,0,0,1,6.66-2A11.47,11.47,0,0,1,350.52,32Z"/>
          <path class="cls-3" d="M398.8,27.13l-4.86,4a11,11,0,0,0-9.31-4.91,10.25,10.25,0,0,0-7.76,3.09,10.92,10.92,0,0,0-3,7.89A11,11,0,0,0,377,45.24,10.76,10.76,0,0,0,385,48.37q5.81,0,8.8-4.14V41.49h-9.21V35.57h16v9.87a17.53,17.53,0,0,1-6.5,6.55,18.16,18.16,0,0,1-9.44,2.51,17.56,17.56,0,0,1-12.7-5,16.44,16.44,0,0,1-5.16-12.32A16.46,16.46,0,0,1,372,24.87a17.6,17.6,0,0,1,12.7-5A16.21,16.21,0,0,1,398.8,27.13Z"/>
          <path class="cls-3" d="M413,53.89h-6.83V15.94H413Z"/>
          <path class="cls-3" d="M441.26,32.06a12.33,12.33,0,0,1,3.94,9.28,12.41,12.41,0,0,1-3.94,9.31,13.32,13.32,0,0,1-9.57,3.8,13.08,13.08,0,0,1-9.48-3.77,12.53,12.53,0,0,1-3.87-9.34,12.39,12.39,0,0,1,3.89-9.28,13.18,13.18,0,0,1,9.51-3.77A13.32,13.32,0,0,1,441.26,32.06Zm-14.17,4.4a6.91,6.91,0,0,0-1.82,4.93,6.76,6.76,0,0,0,1.82,4.89,6.6,6.6,0,0,0,9.28,0,6.73,6.73,0,0,0,1.85-4.86,6.94,6.94,0,0,0-1.85-4.91,6.47,6.47,0,0,0-9.28,0Z"/>
          <path class="cls-3" d="M473.57,32A13.37,13.37,0,0,1,477,41.39a13.38,13.38,0,0,1-3.41,9.39,11.33,11.33,0,0,1-8.73,3.72c-3.54,0-6.23-1.25-8-3.75v3.14h-6.27V15.94h6.83V31.27a9.54,9.54,0,0,1,7.49-3A11.33,11.33,0,0,1,473.57,32ZM468.2,46.38a6.94,6.94,0,0,0,1.85-5,6.76,6.76,0,0,0-1.87-5,6.51,6.51,0,0,0-9.09-.1,6.82,6.82,0,0,0-1.84,5.13,6.7,6.7,0,0,0,1.87,5.14,6.32,6.32,0,0,0,4.45,1.74A6.2,6.2,0,0,0,468.2,46.38Z"/>
          <path class="cls-3" d="M523,53.89h-6.83V15.94H523Z"/>
          <path class="cls-3" d="M536.28,16.7a4,4,0,0,1,1.29,3,3.93,3.93,0,0,1-1.29,3,4.39,4.39,0,0,1-3.12,1.22,4.28,4.28,0,0,1-3.08-1.22,4,4,0,0,1-1.27-3,4,4,0,0,1,1.27-3,4.27,4.27,0,0,1,3.08-1.21A4.38,4.38,0,0,1,536.28,16.7Zm.32,37.19h-6.83v-25h6.83Z"/>
          <path class="cls-3" d="M562.87,48.12v5.77h-22V52.07L552.8,34.61H542V28.85h20.74v1.82L550.88,48.12Z"/>
          <path class="cls-3" d="M590.09,43.67H572.48A6.39,6.39,0,0,0,575,47.34a7.78,7.78,0,0,0,4.58,1.29,11.24,11.24,0,0,0,7-2.53l2.83,4.65a15.16,15.16,0,0,1-10,3.75,13.54,13.54,0,0,1-9.81-3.77,12.48,12.48,0,0,1-3.9-9.34,12.91,12.91,0,0,1,13.11-13.1,11.34,11.34,0,0,1,11.79,11.64A16.41,16.41,0,0,1,590.09,43.67Zm-15.38-8.5a7,7,0,0,0-2.23,3.69h11.44a4.83,4.83,0,0,0-1.62-3.69,5.6,5.6,0,0,0-3.8-1.37A5.7,5.7,0,0,0,574.71,35.17Z"/>
          <path class="cls-3" d="M611.24,28.85v6h-1.82a7.06,7.06,0,0,0-4.91,1.64,6.26,6.26,0,0,0-1.82,4.88v12.5h-6.83v-25h6.28v3A8.24,8.24,0,0,1,609,28.54,7.13,7.13,0,0,1,611.24,28.85Z"/>
          <path class="cls-3" d="M503.46,28.9h5.92v25h-5.82l-.31-3.64c-1.41,2.93-5.31,4.35-8.1,4.4-7.39,0-12.85-4.5-12.85-13.26s5.72-13.11,13-13.06c3.34,0,6.53,1.57,7.94,4.05Zm-15,12.45c0,4.76,3.29,7.59,7.39,7.59,9.72,0,9.72-15.13,0-15.13A7.1,7.1,0,0,0,488.47,41.35Z"/>
        </g>
      </g>
    </g>
  </g>
</svg>
