<svg width="2725" height="734" viewBox="0 0 2725 734" fill="none" xmlns="http://www.w3.org/2000/svg">
<path d="M547.06 341.87C547.074 377.793 540.009 413.367 526.268 446.558C512.526 479.749 492.378 509.907 466.975 535.307C441.572 560.707 411.413 580.851 378.22 594.589C345.028 608.327 309.453 615.389 273.53 615.37C122.48 615.37 0 492.91 0 341.87V72.1701C0 91.3134 7.60466 109.673 21.141 123.209C34.6774 136.745 53.0367 144.35 72.18 144.35C91.3233 144.35 109.683 136.745 123.219 123.209C136.755 109.673 144.36 91.3134 144.36 72.1701V68.3701H273.53C424.58 68.3701 547.06 190.84 547.06 341.87Z" fill="#00B2B5"/>
<path d="M260.543 486.192C340.262 484.981 403.905 419.379 402.695 339.666C401.484 259.953 335.878 196.314 256.16 197.525C176.441 198.735 112.798 264.337 114.008 344.05C115.219 423.763 180.825 487.402 260.543 486.192Z" fill="#18232F"/>
<path d="M144.36 72.17C144.362 86.4463 140.13 100.403 132.2 112.274C124.27 124.145 112.998 133.398 99.8091 138.863C86.6201 144.327 72.1067 145.758 58.1045 142.974C44.1023 140.19 31.2402 133.317 21.1446 123.223C11.049 113.128 4.17357 100.267 1.38768 86.2653C-1.39821 72.2635 0.0306115 57.75 5.49345 44.5602C10.9563 31.3705 20.2078 20.0969 32.0779 12.1652C43.9481 4.23354 57.9037 1.3701e-07 72.18 0C91.3216 -1.83702e-07 109.679 7.60328 123.215 21.1375C136.752 34.6717 144.357 53.0284 144.36 72.17Z" fill="#E7E6E4"/>
<path d="M402.7 341.87H258.34V486.22H402.7V341.87Z" fill="#323A43"/>
<path d="M751.996 733.006V626.7H711V615.996H805.206V626.7H764.307V733.006H751.996Z" fill="white"/>
<path d="M867.219 722.303H937.337V733.007H854.907V616.062H934.836V626.765H867.219V722.303ZM865.887 668.378H927.527V678.919H865.887V668.378Z" fill="white"/>
<path d="M1046.58 733.997C1038.26 734.085 1029.99 732.586 1022.22 729.579C1015.04 726.793 1008.49 722.578 1002.98 717.19C997.467 711.802 993.106 705.353 990.158 698.232C984.074 682.997 984.074 666.006 990.158 650.771C993.117 643.673 997.481 637.248 1002.99 631.882C1008.56 626.481 1015.15 622.251 1022.38 619.44C1030.15 616.421 1038.42 614.915 1046.75 615.006C1054.88 614.953 1062.96 616.401 1070.57 619.278C1077.8 621.947 1084.28 626.327 1089.45 632.044L1081.62 639.905C1077.2 635.234 1071.8 631.606 1065.8 629.283C1059.83 627.084 1053.51 625.984 1047.15 626.034C1040.49 625.97 1033.87 627.188 1027.66 629.624C1021.8 631.931 1016.47 635.401 1011.99 639.824C1007.55 644.223 1004.02 649.449 1001.59 655.206C996.59 667.583 996.59 681.42 1001.59 693.798C1004.02 699.556 1007.55 704.783 1011.99 709.179C1016.47 713.608 1021.8 717.079 1027.66 719.379C1033.87 721.821 1040.49 723.04 1047.15 722.969C1053.52 723.027 1059.85 721.892 1065.8 719.623C1071.79 717.257 1077.19 713.61 1081.62 708.935L1089.45 716.797C1084.28 722.503 1077.83 726.91 1070.64 729.661C1062.96 732.599 1054.8 734.07 1046.58 733.997Z" fill="white"/>
<path d="M1157.99 733.006H1145.66V616.061H1157.99V733.006ZM1232.11 679.016H1156.66V668.15H1232.11V679.016ZM1230.92 615.996H1243.08V732.941H1230.92V615.996Z" fill="white"/>
<path d="M1311.03 733.006V616.061H1321.19L1401.63 717.69H1396.3V615.996H1408.45V732.941H1398.3L1318.03 631.313H1323.34V732.941L1311.03 733.006Z" fill="white"/>
<path d="M1527.36 733.996C1519.03 734.067 1510.77 732.568 1502.99 729.578C1495.77 726.78 1489.19 722.555 1483.64 717.154C1478.09 711.754 1473.68 705.29 1470.69 698.149C1464.58 682.974 1464.58 666.025 1470.69 650.851C1473.68 643.722 1478.07 637.268 1483.61 631.872C1489.15 626.475 1495.71 622.247 1502.91 619.438C1518.62 613.541 1535.93 613.541 1551.64 619.438C1558.9 622.239 1565.53 626.47 1571.13 631.88C1576.64 637.245 1581 643.671 1583.95 650.77C1590.05 666 1590.05 682.999 1583.95 698.23C1581 705.329 1576.64 711.756 1571.13 717.12C1565.53 722.529 1558.9 726.764 1551.64 729.578C1543.9 732.574 1535.66 734.073 1527.36 733.996ZM1527.36 722.967C1534.03 723.05 1540.65 721.83 1546.85 719.377C1552.65 717.07 1557.92 713.598 1562.33 709.177C1566.72 704.774 1570.21 699.547 1572.58 693.796C1577.45 681.393 1577.45 667.606 1572.58 655.204C1570.2 649.454 1566.72 644.228 1562.33 639.822C1557.91 635.407 1552.65 631.936 1546.85 629.622C1540.65 627.177 1534.03 625.958 1527.36 626.032C1520.69 625.971 1514.07 627.19 1507.87 629.622C1502.01 631.925 1496.68 635.396 1492.21 639.822C1487.78 644.211 1484.27 649.441 1481.88 655.204C1476.98 667.574 1476.98 681.344 1481.88 693.714C1484.25 699.527 1487.78 704.799 1492.24 709.21C1496.71 713.621 1502.02 717.08 1507.87 719.377C1514.07 721.818 1520.69 723.036 1527.36 722.967Z" fill="white"/>
<path d="M1646.09 733.007V616.062H1658.4V722.303H1723.7V733.007H1646.09Z" fill="white"/>
<path d="M1822.77 733.995C1814.45 734.067 1806.18 732.568 1798.41 729.577C1791.19 726.779 1784.61 722.554 1779.06 717.154C1773.5 711.754 1769.1 705.29 1766.1 698.148C1760.02 682.969 1760.02 666.029 1766.1 650.85C1769.1 643.722 1773.49 637.268 1779.03 631.871C1784.56 626.475 1791.13 622.247 1798.33 619.438C1814.04 613.546 1831.35 613.546 1847.06 619.438C1854.28 622.252 1860.88 626.482 1866.45 631.879C1871.96 637.245 1876.31 643.671 1879.27 650.769C1885.37 666 1885.37 682.999 1879.27 698.229C1876.32 705.329 1871.96 711.756 1866.45 717.119C1860.87 722.516 1854.28 726.75 1847.06 729.577C1839.31 732.57 1831.07 734.069 1822.77 733.995ZM1822.77 722.966C1829.44 723.051 1836.06 721.831 1842.27 719.377C1848.07 717.069 1853.33 713.598 1857.74 709.177C1862.14 704.774 1865.62 699.547 1867.99 693.795C1872.87 681.393 1872.87 667.606 1867.99 655.203C1865.62 649.454 1862.14 644.228 1857.74 639.822C1853.33 635.406 1848.06 631.936 1842.27 629.622C1836.06 627.175 1829.44 625.956 1822.77 626.032C1816.11 625.971 1809.49 627.189 1803.28 629.622C1797.45 631.915 1792.14 635.363 1787.68 639.759C1783.21 644.155 1779.68 649.408 1777.3 655.203C1772.38 667.57 1772.38 681.348 1777.3 693.714C1779.66 699.529 1783.19 704.803 1787.65 709.215C1792.12 713.626 1797.44 717.084 1803.28 719.377C1809.49 721.817 1816.11 723.036 1822.77 722.966Z" fill="white"/>
<path d="M1992.64 733.996C1984.25 734.08 1975.91 732.581 1968.08 729.578C1960.81 726.77 1954.19 722.534 1948.59 717.12C1943.07 711.762 1938.7 705.334 1935.76 698.231C1929.65 683 1929.65 666.001 1935.76 650.77C1938.74 643.648 1943.17 637.218 1948.75 631.88C1954.36 626.484 1960.99 622.255 1968.24 619.439C1976.08 616.421 1984.42 614.916 1992.82 615.005C2001.12 614.907 2009.38 616.322 2017.18 619.179C2024.39 621.858 2030.87 626.211 2036.07 631.88L2028.42 639.742C2023.88 635.072 2018.36 631.471 2012.26 629.201C2006.16 627.053 1999.74 625.981 1993.27 626.033C1986.47 625.961 1979.72 627.179 1973.37 629.623C1967.5 631.909 1962.14 635.351 1957.62 639.746C1953.1 644.14 1949.51 649.397 1947.06 655.205C1942.06 667.554 1942.06 681.366 1947.06 693.715C1949.5 699.542 1953.08 704.818 1957.6 709.227C1962.12 713.637 1967.49 717.089 1973.37 719.378C1979.66 721.819 1986.36 723.037 1993.11 722.968C1999.53 723.005 2005.92 721.99 2012.01 719.963C2018.17 717.824 2023.78 714.34 2028.42 709.763L2035.4 719.135C2029.71 724.103 2023.09 727.881 2015.91 730.244C2008.41 732.754 2000.55 734.022 1992.64 733.996ZM2023.61 717.624V674.501H2035.44V719.135L2023.61 717.624Z" fill="white"/>
<path d="M2128.03 733.005V689.492L2130.88 697.19L2081.42 615.979H2094.58L2138.04 687.348H2131.06L2174.44 615.995H2186.77L2137.31 697.207L2140.14 689.508V732.972L2128.03 733.005Z" fill="white"/>
<path d="M2309.54 733.007V616.062H2321.87V722.303H2387.21V733.007H2309.54Z" fill="white"/>
<path d="M2449.45 733.006V626.7H2408.47V615.996H2502.68V626.7H2461.72V733.006H2449.45Z" fill="white"/>
<path d="M2552.37 733.005V616.06H2599.83C2611.18 615.812 2622.42 618.367 2632.55 623.499C2641.63 628.157 2649.21 635.264 2654.45 644.014C2659.58 653.331 2662.28 663.797 2662.28 674.435C2662.28 685.074 2659.58 695.54 2654.45 704.857C2649.23 713.654 2641.65 720.803 2632.55 725.485C2622.43 730.63 2611.18 733.192 2599.83 732.941L2552.37 733.005ZM2564.69 722.302H2599.16C2608.49 722.531 2617.73 720.438 2626.06 716.211C2633.43 712.353 2639.58 706.5 2643.79 699.319C2647.94 691.689 2650.11 683.144 2650.11 674.46C2650.11 665.776 2647.94 657.23 2643.79 649.601C2639.56 642.459 2633.42 636.642 2626.06 632.806C2617.74 628.574 2608.49 626.475 2599.16 626.699H2564.69V722.302Z" fill="white"/>
<path d="M2715.31 733.834C2714.14 733.849 2712.98 733.618 2711.9 733.157C2710.83 732.695 2709.87 732.013 2709.07 731.154C2708.23 730.298 2707.57 729.282 2707.12 728.166C2706.68 727.05 2706.46 725.857 2706.49 724.657C2706.44 723.466 2706.63 722.277 2707.05 721.161C2707.47 720.046 2708.11 719.027 2708.94 718.166C2709.76 717.305 2710.75 716.62 2711.85 716.152C2712.94 715.684 2714.12 715.442 2715.32 715.442C2716.51 715.442 2717.69 715.684 2718.78 716.152C2719.88 716.62 2720.87 717.305 2721.7 718.166C2722.52 719.027 2723.16 720.046 2723.58 721.161C2724 722.277 2724.2 723.466 2724.14 724.657C2724.16 725.857 2723.95 727.049 2723.5 728.164C2723.06 729.279 2722.4 730.295 2721.56 731.154C2720.77 732.015 2719.8 732.698 2718.72 733.16C2717.64 733.622 2716.48 733.851 2715.31 733.834Z" fill="white"/>
<path d="M1048.61 93.08V54.3223H1093.14C1103.42 54.3223 1113.28 58.4057 1120.55 65.6742C1127.82 72.9427 1131.9 82.8008 1131.9 93.08C1131.9 103.359 1127.82 113.217 1120.55 120.486C1113.28 127.754 1103.42 131.838 1093.14 131.838H1087.37C1082.28 131.84 1077.24 130.839 1072.54 128.892C1067.83 126.945 1063.56 124.09 1059.96 120.491C1056.36 116.891 1053.51 112.618 1051.56 107.915C1049.61 103.211 1048.61 98.1704 1048.61 93.08Z" fill="white"/>
<path d="M711 476.472V46H793.002V202.299C816.483 169.422 847.664 152.984 886.544 152.984C907.035 152.984 925.291 156.931 941.312 164.825C957.303 172.72 971.231 184.238 981.988 198.463C993.562 213.926 1002.15 231.415 1007.3 250.029C1013.26 271.398 1016.17 293.503 1015.94 315.687C1015.94 342.17 1012.53 365.869 1005.7 386.782C998.876 407.695 989.476 425.417 977.501 439.949C965.853 454.254 951.052 465.669 934.258 473.303C917.047 481.052 898.363 484.984 879.49 484.827C840.176 484.827 810.919 469.262 791.718 438.131L791.084 476.572L711 476.472ZM860.261 416.901C881.185 416.901 898.274 408.034 911.527 390.301C924.779 372.567 931.4 349.619 931.389 321.457C931.389 256.538 907.485 224.079 859.677 224.079C813.114 224.079 789.839 258.245 789.85 326.577C789.85 353.472 796.576 375.252 810.029 391.918C823.482 408.584 840.226 416.912 860.261 416.901Z" fill="#00B2B5"/>
<path d="M1048.61 484.794V169.595H1131.9V484.794H1048.61Z" fill="#00B2B5"/>
<path d="M1348.44 268.873H1425.95V358.596C1426.02 374.795 1423.53 390.903 1418.58 406.327C1413.8 421.245 1405.94 434.994 1395.52 446.685C1384.51 458.81 1370.94 468.33 1355.79 474.553C1339.78 481.379 1320.67 484.793 1298.46 484.793C1275.41 484.793 1255.76 481.379 1239.52 474.553C1224.31 468.425 1210.65 459.018 1199.49 447.002C1188.99 435.414 1181.22 421.625 1176.74 406.643C1172 390.856 1169.62 374.449 1169.71 357.963V76.1182H1251.69V161.305H1425.95V220.242H1251.69V349.624C1251.69 369.715 1255.43 385.202 1262.9 396.087C1270.37 406.971 1282.65 412.414 1299.74 412.414C1316.42 412.414 1328.7 407.077 1336.58 396.404C1344.46 385.73 1348.41 370.571 1348.44 350.925V268.873Z" fill="#00B2B5"/>
<path d="M1459.89 476.472V46H1541.89V202.299C1565.4 169.422 1596.58 152.984 1635.43 152.984C1655.95 152.984 1674.2 156.931 1690.2 164.825C1706.2 172.715 1720.14 184.234 1730.89 198.463C1742.47 213.923 1751.05 231.413 1756.19 250.029C1762.17 271.396 1765.08 293.502 1764.85 315.687C1764.85 342.17 1761.43 365.869 1754.59 386.782C1747.75 407.695 1738.39 425.417 1726.49 439.949C1714.84 454.25 1700.04 465.665 1683.25 473.303C1666.03 481.052 1647.34 484.983 1628.46 484.827C1589.17 484.827 1559.92 469.262 1540.71 438.131L1540.06 476.572L1459.89 476.472ZM1609.17 416.901C1630.09 416.901 1647.17 408.034 1660.42 390.301C1673.66 372.567 1680.28 349.619 1680.28 321.457C1680.28 256.538 1656.37 224.079 1608.57 224.079C1562 224.079 1538.72 258.245 1538.72 326.577C1538.72 353.472 1545.45 375.252 1558.9 391.918C1572.36 408.584 1589.11 416.912 1609.17 416.901Z" fill="#00B2B5"/>
<path d="M1996.11 379.092C1990.12 393.19 1979.33 404.191 1963.76 412.096C1948.18 420.001 1930.56 423.948 1910.91 423.937C1895.17 424.1 1879.54 421.387 1864.78 415.932C1851.13 410.875 1838.69 403.025 1828.26 392.884C1817.9 382.674 1809.73 370.463 1804.24 356.995C1798.26 342.031 1795.32 326.027 1795.58 309.915V161.305H1878.87V297.741C1878.87 337.043 1896.6 356.689 1932.05 356.678C1951.27 356.678 1966.75 351.119 1978.5 340.001C1990.25 328.883 1996.12 314.79 1996.11 297.724V161.305H2079.4V429.074C2079.4 451.31 2075.66 471.167 2068.19 488.645C2061.22 505.409 2050.74 520.48 2037.44 532.839C2024.05 545.004 2008.37 554.371 1991.31 560.39C1973.11 566.873 1953.92 570.124 1934.61 569.996C1888.04 569.996 1853.24 558.25 1830.19 534.757C1807.14 511.264 1795.61 479.022 1795.58 438.029H1873.1C1873.1 456.819 1878.55 471.556 1889.44 482.241C1900.34 492.925 1916.68 498.262 1938.46 498.251C1945.98 498.286 1953.42 496.645 1960.24 493.448C1967.14 490.191 1973.35 485.619 1978.5 479.989C1984.12 473.737 1988.47 466.453 1991.31 458.542C1994.59 449.508 1996.22 439.954 1996.11 430.341V379.092Z" fill="#00B2B5"/>
<path d="M2295.93 268.873H2373.45V358.596C2373.52 374.794 2371.04 390.902 2366.09 406.327C2361.31 421.245 2353.46 434.994 2343.03 446.685C2332.02 458.806 2318.45 468.325 2303.3 474.553C2287.29 481.379 2268.18 484.793 2245.97 484.793C2222.91 484.793 2203.26 481.379 2187.01 474.553C2171.81 468.427 2158.14 459.02 2146.99 447.002C2136.49 435.419 2128.71 421.628 2124.24 406.643C2119.48 390.858 2117.1 374.45 2117.19 357.963V76.1182H2199.19V161.305H2373.45V220.242H2199.19V349.624C2199.19 369.715 2202.93 385.202 2210.41 396.087C2217.89 406.971 2230.17 412.414 2247.25 412.414C2263.93 412.414 2276.21 407.077 2284.09 396.404C2291.97 385.73 2295.92 370.571 2295.93 350.925V268.873Z" fill="#00B2B5"/>
<path d="M2483.64 340.669C2484.9 364.584 2491.84 383.585 2504.45 397.672C2517.06 411.758 2533.61 418.807 2554.1 418.818C2566.79 419.069 2579.3 415.858 2590.3 409.529C2595.23 406.778 2599.56 403.062 2603.02 398.604C2606.49 394.146 2609.02 389.036 2610.47 383.58H2696.32C2686.5 416.033 2669.42 441.049 2645.07 458.627C2620.72 476.205 2591.68 484.955 2557.93 484.877C2452.88 484.877 2400.35 427.652 2400.33 313.202C2400.33 288.853 2403.75 266.861 2410.59 247.227C2416.89 228.468 2427.04 211.229 2440.38 196.612C2453.64 182.362 2469.96 171.305 2488.11 164.274C2506.9 156.803 2528.46 153.067 2552.81 153.067C2601.5 153.067 2638.34 168.633 2663.33 199.764C2688.33 230.894 2700.82 277.874 2700.81 340.702L2483.64 340.669ZM2614.97 288.136C2614.75 277.717 2612.69 267.418 2608.88 257.717C2605.63 249.538 2600.72 242.122 2594.46 235.936C2588.61 230.255 2581.63 225.883 2573.96 223.112C2566.36 220.358 2558.33 218.953 2550.25 218.959C2542.17 218.882 2534.17 220.46 2526.73 223.595C2519.29 226.73 2512.57 231.356 2506.98 237.187C2494.81 249.339 2487.87 266.311 2486.17 288.103L2614.97 288.136Z" fill="#00B2B5"/>
</svg>
