<svg xmlns="http://www.w3.org/2000/svg" viewBox="0 0 443.71 232.73">
  <defs>
    <style>
      .cls-1 {
        fill: #e2136e;
      }

      .cls-2 {
        fill: #fff;
      }
    </style>
  </defs>
  <title>Asset 2</title>
  <g id="Layer_2" data-name="Layer 2">
    <g id="Layer_1-2" data-name="Layer 1">
      <rect class="cls-1" width="443.71" height="232.73"/>
      <g>
        <g>
          <path class="cls-2" d="M233.53,98.81v5.91c-2.18-3.43-8.25-5.68-11.62-5.2s-8.68,3.25-11.51,9.43c-3.16-6.51-9.16-10.25-13.69-10.25h-14v7h9.1c4,0,8.22-.43,12,3a9.07,9.07,0,0,1,2.7,5.27c1.18,5.38-1.19,11.85-7.45,12a19.5,19.5,0,0,1-5.89-.67l-.49.49a49.5,49.5,0,0,1,3.87,6.42,20,20,0,0,0,9.88-5.36,18.84,18.84,0,0,0,3.95-5.6,19.3,19.3,0,0,0,3.54,5.6,17.58,17.58,0,0,0,8.9,5.36,50.34,50.34,0,0,1,3.48-6.42l-.44-.49a15.89,15.89,0,0,1-5.3.67c-6.48-.17-7.67-6.83-6.65-12,.87-4.42,4.78-8.77,8.68-9.08,4.3-.37,9.57,3.28,10.64,7.73A32.59,32.59,0,0,1,234,120v40.46a27.83,27.83,0,0,1,3.1-.3,26.49,26.49,0,0,1,3.15.3V98.81Z"/>
          <path class="cls-2" d="M66.35,75.31c10.93-1.08,27.71,13,29.08,16.1l1-.16V83.13c-7.68-4-18.39-12.38-32.61-11.37-15.78,1.12-22,10.39-22,26.72v62a21.29,21.29,0,0,1,3-.32,29.08,29.08,0,0,1,3.37.32V105.65H90.14v4.48c-23,.43-33,13.26-33,24.29,0,13.44,13.88,26.07,38.24,26.07h1.08V98.69H48.82l-.07-.15a16,16,0,0,1-.48-3.67C48.14,84.42,55.09,76.42,66.35,75.31Zm-1,59.51c0-9.7,10.74-19,24.78-21v44.08C74.74,155.21,65.36,143.13,65.36,134.82Z"/>
          <path class="cls-2" d="M98.1,98.69v7h43.11v4.48c-23,.43-33,13.26-33,24.29,0,13.44,13.86,26.07,38.22,26.07h1.08V114.63l.65,0c7.76-.21,12.37,4.7,12.64,11A10.49,10.49,0,0,1,154,135.92l.05.94,5.89-.18c3.28-4.15,5.41-8.79,5.2-13.8-.38-8.71-6.19-12.88-17.58-12.73v-4.5h27.3v54.83a22.33,22.33,0,0,1,3.09-.32,27.18,27.18,0,0,1,3.22.32V98.69Zm18.34,36.13c0-9.7,10.75-19,24.77-21v44.08C125.81,155.21,116.44,143.13,116.44,134.82Z"/>
        </g>
        <g>
          <polygon class="cls-2" points="291.13 115.4 300.98 158.36 363.89 126.99 291.13 115.4"/>
          <polygon class="cls-2" points="309.64 43.99 290.93 111.59 366.83 123.48 309.64 43.99"/>
          <polygon class="cls-2" points="227.45 34.08 305.96 43.46 287.39 110.67 227.45 34.08"/>
          <polygon class="cls-2" points="225.05 47.56 233.79 47.56 258.33 78.91 225.05 47.56"/>
          <polygon class="cls-2" points="370.62 123.04 347.79 91.47 384.7 84.85 370.62 123.04"/>
          <polygon class="cls-2" points="365.1 135.66 367.44 128.62 309.85 157.84 365.1 135.66"/>
          <polygon class="cls-2" points="287.43 115.13 299.45 169.17 263.78 198.18 287.43 115.13"/>
          <polygon class="cls-2" points="382.26 100.91 403.21 100.56 388.08 85.14 382.26 100.91"/>
        </g>
      </g>
    </g>
  </g>
</svg>
