<svg width="3670" height="828" viewBox="0 0 3670 828" fill="none" xmlns="http://www.w3.org/2000/svg">
<g clip-path="url(#clip0_495_5215)">
<path d="M836.428 629.599H835.697C819.581 627.301 806.667 636.875 806.667 651.079C806.667 665.283 819.581 678.686 835.697 681.262H836.915C853.031 678.79 865.945 665.352 865.945 651.183C865.945 637.014 853.031 627.51 836.915 629.564L836.428 629.599ZM1478.94 22.0716C1495.27 11.0358 1529.41 10.7225 1555.24 24.996C1581.07 39.2694 1588.62 55.9798 1572.37 58.4168C1556.11 60.8537 1521.96 52.22 1496.07 46.5454C1470.17 40.8708 1462.58 33.1075 1478.91 22.1761L1478.94 22.0716ZM982.655 279.864C990.185 272.892 998.773 267.158 1008.1 262.875C1016.7 259.22 1019.24 260.613 1013.81 266.113C1006.3 273.032 997.778 278.762 988.538 283.102C979.836 287.001 977.26 285.469 982.655 279.864ZM1025.71 260.613C1035.29 250.144 1046.27 241.042 1058.33 233.563C1069.33 227.192 1072.63 228.48 1065.74 237.044C1056.11 247.431 1045.12 256.461 1033.06 263.885C1021.95 270.047 1018.65 268.063 1025.71 260.613ZM1077.47 229.281C1089.04 215.093 1102.44 202.508 1117.33 191.856C1130.87 181.412 1134.94 182.805 1126.38 194.711C1114.85 209.007 1101.43 221.667 1086.49 232.344C1072.98 241.953 1068.87 240.212 1077.47 229.281ZM1138.21 185.729C1151.96 168.205 1167.73 152.371 1185.2 138.557C1201.32 126.129 1206.09 128.113 1195.92 142.317C1182.32 160.106 1166.43 176.015 1148.65 189.628C1132.68 201.325 1127.77 199.828 1138.21 185.659V185.729ZM1206.09 134.762C1221.62 114.502 1239.92 96.5252 1260.45 81.3587C1278.94 69.2437 1284.37 72.3769 1272.81 87.834C1256.9 107.407 1238.57 124.883 1218.27 139.845C1199.79 153.353 1194.36 151.055 1205.95 134.867L1206.09 134.762ZM1282.66 81.6372C1299.87 60.7305 1320.88 43.2717 1344.59 30.1831C1365.47 21.3406 1371.67 26.9455 1358.51 41.4627C1345.39 56.502 1317.71 77.8774 1296.83 89.4702C1275.94 102.456 1269.47 99.1135 1282.7 81.5676L1282.66 81.6372ZM1376.89 34.8133C1391.82 18.6599 1422.62 3.48133 1445.95 0C1469.44 1.07921 1476.37 10.7225 1461.61 20.888C1440.31 33.9814 1417 43.4845 1392.62 49.0172C1369.37 56.8153 1362.3 50.6534 1377.03 34.7437L1376.89 34.8133ZM1359.76 127.069C1376.02 109.662 1406.16 94.9359 1426.87 96.3633C1447.58 97.7906 1451.24 110.985 1434.88 124.492C1418.52 138 1388.48 149.697 1367.7 152.726C1346.92 155.755 1343.51 144.615 1359.76 127.069ZM961.631 297.654C968.504 293.008 976.07 289.483 984.047 287.21C990.765 285.226 992.018 288.045 986.588 293.546C980.51 299.338 972.79 303.107 964.485 304.338C957.524 304.93 956.34 301.797 961.77 297.375L961.631 297.654ZM996.056 290.691C1004.28 282.897 1014.09 276.961 1024.81 273.285C1033.68 269.281 1035.25 272.693 1028.29 280.943C1020.29 289.159 1010.43 295.321 999.537 298.907C990.661 301.483 989.094 297.828 996.056 290.796V290.691ZM1037.58 276.766C1047.49 265.628 1059.47 256.514 1072.84 249.925C1083.67 243.902 1085.44 248.219 1077.02 259.255C1067.29 270.645 1055.31 279.892 1041.83 286.409C1031.11 291.213 1029.3 286.897 1037.58 276.94V276.766ZM1086.31 254.276C1098 239.9 1112.01 227.58 1127.77 217.827C1140.72 210.238 1142.84 215.564 1132.75 229.176C1121.38 243.877 1107.3 256.252 1091.25 265.626C1078.52 272.588 1076.29 267.54 1086.31 254.451V254.276ZM1140.96 224.511C1152.55 208.845 1174.03 188.932 1188.82 180.472C1203.61 172.013 1206.22 178.453 1194.53 194.398C1182.83 210.342 1161.39 230.186 1146.67 238.123C1131.95 246.061 1129.26 240.595 1141 224.685L1140.96 224.511ZM1202.47 190.011C1215.73 171.943 1239.92 150.185 1256.77 141.655C1273.47 134.101 1276.5 141.899 1263.24 159.062C1249.98 176.225 1225.79 197.357 1208.94 206.234C1192.09 215.111 1189.24 208.184 1202.47 190.011ZM1278.14 152.691C1292.9 133.648 1320.12 113.422 1338.95 107.678C1357.6 103.047 1360.91 113.317 1346.19 129.645C1329.14 148.114 1308.43 162.818 1285.38 172.813C1266.76 180.542 1263.45 171.769 1278.17 152.865L1278.14 152.691ZM1255.3 251.665C1271.63 231.021 1298.01 212.57 1314.48 211.735C1330.94 210.899 1330.98 225.904 1314.48 244.529C1297.98 263.154 1271.52 280.804 1255.3 283.589C1239.08 286.374 1238.98 272.519 1255.3 251.84V251.665ZM940.816 314.329C946.491 309.914 953.503 307.568 960.691 307.68C966.087 308.307 966.087 312.31 960.691 316.523C955.021 320.843 948.083 323.168 940.955 323.137C935.456 322.58 935.456 318.542 940.816 314.26V314.329ZM968.071 317.463C975.032 311.962 986.449 306.113 993.341 305.556C1000.23 304.999 1000.3 310.013 993.341 316.94C986.379 323.868 974.963 329.682 967.897 328.951C960.831 328.22 960.935 322.894 967.897 317.463H968.071ZM1000.86 316.279C1009.61 307.937 1020.23 301.823 1031.84 298.455C1040.44 296.366 1040.44 302.876 1031.84 312.937C1023.24 322.998 1009.46 329.891 1000.86 330.552C992.262 331.214 992.332 324.843 1000.86 316.209V316.279ZM1039.15 311.196C1049.21 299.499 1065.64 288.359 1075.87 285.643C1085.93 282.406 1085.93 290.308 1075.87 303.05C1065.78 315.061 1049.38 326.096 1039.32 328.046C1029.26 329.995 1029.09 322.754 1039.32 311.057L1039.15 311.196ZM1082.17 301.135C1093.9 286.305 1112.87 271.474 1124.46 267.923C1136.23 263.815 1136.23 273.215 1124.64 288.602C1113.04 303.99 1094.07 317.915 1082.31 321.362C1070.54 324.808 1070.68 315.826 1082.31 301.135H1082.17ZM1130.9 286.409C1144.02 269.002 1165.46 251.596 1178.76 247.244C1192.06 242.893 1191.95 254.207 1178.76 271.613C1165.57 289.02 1143.95 306.427 1130.76 310.361C1117.57 314.295 1117.5 304.094 1130.76 286.548L1130.9 286.409ZM1190.74 268.063C1205.46 248.497 1229.51 229.315 1244.3 225.764C1259.1 222.213 1259.2 235.199 1244.3 254.242C1229.41 273.285 1205.53 291.631 1190.74 295.635C1175.94 299.638 1176.01 287.558 1190.74 268.063ZM1161.81 371.597C1178.07 351.162 1201.56 334.486 1214.02 335.67C1226.48 336.854 1223.49 354.887 1207.27 375.044C1191.05 395.201 1167.48 411.041 1155.06 409.857C1142.63 408.674 1145.49 392.033 1162.02 371.563L1161.81 371.597ZM919.966 327.837C925.344 325.124 931.503 324.385 937.37 325.748C941.547 327.28 940.503 332.154 935.073 336.192C932.593 338.022 929.656 339.132 926.586 339.403C923.516 339.673 920.431 339.092 917.669 337.724C913.492 335.148 914.502 330.727 919.966 327.837ZM940.851 338.525C947.813 333.024 957.872 330.309 963.267 332.467C968.662 334.626 967.514 340.683 960.448 346.114C953.382 351.545 943.427 354.086 938.032 352.067C932.636 350.048 933.924 344.025 940.816 338.594L940.851 338.525ZM966.156 348.377C974.719 341.762 987.041 336.471 993.55 337.933C1000.06 339.395 998.667 347.019 990.069 355.34C981.472 363.66 969.184 367.872 962.71 365.052C956.236 362.233 957.524 355.026 966.191 348.446L966.156 348.377ZM995.603 356.593C1005.73 346.636 1020.32 339.917 1028.15 341.031C1035.98 341.588 1034 351.475 1023.97 362.79C1013.84 372.607 999.432 378.873 991.601 377.376C983.769 375.879 985.579 366.445 995.603 356.488V356.593ZM1028.91 363.207C1040.47 349.978 1057.18 340.056 1066.19 340.927C1075.21 341.797 1073.15 353.146 1061.42 366.445C1049.83 379.187 1032.99 389.143 1024.04 388.168C1015.03 385.906 1017.08 375.218 1028.91 363.207ZM1066.19 367.106C1079.46 351.301 1098.39 338.316 1108.69 338.525C1119 338.734 1116.35 352.729 1103.23 368.499C1090.11 384.269 1071.03 397.29 1060.83 395.758C1050.63 394.226 1053.11 381.658 1066.16 367.176L1066.19 367.106ZM1112.28 369.23C1127 350.744 1148.2 335.705 1159.69 336.157C1171.17 336.61 1168.39 352.276 1153.63 370.657C1138.87 389.039 1117.71 403.66 1106.22 402.651C1094.74 401.641 1097.52 387.02 1112.28 369.23ZM1075.87 474.784C1092.23 456.542 1112.91 444.845 1122.09 450.032C1131.28 455.219 1125.58 475.341 1109.15 493.931C1092.72 512.522 1072.04 522.792 1062.85 516.873C1053.66 510.955 1059.48 493.026 1075.87 474.784ZM899.082 338.49C904.512 335.74 911.369 336.227 914.397 339.465C917.426 342.702 915.615 347.646 910.22 350.396C904.825 353.146 897.794 352.798 894.731 349.526C891.668 346.253 893.652 341.24 899.082 338.49ZM914.397 354.817C921.359 351.336 930.235 351.928 934.168 355.165C938.101 358.403 935.63 365.331 928.564 370.309C921.602 373.791 912.796 373.199 908.863 368.882C904.929 364.565 907.366 358.438 914.397 354.957V354.817ZM932.776 374.069C941.338 367.489 952.198 365.435 957.141 369.439C962.084 373.442 958.916 382.007 950.388 388.447C941.86 394.887 930.966 397.011 926.023 391.928C921.08 386.846 924.143 379.047 932.706 374.069H932.776ZM954.461 391.928C964.555 384.374 977.33 382.111 983.038 385.662C988.746 389.213 985.161 400.353 975.067 409.439C964.973 416.994 952.198 419.083 946.49 414.313C940.781 409.544 944.297 399.483 954.391 391.928H954.461ZM978.826 412.399C990.417 401.223 1005.14 395.723 1011.79 400.144C1018.44 404.566 1014.19 417.342 1002.6 428.378C991.009 439.414 976.111 444.392 969.463 438.822C962.815 433.252 966.887 421.415 978.617 412.399H978.826ZM1006.08 430.884C1019.27 418.421 1035.98 410.762 1043.53 414.975C1051.09 419.187 1046.25 434.54 1033.09 448.709C1019.79 462.251 1003.12 467.647 995.638 462.634C988.155 457.621 992.889 443.278 1006.08 430.954V430.884ZM1039.77 452.608C1054.53 436.733 1073.19 428.239 1081.54 432.173C1089.9 436.106 1084.54 454.349 1069.78 471.338C1055.05 486.69 1036.4 495.045 1028.01 490.172C1019.52 484.497 1024.81 468.413 1039.57 452.608H1039.77ZM989.477 559.729C1005.8 545.803 1023.76 541.8 1029.51 551.164C1035.25 560.529 1026.9 581.556 1010.61 595.621C994.316 609.686 976.32 612.436 970.577 601.574C964.833 590.712 973.152 573.723 989.477 559.798V559.729ZM878.302 347.367C883.732 346.393 889.649 347.367 891.563 351.162C893.478 354.957 890.624 360.875 885.194 363.068C882.67 363.935 879.913 363.827 877.465 362.764C875.018 361.701 873.056 359.76 871.967 357.324C871.532 356.254 871.36 355.095 871.464 353.945C871.568 352.794 871.946 351.686 872.566 350.711C873.186 349.737 874.03 348.925 875.028 348.343C876.026 347.761 877.148 347.427 878.302 347.367ZM887.909 368.255C894.87 364.774 902.528 365.853 905.104 370.727C907.679 375.601 903.885 382.529 896.924 385.975C889.962 389.422 882.2 387.925 879.798 382.215C877.397 376.506 880.843 370.831 887.909 368.29V368.255ZM899.5 391.302C908.097 387.054 917.426 388.447 920.384 394.783C923.343 401.119 919.027 409.161 910.499 413.373C901.971 417.586 892.538 416.089 889.614 409.892C886.69 403.695 890.763 395.723 899.291 391.406L899.5 391.302ZM913.075 418.421C923.134 413.547 934.307 414.418 937.892 420.823C941.478 427.229 936.256 438.23 926.127 444.636C915.929 449.579 904.93 447.525 901.344 440.388C897.759 433.252 902.771 423.504 912.866 418.526L913.075 418.421ZM928.425 449.161C940.016 441.154 952.79 440.284 956.967 447.63C961.144 454.975 954.913 468.204 943.322 476.56C931.731 484.915 918.957 482.791 914.711 474.471C910.464 466.15 916.695 454.906 928.425 449.161ZM945.55 480.493C958.812 470.989 973.396 470.049 977.886 478.857C982.585 486.551 975.694 502.252 962.571 511.512C949.449 520.772 934.725 521.364 930.061 512.939C925.362 503.331 932.323 490.137 945.55 480.493ZM966.435 519.31C981.228 508.274 997.344 504.619 1002.57 513.392C1007.79 522.165 1000.16 540.094 985.44 553.079C970.681 564.881 954.426 565.194 949.135 555.481C943.844 545.768 951.537 529.719 966.539 519.31H966.435ZM910.742 610.626C927.032 603.489 942.383 605.647 945.132 618.424C947.882 631.2 937.092 650.974 920.767 658.633C904.442 666.292 888.953 660.339 886.168 647.18C883.384 634.02 894.383 617.762 910.708 610.626H910.742ZM857.173 351.336C859.575 350.768 862.104 351.149 864.232 352.401C866.359 353.653 867.921 355.679 868.59 358.055C868.731 359.23 868.638 360.422 868.316 361.562C867.995 362.701 867.451 363.766 866.717 364.694C865.983 365.623 865.072 366.397 864.038 366.972C863.003 367.547 861.865 367.913 860.689 368.046H860.411C858.021 368.657 855.489 368.325 853.338 367.119C851.187 365.914 849.582 363.927 848.854 361.571C848.684 360.353 848.759 359.113 849.074 357.924C849.39 356.735 849.94 355.621 850.693 354.648C851.445 353.675 852.384 352.862 853.456 352.257C854.527 351.653 855.708 351.268 856.93 351.127H857.104L857.173 351.336ZM861.768 374.348C864.847 373.615 868.089 374.082 870.836 375.653C873.584 377.224 875.631 379.782 876.561 382.807C876.755 384.356 876.637 385.927 876.214 387.429C875.79 388.931 875.071 390.333 874.098 391.553C873.125 392.773 871.918 393.786 870.548 394.532C869.177 395.278 867.671 395.742 866.119 395.897C863.04 396.624 859.8 396.145 857.062 394.559C854.325 392.974 852.297 390.401 851.395 387.368C851.205 385.838 851.318 384.287 851.728 382.801C852.138 381.316 852.836 379.925 853.783 378.71C854.73 377.494 855.908 376.477 857.248 375.717C858.588 374.956 860.065 374.467 861.594 374.278L861.768 374.348ZM867.372 402.198C875.83 400.701 883.906 405.227 885.437 412.05C886.969 418.874 881.191 426.985 872.663 428.482C864.135 429.979 855.955 425.245 854.458 418.038C852.962 410.832 858.809 403.626 867.372 402.233V402.198ZM873.846 434.644C883.906 432.834 893.547 435.271 895.218 443.417C896.889 451.564 890.206 461.903 880.181 465.837C870.122 467.404 860.41 461.903 858.635 453.374C856.86 444.845 863.682 436.385 873.881 434.54L873.846 434.644ZM881.191 471.233C892.782 466.359 903.92 469.388 905.904 478.788C907.888 488.187 900.022 500.233 888.5 505.629C876.77 509.11 865.771 502.565 863.822 492.748C861.872 482.93 869.426 473.043 881.225 471.129L881.191 471.233ZM889.51 510.711C902.737 504.549 915.233 508.1 917.356 518.927C919.479 529.754 910.777 543.297 897.516 549.11C884.254 554.924 871.793 548.031 869.669 536.752C867.546 525.472 876.318 514.61 889.545 510.711H889.51ZM899.743 558.649C914.467 551.93 928.459 556.247 931.07 568.049C933.681 579.851 923.586 595.377 908.828 601.783C894.07 608.189 880.077 603.106 877.501 590.434C874.925 577.762 885.02 565.333 899.778 558.649H899.743ZM836.324 355.096C838.295 354.512 840.417 354.734 842.224 355.713C844.032 356.692 845.377 358.348 845.965 360.318C846.137 360.884 846.242 361.468 846.279 362.059C846.044 364.668 844.932 367.122 843.124 369.018C841.316 370.915 838.919 372.143 836.324 372.503C833.736 372.126 831.349 370.892 829.544 368.999C827.74 367.105 826.622 364.662 826.369 362.059C826.369 357.185 830.894 354.086 836.324 355.096ZM836.324 401.084C833.059 400.607 830.049 399.047 827.777 396.655C825.504 394.262 824.101 391.175 823.793 387.89C823.793 381.728 829.397 377.724 836.324 378.908C843.285 377.829 848.785 381.728 848.785 387.786C848.518 391.096 847.143 394.22 844.882 396.652C842.621 399.084 839.605 400.682 836.324 401.189H836.01L836.324 401.084ZM836.324 434.714C832.312 434.134 828.614 432.216 825.828 429.272C823.042 426.328 821.332 422.529 820.973 418.491C820.973 411.041 827.726 406.167 836.324 407.594H836.776C845.408 406.271 852.126 411.076 852.126 418.595C852.126 426.115 845.408 433.217 836.776 434.714H836.324ZM836.15 473.009C826.195 471.268 818.119 462.565 818.119 453.966C818.119 445.367 826.195 439.483 836.15 441.015H836.776C846.696 439.379 854.841 445.228 854.841 453.966C854.841 462.704 846.696 471.372 836.776 473.113H835.976L836.15 473.009ZM836.15 515.655C824.559 513.601 815.265 503.853 815.265 493.688C815.265 483.522 824.593 476.803 836.15 478.648H836.95C848.541 476.803 857.835 483.522 857.835 493.688C857.835 503.853 848.541 513.601 836.95 515.655H836.15ZM835.697 563.036C822.749 560.773 812.237 549.842 812.237 538.353C812.237 526.865 822.679 519.101 835.697 521.19H836.846C849.794 519.101 860.271 526.76 860.271 538.353C860.271 549.946 849.829 560.773 836.846 563.036H836.358C836.136 563.083 835.905 563.058 835.697 562.966V563.036ZM835.697 620.339C821.113 617.971 809.382 605.647 809.382 592.871C809.382 580.094 821.113 571.461 835.697 573.515H836.846C851.43 571.321 863.16 580.025 863.16 592.766C863.16 605.508 851.43 617.867 836.846 620.339H835.697ZM193.705 22.2109C177.38 11.2099 143.233 10.7225 117.441 24.996C91.6485 39.2694 83.956 56.0494 100.246 58.5212C116.536 60.9929 150.648 52.22 176.579 46.6498C202.511 41.0797 210.029 33.1423 193.705 22.2805V22.2109ZM689.957 279.829C682.439 272.858 673.863 267.124 664.548 262.841C655.95 259.359 653.409 260.578 658.805 266.078C666.368 272.98 674.951 278.675 684.249 282.963C692.812 286.792 695.387 285.4 689.957 279.829ZM646.935 260.682C637.378 250.145 626.387 241.004 614.286 233.528C603.286 227.018 599.98 228.341 606.906 236.765C616.453 247.245 627.447 256.307 639.556 263.676C650.729 270.117 654.001 268.202 646.935 260.717V260.682ZM595.211 229.106C583.627 215.046 570.225 202.59 555.356 192.065C541.816 181.621 537.743 182.909 546.306 194.92C557.77 209.233 571.186 221.865 586.161 232.449C599.701 241.953 603.808 240.316 595.211 229.315V229.106ZM534.541 185.694C520.87 168.117 505.114 152.265 487.62 138.487C471.504 126.233 466.736 128.043 476.935 142.352C490.515 160.146 506.412 176.046 524.203 189.628C540.11 201.43 545.088 200.072 534.646 185.729L534.541 185.694ZM466.736 134.797C451.104 114.555 432.749 96.5717 412.192 81.3587C393.709 69.3481 388.279 72.4813 399.87 87.834C415.75 107.473 434.053 125.019 454.344 140.054C472.862 153.562 478.257 151.333 466.666 134.971L466.736 134.797ZM390.159 81.7069C372.951 60.85 351.982 43.4084 328.341 30.2876C307.456 21.445 301.225 27.0499 314.418 41.3582C327.505 56.7109 355.038 77.9818 376.097 89.6791C396.981 102.456 403.177 99.1135 390.02 81.7069H390.159ZM295.865 34.8133C280.933 18.834 250.093 3.48133 226.772 0C203.311 1.32291 196.35 10.9314 211.108 20.888C232.459 34.0015 255.775 43.6044 280.167 49.3305C303.488 57.0242 310.554 50.7578 295.83 34.9526L295.865 34.8133ZM313.025 127.069C296.735 109.662 266.592 95.11 245.916 96.4677C225.24 97.8254 221.551 110.985 237.91 124.318C254.27 137.652 284.239 149.697 305.019 152.691C325.8 155.685 329.002 144.58 312.747 127.103L313.025 127.069ZM711.155 297.654C704.29 292.995 696.722 289.468 688.739 287.21C681.778 285.26 680.768 288.15 686.163 293.616C692.321 299.399 700.112 303.144 708.475 304.338C715.123 304.86 716.342 301.901 710.912 297.584L711.155 297.654ZM676.696 290.935C668.481 283.142 658.688 277.206 647.979 273.528C639.069 269.629 637.537 273.11 644.499 281.292C652.503 289.475 662.367 295.603 673.25 299.151C681.882 301.449 683.379 297.898 676.452 290.865L676.696 290.935ZM635.17 277.01C625.259 265.83 613.303 256.648 599.945 249.96C589.12 244.041 587.31 248.358 595.733 259.29C605.452 270.727 617.449 280.011 630.958 286.548C641.401 291.283 643.35 286.862 634.927 277.01H635.17ZM586.439 254.485C574.74 240.115 560.715 227.806 544.949 218.071C532 210.377 529.912 215.703 539.971 229.524C551.3 244.242 565.409 256.591 581.497 265.869C594.271 272.484 596.568 267.506 586.439 254.485ZM531.861 224.755C520.2 208.88 498.689 189.21 483.826 180.786C468.964 172.361 466.423 178.836 478.083 194.711C489.744 210.586 511.081 230.36 525.77 238.332C540.458 246.304 543.174 240.804 531.548 224.79L531.861 224.755ZM470.251 190.394C457.025 172.187 432.798 150.463 415.951 141.655C399.244 134.101 396.216 141.969 409.477 159.062C422.739 176.155 446.93 197.566 463.777 206.443C480.624 215.32 483.374 208.358 470.217 190.429L470.251 190.394ZM394.545 152.97C379.786 134.031 352.567 113.7 333.736 107.712C315.079 103.187 311.772 113.457 326.531 129.68C343.557 148.177 364.257 162.915 387.305 172.953C405.892 180.646 409.199 171.769 394.266 152.97H394.545ZM417.413 251.944C401.089 231.056 374.67 213.023 358.24 212.152C341.811 211.282 341.742 226.356 358.24 245.051C374.739 263.746 401.228 281.118 417.413 283.833C433.599 286.548 433.738 272.658 417.413 251.944ZM731.901 314.155C726.254 309.795 719.298 307.476 712.165 307.576C706.77 308.167 706.77 312.101 712.165 316.418C717.797 320.808 724.761 323.142 731.901 323.033C737.226 322.406 737.226 318.403 731.901 314.155ZM704.646 317.289C697.685 311.788 686.303 306.044 679.376 305.382C672.449 304.721 672.414 309.943 679.376 316.871C686.337 323.799 697.72 329.508 704.785 328.742C711.851 327.976 711.747 322.824 704.785 317.289H704.646ZM671.788 316.314C663.091 307.898 652.449 301.763 640.809 298.455C632.212 296.401 632.212 302.911 640.809 312.972C649.232 322.476 663.19 329.821 671.788 330.378C680.385 330.935 680.281 324.739 671.788 316.453V316.314ZM633.499 311.231C623.405 299.429 607.011 288.289 596.777 285.469C586.544 282.649 586.683 290.239 596.777 303.12C606.837 315.13 623.231 326.166 633.325 328.116C643.42 330.065 643.628 322.928 633.499 311.231ZM590.442 301.17C578.712 286.34 559.777 271.544 548.186 268.063C536.421 263.85 536.421 273.285 548.186 288.742C559.951 304.199 578.712 317.915 590.477 321.292C602.242 324.669 602.033 315.757 590.477 301.17H590.442ZM541.712 286.583C528.589 269.177 507.113 251.526 493.851 247.175C480.589 242.823 480.624 254.137 493.851 271.544C507.078 288.951 528.659 306.148 541.816 310.256C554.973 314.364 555.078 303.851 541.816 286.479L541.712 286.583ZM482.051 268.063C467.293 248.602 443.206 229.455 428.447 225.66C413.724 222.422 413.585 235.164 428.447 254.242C443.31 273.319 467.258 291.875 482.016 295.53C496.601 299.986 496.601 287.662 482.016 268.063H482.051ZM510.907 371.597C494.686 351.197 471.191 334.626 458.695 335.774C446.199 336.923 449.193 354.991 465.448 375.148C481.703 395.305 505.268 410.971 517.659 409.962C530.051 408.952 527.162 392.068 510.872 371.667L510.907 371.597ZM752.716 327.837C747.325 325.16 741.167 324.457 735.312 325.853C731.065 327.384 732.109 332.258 737.539 336.297C740.02 338.126 742.956 339.237 746.026 339.507C749.096 339.777 752.182 339.197 754.943 337.828C759.155 335.113 758.111 330.518 752.681 327.767L752.716 327.837ZM731.831 338.525C724.869 333.129 714.845 330.413 709.415 332.467C703.985 334.521 705.203 340.683 712.269 346.393C719.335 352.102 729.255 354.469 734.685 352.346C740.115 350.222 738.723 344.025 731.796 338.42L731.831 338.525ZM706.595 348.377C698.033 341.762 685.711 336.575 679.237 337.933C672.762 339.291 674.12 347.019 682.717 355.34C691.315 363.66 703.602 367.768 710.076 365.052C716.55 362.337 715.158 354.922 706.595 348.342V348.377ZM677.148 356.697C667.054 346.741 652.47 340.022 644.603 341.24C636.806 341.623 638.755 351.684 648.85 362.998C658.909 372.711 673.215 379.082 681.186 377.376C689.157 375.671 687.173 366.515 677.113 356.488L677.148 356.697ZM643.872 363.312C632.281 350.222 615.573 340.161 606.558 341.136C597.543 341.519 599.597 353.251 611.362 366.549C623.127 379.848 639.8 389.352 648.71 388.377C657.691 386.08 655.672 375.288 643.837 363.277L643.872 363.312ZM606.558 367.211C593.297 351.51 574.361 338.42 564.128 338.873C553.894 339.325 556.435 353.042 569.558 368.917C582.68 384.792 601.755 397.394 611.953 395.967C622.152 394.539 619.646 381.763 606.523 367.176L606.558 367.211ZM560.543 369.578C545.749 351.092 524.551 335.949 513.1 336.366C501.648 336.784 504.363 352.38 519.121 370.971C533.88 389.561 555.078 403.974 566.529 402.895C577.981 401.815 575.231 387.02 560.508 369.613L560.543 369.578ZM596.917 474.819C580.592 456.577 559.916 445.262 550.727 450.45C541.538 455.637 547.246 475.828 563.675 494.349C580.104 512.87 600.676 523.244 609.865 517.187C619.054 511.129 613.346 493.131 596.917 474.888V474.819ZM773.739 338.525C768.344 335.774 761.487 336.297 758.389 339.499C755.291 342.702 757.171 347.576 762.601 350.326C768.031 353.077 775.027 352.589 778.09 349.352C781.153 346.114 779.1 341.171 773.67 338.525H773.739ZM758.389 354.748C751.428 351.266 742.587 351.963 738.653 355.165C734.72 358.368 737.157 365.331 744.223 370.309C751.184 373.791 760.025 373.094 763.958 368.882C767.892 364.67 765.455 358.438 758.389 354.713V354.748ZM740.011 374.104C731.448 367.524 720.623 365.47 715.645 369.474C710.668 373.477 713.87 382.041 722.607 388.482C731.344 394.922 742.03 397.046 746.972 391.963C751.915 386.88 748.539 378.943 740.011 374.069V374.104ZM718.36 391.963C708.266 384.269 695.492 382.146 689.783 385.801C684.075 389.457 687.66 400.388 697.754 409.614C707.849 417.029 720.623 419.222 726.331 414.453C732.04 409.683 728.455 399.518 718.36 391.963ZM693.995 412.399C682.404 401.258 667.646 395.862 661.032 400.284C654.419 404.705 658.63 417.481 670.187 428.413C681.743 439.344 696.71 444.427 703.324 438.857C709.937 433.287 705.83 421.45 694.1 412.364L693.995 412.399ZM666.741 431.024C653.514 418.561 636.806 411.006 629.288 415.114C621.769 419.222 626.573 434.679 639.73 448.987C652.992 462.39 669.665 467.891 677.218 462.599C684.771 457.308 679.933 443.243 666.775 431.024H666.741ZM633.047 452.747C618.288 436.838 599.632 428.099 591.278 432.312C582.924 436.524 588.284 454.488 603.043 471.477C617.766 486.934 636.423 495.289 644.812 490.415C653.166 484.497 647.805 468.622 633.151 452.712L633.047 452.747ZM683.309 559.763C666.984 545.838 649.058 542.148 643.28 551.513C637.502 560.877 645.926 581.87 662.25 595.865C678.575 609.86 696.466 612.645 702.245 601.713C708.023 590.782 699.738 573.619 683.414 559.729L683.309 559.763ZM794.694 347.402C789.264 346.427 783.312 347.402 781.432 351.197C779.552 354.991 782.337 360.91 787.767 363.068C790.283 363.997 793.06 363.923 795.522 362.86C797.985 361.797 799.944 359.827 800.994 357.359C801.721 355.581 801.715 353.587 800.978 351.813C800.242 350.039 798.833 348.629 797.061 347.889C796.334 347.613 795.573 347.437 794.798 347.367L794.694 347.402ZM785.052 368.29C778.09 364.809 770.468 365.923 767.892 370.901C765.316 375.879 769.11 382.668 776.037 386.045C782.963 389.422 790.76 388.099 793.197 382.564C795.633 377.028 792.118 371.18 785.052 368.638V368.29ZM773.461 391.232C764.898 387.159 755.57 388.621 752.576 394.713C749.583 400.806 753.934 409.091 762.531 413.304C771.129 417.516 780.423 415.915 783.416 409.822C786.409 403.73 782.128 395.619 773.565 391.162L773.461 391.232ZM759.921 418.595C749.861 413.721 738.688 414.696 735.068 420.997C731.448 427.299 736.739 438.613 746.833 444.914C757.067 449.753 768.066 447.804 771.651 440.563C775.236 433.321 770.085 423.504 760.025 418.526L759.921 418.595ZM744.571 449.44C732.98 441.468 720.205 440.458 715.959 447.908C711.712 455.358 718.082 468.378 729.673 476.803C741.264 485.228 754.038 483.07 758.285 474.749C762.531 466.429 756.057 454.975 744.327 449.44H744.571ZM727.41 480.772C714.184 471.233 699.564 470.328 695.074 479.031C690.41 486.725 697.302 502.426 710.424 511.686C723.547 520.946 738.096 521.643 742.9 513.113C747.703 503.47 740.777 490.276 727.515 480.737L727.41 480.772ZM706.317 519.31C691.593 508.031 675.443 504.48 670.221 513.322C665 522.165 672.588 540.059 687.347 553.149C702.105 564.846 718.36 565.055 723.616 555.447C728.872 545.838 721.215 529.789 706.213 519.31H706.317ZM762.009 610.626C745.719 603.454 730.369 605.647 727.584 618.493C724.8 631.34 735.625 650.939 751.95 658.633C768.275 666.327 783.764 660.478 786.549 647.284C789.333 634.09 778.473 617.797 762.183 610.695L762.009 610.626ZM815.613 351.092C813.206 350.514 810.668 350.891 808.533 352.143C806.398 353.396 804.831 355.428 804.161 357.811C804.021 359.002 804.116 360.21 804.443 361.364C804.769 362.518 805.32 363.596 806.063 364.537C806.807 365.478 807.729 366.264 808.776 366.848C809.824 367.432 810.976 367.804 812.167 367.942C814.574 368.531 817.114 368.178 819.269 366.955C821.424 365.731 823.03 363.731 823.758 361.362C824.003 358.929 823.283 356.497 821.754 354.589C820.224 352.681 818.006 351.451 815.578 351.162L815.613 351.092ZM810.949 374.104C807.846 373.373 804.581 373.866 801.833 375.48C799.084 377.095 797.064 379.706 796.19 382.772C795.838 385.823 796.71 388.89 798.615 391.298C800.521 393.707 803.304 395.261 806.354 395.619H806.633C809.7 396.385 812.944 395.937 815.688 394.367C818.432 392.797 820.463 390.227 821.356 387.194C822.818 381.31 818.119 375.462 810.914 374.139L810.949 374.104ZM805.38 401.955C796.921 400.492 788.811 405.018 787.314 411.737C785.818 418.456 791.526 426.881 800.124 428.273C808.721 429.666 816.797 425.14 818.293 417.829C819.79 410.519 813.942 403.417 805.38 401.885V401.955ZM798.905 434.54C788.811 432.73 779.204 435.166 777.533 443.313C775.863 451.459 782.511 461.799 792.57 465.733C802.665 467.438 812.306 461.799 814.082 453.269C815.857 444.74 808.756 436.281 798.662 434.54H798.905ZM791.526 471.129C779.935 466.255 768.797 469.284 766.848 478.683C764.898 488.083 772.73 500.128 784.251 505.524C796.016 509.006 806.981 502.461 808.965 492.539C810.949 482.617 803.222 473.043 791.561 471.129H791.526ZM783.172 510.607C769.911 504.445 757.449 508.1 755.326 518.823C753.203 529.545 761.974 543.192 775.201 549.11C788.428 555.029 800.924 548.031 803.048 536.647C805.171 525.263 796.538 514.61 783.277 510.607H783.172ZM773.217 558.545C758.494 551.93 744.466 556.247 741.89 568.153C739.315 580.059 749.409 595.412 764.167 601.887C778.926 608.363 792.884 603.002 795.494 590.434C798.105 577.866 787.628 565.229 773.043 558.545H773.217Z" fill="white"/>
</g>
<path d="M2648.29 28.1543H2586.25V74.4013H2648.29V28.1543Z" fill="white"/>
<path d="M2648.29 104.098H2586.25V286.089H2648.29V104.098Z" fill="white"/>
<path d="M2804.92 99.9435C2793.09 99.4562 2781.44 102.932 2771.82 109.82C2763.12 117.371 2756.29 126.836 2751.87 137.472H2750.91V104.098H2694.19V286.09H2756.23V209.601C2755.4 194.644 2759.56 179.836 2768.08 167.509C2772.06 162.547 2777.18 158.61 2782.99 156.027C2788.81 153.444 2795.16 152.29 2801.51 152.661H2812.54C2816.01 153 2819.43 153.685 2822.76 154.704L2826.03 102.259L2815.81 101.033C2812.23 100.261 2808.58 99.8958 2804.92 99.9435Z" fill="white"/>
<path d="M2503.78 161.924V161.106C2515.99 157.413 2526.9 150.327 2535.24 140.673C2543.12 130.271 2547.03 117.399 2546.27 104.37C2546.54 94.919 2544.44 85.5511 2540.15 77.1262C2536.45 69.3607 2530.82 62.676 2523.8 57.7146C2516.22 52.4475 2507.79 48.5303 2498.88 46.1359C2488.74 43.6228 2478.33 42.3872 2467.89 42.458H2356.82V286.362H2458.22C2469.3 286.41 2480.36 285.43 2491.25 283.433C2501.86 281.837 2512.1 278.354 2521.49 273.148C2530.47 267.708 2538.03 260.215 2543.55 251.285C2549.73 240.512 2552.7 228.203 2552.13 215.799C2552.4 186.648 2536.06 168.735 2503.78 161.924ZM2420.9 88.16H2439.7C2444.89 88.0245 2450.08 88.2977 2455.23 88.9773C2459.89 89.2285 2464.49 90.217 2468.85 91.9061C2472.63 93.4148 2475.9 95.9946 2478.24 99.3302C2480.84 103.232 2482.13 107.86 2481.92 112.544C2482.16 117.103 2480.87 121.611 2478.24 125.348C2475.73 128.786 2472.35 131.49 2468.44 133.181C2464.13 135.217 2459.54 136.594 2454.82 137.268C2449.69 138.152 2444.49 138.562 2439.29 138.494H2421.31L2420.9 88.16ZM2483.76 226.424C2481.05 230.349 2477.23 233.382 2472.8 235.143C2467.88 237.284 2462.62 238.529 2457.27 238.82C2451.58 239.5 2445.84 239.774 2440.11 239.638H2420.9V182.357H2440.93C2446.53 182.356 2452.13 182.766 2457.68 183.583C2462.85 183.97 2467.94 185.094 2472.8 186.92C2477.24 188.834 2481.04 191.977 2483.76 195.979C2486.82 200.605 2488.25 206.114 2487.85 211.644C2488.25 216.982 2486.81 222.298 2483.76 226.697V226.424Z" fill="white"/>
<path d="M1916.76 161.924V161.106C1928.97 157.413 1939.88 150.327 1948.23 140.673C1956.11 130.271 1960.02 117.399 1959.26 104.37C1959.46 94.9704 1957.51 85.6486 1953.54 77.1262C1949.71 69.3262 1943.94 62.6417 1936.78 57.7146C1929.29 52.5575 1921.01 48.6474 1912.27 46.1359C1902 43.6224 1891.45 42.3872 1880.87 42.458H1769.8V286.362H1871.48C1882.55 286.444 1893.61 285.463 1904.51 283.433C1915.12 281.837 1925.36 278.354 1934.74 273.148C1943.72 267.708 1951.28 260.215 1956.81 251.285C1962.98 240.512 1965.96 228.203 1965.39 215.799C1965.39 186.648 1949.45 168.735 1916.76 161.924ZM1834.29 88.1601H1852.68C1857.87 88.0245 1863.06 88.2977 1868.21 88.9774C1872.89 89.1301 1877.5 90.1221 1881.83 91.9062C1886.01 93.3755 1889.59 96.1626 1892.05 99.8479C1894.51 103.533 1895.7 107.917 1895.45 112.339C1895.53 116.94 1894.09 121.44 1891.36 125.144C1888.88 128.616 1885.49 131.328 1881.56 132.977C1877.25 135.012 1872.65 136.39 1867.94 137.063C1862.8 137.88 1857.61 138.29 1852.41 138.289H1834.43L1834.29 88.1601ZM1897.22 226.424C1894.3 230.182 1890.52 233.173 1886.19 235.143C1881.13 237.278 1875.74 238.522 1870.25 238.82C1864.56 239.5 1858.82 239.774 1853.09 239.638H1834.29V182.357H1853.91C1859.51 182.356 1865.11 182.766 1870.66 183.583C1875.84 183.939 1880.93 185.064 1885.78 186.92C1890.23 188.849 1894.05 191.987 1896.81 195.979C1900.01 200.557 1901.59 206.068 1901.3 211.644C1901.51 216.961 1900.08 222.212 1897.22 226.697V226.424Z" fill="white"/>
<path d="M2068.63 24H2006.18V286.089H2068.63V24Z" fill="white"/>
<path d="M2243.1 104.03V180.859C2243.1 200.679 2239.83 214.914 2233.7 224.177C2230.32 228.705 2225.87 232.32 2220.74 234.698C2215.62 237.076 2209.99 238.142 2204.35 237.799C2200.45 237.735 2196.59 237.045 2192.91 235.756C2189.23 234.053 2186.11 231.336 2183.92 227.923C2181 223.679 2178.92 218.917 2177.79 213.893C2176.36 206.671 2175.68 199.322 2175.75 191.961V104.03H2113.71V217.57C2113.67 226.778 2114.9 235.947 2117.38 244.815C2119.65 253.346 2123.85 261.244 2129.64 267.904C2135.53 274.812 2142.88 280.326 2151.16 284.046C2161.06 288.347 2171.77 290.439 2182.56 290.176C2196 290.399 2209.3 287.434 2221.37 281.526C2233.47 275.275 2243.08 265.089 2248.61 252.647H2249.43V286.09H2306.16V104.03H2243.1Z" fill="white"/>
<path d="M2965.09 650.455C2958.41 652.143 2951.55 652.989 2944.66 652.975C2937.94 653.038 2931.27 651.764 2925.04 649.229C2919.04 647.159 2913.49 643.944 2908.7 639.761C2903.81 635.599 2899.92 630.383 2897.33 624.504C2894.69 618.371 2893.3 611.771 2893.24 605.093C2893.11 597.78 2894.33 590.505 2896.85 583.638C2899.1 577.748 2902.58 572.407 2907.07 567.973C2911.44 563.74 2916.57 560.367 2922.18 558.029C2928.17 555.683 2934.56 554.571 2940.98 554.759C2947.73 554.688 2954.47 555.513 2961 557.211C2967.2 558.714 2973.11 561.222 2978.5 564.635L2983 518.388C2975.69 515.031 2968.01 512.539 2960.12 510.964C2937.45 506.661 2914.07 507.946 2892.02 514.71C2879.8 518.949 2868.47 525.39 2858.58 533.713C2849.2 541.932 2841.68 552.055 2836.52 563.409C2826.13 589.382 2826.13 618.352 2836.52 644.325C2841.7 655.667 2849.22 665.786 2858.58 674.021C2868.63 682.015 2879.92 688.297 2892.02 692.615C2913.75 699.044 2936.67 700.441 2959.03 696.702C2967.6 695.524 2976.06 693.587 2984.29 690.912L2982.66 643.916C2977.12 646.876 2971.21 649.076 2965.09 650.455Z" fill="white"/>
<path d="M2798.11 651.749V584.115C2798.45 571.931 2796.13 559.819 2791.3 548.63C2786.88 539.577 2780.45 531.656 2772.5 525.472C2764.47 519.277 2755.17 514.928 2745.26 512.735C2734.61 509.824 2723.61 508.425 2712.57 508.581C2699.87 508.441 2687.18 509.398 2674.64 511.441C2662.99 513.621 2651.59 516.952 2640.59 521.385L2641.82 563.886C2650.57 559.185 2659.91 555.702 2669.6 553.534C2679.38 551.393 2689.36 550.297 2699.36 550.264C2704.57 550.397 2709.77 550.944 2714.89 551.899C2719.55 552.622 2724 554.316 2727.96 556.871C2731.75 559.175 2734.85 562.442 2736.95 566.338C2739.46 571.187 2740.59 576.628 2740.22 582.072C2736.54 581.255 2732.05 580.778 2726.6 579.96C2721.45 579.418 2716.25 579.281 2711.08 579.552C2701.52 579.54 2691.96 580.109 2682.47 581.255C2672 582.408 2661.8 585.333 2652.31 589.905C2642.78 593.856 2634.47 600.245 2628.2 608.431C2621.18 617.98 2617.58 629.618 2617.98 641.464C2617.79 650.338 2619.75 659.126 2623.7 667.074C2627.17 674.149 2632.2 680.344 2638.41 685.191C2644.92 689.973 2652.26 693.485 2660.07 695.544C2668.42 697.886 2677.07 698.987 2685.74 698.813C2697.15 699.208 2708.44 696.501 2718.43 690.981C2728.42 684.905 2736.72 676.399 2742.54 666.256H2743.29C2743.29 670.752 2743.29 675.315 2743.76 680.287C2744.24 685.259 2744.51 689.755 2744.51 694.727H2801.72C2800.35 687.636 2799.4 680.472 2798.86 673.272C2798.23 666.116 2797.98 658.931 2798.11 651.749ZM2737.29 629.817C2735.37 634.705 2732.75 639.292 2729.53 643.44C2726.21 647.599 2722.03 650.992 2717.27 653.384C2712.33 655.848 2706.86 657.109 2701.34 657.062C2694.83 657.198 2688.44 655.345 2683.02 651.749C2680.77 649.992 2678.98 647.719 2677.79 645.123C2676.61 642.527 2676.06 639.683 2676.21 636.833C2675.95 633.046 2676.79 629.265 2678.64 625.951C2680.49 622.637 2683.27 619.934 2686.63 618.17C2695.15 614.221 2704.49 612.376 2713.87 612.79C2718.36 612.79 2722.86 612.79 2727.49 613.198C2732.12 613.607 2735.93 613.539 2740.15 614.016C2740 619.397 2739.04 624.724 2737.29 629.817Z" fill="white"/>
<path d="M3233.26 512.667H3171.22V694.658H3233.26V512.667Z" fill="white"/>
<path d="M3126.69 656.244C3123.57 656.719 3120.44 656.992 3117.29 657.061C3113.53 657.525 3109.72 657.01 3106.23 655.566C3102.73 654.122 3099.67 651.798 3097.34 648.82C3093.59 640.973 3091.9 632.299 3092.43 623.619V556.87H3136.08V512.735H3092.43V452.457L3031.14 471.869V512.735H2994.37V556.87H3030.26V630.77C3030.08 640.475 3031.04 650.167 3033.12 659.649C3034.76 667.594 3038.42 674.983 3043.74 681.104C3049.54 687.302 3056.87 691.86 3064.99 694.317C3076.01 697.711 3087.52 699.23 3099.04 698.813C3106 698.882 3112.97 698.472 3119.88 697.587C3125.94 696.769 3132.07 695.952 3138.2 695.543L3135.74 654.677C3132.68 655.018 3129.68 655.563 3126.69 656.244Z" fill="white"/>
<path d="M3233.26 436.724H3171.22V482.971H3233.26V436.724Z" fill="white"/>
<path d="M3669.23 610.474C3669.31 597.374 3667.66 584.321 3664.33 571.651C3661.44 559.83 3656.15 548.726 3648.8 539.026C3641.28 529.496 3631.62 521.867 3620.61 516.754C3607.25 510.907 3592.76 508.093 3578.18 508.513C3565.14 508.313 3552.16 510.411 3539.84 514.711C3528.53 518.854 3518.13 525.145 3509.2 533.237C3500.48 541.772 3493.65 552.054 3489.18 563.41C3484.13 576.149 3481.63 589.756 3481.82 603.459C3481.62 617.374 3484.41 631.171 3490 643.916C3495.05 655.334 3502.59 665.479 3512.06 673.613C3521.76 681.991 3532.97 688.441 3545.09 692.615C3558.58 696.823 3572.64 698.892 3586.77 698.745C3598.18 698.817 3609.57 697.86 3620.81 695.885C3631.62 694.311 3642.19 691.406 3652.28 687.235V643.099C3643.39 647.878 3633.91 651.472 3624.08 653.792C3615.4 655.868 3606.52 656.965 3597.59 657.062C3584.83 657.562 3572.15 654.721 3560.82 648.82C3556.25 645.876 3552.41 641.93 3549.59 637.28C3546.77 632.631 3545.04 627.4 3544.54 621.985H3669.23V610.474ZM3544.68 586.499C3544.94 576.743 3548.04 567.274 3553.6 559.255C3560.18 552.374 3569.21 548.386 3578.73 548.169C3588.24 547.952 3597.45 551.523 3604.33 558.097L3605.49 559.255C3611.01 567.254 3613.87 576.785 3613.66 586.499H3544.68Z" fill="white"/>
<path d="M3368.37 642.213H3367.55L3330.03 512.667H3263.43L3330.03 694.658H3400.99L3467.52 512.667H3405.89L3368.37 642.213Z" fill="white"/>
<path d="M2972.85 127.869H2972.03C2964.97 118.147 2955.36 110.578 2944.25 106.005C2933.32 102.114 2921.8 100.155 2910.2 100.216C2898.7 99.9543 2887.33 102.651 2877.17 108.048C2867.69 113.386 2859.47 120.704 2853.06 129.503C2846.52 138.353 2841.55 148.259 2838.35 158.791C2835.02 169.63 2833.25 180.892 2833.11 192.233C2833.17 205.055 2835.14 217.797 2838.97 230.034C2842.02 241.388 2847.27 252.033 2854.42 261.365C2861.65 270.657 2870.97 278.113 2881.62 283.131C2892.27 288.148 2903.95 290.585 2915.71 290.244C2922.63 290.321 2929.52 289.357 2936.14 287.383C2942.67 285.815 2948.88 283.168 2954.53 279.551C2965 273.746 2973.21 264.579 2977.82 253.532H2978.23V286.157H3035.77V24H2973.33L2972.85 127.869ZM2969.99 214.573C2968.01 219.856 2965.1 224.745 2961.41 229.013C2958.15 233.053 2954.12 236.409 2949.56 238.889C2945.02 241.22 2939.95 242.345 2934.85 242.158C2929.57 242.464 2924.29 241.418 2919.53 239.117C2914.76 236.817 2910.66 233.339 2907.61 229.013C2900.38 218.611 2896.79 206.112 2897.4 193.459C2897.35 187.603 2898.18 181.773 2899.85 176.159C2901.37 170.94 2903.84 166.046 2907.13 161.719C2910.19 157.559 2914.31 154.291 2919.05 152.252C2923.93 149.666 2929.4 148.376 2934.92 148.506C2940.27 148.294 2945.6 149.386 2950.44 151.687C2955.28 153.989 2959.49 157.432 2962.7 161.719C2969.92 171.561 2973.52 183.587 2972.92 195.775C2973.04 202.163 2972.05 208.524 2969.99 214.573Z" fill="white"/>
<path d="M1831.84 448.574H1769.8V694.657H1831.84V448.574Z" fill="white"/>
<path d="M2583.8 508.512C2571.97 507.96 2560.3 511.442 2550.7 518.388C2541.97 526.019 2535 535.454 2530.27 546.041H2530V512.667H2473.27V694.658H2535.38V618.17C2534.53 603.221 2538.68 588.415 2547.16 576.078C2551.15 571.097 2556.27 567.148 2562.1 564.564C2567.93 561.979 2574.3 560.836 2580.67 561.229H2591.29C2594.9 561.502 2598.46 562.187 2601.91 563.273L2604.7 510.828L2594.56 509.602C2591.03 508.819 2587.41 508.453 2583.8 508.512Z" fill="white"/>
<path d="M2053.92 530.784C2047.98 523.885 2040.58 518.394 2032.26 514.71C2022.4 510.285 2011.67 508.165 2000.87 508.512C1987.43 508.29 1974.12 511.254 1962.05 517.162C1950.18 523.608 1940.74 533.746 1935.15 546.041H1934.74V512.667H1877.95V694.658H1940.05V618.17C1940.05 598.373 1943.32 583.933 1949.86 574.852C1953.11 570.291 1957.48 566.644 1962.55 564.258C1967.62 561.873 1973.22 560.83 1978.8 561.23C1982.81 561.115 1986.79 561.95 1990.41 563.667C1994.03 565.383 1997.19 567.932 1999.64 571.106C2004.95 577.917 2007.34 590.109 2007.34 607V694.931H2069.85V581.186C2069.97 571.944 2068.59 562.744 2065.77 553.942C2063.49 545.476 2059.45 537.585 2053.92 530.784Z" fill="white"/>
<path d="M2420.09 539.026C2412.56 529.496 2402.91 521.867 2391.89 516.754C2378.52 510.939 2364.04 508.126 2349.47 508.513C2336.42 508.347 2323.45 510.444 2311.13 514.711C2299.83 518.88 2289.43 525.168 2280.48 533.237C2271.76 541.772 2264.94 552.054 2260.46 563.41C2255.41 576.149 2252.91 589.756 2253.11 603.459C2252.9 617.374 2255.69 631.171 2261.28 643.916C2266.33 655.334 2273.87 665.479 2283.34 673.613C2293.07 681.992 2304.3 688.441 2316.44 692.615C2329.9 696.824 2343.94 698.892 2358.05 698.745C2369.46 698.817 2380.86 697.86 2392.1 695.885C2402.9 694.311 2413.47 691.406 2423.56 687.235V643.099C2414.69 647.878 2405.24 651.473 2395.43 653.792C2386.72 655.831 2377.82 656.927 2368.88 657.062C2356.24 657.603 2343.68 654.757 2332.51 648.82C2327.83 645.948 2323.89 642.03 2320.98 637.373C2318.07 632.717 2316.28 627.449 2315.76 621.985H2440.31V610.474C2440.39 597.374 2438.74 584.321 2435.41 571.651C2432.56 559.851 2427.35 548.752 2420.09 539.026ZM2315.55 586.704C2315.9 576.952 2319.02 567.502 2324.54 559.459C2327.58 555.727 2331.46 552.772 2335.87 550.841C2340.27 548.91 2345.07 548.059 2349.88 548.357C2362.54 548.357 2371.53 552.035 2376.43 559.459C2381.89 567.483 2384.72 577.002 2384.54 586.704H2315.55Z" fill="white"/>
<path d="M2224.57 656.244C2221.46 656.719 2218.32 656.992 2215.18 657.061C2211.41 657.485 2207.61 656.952 2204.11 655.511C2200.61 654.07 2197.53 651.768 2195.15 648.82C2191.4 640.973 2189.72 632.299 2190.25 623.619V556.87H2233.9V512.735H2190.11V452.457L2128.83 471.869V512.735H2092.46V556.87H2128.21V630.77C2128 640.477 2128.96 650.173 2131.07 659.649C2132.64 667.619 2136.31 675.026 2141.7 681.104C2147.54 687.307 2154.92 691.864 2163.08 694.317C2174.1 697.711 2185.61 699.23 2197.13 698.813C2204.09 698.882 2211.06 698.472 2217.97 697.587C2224.1 696.769 2230.23 695.952 2236.35 695.543L2234.31 654.677C2231.03 654.986 2227.78 655.509 2224.57 656.244Z" fill="white"/>
<defs>
<clipPath id="clip0_495_5215">
<rect width="1685.7" height="828" fill="white"/>
</clipPath>
</defs>
</svg>
