<svg width="257" height="70" viewBox="0 0 257 70" fill="none" xmlns="http://www.w3.org/2000/svg">
<path d="M239.2 64.5H224V61.6L226.7 58.7C231.3 54 234 50.9 234 47.7C234 45.6 232.9 43.9 230.2 43.9C228.4 43.9 226.8 44.8 225.7 45.6L224.4 42.2C225.9 41.1 228.4 40 231.2 40C236.4 40 238.8 43.3 238.8 47.2C238.8 51.4 235.9 54.9 232.3 58.4L230.3 60.4V60.5H239.2V64.5Z" fill="#00A0DB"/>
<path d="M251.4 51.6001C254.1 52.2001 256.3 54.4001 256.3 57.6001C256.3 61.6001 253.1 64.8001 247.4 64.8001C244.8 64.8001 242.5 64.1001 241.3 63.3001L242.4 59.8001C243.3 60.4001 245.3 61.1001 247.1 61.1001C250 61.1001 251.5 59.3001 251.5 57.4001C251.5 54.7001 249.1 53.4001 246.5 53.4001H244.9V50.1001H246.4C248.3 50.1001 250.7 49.1001 250.7 46.7001C250.7 45.0001 249.6 43.8001 247.3 43.8001C245.6 43.8001 244 44.5001 243.1 45.1001L242.1 41.7001C243.4 40.9001 245.8 40.1001 248.4 40.1001C253.1 40.1001 255.5 42.8001 255.5 46.0001C255.5 48.5001 254 50.6001 251.4 51.6001Z" fill="#00A0DB"/>
<path d="M90 5.9C91.3 5.6 93.9 5.5 96.4 5.5C99.4 5.5 101.3 5.8 102.9 6.7C104.4 7.5 105.5 9 105.5 10.9C105.5 12.8 104.4 14.6 101.9 15.5V15.6C104.4 16.3 106.3 18.1 106.3 20.9C106.3 22.9 105.4 24.4 104 25.5C102.4 26.7 99.7 27.5 95.4 27.5C93 27.5 91.1 27.3 90 27.2V5.9ZM94.9 14.1H96.5C99.1 14.1 100.5 13 100.5 11.4C100.5 9.8 99.2 8.9 97 8.9C95.9 8.9 95.3 9 94.9 9V14.1ZM94.9 23.7C95.4 23.8 96 23.8 96.8 23.8C99 23.8 101 23 101 20.7C101 18.5 99 17.7 96.5 17.7H94.8V23.7H94.9Z" fill="#00A0DB"/>
<path d="M109.6 5.9C111.2 5.6 113.6 5.5 116.2 5.5C119.4 5.5 121.7 6 123.3 7.2C124.6 8.2 125.3 9.7 125.3 11.7C125.3 14.5 123.3 16.3 121.4 17C122.9 17.6 123.8 19 124.3 21C125 23.4 125.7 26.3 126.1 27.1H121C120.6 26.5 120.1 24.7 119.5 22.1C118.9 19.4 118 18.7 116 18.6H114.5V27.1H109.6V5.9ZM114.5 15.1H116.4C118.9 15.1 120.3 13.9 120.3 12C120.3 10 118.9 9 116.7 9C115.5 9 114.8 9.1 114.5 9.2V15.1Z" fill="#00A0DB"/>
<path d="M134.3 21.6L132.7 27.1H127.6L134.3 5.5H140.8L147.6 27.1H142.3L140.6 21.6H134.3ZM139.9 18L138.5 13.4C138.1 12.1 137.7 10.5 137.4 9.2H137.3C137 10.5 136.7 12.1 136.3 13.4L135 18H139.9Z" fill="#00A0DB"/>
<path d="M155.5 5.59985V27.1999H150.5V5.59985H155.5Z" fill="#00A0DB"/>
<path d="M159.8 27.0999V5.59985H165.6L170.1 13.4999C171.4 15.7999 172.7 18.4999 173.7 20.8999H173.8C173.5 17.9999 173.4 15.0999 173.4 11.8999V5.59985H177.9V27.1999H172.7L168 18.8999C166.7 16.5999 165.3 13.7999 164.2 11.2999H164.1C164.2 14.0999 164.3 17.1999 164.3 20.6999V27.1999H159.8V27.0999Z" fill="#00A0DB"/>
<path d="M91.9 59.9C93.2 60.6 95.3 61.2 97.4 61.2C99.7 61.2 100.9 60.3 100.9 58.9C100.9 57.6 99.9 56.8 97.2 55.9C93.6 54.7 91.2 52.7 91.2 49.5C91.2 45.8 94.3 43 99.5 43C102 43 103.8 43.5 105.1 44.1L104 48C103.1 47.6 101.6 47 99.4 47C97.3 47 96.2 48 96.2 49.1C96.2 50.5 97.4 51.1 100.3 52.1C104.2 53.5 106 55.5 106 58.5C106 62.1 103.2 65.2 97.2 65.2C94.7 65.2 92.2 64.6 91 63.9L91.9 59.9Z" fill="#00A0DB"/>
<path d="M113.5 47.4999H107.6V43.3999H124.4V47.4999H118.4V64.9999H113.4V47.4999H113.5Z" fill="#00A0DB"/>
<path d="M129.9 59.4L128.3 64.9H123.2L129.9 43.3H136.4L143.2 64.9H137.9L136.2 59.4H129.9ZM135.4 55.8L134 51.2001C133.6 49.9001 133.2 48.3 132.9 47H132.8C132.5 48.3 132.1 49.9001 131.8 51.2001L130.5 55.8H135.4Z" fill="#00A0DB"/>
<path d="M147.6 47.4999H141.7V43.3999H158.5V47.4999H152.5V64.9999H147.5V47.4999H147.6Z" fill="#00A0DB"/>
<path d="M166.2 43.3999V64.9999H161.2V43.3999H166.2Z" fill="#00A0DB"/>
<path d="M190.5 53.9C190.5 61 186.1 65.3 179.7 65.3C173.2 65.3 169.4 60.5 169.4 54.3C169.4 47.8 173.6 43 180.1 43C186.9 43 190.5 48 190.5 53.9ZM174.7 54.2C174.7 58.4 176.7 61.4 180 61.4C183.3 61.4 185.3 58.3 185.3 54.1C185.3 50.2 183.4 46.9 180 46.9C176.7 46.9 174.7 50 174.7 54.2Z" fill="#00A0DB"/>
<path d="M193.8 64.8999V43.3999H199.6L204.1 51.2999C205.4 53.5999 206.7 56.2999 207.7 58.6999H207.8C207.5 55.7999 207.4 52.8999 207.4 49.6999V43.3999H211.9V64.9999H206.7L202 56.6999C200.7 54.3999 199.3 51.5999 198.2 49.0999H198.1C198.2 51.8999 198.3 54.9999 198.3 58.4999V64.9999H193.8V64.8999Z" fill="#00A0DB"/>
<path d="M34.6511 11.8998C33.7761 9.79985 32.2011 8.39985 29.9261 7.34985L19.9511 3.49985C11.7261 7.34985 6.12606 13.4748 2.80106 22.0498C2.10106 23.7998 1.57606 25.5498 1.05106 27.4748C2.97606 27.4748 4.72606 27.8248 6.65106 28.6998L19.4261 33.9498C21.7011 34.8248 23.8011 34.8248 25.9011 33.9498C28.0011 33.0748 29.4011 31.6748 30.2761 29.3998L34.6511 18.3748C35.7011 16.2748 35.5261 13.9998 34.6511 11.8998ZM21.1761 63.5248L37.6261 69.9998C48.6511 69.1248 57.2261 64.2248 63.7011 55.2998C63.5261 54.4248 63.3511 53.5498 63.0011 52.4998C61.9511 50.3998 60.3761 48.8248 58.1011 47.9498L46.0261 43.0498C45.6761 43.2248 45.3261 43.2248 45.1511 43.3998C44.8011 43.5748 44.4511 43.5748 43.9261 43.5748C41.4761 43.5748 39.5511 41.6498 39.5511 39.1998C39.5511 36.7498 41.4761 34.8248 43.9261 34.8248C46.0261 34.8248 47.6011 36.2248 48.1261 38.1498L60.0261 43.0498C62.1261 43.9248 64.4011 43.9248 66.6761 43.0498C67.7261 42.5248 68.6011 41.9998 69.3011 41.2998C71.0511 31.4998 68.9511 22.7498 63.1761 14.6998L43.7511 6.64985L45.5011 2.44985L45.8511 1.57485C40.0761 -0.175151 33.7761 -0.525151 27.8261 0.874849L32.0261 2.62485C35.7011 3.84985 38.3261 6.47485 39.9011 9.97485C41.4761 13.4748 41.6511 16.9748 40.2511 20.4748L35.7011 31.4998C34.3011 34.9998 31.6761 37.4498 28.1761 38.8498C24.6761 40.2498 21.0011 40.2498 17.5011 38.8498L4.72606 33.5998C-0.523936 31.8498 -0.173936 33.9498 0.351064 38.1498C0.876064 43.2248 2.27606 47.9498 4.90106 52.4998C8.40106 58.6248 13.8261 63.6998 20.1261 66.6748" fill="#00A0DB"/>
<mask id="mask0_445_736" style="mask-type:luminance" maskUnits="userSpaceOnUse" x="0" y="0" width="70" height="70">
<path d="M34.6501 11.8996C33.7751 9.7996 32.2001 8.39961 29.9251 7.34961L19.9501 3.4996C11.7251 7.3496 6.12509 13.4746 2.80009 22.0496C2.10009 23.7996 1.57509 25.5496 1.05009 27.4746C2.97509 27.4746 4.72508 27.8246 6.65008 28.6996L19.4251 33.9496C21.7001 34.8246 23.8001 34.8246 25.9001 33.9496C28.0001 33.0746 29.4001 31.6746 30.2751 29.3996L34.6501 18.3746C35.7001 16.2746 35.5251 13.9996 34.6501 11.8996ZM21.1751 63.5246L37.6251 69.9996C48.6501 69.1246 57.2251 64.2246 63.7001 55.2996C63.5251 54.4246 63.3501 53.5496 63.0001 52.4996C61.9501 50.3996 60.3751 48.8246 58.1001 47.9496L46.0251 43.0496C45.6751 43.2246 45.3251 43.2246 45.1501 43.3996C44.8001 43.5746 44.4501 43.5746 43.9251 43.5746C41.4751 43.5746 39.5501 41.6496 39.5501 39.1996C39.5501 36.7496 41.4751 34.8246 43.9251 34.8246C46.0251 34.8246 47.6001 36.2246 48.1251 38.1496L60.0251 43.0496C62.1251 43.9246 64.4001 43.9246 66.6751 43.0496C67.7251 42.5246 68.6001 41.9996 69.3001 41.2996C71.0501 31.4996 68.9501 22.7496 63.1751 14.6996L43.7501 6.6496L45.5001 2.4496L45.8501 1.5746C40.0751 -0.175395 33.7751 -0.525395 27.8251 0.874605L32.0251 2.62461C35.7001 3.8496 38.3251 6.47461 39.9001 9.97461C41.4751 13.4746 41.6501 16.9746 40.2501 20.4746L35.7001 31.4996C34.3001 34.9996 31.6751 37.4496 28.1751 38.8496C24.6751 40.2496 21.0001 40.2496 17.5001 38.8496L4.72509 33.5996C-0.524912 31.8496 -0.174912 33.9496 0.350088 38.1496C0.875088 43.2246 2.27508 47.9496 4.90008 52.4996C8.40008 58.6246 13.8251 63.6996 20.1251 66.6746" fill="white"/>
</mask>
<g mask="url(#mask0_445_736)">
<path d="M71.0508 -0.525391H-0.699219V72.6246H71.0508V-0.525391Z" fill="#00A0DB"/>
</g>
</svg>
