<?xml version="1.0" encoding="utf-8"?>
<!-- Generator: Adobe Illustrator 24.0.1, SVG Export Plug-In . SVG Version: 6.00 Build 0)  -->
<svg version="1.1" id="Layer_1" xmlns="http://www.w3.org/2000/svg" xmlns:xlink="http://www.w3.org/1999/xlink" x="0px" y="0px"
	 viewBox="0 0 825 361.6" style="enable-background:new 0 0 825 361.6;" xml:space="preserve">
<style type="text/css">
	.st0{fill:#FFFFFF;}
	.st1{fill:#FF6600;}
	.st2{fill:none;}
</style>
<title>Asset 1</title>
<g id="Layer_2_1_">
	<g id="Layer_1-2">
		<g>
			<path class="st0" d="M123.6,152.5c0,1-0.4,1.9-1.2,2.5c-22.5,18.9-45,37.8-67.6,56.7c-0.5,0.4-0.9,0.8-1.5,1.3L0.3,168.3
				c0.3-0.8,0.8-1.4,1.5-1.9c40.1-33.5,80.1-67,120.1-100.6l1.8-1.5v1.8C123.6,94.9,123.6,123.7,123.6,152.5z"/>
			<path class="st1" d="M123.5,359.9v1.5c-0.6-0.4-0.9-0.6-1.2-0.9l-42.7-35.8c-26.2-22-52.3-44-78.5-65.9c-0.8-0.6-1.2-1.6-1.1-2.6
				c0-28.7,0-57.3,0-86c0-0.6,0.1-1.3,0.3-1.9L53.4,213l0,0l2.1,1.8c22.3,18.8,44.7,37.5,67,56.3c0.7,0.5,1.1,1.4,1.1,2.3
				C123.5,302.2,123.5,331,123.5,359.9z"/>
			<path class="st1" d="M267.3,168l-53.2,44.8c-0.5-0.4-0.8-0.7-1.2-1l-67.3-56.5c-1.6-1.3-1.6-1.3-1.6-3.4v-48
				c12.3,10.3,24.5,20.5,36.7,30.8c0.1-0.3,0.2-0.7,0.3-1c0-0.5,0-0.9,0-1.4V95.7c0.6,0.5,1,0.7,1.4,1l30.8,25.8
				c17.8,14.9,35.6,29.8,53.4,44.7C266.9,167.4,267.1,167.7,267.3,168z"/>
			<path class="st0" d="M267.7,256.4c0,1-0.4,1.9-1.1,2.5c-40.4,33.9-80.9,67.9-121.3,101.8c-0.3,0.3-0.7,0.5-1.3,1
				c0-0.8-0.1-1.3-0.1-1.8v-45.1c0-13.8,0-27.5,0-41.3c-0.1-0.9,0.3-1.8,1.1-2.4c22.6-18.9,45.2-37.9,67.8-56.9
				c0.4-0.4,0.8-0.7,1.4-1.2l-0.1-0.1l53.2-44.8c0.3,0.5,0.4,1,0.4,1.5C267.7,198.5,267.7,227.4,267.7,256.4z"/>
			<path class="st0" d="M440.7,206.2c0,14,0,28,0,42c0,1,0,2-0.2,3c-0.7,4.1-3.4,6.4-7.6,6.8c-0.5,0-0.9,0-1.4,0
				c-11.3,0-22.7,0-34,0c-0.9,0-1.7-0.1-2.6-0.2c-3.4-0.4-6-3.2-6.3-6.5c-0.2-1-0.2-2.1-0.2-3.1c0-27.9,0-55.9,0-83.8
				c0-1,0.1-2,0.2-3c0.3-3.9,3.5-6.9,7.4-7c0.6,0,1.3-0.1,1.9-0.1c11,0,22,0,33,0c1.1,0,2.1,0.1,3.1,0.2c3.6,0.5,6.3,3.4,6.5,7
				c0.1,0.9,0.1,1.8,0.1,2.8C440.7,178.2,440.7,192.2,440.7,206.2z M425.2,244.6v-77.1H404v77.1H425.2z"/>
			<path class="st0" d="M489.2,210.9l17.1,47h-16.1c-0.7-2-1.4-3.9-2.1-5.8c-4.9-13.7-9.7-27.4-14.5-41.1c-0.3-0.8-0.4-1.6-0.4-2.4
				c-0.1-2.2,0-4.4,0-6.6v-1.5h15c0.3-1.2,0.4-31.1,0.1-32.8c-1-0.3-18-0.3-19.5,0v90.2h-15.5V154.3c0.4,0,0.8-0.1,1.2-0.1
				c13.3,0,26.7,0,40,0c0.9,0,1.8,0.1,2.7,0.3c3.5,0.5,6.1,3.3,6.3,6.8c0.1,1,0.2,1.9,0.2,2.9c0,12.3,0,24.6,0,36.9
				c0,1.4-0.1,2.7-0.5,4.1c-0.5,2.8-2.8,5-5.7,5.2c-2.2,0.3-4.5,0.4-6.7,0.5C490.5,211,490,210.9,489.2,210.9z"/>
			<path class="st1" d="M598,257.9c-0.3-1.5-0.3-102.3,0-103.5c0.3,0,0.7-0.1,1-0.1c10.6,0,21.2-0.1,31.8,0.1
				c4.9-0.1,9.6,1.8,13.1,5.2c2.8,2.7,4.5,6.3,5,10.2c0.2,1.5,0.3,3.1,0.3,4.7c0,21.2,0,42.4,0,63.6c0.1,2.8-0.3,5.5-1.2,8.1
				c-2.3,6.3-6.9,9.9-13.3,11.2c-1.9,0.4-3.9,0.6-5.9,0.5c-9.8,0-19.5,0-29.3,0L598,257.9z M613.2,244.8h1.6c2.3,0,4.7,0,7,0
				c1.7,0,3.5-0.1,5.2-0.3c3.5-0.3,6.3-2.9,6.7-6.4c0.1-0.9,0.2-1.7,0.2-2.6c0-19.7,0-39.3,0-59c0-0.5,0-0.9,0-1.4
				c-0.3-4-2.2-6.5-5.8-7.4c-1-0.2-2-0.4-3-0.4c-3.5,0-7.1,0-10.6,0c-0.4,0-0.9,0-1.3,0.1c-0.3,1.3-0.5,71.8-0.2,76.2
				C613,244.1,613.1,244.4,613.2,244.8L613.2,244.8z"/>
			<path class="st1" d="M775.4,224h15.2v20.8c1.2,0.3,17.3,0.4,19.1,0.1c0.1-0.5,0.1-0.9,0.2-1.4c0-5.9,0-11.8,0-17.8
				c0-0.9-0.4-1.7-1.1-2.2c-9.4-8.9-18.9-17.8-28.3-26.8l-1.9-1.8c-2.1-2-3.3-4.7-3.3-7.6c-0.1-8.1,0-16.2,0-24.4
				c0-0.9,0.1-1.8,0.4-2.7c1-3.9,3.6-5.6,7.5-6c0.3,0,0.6,0,0.8,0c10.8,0,21.6,0,32.5,0c1,0,1.9,0.1,2.8,0.4
				c3.3,0.8,5.6,3.7,5.7,7.1c0.1,1.8,0,3.6,0,5.4v19.2c-1,0.3-13,0.4-15,0.1c0-0.5-0.1-1.1-0.1-1.7c0-5.2,0-10.5,0-15.7
				c0-0.6-0.1-1.2-0.1-1.9h-19c0,0.5-0.1,0.9-0.1,1.3c0,5.5,0,11,0,16.5c0,0.8,0.4,1.6,1.1,2.1c9.9,9.3,19.8,18.7,29.8,28
				c1.8,1.6,3,3.7,3.5,6c0.1,0.5,0.2,1.1,0.2,1.6c0,9.1,0,18.2,0,27.2c0,3.5-1.9,7.2-6.8,7.8c-0.9,0.1-1.7,0.2-2.6,0.2
				c-10.4,0-20.7,0-31.1,0c-1.3,0-2.5-0.2-3.8-0.5c-2.3-0.6-4.2-2.4-4.8-4.7c-0.4-1.1-0.5-2.3-0.6-3.5c0-8.1,0-16.1,0-24.2
				C775.4,224.6,775.4,224.3,775.4,224z"/>
			<path class="st0" d="M376.1,188h-15.3v-20.2c-1.1-0.4-17.9-0.5-20-0.2c-0.3,1-0.4,75.5,0,77h19.9c0.1-1.4,0-2.8,0-4.2
				s0-2.9,0-4.4v-12.9c1.2-0.3,14.1-0.4,15.4,0v1.3c0,8.1,0,16.1,0,24.2c0,1.2-0.2,2.4-0.5,3.5c-0.6,2.8-2.9,5-5.7,5.5
				c-1,0.2-2,0.3-3,0.3c-11,0-21.9,0-32.9,0c-1.1,0-2.1-0.1-3.1-0.4c-3-0.6-5.3-3.2-5.6-6.2c-0.2-1.5-0.3-2.9-0.3-4.4
				c0-27.4,0-54.8,0-82.1c0-1.4,0.1-2.8,0.4-4.2c0.7-3.8,3.3-6,7.2-6.4c0.7-0.1,1.4-0.1,2.1-0.1h31.6c1.5,0,2.9,0.1,4.3,0.5
				c2.4,0.7,4.3,2.6,4.9,5c0.3,1.1,0.5,2.3,0.5,3.5c0,7.8,0,15.7,0,23.5C376.1,187.2,376.1,187.6,376.1,188z"/>
			<path class="st1" d="M751.3,154.4h15c0,0.3,0.1,0.6,0.1,0.9c-6.5,34.2-13.1,68.4-19.6,102.6c-0.5,0-0.9,0.1-1.3,0.1h-12.7
				c-1.3,0-1.3-0.1-1.6-1.3c-1.3-7-2.7-14-4-21c-1.7-8.9-3.4-17.7-5.1-26.6s-3.4-17.7-5.1-26.6c-1.7-8.9-3.4-17.9-5.1-26.9
				c-0.1-0.4-0.1-0.7-0.2-1.2H727c0.3,1.7,0.6,3.4,0.9,5.1c1.2,7.1,2.3,14.3,3.5,21.4c1.1,7,2.3,14,3.4,21c1,6.4,2,12.9,3.2,19.2
				c0.5,3.1,0.8,6.2,0.9,9.3c0,0.6,0.1,1.1,0.3,1.6c0.1-1.4,0.2-2.7,0.3-4c0.4-3.2,0.8-6.4,1.3-9.7c1-6.5,2.1-13,3.2-19.5
				c1.1-7,2.3-13.9,3.4-20.9l3.4-20.9C751,156.2,751.2,155.3,751.3,154.4z"/>
			<path class="st0" d="M558.8,257.9H516V154.3h42.5v13.6h-26.8c-0.3,1.1-0.4,28.4-0.1,30.4c3.8,0,7.6,0,11.5,0h11.5
				c0.3,4.5,0.4,8.9,0.1,13.4c-3.8,0.1-7.6,0-11.5,0.1s-7.7,0-11.5,0c-0.3,1.1-0.5,28.6-0.2,32.5c1.5,0.1,3,0.1,4.4,0.1
				c1.5,0,3,0,4.5,0h18.4C558.8,248.9,558.8,253.3,558.8,257.9z"/>
			<path class="st1" d="M661.6,257.8V154.5c1.1-0.3,40.1-0.4,42.1-0.1c0.3,4.4,0.3,8.9,0,13.3h-25.1c-1.9,0-1.9,0-1.9,1.9v26.8
				c0,0.6,0.1,1.2,0.1,1.9h23.2c0,4.5,0,8.8,0,13.3h-23.2c-0.1,0.6-0.1,1-0.1,1.4c0,10,0,20,0,30c0,0.4,0.1,0.7,0.1,1.2
				c0.6,0,1.1,0.1,1.6,0.1h24.1c0.5,0,1.1,0.1,1.7,0.1v13.4L661.6,257.8z"/>
			<path class="st1" d="M180.8,76.8c-0.5-0.4-0.9-0.6-1.2-0.8c-11.3-9.5-22.6-19-33.9-28.4c-0.7-0.5-1-1.3-1-2.1c0-12,0-24,0-36
				c0-0.4,0.1-0.9,0.1-1.5c0.5,0.4,0.9,0.6,1.1,0.8l33.8,28.4c0.7,0.5,1,1.3,1,2.1c0,12.2,0,24.4,0,36.6
				C180.8,76,180.8,76.3,180.8,76.8z"/>
			<path class="st1" d="M207.4,57c0.6,0.5,1,0.8,1.4,1.1c6.3,5.2,12.5,10.5,18.8,15.7c0.6,0.5,1,1.2,1,2c0,6.8,0,13.7,0,20.5
				c0,0.4-0.1,0.7-0.1,1.1c-0.3-0.2-0.7-0.4-1-0.6c-6.4-5.3-12.8-10.7-19.2-16.1c-0.6-0.4-1-1.1-1-1.8c0-7,0-13.9,0-20.9
				C207.3,57.7,207.4,57.5,207.4,57z"/>
			<path class="st1" d="M198.8,27c-0.4-0.3-0.6-0.4-0.9-0.6c-4.1-3.4-8.1-6.8-12.2-10.2c-0.7-0.5-1.2-1.4-1.1-2.3
				c0-4.1,0-8.1,0-12.2c0-0.5,0-0.9,0.1-1.5c0.3,0.1,0.6,0.3,0.9,0.5c4.2,3.4,8.4,7,12.7,10.5c0.5,0.3,0.7,0.8,0.7,1.4
				c0,4.7,0,9.4,0,14C198.9,26.6,198.9,26.7,198.8,27z"/>
			<line class="st2" x1="58" y1="216.8" x2="53.4" y2="213"/>
			<line class="st2" x1="214.1" y1="212.8" x2="212.9" y2="213.8"/>
		</g>
	</g>
</g>
</svg>
