<svg xmlns="http://www.w3.org/2000/svg" viewBox="0 0 290.97 138.73">
  <defs>
    <style>
      .cls-1 {
        fill: #c82027;
      }

      .cls-2 {
        fill: #fff;
      }
    </style>
  </defs>
  <title>Asset 2</title>
  <g id="Layer_2" data-name="Layer 2">
    <g id="Layer_1-2" data-name="Layer 1">
      <g>
        <rect class="cls-1" width="290.97" height="138.73"/>
        <path class="cls-2" d="M108.89,41.29a20,20,0,0,0-20-19.92l-51.17,0V36.49H87.94q5.81,0,5.81,5.41V65.64c0,3.61-1.94,5.4-5.81,5.4h-35V46.21H37.76v40H87.83a20.79,20.79,0,0,0,14.93-5.85,19.49,19.49,0,0,0,6.13-14.67Z"/>
        <path class="cls-2" d="M192.55,66.14a20,20,0,0,0,20,20H263.5V71H213.75c-4,0-6.05-1.79-6.05-5.4V41.9c0-3.61,2-5.41,6.05-5.41H263.5V21.35l-51,0a19.92,19.92,0,0,0-19.92,19.92Z"/>
        <path class="cls-2" d="M186.24,41.58c1-10.95-8.29-19.93-19.32-19.93h-60a26.66,26.66,0,0,1,8.5,15.14h50.09a4.64,4.64,0,0,1,4.87,4.72,5.43,5.43,0,0,1-5.29,5H115.84V66.3a26.62,26.62,0,0,1-9.22,20.18h60.3c11,0,19.88-8.15,19.46-19.35-.18-4.7-3.66-10.08-9.14-13.06A15.71,15.71,0,0,0,186.24,41.58ZM165.35,71.34H131V61.63h34.1a4.86,4.86,0,0,1,.26,9.71Z"/>
        <g>
          <path class="cls-2" d="M61.11,99.83a7,7,0,0,1-1.67,4.73,5.75,5.75,0,0,1-4.54,2.06H49a9.06,9.06,0,0,0-3.61.52,3.46,3.46,0,0,0-1.93,2.79H60.08V115H37.8l0-2.59q-.16-11,11.22-11h5.87c.74,0,1.11-.56,1.11-1.66s-.37-1.63-1.11-1.63h-16V93H54.9a5.72,5.72,0,0,1,4.54,2.07A7.1,7.1,0,0,1,61.11,99.83Z"/>
          <path class="cls-2" d="M86.49,110.65H82.92V115H77.77v-4.38H63.25l0-5L76,93h7v12.5h7.25Zm-8.72-5.14V98l-8,7.55Z"/>
          <path class="cls-2" d="M107,93,93.21,115h-7l14.23-22Z"/>
          <path class="cls-2" d="M121.3,115h-7l11.13-16.86H106.28L109.42,93h25.66Z"/>
        </g>
        <path class="cls-2" d="M141.8,93.12,136.09,103h0l-7,12h.06l-.06.11H263.5v-22Zm25.5,18.55h-3.73a6.17,6.17,0,0,1-2.61-.5,5.76,5.76,0,0,1-2-1.6l-7-8.2a3.56,3.56,0,0,0-1-.79,2.26,2.26,0,0,0-1.16-.32h-.19v11.41h-3.53V96.8h3.72a5.81,5.81,0,0,1,2.5.48,6.11,6.11,0,0,1,1.94,1.53l7.2,8.29a4.13,4.13,0,0,0,.95.78,2.21,2.21,0,0,0,1.15.33h.18V96.8h3.55Zm26.21,0H177.1c-3,0-4.48-1.22-4.48-3.64v-7.61q0-3.61,4.48-3.62h16.36v3.46H177.1q-.84,0-.84.72v1.51h17.09v3.45H176.26v1.53c0,.49.28.74.84.74h16.41Zm31.79-1.8a2.2,2.2,0,0,1-.35.76,2.75,2.75,0,0,1-.56.57,2.52,2.52,0,0,1-.67.35,2.06,2.06,0,0,1-.67.12h-2.84a2.92,2.92,0,0,1-1.68-.5,2.8,2.8,0,0,1-1.05-1.29l-3.8-9.62h-1.21l-3.79,9.62a2.8,2.8,0,0,1-1.05,1.29,2.94,2.94,0,0,1-1.68.5h-2.84a2.34,2.34,0,0,1-1.43-.47,2.27,2.27,0,0,1-.82-1.33L197.77,96.8h4l2.14,10.69c.08.48.31.72.68.72h.54c.31,0,.56-.23.75-.7L210,96.8h6.26l4.07,10.71c.18.47.42.7.75.7h.53q.54,0,.69-.72l2.14-10.69h4Zm28.81-1.81q0,3.61-4.48,3.61H233.22v-3.46h16.41c.56,0,.84-.17.84-.52v-1.21q0-.54-.84-.54H237.22q-4.49,0-4.48-3.17v-2.35q0-3.61,4.49-3.62h16.42v3.46H237.23c-.57,0-.85.18-.85.53V102c0,.36.28.54.85.54h12.42c3,0,4.46,1.18,4.46,3.55Z"/>
      </g>
    </g>
  </g>
</svg>
