<svg xmlns="http://www.w3.org/2000/svg" viewBox="0 0 407.93 403.53">
  <defs>
    <style>
      .cls-1 {
        fill: #8ab836;
      }

      .cls-2 {
        fill: #5ad;
      }

      .cls-3 {
        fill: #fff;
      }
    </style>
  </defs>
  <title>Asset 1</title>
  <g id="Layer_2" data-name="Layer 2">
    <g id="Layer_1-2" data-name="Layer 1">
      <g>
        <g>
          <path class="cls-1" d="M407.93,61.37a61.34,61.34,0,0,1-60.75,61.34,4.22,4.22,0,0,1-.62,0c-1.95,0-3.91-.09-5.84-.28a59.14,59.14,0,0,1-6.74-1,61.38,61.38,0,0,1-48.79-60.06,58.84,58.84,0,0,1,.93-10.53,47.34,47.34,0,0,1,1.56-6.7,49.72,49.72,0,0,1,2.11-6.09A61.37,61.37,0,0,1,407.93,61.37Z"/>
          <path class="cls-1" d="M89,154.1a44.41,44.41,0,0,1-23.29,39.14A43.61,43.61,0,0,1,60,195.85,43,43,0,0,1,54,197.59a43.85,43.85,0,0,1-9.51,1,44.51,44.51,0,1,1,0-89,44,44,0,0,1,12.86,1.9,45.47,45.47,0,0,1,5.78,2.17,47,47,0,0,1,5.56,3.07A44.5,44.5,0,0,1,89,154.1Z"/>
        </g>
        <circle class="cls-2" cx="200.32" cy="160.19" r="151.27"/>
        <path class="cls-3" d="M289.74,38.14a49.57,49.57,0,0,0-2.11,6.08,47.47,47.47,0,0,0-1.56,6.71,138.92,138.92,0,0,1,47.83,70.48,61.77,61.77,0,0,0,6.89,1,55.93,55.93,0,0,0,5.64.31h.48A150.89,150.89,0,0,0,289.74,38.14ZM62.9,113.58a44.55,44.55,0,0,0-5.82-2.17,152.59,152.59,0,0,0-3.36,86.24A42.52,42.52,0,0,0,59.61,196a48.49,48.49,0,0,0,6-2.67,137.64,137.64,0,0,1,2.81-76.76A44.72,44.72,0,0,0,62.9,113.58Z"/>
        <g>
          <path class="cls-3" d="M213.79,174h-83A44.31,44.31,0,0,0,142.89,189a66.1,66.1,0,0,0,17.32,9.87h36.26v36.59h-32q-11.9,0-30.81-10.93-19.95-11.77-30.22-29.65a74.74,74.74,0,0,1-6.65-13.67,79.33,79.33,0,0,1-3.83-14.71v-21a73.75,73.75,0,0,1,3.83-14.92,71.11,71.11,0,0,1,6.65-13.25,84,84,0,0,1,30.22-29.44,99.72,99.72,0,0,1,20.54-8.41,80.46,80.46,0,0,1,21.75-2.94H277.84v29.43a88,88,0,0,1-10.07,28.39q-11.47,18.93-14.5,20.39l-.81,1.69-7.25,6.73Zm-3.22-35.75a66.45,66.45,0,0,0,17.32-9.88q7.65-6.09,11.68-17.45H172.7l-12.49,2.31a66.44,66.44,0,0,0-17.32,9.89,43.61,43.61,0,0,0-12.09,15.13Z"/>
          <g>
            <path class="cls-3" d="M216.12,198.74v4.62a19.58,19.58,0,0,0-4.35.25c-.44.18-.66.67-.66,1.48V206h5v4.72h-2.83v24.42H201.37V210.75h-2.44V206h2.44a18.27,18.27,0,0,1,.27-3.94,3.27,3.27,0,0,1,1.31-1.76,7.61,7.61,0,0,1,2.93-1.18,30.75,30.75,0,0,1,5.88-.41Z"/>
            <path class="cls-3" d="M245.36,211.83v8.76a34.21,34.21,0,0,1-.53,7.09,9.58,9.58,0,0,1-2.27,4.21,10.3,10.3,0,0,1-4.47,2.89,19.43,19.43,0,0,1-6.27.92,24.3,24.3,0,0,1-6.69-.79,8.65,8.65,0,0,1-6.44-6.29,26.87,26.87,0,0,1-.64-6.83v-9.18a20.85,20.85,0,0,1,1.17-7.8,9.32,9.32,0,0,1,4.25-4.51,16.23,16.23,0,0,1,7.84-1.69,19.34,19.34,0,0,1,6.89,1.09,11.18,11.18,0,0,1,4.45,2.84,10,10,0,0,1,2.13,3.62A20.3,20.3,0,0,1,245.36,211.83Zm-11.92-2.7a10.69,10.69,0,0,0-.33-3.46,1.34,1.34,0,0,0-1.38-.72,1.43,1.43,0,0,0-1.42.72,10.2,10.2,0,0,0-.35,3.46v16.16a9.88,9.88,0,0,0,.35,3.31,1.37,1.37,0,0,0,1.39.77,1.41,1.41,0,0,0,1.4-.7,8.57,8.57,0,0,0,.34-3Z"/>
            <path class="cls-3" d="M261.55,198.74v36.43H249.28V198.74Z"/>
            <path class="cls-3" d="M278.1,198.74v4.75H265.83v-4.75Zm0,6.57v29.86H265.83V205.31Z"/>
          </g>
        </g>
      </g>
      <g>
        <path class="cls-2" d="M0,329.7H34.86V342H13.35v12.51H34.86v12.07H13.35v12.83H34.86v12.27H0Z"/>
        <path class="cls-2" d="M46.28,329.7H81.14v12H59.54v12.64h21.6V366.4H59.63v25.24H46.28Z"/>
        <path class="cls-2" d="M90.44,360.65q0-13.74,9.08-22.67A29.64,29.64,0,0,1,121.05,329q13.79,0,22.79,9t9,22.72q0,13.63-8.92,22.64t-22.45,9q-13.55,0-22.29-9T90.44,360.65Zm31.23-19.25a15.35,15.35,0,0,0-12.55,5.38q-4.77,5.52-4.77,14.24a19.71,19.71,0,0,0,4.86,13.68,15.76,15.76,0,0,0,12.27,5.43,16.05,16.05,0,0,0,12.57-5.36q4.78-5.34,4.79-14.12t-4.7-13.87A16.3,16.3,0,0,0,121.67,341.4Z"/>
        <path class="cls-2" d="M164.27,329.7h13.25v48.59h18.26v13.35H164.27Z"/>
        <path class="cls-2" d="M204.55,329.7h13.36v61.94H204.55Z"/>
        <path class="cls-2" d="M232.81,377.53h12.08l-9.72,26h-7Z"/>
        <path class="cls-2" d="M281.4,329.7h13.26v48.59h18.26v13.35H281.4Z"/>
        <path class="cls-2" d="M322.64,329.7h13.25v48.59h18.26v13.35H322.64Z"/>
        <path class="cls-2" d="M407.93,333v15.1q-10.05-6-17.6-6a15.22,15.22,0,0,0-12.07,5.19q-4.53,5.19-4.53,14,0,8.31,4.76,13.28t12.74,5q7,0,16.7-5.62v15q-10.89,3.63-18.16,3.63a28.19,28.19,0,0,1-21.23-9.18,31.24,31.24,0,0,1-8.73-22.38,31.72,31.72,0,0,1,8.89-22.76,28.79,28.79,0,0,1,21.63-9.32A43.63,43.63,0,0,1,407.93,333Z"/>
      </g>
    </g>
  </g>
</svg>
