<svg xmlns="http://www.w3.org/2000/svg" viewBox="0 0 691.99 85">
  <defs>
    <style>
      .cls-1 {
        fill: #fff;
      }

      .cls-2 {
        fill: #40bc3d;
      }
    </style>
  </defs>
  <title>Asset 1</title>
  <g id="Layer_2" data-name="Layer 2">
    <g id="Layer_1-2" data-name="Layer 1">
      <g>
        <rect class="cls-1" width="25" height="25"/>
        <rect class="cls-1" y="31" width="25" height="22"/>
        <rect class="cls-1" y="59" width="25" height="26"/>
        <rect class="cls-1" x="31" width="22" height="25"/>
        <rect class="cls-2" x="31" y="31" width="22" height="22"/>
        <rect class="cls-1" x="31" y="59" width="22" height="26"/>
        <rect class="cls-1" x="59" width="26" height="25"/>
        <rect class="cls-1" x="59" y="59" width="26" height="26"/>
      </g>
      <g>
        <polygon class="cls-1" points="175.96 16.19 175.96 2.24 122 2.24 122 82.76 175.96 82.76 175.96 68.81 138.66 68.81 138.66 46.13 169.67 46.13 169.67 32.18 138.66 32.18 138.66 16.19 175.96 16.19"/>
        <polygon class="cls-1" points="227.48 42.6 254.42 2.24 234.25 2.24 217.39 27.56 200.58 2.24 180.47 2.24 207.35 42.6 180.44 82.76 200.68 82.76 217.39 57.72 234.15 82.76 254.44 82.76 227.48 42.6"/>
        <polygon class="cls-1" points="385.57 2.24 385.57 51.01 354.45 2.24 339.44 2.24 339.44 82.76 356.09 82.76 356.09 33.94 387.21 82.76 402.23 82.76 402.23 2.24 385.57 2.24"/>
        <polygon class="cls-2" points="462.55 2.24 462.55 35.45 433.17 35.45 433.17 2.24 416.51 2.24 416.51 82.76 433.17 82.76 433.17 49.4 462.55 49.4 462.55 82.76 479.21 82.76 479.21 2.24 462.55 2.24"/>
        <path class="cls-2" d="M556.65,13A41.06,41.06,0,0,0,526.57.68C514.7.68,504.74,4.81,496.94,13A41.32,41.32,0,0,0,485.25,42.5,41.32,41.32,0,0,0,496.94,72c7.8,8.15,17.76,12.28,29.63,12.28a41.06,41.06,0,0,0,30.08-12.27A40.54,40.54,0,0,0,568.9,42.5,40.54,40.54,0,0,0,556.65,13ZM508.92,23.49c4.62-5.1,10.38-7.58,17.62-7.58a24.09,24.09,0,0,1,18.23,7.71,26,26,0,0,1,7.47,18.88,26,26,0,0,1-7.47,18.88,24.09,24.09,0,0,1-18.23,7.71c-7.24,0-13-2.48-17.62-7.58s-7-11.43-7-19S504.2,28.7,508.92,23.49Z"/>
        <path class="cls-2" d="M626,54a16.34,16.34,0,0,0-2.39-5.69c-1-1.43-1.81-2.66-2.57-3.65a18.9,18.9,0,0,0-4.55-4l-3.8-2.53c-1-.65-2.63-1.63-5.1-3l-4.75-2.6c-.28-.17-1-.53-3.39-1.78a28.89,28.89,0,0,1-3.34-1.89l-3-2.31a5.56,5.56,0,0,1-1.66-1.83,5,5,0,0,1-.44-2.13,5,5,0,0,1,2.51-4.6A13,13,0,0,1,601,15.91a20.35,20.35,0,0,1,9.12,2.74,28.91,28.91,0,0,1,4.28,2.77l3.6,2.8,6.71-14.48L622.39,8a29.79,29.79,0,0,0-5.91-3.71A36.4,36.4,0,0,0,601,.68a29.94,29.94,0,0,0-18.19,5.83c-5.6,4.12-8.43,9.54-8.43,16.13a17.87,17.87,0,0,0,4.54,12,35,35,0,0,0,9.93,7.86L599.37,48a28.12,28.12,0,0,1,7.9,5.78,8.9,8.9,0,0,1,2.67,6.29,7.67,7.67,0,0,1-3,6.32,12.11,12.11,0,0,1-8.06,2.71c-2.44,0-5.72-1.31-9.58-3.84a38.79,38.79,0,0,1-5.28-4L580.4,58l-6.72,14.57,1.71,1.79a30.61,30.61,0,0,0,6.47,5.09,32.76,32.76,0,0,0,17,4.91,29.5,29.5,0,0,0,19-6.73c5.74-4.66,8.65-10.55,8.65-17.53A29.38,29.38,0,0,0,626,54Z"/>
        <polygon class="cls-2" points="631.35 2.24 631.35 16.19 653.37 16.19 653.37 82.76 670.02 82.76 670.02 16.19 692 16.19 692 2.24 631.35 2.24"/>
        <path class="cls-2" d="M289.6,0a42.5,42.5,0,1,0,42.51,42.5A42.49,42.49,0,0,0,289.6,0Zm-3.7,4.84h9.18V35.15H285.9Zm3.7,66.73c-16.05,0-28.5-13-28.5-29.07a28.46,28.46,0,0,1,21.13-27.8v6.84c-11,3.37-14.68,11.48-14.68,21a22.42,22.42,0,1,0,29.37-21.4V14.36A28.7,28.7,0,0,1,318.68,42.5,29.08,29.08,0,0,1,289.6,71.57Z"/>
      </g>
    </g>
  </g>
</svg>
