<svg width="374" height="90" viewBox="0 0 374 90" fill="none" xmlns="http://www.w3.org/2000/svg">
<path d="M32.8899 25.0125H43.0206V63.284C43.0206 69.5016 40.9703 74.2454 36.8697 77.5155C32.646 80.8267 27.3998 82.5611 22.0347 82.42C18.0726 82.5035 14.1468 81.6492 10.5777 79.9267C7.35039 78.3313 4.69636 75.7756 2.98042 72.6107L11.8239 67.5449C13.8606 71.2959 17.3716 73.1721 22.3569 73.1733C25.1638 73.3324 27.9252 72.412 30.0753 70.6007C31.9509 68.8837 32.8891 66.4447 32.8899 63.2838V58.942C29.8351 63.0161 25.5467 65.053 20.0247 65.0527C17.3587 65.1129 14.7099 64.6107 12.251 63.5786C9.79211 62.5465 7.57834 61.0077 5.75402 59.0627C3.87522 57.1336 2.39924 54.8498 1.41216 52.3444C0.425075 49.839 -0.0533689 47.1622 0.0047215 44.47C-0.0445414 41.7814 0.441923 39.1098 1.43575 36.6111C2.42958 34.1124 3.91089 31.8366 5.79332 29.9163C7.60885 27.9679 9.81452 26.424 12.2666 25.385C14.7187 24.346 17.3622 23.8354 20.0248 23.8863C25.5454 23.8863 29.8338 25.9232 32.8899 29.9972V25.0125ZM13.5526 52.39C14.6236 53.4208 15.8907 54.2261 17.2788 54.7579C18.6669 55.2897 20.1476 55.5373 21.6332 55.4859C23.1189 55.5368 24.5997 55.2891 25.9879 54.7573C27.376 54.2255 28.6433 53.4205 29.7147 52.39C30.7648 51.3626 31.5895 50.1278 32.1361 48.7643C32.6828 47.4007 32.9394 45.9382 32.8898 44.47C32.9338 43.0144 32.6743 41.5655 32.1276 40.2157C31.581 38.8659 30.7592 37.6448 29.7147 36.63C28.6431 35.5998 27.3758 34.795 25.9876 34.2634C24.5994 33.7318 23.1187 33.4842 21.6331 33.5351C20.1476 33.4838 18.667 33.7313 17.2789 34.2629C15.8909 34.7945 14.6238 35.5995 13.5526 36.63C12.5079 37.6446 11.6861 38.8658 11.1394 40.2156C10.5927 41.5654 10.3333 43.0143 10.3775 44.47C10.3277 45.9382 10.5842 47.4008 11.1309 48.7644C11.6776 50.128 12.5023 51.3628 13.5526 52.39Z" fill="white"/>
<path d="M86.6788 60.1885C84.7096 62.1874 82.3535 63.7638 79.7544 64.8212C77.1553 65.8786 74.3679 66.3949 71.5625 66.3385C68.7668 66.3684 65.9933 65.8398 63.4045 64.7837C60.8158 63.7276 58.464 62.1653 56.487 60.1884C54.51 58.2115 52.9476 55.8597 51.8914 53.271C50.8352 50.6824 50.3065 47.9089 50.3363 45.1132C50.3066 42.3174 50.8354 39.5439 51.8917 36.9552C52.9479 34.3665 54.5103 32.0147 56.4872 30.0377C58.4642 28.0606 60.8159 26.4981 63.4046 25.4418C65.9932 24.3855 68.7667 23.8566 71.5625 23.8861C74.3624 23.8548 77.1406 24.382 79.7345 25.4367C82.3284 26.4914 84.6861 28.0525 86.6698 30.0288C88.6535 32.0051 90.2234 34.357 91.2877 36.947C92.3521 39.537 92.8896 42.3131 92.8688 45.1132C92.9262 47.9162 92.4063 50.701 91.3414 53.2945C90.2765 55.888 88.6894 58.2346 86.6788 60.1885ZM63.8032 53.0727C64.8109 54.1015 66.0202 54.911 67.3554 55.4505C68.6907 55.99 70.1229 56.2479 71.5625 56.2079C73.0076 56.2452 74.4452 55.9863 75.7865 55.4471C77.1278 54.9079 78.3446 54.0999 79.3619 53.0727C80.3997 52.03 81.2132 50.7859 81.7524 49.4171C82.2915 48.0482 82.5449 46.5836 82.4969 45.1132C82.545 43.6426 82.2916 42.1778 81.7525 40.8088C81.2134 39.4398 80.3998 38.1955 79.3619 37.1527C78.3446 36.1254 77.1279 35.3172 75.7866 34.7779C74.4452 34.2386 73.0077 33.9795 71.5625 34.0167C70.1229 33.9769 68.6906 34.2349 67.3554 34.7745C66.0202 35.3141 64.8108 36.1238 63.8032 37.1527C62.7762 38.2016 61.9724 39.4478 61.4405 40.816C60.9085 42.1842 60.6594 43.646 60.7082 45.1132C60.6595 46.5802 60.9086 48.0418 61.4406 49.4099C61.9725 50.7779 62.7762 52.0239 63.8032 53.0727Z" fill="white"/>
<path d="M122.298 34.9824H113.212V51.7056C113.163 52.2597 113.23 52.818 113.41 53.3443C113.59 53.8707 113.879 54.3535 114.257 54.7614C115.119 55.4666 116.199 55.8502 117.313 55.8465C118.974 55.9261 120.638 55.9129 122.298 55.8072V65.2133C115.169 66.0179 110.143 65.3483 107.221 63.2043C104.3 61.0603 102.839 57.2274 102.84 51.7056V34.9824H95.8455V25.0124H102.84V16.8913L113.212 13.7554V25.0121H122.298V34.9824Z" fill="white"/>
<path d="M134.76 20.1883C133.927 20.1949 133.101 20.0306 132.333 19.7056C131.566 19.3805 130.873 18.9016 130.298 18.2983C129.695 17.7232 129.216 17.0306 128.89 16.2631C128.565 15.4956 128.401 14.6696 128.408 13.8361C128.404 12.9969 128.569 12.1655 128.894 11.3917C129.218 10.6178 129.696 9.91756 130.298 9.33281C130.867 8.71951 131.558 8.23126 132.326 7.89902C133.094 7.56678 133.923 7.39781 134.76 7.40281C135.61 7.39237 136.452 7.55853 137.234 7.89077C138.015 8.22301 138.72 8.71406 139.302 9.33281C139.903 9.91779 140.381 10.6181 140.706 11.3919C141.031 12.1656 141.196 12.9969 141.192 13.8361C141.199 14.6696 141.034 15.4954 140.709 16.2629C140.384 17.0303 139.905 17.723 139.302 18.2983C138.714 18.9069 138.008 19.3886 137.227 19.7136C136.446 20.0387 135.606 20.2002 134.76 20.1883ZM129.615 25.0119H139.987V65.2132H129.615V25.0119Z" fill="white"/>
<path d="M172.87 23.8866C175.488 23.8608 178.08 24.3964 180.473 25.4575C182.865 26.5186 185.003 28.0804 186.74 30.0375C190.563 34.1123 192.627 39.5278 192.488 45.1128C192.627 50.6979 190.562 56.1133 186.74 60.1881C185.003 62.1455 182.865 63.7073 180.473 64.7684C178.08 65.8295 175.488 66.3651 172.87 66.339C167.243 66.339 162.901 64.3824 159.846 60.469V81.2942H149.473V25.0117H159.846V29.7562C162.901 25.844 167.242 23.8878 172.87 23.8866ZM162.981 53.2731C164.018 54.322 165.26 55.1456 166.63 55.6921C167.999 56.2386 169.467 56.4964 170.941 56.4492C172.421 56.4937 173.894 56.2348 175.27 55.6886C176.645 55.1424 177.895 54.3204 178.941 53.2731C179.999 52.2012 180.826 50.9244 181.373 49.521C181.919 48.1176 182.173 46.6174 182.118 45.1124C182.172 43.6075 181.919 42.1073 181.372 40.7039C180.826 39.3006 179.999 38.0237 178.941 36.9516C177.895 35.9046 176.645 35.0827 175.269 34.5365C173.894 33.9903 172.421 33.7314 170.941 33.7756C169.467 33.7287 167.999 33.9865 166.63 34.533C165.26 35.0795 164.018 35.9029 162.981 36.9516C161.934 38.0296 161.117 39.3085 160.578 40.7111C160.039 42.1137 159.79 43.6109 159.846 45.1124C159.79 46.6139 160.039 48.1112 160.578 49.5138C161.117 50.9164 161.934 52.1953 162.981 53.2731Z" fill="white"/>
<path d="M230.358 25.0119H240.73V65.214H230.358V60.4701C227.248 64.3834 222.879 66.3401 217.252 66.3401C214.648 66.3604 212.069 65.8218 209.69 64.7607C207.311 63.6997 205.188 62.1408 203.463 60.1892C199.64 56.1146 197.575 50.6986 197.715 45.113C197.575 39.5276 199.64 34.1119 203.463 30.0377C205.188 28.0862 207.312 26.5274 209.691 25.4664C212.069 24.4053 214.648 23.8667 217.252 23.8868C222.881 23.8868 227.249 25.8434 230.359 29.7568L230.358 25.0119ZM211.221 53.2737C212.258 54.3225 213.5 55.146 214.87 55.6925C216.24 56.239 217.707 56.4968 219.181 56.4498C220.661 56.4945 222.134 56.2358 223.51 55.6896C224.886 55.1433 226.136 54.3212 227.182 53.2737C228.24 52.2017 229.067 50.9249 229.613 49.5215C230.16 48.1182 230.413 46.6179 230.359 45.113C230.413 43.608 230.159 42.1078 229.613 40.7045C229.067 39.3011 228.24 38.0242 227.182 36.9522C226.136 35.9049 224.886 35.0828 223.51 34.5366C222.134 33.9904 220.661 33.7316 219.181 33.7762C217.707 33.7293 216.24 33.9872 214.87 34.5337C213.5 35.0802 212.258 35.9035 211.221 36.9522C210.175 38.0302 209.357 39.309 208.818 40.7116C208.28 42.1142 208.031 43.6115 208.086 45.113C208.03 46.6145 208.279 48.1118 208.818 49.5144C209.357 50.917 210.175 52.1958 211.221 53.2737Z" fill="white"/>
<path d="M273.131 34.9824H264.046V51.7056C263.996 52.2597 264.064 52.8179 264.244 53.3442C264.424 53.8706 264.712 54.3533 265.09 54.7614C265.953 55.4664 267.033 55.85 268.146 55.8465C269.807 55.9261 271.472 55.9129 273.131 55.8072V65.2133C266.002 66.0179 260.977 65.3483 258.055 63.2043C255.133 61.0603 253.673 57.2274 253.675 51.7056V34.9824H246.679V25.0124H253.675V16.8913L264.046 13.7554V25.0121H273.131L273.131 34.9824Z" fill="white"/>
<path d="M302.799 23.8867C304.822 23.8257 306.836 24.1875 308.712 24.949C310.588 25.7104 312.285 26.8548 313.693 28.3089C316.56 31.2571 317.994 35.3309 317.995 40.5302V65.214H307.624V41.8168C307.7 40.6977 307.546 39.5749 307.173 38.5172C306.799 37.4595 306.214 36.4893 305.452 35.6659C304.679 34.9412 303.768 34.379 302.774 34.013C301.78 33.6469 300.722 33.4844 299.664 33.535C298.477 33.4806 297.293 33.6741 296.185 34.1032C295.077 34.5323 294.071 35.1876 293.231 36.0273C291.623 37.6901 290.818 40.1828 290.819 43.5054V65.214H280.448V8.93164H290.819V29.5151C293.338 25.764 297.331 23.8879 302.799 23.8867Z" fill="white"/>
<mask id="mask0_55_8842" style="mask-type:luminance" maskUnits="userSpaceOnUse" x="317" y="0" width="57" height="45">
<path d="M317.996 0L373.309 44.916L350.451 0H317.996Z" fill="white"/>
</mask>
<g mask="url(#mask0_55_8842)">
<path d="M354.418 -26.231L296.696 15.3398L336.887 71.1467L394.609 29.5759L354.418 -26.231Z" fill="url(#paint0_linear_55_8842)"/>
</g>
<mask id="mask1_55_8842" style="mask-type:luminance" maskUnits="userSpaceOnUse" x="317" y="44" width="34" height="46">
<path d="M317.996 89.824H350.451L340.855 44.916L317.996 89.824Z" fill="white"/>
</mask>
<g mask="url(#mask1_55_8842)">
<path d="M324.339 32.0463L300.188 81.0464L344.107 102.694L368.259 53.6937L324.339 32.0463Z" fill="url(#paint1_linear_55_8842)"/>
</g>
<mask id="mask2_55_8842" style="mask-type:luminance" maskUnits="userSpaceOnUse" x="317" y="0" width="57" height="90">
<path d="M340.855 44.916L350.451 89.824L373.309 44.916L317.996 0L340.855 44.916Z" fill="white"/>
</mask>
<g mask="url(#mask2_55_8842)">
<path d="M333.127 -24.6573L277.954 65.2529L358.178 114.481L413.351 24.571L333.127 -24.6573Z" fill="url(#paint2_linear_55_8842)"/>
</g>
<defs>
<linearGradient id="paint0_linear_55_8842" x1="332.007" y1="3.51534" x2="365.218" y2="49.6295" gradientUnits="userSpaceOnUse">
<stop stop-color="#01DAED"/>
<stop offset="0.3632" stop-color="#018EF3"/>
<stop offset="1" stop-color="#0100FD"/>
</linearGradient>
<linearGradient id="paint1_linear_55_8842" x1="322.008" y1="92.2614" x2="344.007" y2="47.628" gradientUnits="userSpaceOnUse">
<stop stop-color="#01DAED"/>
<stop offset="0.3632" stop-color="#018EF3"/>
<stop offset="1" stop-color="#0100FD"/>
</linearGradient>
<linearGradient id="paint2_linear_55_8842" x1="369.055" y1="59.3264" x2="313.217" y2="25.062" gradientUnits="userSpaceOnUse">
<stop stop-color="#FF8650"/>
<stop offset="0.0776" stop-color="#F55A65"/>
<stop offset="0.1954" stop-color="#E71B82"/>
<stop offset="0.2514" stop-color="#E1038E"/>
<stop offset="0.3539" stop-color="#DC048E"/>
<stop offset="0.4788" stop-color="#CD0690"/>
<stop offset="0.6153" stop-color="#B40992"/>
<stop offset="0.7601" stop-color="#920D95"/>
<stop offset="0.9098" stop-color="#661399"/>
<stop offset="1" stop-color="#48179C"/>
</linearGradient>
</defs>
</svg>
