<svg xmlns="http://www.w3.org/2000/svg" viewBox="0 0 900.48 121.99">
  <defs>
    <style>
      .cls-1 {
        fill: #fff;
      }
    </style>
  </defs>
  <title>Asset 1</title>
  <g id="Layer_2" data-name="Layer 2">
    <g id="Layer_1-2" data-name="Layer 1">
      <g>
        <g>
          <path class="cls-1" d="M88,120.84H45.59V81.65H71.72v22.93A16.27,16.27,0,0,0,88,120.84Z"/>
          <path class="cls-1" d="M120.84,0V120.84H88V81.65h16.59a16.22,16.22,0,0,0,16.23-16.23H88v-23A16.29,16.29,0,0,0,71.72,26.19V65.42H45.59v-23A16.2,16.2,0,0,0,29.33,26.23v78.38a16.25,16.25,0,0,0,16.26,16.23H0V0Z"/>
        </g>
        <g>
          <path class="cls-1" d="M213,30.44V67.61H174.21V30.44H156.08v90.4h18.13V82.37H213v38.47h18.12V30.44Z"/>
          <path class="cls-1" d="M300.74,49.09V59.31a28.7,28.7,0,0,0-23.68-11.4,31.63,31.63,0,0,0-16.66,4.54,32.08,32.08,0,0,0-11.79,13,41.71,41.71,0,0,0-4.31,19.27,42.48,42.48,0,0,0,4.31,19.5,33.09,33.09,0,0,0,11.79,13.16A30.62,30.62,0,0,0,276.93,122a29.3,29.3,0,0,0,14.17-3.3,26.59,26.59,0,0,0,9.64-8.33v10.48H319V49.09Zm-2.58,47.19a18,18,0,0,1-7,7.25,18.53,18.53,0,0,1-9.44,2.55,17.82,17.82,0,0,1-9.28-2.61,18.67,18.67,0,0,1-7-7.45,23.27,23.27,0,0,1-2.64-11.33,22.65,22.65,0,0,1,2.64-11.2,18.89,18.89,0,0,1,6.93-7.19,18.4,18.4,0,0,1,9.34-2.45,18.8,18.8,0,0,1,9.44,2.52,18.35,18.35,0,0,1,7,7.25A23.3,23.3,0,0,1,300.74,85,23.14,23.14,0,0,1,298.16,96.28Z"/>
          <path class="cls-1" d="M388.63,88.9a22.7,22.7,0,0,0-8.76-6.4,99.78,99.78,0,0,0-12.8-4,53.26,53.26,0,0,1-11.27-3.82,5.91,5.91,0,0,1-3.62-5.49,5.82,5.82,0,0,1,2.64-5.06c1.77-1.21,4.28-1.83,7.58-1.83a13.2,13.2,0,0,1,8.49,2.55,9.46,9.46,0,0,1,3.56,6.79H391.8c-.53-7.25-3.34-13-8.43-17.27s-11.92-6.44-20.45-6.44a36.44,36.44,0,0,0-15.09,2.88A22.92,22.92,0,0,0,338,58.56a18.52,18.52,0,0,0-3.43,10.88c0,4.83,1.24,8.65,3.69,11.49a23,23,0,0,0,8.82,6.37,100.58,100.58,0,0,0,13.13,4,63.71,63.71,0,0,1,11.33,3.82,5.54,5.54,0,0,1,3.56,5.23,6.23,6.23,0,0,1-2.9,5.32c-1.93,1.37-4.64,2.06-8.1,2.06a14.05,14.05,0,0,1-8.85-2.71,9.93,9.93,0,0,1-4.09-6.86H332.88a21.69,21.69,0,0,0,4.47,12,27.58,27.58,0,0,0,11.07,8.59A37.66,37.66,0,0,0,364.2,122a37.12,37.12,0,0,0,15-2.78A22.59,22.59,0,0,0,389,111.5a18.93,18.93,0,0,0,3.43-11.13Q392.3,93.26,388.63,88.9Z"/>
          <path class="cls-1" d="M402.28,30.31v7.51h25.25v83h9.08v-83h25.11V30.31Z"/>
          <path class="cls-1" d="M534.33,62.48A24.3,24.3,0,0,0,524.2,52.19a30.38,30.38,0,0,0-14.43-3.36,30.86,30.86,0,0,0-14.7,3.49,23.62,23.62,0,0,0-9.9,9.87V25h-9.08v95.85h9.08V82.24c0-8.36,2-14.73,6.08-19s9.5-6.47,16.33-6.47c6.63,0,11.89,2,15.74,6.08s5.75,9.93,5.75,17.63v40.4H538V79.4C538,72.74,536.78,67.12,534.33,62.48Z"/>
          <path class="cls-1" d="M622.05,81.85A33.55,33.55,0,0,0,618,65.35,30.37,30.37,0,0,0,606.31,53.5a34.43,34.43,0,0,0-17.67-4.41,36.29,36.29,0,0,0-18,4.41,30.76,30.76,0,0,0-12.31,12.67,40.65,40.65,0,0,0-4.41,19.3,39.69,39.69,0,0,0,4.48,19.24,31.67,31.67,0,0,0,12.38,12.7,35.6,35.6,0,0,0,17.86,4.45c8.56,0,15.64-2.16,21.29-6.54A29.74,29.74,0,0,0,621,98.44h-9.57a20.24,20.24,0,0,1-8,11.53c-4,2.84-9,4.24-14.83,4.24a26.83,26.83,0,0,1-12.44-2.9,22.74,22.74,0,0,1-9.18-8.59A28.76,28.76,0,0,1,563.13,89h58.66C622,87.33,622.05,85,622.05,81.85Zm-58.92-.26c.53-7.84,3.14-14,7.91-18.26a24.67,24.67,0,0,1,17.21-6.47,27.47,27.47,0,0,1,12.44,2.84,21.27,21.27,0,0,1,9,8.43,25.11,25.11,0,0,1,3.2,13.46Z"/>
          <path class="cls-1" d="M743.09,56.67q-7.83-7.85-20.28-7.84a28.52,28.52,0,0,0-15.74,4.47,24,24,0,0,0-9.77,12.87,24.87,24.87,0,0,0-10-12.93,29.46,29.46,0,0,0-16.14-4.41,28.16,28.16,0,0,0-13.85,3.43,23.3,23.3,0,0,0-9.6,10V50.13h-9.05v70.71h9.05V82.5q0-12.54,6-19.17c4-4.41,9.27-6.6,15.9-6.6s11.6,2,15.29,6.08,5.58,9.93,5.58,17.63v40.4h8.92V82.5q0-12.54,6-19.17t15.93-6.6c6.37,0,11.44,2,15.13,6.08S742,72.74,742,80.44v40.4h8.95V79.4Q750.93,64.51,743.09,56.67Z"/>
          <path class="cls-1" d="M835,81.85a33.89,33.89,0,0,0-4.09-16.5A30.31,30.31,0,0,0,819.22,53.5a34.51,34.51,0,0,0-17.67-4.41,36.28,36.28,0,0,0-18,4.41,30.45,30.45,0,0,0-12.31,12.67,40.65,40.65,0,0,0-4.41,19.3,39.8,39.8,0,0,0,4.47,19.24,31.48,31.48,0,0,0,12.38,12.7,35.54,35.54,0,0,0,17.86,4.45c8.56,0,15.65-2.16,21.3-6.54a29.92,29.92,0,0,0,11.07-16.88h-9.57a20.24,20.24,0,0,1-8,11.53c-4,2.84-9,4.24-14.83,4.24a26.74,26.74,0,0,1-12.44-2.9,22.74,22.74,0,0,1-9.18-8.59A28.43,28.43,0,0,1,776.05,89H834.7C834.87,87.33,835,85,835,81.85Zm-58.92-.26c.52-7.84,3.13-14,7.9-18.26a24.68,24.68,0,0,1,17.21-6.47,27.72,27.72,0,0,1,12.45,2.84,21.39,21.39,0,0,1,9,8.43,24.92,24.92,0,0,1,3.17,13.46Z"/>
          <path class="cls-1" d="M897.12,92.07a21.34,21.34,0,0,0-7.77-5.68,90.41,90.41,0,0,0-12.15-4c-4.25-1.21-7.61-2.32-10.13-3.3a17.24,17.24,0,0,1-6.27-4.15,9.32,9.32,0,0,1-2.51-6.79,9.67,9.67,0,0,1,4.27-8c2.85-2.16,6.54-3.24,11.14-3.24q7.74,0,12.22,3.82a13.79,13.79,0,0,1,4.86,10h9.08q-.54-10.09-7.51-15.87t-18.42-5.75A30.78,30.78,0,0,0,861,51.67a21.65,21.65,0,0,0-8.82,7,16.4,16.4,0,0,0-3.1,9.6c0,4.57,1.14,8.23,3.42,10.94a21.72,21.72,0,0,0,8.37,6.14,90.53,90.53,0,0,0,12.83,4.15c4,1.05,7.25,2,9.64,2.91a16.55,16.55,0,0,1,5.88,3.69,8.12,8.12,0,0,1,2.35,6,10.78,10.78,0,0,1-4.22,8.66c-2.81,2.35-6.66,3.49-11.59,3.49-5.62,0-10.09-1.2-13.39-3.65a13.42,13.42,0,0,1-5.65-9.67h-9.31A20.5,20.5,0,0,0,856,116.24q7.69,5.63,19.89,5.62a30.2,30.2,0,0,0,12.84-2.58,21.22,21.22,0,0,0,8.65-7.06,17.22,17.22,0,0,0,3.1-10.16A15.22,15.22,0,0,0,897.12,92.07Z"/>
        </g>
      </g>
    </g>
  </g>
</svg>
