<svg width="904" height="444" viewBox="0 0 904 444" fill="none" xmlns="http://www.w3.org/2000/svg">
<path d="M429.2 312.072L422.8 332.605H420.4L415 316.915L409.6 332.605H407.3L400.7 312.072H403.5L408.5 327.762L413.8 312.072H416.1L421.5 327.859L426.4 312.072H429.2Z" fill="white"/>
<path d="M473.6 312.072L467.2 332.605H464.8L459.4 316.915L454 332.605H451.7L445 312.072H447.8L452.8 327.762L458.1 312.072H460.4L465.8 327.859L470.7 312.072H473.6Z" fill="white"/>
<path d="M517.9 312.072L511.5 332.605H509.1L503.7 316.915L498.3 332.605H496L489.4 312.072H492.2L497.2 327.762L502.5 312.072H504.8L510.2 327.859L515.1 312.072H517.9Z" fill="white"/>
<path d="M532.1 329.99H535V332.605H532.1V329.99Z" fill="white"/>
<path d="M552.9 312.072H555.6V332.605H552.9V312.072Z" fill="white"/>
<path d="M578.8 314.397H572.6V312.072H587.8V314.397H581.6V332.605H578.9L578.8 314.397Z" fill="white"/>
<path d="M603.8 328.537V316.334C603.8 313.719 605.5 312.072 608.2 312.072H617.7V314.397H609.1C607.3 314.397 606.5 315.365 606.5 316.818V327.762C606.5 329.409 607.4 330.184 609 330.184H617.7V332.508H608.3C605.6 332.605 603.8 331.249 603.8 328.537Z" fill="white"/>
<path d="M634.6 312.072H637.3V330.28H649V332.605H634.7V312.072H634.6Z" fill="white"/>
<path d="M678.4 327.956H669.3L667.6 332.605H664.8L672.3 312.072H675.4L682.9 332.605H680.1L678.4 327.956ZM677.6 325.632L673.9 315.365L670.2 325.632H677.6Z" fill="white"/>
<path d="M715.5 312.072V332.605H713.2L702.5 316.915V332.605H699.8V312.072H702.3L712.8 327.569V312.072H715.5Z" fill="white"/>
<path d="M748.9 325.244V328.828C748.9 331.152 747.5 332.605 745 332.605H733.3V312.072H745C747.5 312.072 748.9 313.331 748.9 315.656V319.142C748.9 320.692 748.1 321.661 746.9 322.242C748.1 322.629 748.9 323.598 748.9 325.244ZM736 320.983H743.9C745.2 320.983 746.1 320.111 746.1 319.046V316.14C746.1 315.172 745.5 314.397 744.2 314.397H736V320.983ZM746.2 325.341C746.2 324.179 745.2 323.307 744 323.307H736V330.184H744.1C745.4 330.184 746.1 329.506 746.1 328.247L746.2 325.341Z" fill="white"/>
<path d="M766.4 312.072H777.5C780.5 312.072 782 313.622 782 316.431V328.15C782 330.958 780.4 332.508 777.5 332.508H766.4V312.072ZM776.9 330.28C778.5 330.28 779.3 329.409 779.3 327.956V316.818C779.3 315.268 778.5 314.494 776.8 314.494H769.2V330.28H776.9Z" fill="white"/>
<path d="M799.5 329.99H802.4V332.605H799.5V329.99Z" fill="white"/>
<path d="M819.9 328.537V316.334C819.9 313.719 821.6 312.072 824.3 312.072H833.8V314.397H825.2C823.4 314.397 822.6 315.365 822.6 316.818V327.762C822.6 329.409 823.5 330.184 825.1 330.184H833.8V332.508H824.4C821.7 332.605 819.9 331.249 819.9 328.537Z" fill="white"/>
<path d="M850.4 328.44V316.334C850.4 313.525 852 312.072 854.9 312.072H861.6C864.3 312.072 866 313.525 866 316.334V328.44C866 331.152 864.3 332.605 861.6 332.605H854.9C852.1 332.605 850.4 331.152 850.4 328.44ZM860.9 330.28C862.3 330.28 863.2 329.506 863.2 327.859V316.818C863.2 315.172 862.5 314.397 860.8 314.397H855.5C853.8 314.397 853.1 315.365 853.1 316.818V327.859C853.1 329.506 854.1 330.28 855.5 330.28H860.9Z" fill="white"/>
<path d="M903.4 312.072V332.605H900.8V316.915L894.3 328.053H892.6L886.1 316.818V332.605H883.5V312.072H886.2L893.5 324.663L900.8 312.072H903.4Z" fill="white"/>
<path d="M400.6 247.28V164.568C400.6 145.779 412.8 134.447 432.2 134.447H501V160.016H442.2C432.6 160.016 428.2 164.762 428.2 172.51V238.757C428.2 247.183 433.1 250.96 441.5 250.96H501V276.626H432.4C412.5 276.529 400.6 265.875 400.6 247.28Z" fill="#2BAAA9"/>
<path d="M521.8 134.35H549.9V250.862H624.8V276.528H521.8V134.35Z" fill="#2BAAA9"/>
<path d="M730.9 249.991H677.5L668.4 276.528H638.7L688.3 134.35H720.4L770 276.528H740L730.9 249.991ZM722.2 224.131L704.2 171.347L686.2 224.131H722.2Z" fill="#2BAAA9"/>
<path d="M903.4 134.35V276.528H878.4L816.6 185.391V276.528H789V134.35H815L876.3 225.294L875.6 134.35H903.4Z" fill="#2BAAA9"/>
<path d="M322.7 223.453L254.5 333.089H386.6L322.7 223.453Z" fill="#CCCCCC"/>
<path d="M323.8 276.818H241.1V380.45L210 411.055L206.5 414.542L195.5 425.389L194.7 426.164L187.2 433.622V443.597L194.7 436.14L205.2 425.873L262.6 369.409L298.7 333.864L323.8 309.167V276.818Z" fill="white"/>
<path d="M277.9 77.5938L220.5 134.058H166.7V77.5938H277.9Z" fill="white"/>
<path d="M67.6001 57.4492L0.600098 168.635H141.1L67.6001 57.4492Z" fill="#CCCCCC"/>
<path d="M157.5 77.5938V194.3L83.2002 267.326V77.5938H157.5Z" fill="white"/>
<path d="M157.5 204.276V214.349L83.2002 287.375V277.303L157.5 204.276Z" fill="#2BAAA9"/>
<path d="M157.5 224.325V234.301L83.2002 307.424V297.351L157.5 224.325Z" fill="#2BAAA9"/>
<path d="M157.5 244.373V254.349L83.2002 327.472V317.399L157.5 244.373Z" fill="#2BAAA9"/>
<path d="M157.5 264.422V274.398L83.2002 347.521V337.448L157.5 264.422Z" fill="#2BAAA9"/>
<path d="M298.2 77.5938L240.9 134.058H230.7L288.1 77.5938H298.2Z" fill="#2BAAA9"/>
<path d="M318.6 77.5938H308.4L251.1 134.058L242.9 142.097V152.17L261.5 133.768L318.6 77.5938Z" fill="#2BAAA9"/>
<path d="M339 77.5938H328.8L271.9 133.574L242.9 162.145V172.218L281.6 134.058L339 77.5938Z" fill="#2BAAA9"/>
<path d="M359.4 77.5938H349.2L292.3 133.574L242.9 182.194V192.266L302 134.058L359.4 77.5938Z" fill="#2BAAA9"/>
<path d="M379.7 77.5942H386.6V134.059H322.4L242.9 212.315V212.218L207.1 247.472L187.2 267.036V257.061L197.3 246.988L242.9 202.242L254.2 191.008H254.3L313.6 132.606L363.8 83.2116L369.5 77.5942L448.1 0.40332H458.2L379.7 77.5942Z" fill="#2BAAA9"/>
<path d="M157.5 57.0616V68.587H83.2002L67.6002 41.9528L52.0002 63.357C52.0002 63.357 46.3002 0.40332 103.4 0.40332C148.8 0.40332 156.6 36.7227 157.5 56.2868V57.0616Z" fill="#2BAAA9"/>
</svg>
