<svg xmlns="http://www.w3.org/2000/svg" viewBox="0 0 1959.54 414.91">
  <defs>
    <style>
      .cls-1 {
        fill: #fff;
      }
    </style>
  </defs>
  <title>Asset 1</title>
  <g id="Layer_2" data-name="Layer 2">
    <g id="main">
      <g>
        <g id="logo">
          <g>
            <path class="cls-1" d="M10,302.93a10,10,0,0,1-10-10V97.5a10,10,0,0,1,10-10H48.12a10,10,0,0,1,10,10v77.86c0,5.5,2.58,6.3,5.72,1.79l56.7-81.44c3.14-4.52,10.21-8.21,15.71-8.21h48.43c5.5,0,7.28,3.59,4,8L121.11,184.6a13.72,13.72,0,0,0,.13,15.84l74.19,94.62c3.39,4.33,1.67,7.87-3.83,7.87H138.31c-5.5,0-12.64-3.64-15.87-8.09L64,214.34c-3.23-4.45-5.88-3.59-5.88,1.91v76.68a10,10,0,0,1-10,10Z"/>
            <path class="cls-1" d="M237.52,302.93a10,10,0,0,1-10-10V97.5a10,10,0,0,1,10-10h38.71a10,10,0,0,1,10,10V242.6a10,10,0,0,0,10,10h42a10,10,0,0,1,10,10v30.33a10,10,0,0,1-10,10Z"/>
            <path class="cls-1" d="M385.6,302.93c-5.5,0-8.53-4.26-6.74-9.45L446.65,97a15.06,15.06,0,0,1,13.26-9.45h53.58A15.06,15.06,0,0,1,526.76,97l67.92,196.53c1.8,5.2-1.23,9.45-6.73,9.45H549.53a14,14,0,0,1-12.72-9.62L531.36,274a14,14,0,0,0-12.72-9.62H455.2a14.13,14.13,0,0,0-12.78,9.6l-5.61,19.34A14.14,14.14,0,0,1,424,302.93Zm75.17-90.06c-1.6,5.26,1.59,9.57,7.09,9.57h38.42c5.5,0,8.67-4.3,7.05-9.56l-16-52c-1.62-5.26-3.59-11.72-4.37-14.36l-1.37-5.79c-1.67-6.77-2.15-8.69-2.15-8.69-1.33-5.34-3.52-5.34-4.87,0,0,0-.1.36-1.08,5.46l-1.57,4.91c-1.32,4.91-3.71,13.23-5.31,18.49Z"/>
            <path class="cls-1" d="M641.12,239.9c2.85-4.7,8.38-5.39,12.3-1.53,0,0,9.68,9.57,17.52,14.15q12.31,7,24.08,7,11.06,0,18.34-6a19,19,0,0,0,7.28-15.28q0-10.09-6-15.85-6.43-5.46-28.41-11.35-30-8.13-42.42-21-12.6-13.19-12.6-35.89,0-29.44,19.75-47.95,19.47-18.65,51-18.65a105,105,0,0,1,32.21,4.63,114.49,114.49,0,0,1,20.13,8.79A11.38,11.38,0,0,1,759,115l-9.56,21.91c-2.21,5-7.62,6.48-12,3.2a60.77,60.77,0,0,0-11.58-6.37A52.57,52.57,0,0,0,706,129.7q-9.81,0-16.39,4.91a14.56,14.56,0,0,0-6.3,12.34,15.85,15.85,0,0,0,5.47,12.33c3.83,3.09,12.07,5.76,12.07,5.76,5.24,1.69,9.83,3.15,10.22,3.24l.28.05.28,0c.54.16,5.24,1.75,10.45,3.52l27.27,11.83A71.89,71.89,0,0,1,764,197s2.32,2.94,5,10.23a70.85,70.85,0,0,1,3.65,23.56q0,32.52-21.45,52.57-21.6,19.77-57.21,19.77-21.87,0-39-7.15c-11.45-4.77-26.1-16.68-26.1-16.68a11.86,11.86,0,0,1-2.58-14.87Z"/>
            <path class="cls-1" d="M819.33,239.21c2.85-4.7,8.38-5.39,12.29-1.53,0,0,9.67,9.55,17.5,14.12q12.3,7,24,7,11.05,0,18.32-6a19,19,0,0,0,7.27-15.26q0-10.08-6-15.82-6.43-5.46-28.38-11.35-29.91-8.11-42.36-21-12.57-13.15-12.58-35.84,0-29.4,19.73-47.89Q848.59,87,880.06,87a105,105,0,0,1,32.17,4.62,114.46,114.46,0,0,1,20.09,8.77A11.41,11.41,0,0,1,937,114.51l-9.55,21.85c-2.2,5-7.61,6.48-12,3.2a60.25,60.25,0,0,0-11.55-6.35,52.41,52.41,0,0,0-19.72-4.06q-9.78,0-16.36,4.9a14.55,14.55,0,0,0-6.29,12.32A15.85,15.85,0,0,0,867,158.69c3.83,3.08,12,5.74,12,5.74,5.23,1.7,9.83,3.15,10.21,3.24l.28.05.28.05c.54.16,5.24,1.75,10.45,3.53l27.21,11.8A71.89,71.89,0,0,1,942,196.37s2.31,2.92,5,10.2a70.93,70.93,0,0,1,3.64,23.53q0,32.47-21.43,52.5-21.56,19.74-57.12,19.74-21.84,0-39-7.14c-11.44-4.76-26.06-16.65-26.06-16.65a11.85,11.85,0,0,1-2.58-14.86Z"/>
            <path class="cls-1" d="M1021.62,302.93a10,10,0,0,1-10-10V97.5a10,10,0,0,1,10-10h41.44c5.5,0,14.5,0,20,.11,0,0,11.93.14,20.13.63a132.36,132.36,0,0,1,20.26,2.5,66.15,66.15,0,0,1,24.43,11.18,55.66,55.66,0,0,1,17.81,22.66q6.32,13.24,6.32,30,0,24.87-12.36,40.76c-8,10.6-26.48,23.13-26.48,23.13a9.61,9.61,0,0,0-2.37,13.69l45.9,62.68c3.25,4.44,1.41,8.07-4.09,8.07h-46.37c-5.5,0-12.29-3.87-15.1-8.6l-39.24-66.12c-2.8-4.73-5.1-4.1-5.1,1.4v63.32a10,10,0,0,1-10,10Zm45.18-123.6c0,5.5,2.45,10,5.44,10s9.93-.43,15.4-1c0,0,12.17-1.16,17.86-5.38q8.68-7.06,8.68-20.45,0-16.19-8.09-23c-5.5-4.61-17.57-5.87-17.57-5.87-5.47-.57-12.6-1-15.83-1s-5.89,4.5-5.89,10Z"/>
            <path class="cls-1" d="M1959.11,293.22a8.34,8.34,0,0,1-8.48,9.89h-34.89a11.82,11.82,0,0,1-11.35-9.91l-10-73.33c-.74-5.45-1.88-14.38-2.53-19.84,0,0-.68-5.72-1.17-12-.69-6.18-1.38-16.36-1.38-16.36-.37-5.49-1.6-5.57-2.73-.19l-3.58,14.7c-1.44,5.31-2.92,10.68-3.3,11.93s-2.33,8.37-3.86,13.65l-23.71,81.74a14.16,14.16,0,0,1-12.79,9.61h-19.14a14.15,14.15,0,0,1-12.79-9.61l-23.71-81.74c-1.53-5.28-3-10.45-3.23-11.49s-2.52-8.77-4-14.07L1773,171.52c-1-5.41-2.23-5.34-2.67.14,0,0-.72,8.87-1.4,14.17-.29,2.74-.74,6.77-1.33,12.06l-.58,5.3c-.41,3.72-1.35,11.23-2.09,16.68l-10,73.33a11.8,11.8,0,0,1-11.34,9.91H1709a8.33,8.33,0,0,1-8.47-9.89l30.2-195.66a12.07,12.07,0,0,1,11.53-9.88h38.12a14.18,14.18,0,0,1,12.81,9.59l26.9,91.91c1.55,5.28,3,10.36,3.3,11.29s1.76,6.25,3.07,11.11,3.57,14.91,3.82,13,2.17-11.05,2.68-13,4.76-17.43,6.32-22.71l27.14-91.62a14.23,14.23,0,0,1,12.84-9.59h38.27A12.07,12.07,0,0,1,1929,97.56Z"/>
            <path class="cls-1" d="M1658.88,153A111.7,111.7,0,0,0,1599,94.34a112.09,112.09,0,0,0-42.47-8.12,110.69,110.69,0,0,0-42.2,8A106.38,106.38,0,0,0,1478.52,118a104.45,104.45,0,0,0-24,35,106.47,106.47,0,0,0-4.67,13.44H1508a58.71,58.71,0,0,1,9.7-15.14Q1532.92,134,1556.49,134q23,0,38.7,17.37,15.39,17.52,15.39,43.36a73.73,73.73,0,0,1-3.67,24A55.39,55.39,0,0,1,1595.47,238q-15.67,17.37-39,17.37-23.71,0-39.11-17.09A54.56,54.56,0,0,1,1508.1,224v.46h-57.79a107.81,107.81,0,0,0,4.22,11.88,104.55,104.55,0,0,0,24,35,105.93,105.93,0,0,0,35.85,23.44,113.86,113.86,0,0,0,42.2,8.33,115.35,115.35,0,0,0,42.19-8.33,111.83,111.83,0,0,0,36.13-23.44,106.72,106.72,0,0,0,24-34.74,112.55,112.55,0,0,0,0-83.6Z"/>
            <path class="cls-1" d="M1208.49,194.68a108.87,108.87,0,0,0,8,41.94,106.72,106.72,0,0,0,24,34.74,111.83,111.83,0,0,0,36.13,23.44,115.35,115.35,0,0,0,42.19,8.33,113.86,113.86,0,0,0,42.2-8.33,105.93,105.93,0,0,0,35.85-23.44,104.55,104.55,0,0,0,24-35,107.81,107.81,0,0,0,4.22-11.88h-57.79V224a54.56,54.56,0,0,1-9.28,14.31q-15.39,17.08-39.11,17.09-23.31,0-39-17.37a55.39,55.39,0,0,1-11.44-19.35,73.73,73.73,0,0,1-3.67-24q0-25.85,15.39-43.36,15.68-17.37,38.7-17.37,23.58,0,38.83,17.37a58.71,58.71,0,0,1,9.7,15.14h58.1a106.47,106.47,0,0,0-4.67-13.44,104.45,104.45,0,0,0-24-35,106.38,106.38,0,0,0-35.85-23.73,110.69,110.69,0,0,0-42.2-8,112.09,112.09,0,0,0-42.47,8.12,106.61,106.61,0,0,0-67.89,100.34Z"/>
            <rect class="cls-1" x="1288.03" y="290.05" width="57.99" height="142.15" transform="translate(955.9 1678.14) rotate(-90)"/>
            <rect class="cls-1" x="1529.39" y="-42.08" width="57.99" height="142.15" transform="translate(1529.39 1587.39) rotate(-90)"/>
          </g>
        </g>
        <g>
          <path class="cls-1" d="M1698.29,379.85a11,11,0,0,1,11.17-11.2,11.09,11.09,0,0,1,8.16,3.23,11.65,11.65,0,0,1,0,16,11.38,11.38,0,0,1-8.16,3.29,11.15,11.15,0,0,1-8-3.29A10.87,10.87,0,0,1,1698.29,379.85Z"/>
          <path class="cls-1" d="M1771.2,338.78c1.32,2.42,3.12,5.87,4,7.68l.23.65c.22.65.43,1.25.61,1.79l.19.54c.08.27.33-.14.56-.9l.48-1.46.45-1.15c.77-1.52,2.49-4.72,3.83-7.12l.49-.88a9.44,9.44,0,0,1,7.44-4.37H1802c2.75,0,3.67,1.81,2,4l-13.39,18.15a7.19,7.19,0,0,0,0,8L1807.25,386c1.65,2.21.74,4-2,4h-12.46a9.77,9.77,0,0,1-7.55-4.3l-3.33-5.59c-1.4-2.37-2.81-4.74-3.12-5.28a28.65,28.65,0,0,1-1.42-3.27l-.19-.67-.19-.67c-.2-.64-.76.09-1.24,1.62l-.3.67-.37,1.12c-.69,1.2-2.39,4.12-3.78,6.49l-3.27,5.57a9.7,9.7,0,0,1-7.53,4.31h-12.06c-2.75,0-3.67-1.82-2-4l16.27-22.16a7.34,7.34,0,0,0,0-8.08l-13.12-18.11c-1.62-2.23-.69-4.05,2.06-4.05h11.73a9.33,9.33,0,0,1,7.4,4.39Z"/>
          <path class="cls-1" d="M1834.52,414.91c-2.75,0-4-2-2.86-4.52l11.59-24.49a12,12,0,0,0,0-9l-18.44-38.79c-1.18-2.49.1-4.52,2.85-4.52h12.07a7.87,7.87,0,0,1,6.8,4.67l4.27,11.06c1,2.57,2.4,6.22,3.13,8.13l.3,1.34.41,1.38c.35,1.51.9,1.51,1.21,0l.44-1.49.3-1.31c.73-1.86,2.14-5.48,3.15-8l4.34-11.08a7.92,7.92,0,0,1,6.82-4.66h11.29c2.75,0,4.1,2.07,3,4.59l-31.48,72.17a8.32,8.32,0,0,1-7,4.59Z"/>
          <path class="cls-1" d="M1959.54,385a5,5,0,0,1-5,5h-45a3.78,3.78,0,0,1-3.11-5.93l22-31.86c1.56-2.26.59-4.11-2.16-4.11h-15.42a5,5,0,0,1-5-5v-4.53a5,5,0,0,1,5-5h44.56a3.38,3.38,0,0,1,2.73,5.37L1935,370.64c-1.62,2.22-.7,4,2,4h17.49a5,5,0,0,1,5,5Z"/>
        </g>
      </g>
    </g>
  </g>
</svg>
