<svg width="233" height="45" viewBox="0 0 233 45" fill="none" xmlns="http://www.w3.org/2000/svg">
<path d="M38.9559 3.38096C38.333 3.38096 37.7636 3.66401 37.3899 4.15936C36.0018 5.96383 35.0053 7.29065 34.2935 8.28135C34.2935 8.29904 34.2757 8.29904 34.2757 8.31673C34.2579 8.33442 34.2401 8.35211 34.2223 8.3698C32.5495 10.6696 32.4427 11.0234 32.4783 11.165L32.7097 21.2311C32.7097 21.2311 32.7097 21.2311 32.7097 21.2488C32.7097 21.3019 32.7097 21.3726 32.7097 21.4257C32.7097 21.4788 32.7097 21.5319 32.7097 21.5673C32.6919 21.6557 32.6563 21.7618 32.6029 21.8503C32.5495 21.9388 32.4961 22.0095 32.4071 22.0626C32.336 22.1334 32.247 22.1687 32.1402 22.2218C32.1224 22.2395 32.0868 22.2395 32.069 22.2572C32.0334 22.2572 32.0156 22.2749 31.9801 22.2749C31.9089 22.2926 31.8377 22.3103 31.7309 22.328L31.375 22.3987C31.3572 22.3987 31.3572 22.3987 31.3394 22.3987C31.3038 22.3987 31.2504 22.3987 31.2327 22.3633C31.1971 22.3457 31.1437 22.2926 31.1437 22.2572L29.7556 18.0998C29.7378 18.0467 29.7022 18.0114 29.6489 17.9937H29.6311C29.5955 17.9937 29.5421 18.0114 29.5243 18.0467L21.2672 28.679C21.2494 28.6967 21.2316 28.7144 21.196 28.7144C21.1782 28.7144 21.1782 28.7144 21.1604 28.7144C21.0892 28.6967 21.0181 28.679 20.9469 28.6436C20.8935 28.6259 20.8401 28.5906 20.7867 28.5729H20.7689H20.7511C20.6977 28.5552 20.6622 28.5198 20.6088 28.4844C20.2885 28.3075 19.9325 28.0421 19.63 27.7237C19.5588 27.6529 19.5232 27.5114 19.5232 27.3699C19.5232 27.3345 19.541 27.2991 19.541 27.2637C19.541 27.2283 19.5588 27.2107 19.5766 27.1753V27.1576C19.5944 27.1222 19.6122 27.1045 19.63 27.0691L24.4704 20.8419C24.6127 20.665 24.6483 20.435 24.5594 20.2404C24.4882 20.0281 24.3102 19.8866 24.0967 19.8512C24.0967 19.8512 24.0789 19.8512 24.0611 19.8512C24.0255 19.8512 24.0077 19.8512 23.9721 19.8512C23.7764 19.8512 23.5984 19.9397 23.4738 20.0989L19.1673 25.6362L19.0606 25.7777C19.0072 25.8308 18.936 25.8661 18.8648 25.8661C18.8114 25.8661 18.7758 25.8485 18.7402 25.8308C18.6869 25.7954 18.6513 25.7246 18.6335 25.6892L18.6157 25.6539L17.975 24.0794C17.9039 23.9024 17.9395 23.7078 18.0462 23.5486L18.1708 23.3894L23.0645 17.0914C23.1891 16.9322 23.2247 16.7199 23.1713 16.543C23.1713 16.5253 23.1713 16.5076 23.1535 16.4899C23.0823 16.2777 22.9044 16.1361 22.673 16.1007C22.6375 16.1007 22.6197 16.1007 22.5841 16.0831C22.3883 16.0831 22.1926 16.1538 22.068 16.313L17.5835 22.0272C17.5124 22.098 17.4234 22.151 17.3344 22.1334C17.2276 22.1157 17.1565 22.0449 17.1209 21.9564L16.676 20.8596L16.4802 20.382C16.4268 20.2581 16.4268 20.1166 16.4802 19.9928C16.498 19.9397 16.5336 19.9043 16.5514 19.8512L21.3562 13.6771L21.4452 13.5532C21.5163 13.4471 21.5341 13.3233 21.4807 13.1994C21.4629 13.0225 21.374 12.881 21.2316 12.7748C21.1248 12.7041 21.0181 12.651 20.8935 12.651C20.68 12.6333 20.4842 12.7218 20.3418 12.8987L16.0531 18.4536C16.0175 18.489 15.982 18.5244 15.9286 18.5244C15.893 18.5244 15.8752 18.5421 15.8396 18.5244C15.7506 18.5067 15.6794 18.4536 15.6616 18.3829L15.2879 17.4453L15.2701 17.4099C15.0032 16.773 15.11 16.0477 15.5371 15.4992L25.022 3.36326H16.4624L2.24387 21.638C2.19048 21.7088 2.1549 21.7795 2.1371 21.8503C2.1371 21.8503 2.1371 21.868 2.1193 21.868C2.1193 21.8857 2.10151 21.9034 2.10151 21.9388C2.06592 22.0449 2.06591 22.1687 2.08371 22.2749C2.10151 22.3987 2.1549 22.5049 2.22608 22.611L16.4268 41.0096H21.8011C22.4239 41.0096 22.9934 40.7265 23.3671 40.2312C24.7551 38.4267 25.7517 37.0999 26.4635 36.1092C26.4635 36.0915 26.4813 36.0915 26.4813 36.0738C26.4991 36.0561 26.5169 36.0384 26.5347 36.0207C28.2074 33.7209 28.3142 33.3671 28.2786 33.2256L28.0473 23.1594C28.0473 23.1594 28.0473 23.1594 28.0473 23.1417C28.0473 23.0179 28.0473 22.9295 28.0473 22.8587V22.7879V22.7702C28.1184 22.4518 28.3854 22.2041 28.7591 22.1157C28.8303 22.098 28.9015 22.0803 29.0082 22.0626L29.3641 21.9918C29.3819 21.9918 29.3819 21.9918 29.3997 21.9918C29.4353 21.9918 29.4887 21.9918 29.5065 22.0272C29.5421 22.0449 29.5955 22.098 29.5955 22.1334L30.9835 26.2907C31.0013 26.3438 31.0369 26.3792 31.0903 26.3969C31.1081 26.3969 31.1081 26.3969 31.1259 26.3969C31.1615 26.3969 31.1971 26.3792 31.2327 26.3438L39.4897 15.7115C39.5075 15.6939 39.5253 15.6762 39.5609 15.6762C39.5787 15.6762 39.5787 15.6762 39.5965 15.6762C39.6677 15.6938 39.7389 15.7115 39.8101 15.7469C39.8634 15.7646 39.9168 15.7823 39.9702 15.8177C39.988 15.8177 39.988 15.8177 39.988 15.8354H40.0058C40.0592 15.8531 40.0948 15.8885 40.1482 15.9238C40.4685 16.1007 40.8244 16.3661 41.1269 16.6845C41.1981 16.7553 41.2337 16.8968 41.2337 17.0384C41.2337 17.0737 41.2159 17.1091 41.2159 17.1445C41.2159 17.1799 41.1981 17.1976 41.1803 17.233V17.2507C41.1625 17.286 41.1447 17.3037 41.1269 17.3391L36.2866 23.5663C36.1442 23.7432 36.1086 23.9732 36.1976 24.1678C36.2688 24.3801 36.4467 24.5216 36.6603 24.557C36.6603 24.557 36.6781 24.557 36.6959 24.557C36.7314 24.557 36.7492 24.557 36.7848 24.557C36.9806 24.557 37.1585 24.4686 37.2831 24.3093L41.5896 18.7721L41.6964 18.6305C41.7498 18.5775 41.8209 18.5421 41.8921 18.5421C41.9455 18.5421 41.9811 18.5598 42.0167 18.5775C42.0701 18.6129 42.1057 18.6836 42.1235 18.719L42.1413 18.7544L42.7819 20.3289C42.8531 20.5058 42.8175 20.7004 42.7107 20.8596L42.5861 21.0188L37.6924 27.3168C37.5678 27.476 37.5322 27.6883 37.5856 27.8652C37.5856 27.8829 37.5856 27.9006 37.6034 27.9183C37.6746 28.1306 37.8526 28.2721 38.0839 28.3075C38.1195 28.3075 38.1373 28.3075 38.1729 28.3252C38.3686 28.3252 38.5644 28.2544 38.6889 28.0952L43.1556 22.3633C43.2268 22.2926 43.3158 22.2395 43.4047 22.2572C43.5115 22.2749 43.5827 22.3456 43.6183 22.4341L44.0632 23.5309L44.2589 24.0086C44.3123 24.1324 44.3123 24.274 44.2589 24.3978C44.2411 24.4509 44.2055 24.4863 44.1877 24.5393L39.383 30.7135C39.2584 30.8019 39.1516 30.9081 39.205 31.0496L39.2584 31.1734C39.2762 31.3327 39.3652 31.4919 39.5075 31.598C39.6143 31.6865 39.7389 31.7218 39.8634 31.7218C40.0592 31.7218 40.2549 31.6334 40.3973 31.4742L44.686 25.9192C44.7216 25.8838 44.7572 25.8485 44.8106 25.8485C44.8462 25.8485 44.864 25.8308 44.8996 25.8485C44.9885 25.8661 45.0597 25.9192 45.0775 25.99L45.4512 26.9276L45.469 26.9453C45.7359 27.5822 45.6292 28.3075 45.2021 28.8559L35.7171 40.9919H44.2767L58.4953 22.7172C58.5131 22.6995 58.5309 22.6818 58.5309 22.6464C58.5487 22.6287 58.5487 22.611 58.5664 22.5933C58.5664 22.5756 58.5665 22.5756 58.5843 22.5579C58.602 22.5226 58.6198 22.5049 58.6198 22.4695C58.6732 22.328 58.6732 22.1687 58.6376 22.0272C58.6376 22.0095 58.6376 21.9918 58.6198 21.9564C58.6198 21.9388 58.602 21.9211 58.602 21.9034C58.602 21.8857 58.5843 21.868 58.5843 21.8503C58.5843 21.8326 58.5665 21.8149 58.5487 21.7972C58.5309 21.7795 58.5309 21.7618 58.5131 21.7265L44.3123 3.32788H38.9559V3.38096Z" fill="url(#paint0_linear_410_819)"/>
<path opacity="0.4" d="M28.0471 23.1764L28.2785 33.2425C28.3141 33.3664 28.2073 33.7379 26.4811 36.0908C25.7515 37.0815 24.755 38.426 23.3669 40.2482C22.9932 40.7435 22.406 41.0266 21.8009 41.0266H19.1494L25.4668 34.7463L27.2641 32.9595L28.0649 22.9464L28.0471 23.1764Z" fill="#4E52F5"/>
<path opacity="0.4" d="M32.6917 21.2307L32.4604 11.1645C32.4248 11.0407 32.5316 10.6692 34.2577 8.31627C34.9874 7.32557 35.9839 5.98106 37.372 4.15889C37.7457 3.66355 38.3329 3.38049 38.9379 3.38049H41.5895L35.2721 9.66077L33.5103 11.4476L32.7095 21.4606L32.6917 21.2307Z" fill="#4E52F5"/>
<path d="M72.0817 31.6805C70.9037 31.6805 69.8188 31.4636 68.8268 31.0296C67.8348 30.5956 66.9668 29.9859 66.2228 29.2006C65.4995 28.4153 64.9312 27.506 64.5179 26.4726C64.1252 25.4393 63.9289 24.3233 63.9289 23.1247V22.5667C63.9289 21.3887 64.1252 20.2831 64.5179 19.2498C64.9105 18.2165 65.4582 17.3071 66.1608 16.5218C66.8841 15.7365 67.7315 15.1268 68.7028 14.6929C69.6948 14.2382 70.7901 14.0109 71.9887 14.0109C73.2494 14.0109 74.3963 14.2795 75.4297 14.8168C76.463 15.3335 77.3103 16.1498 77.9716 17.2658C78.6329 18.3818 79.0049 19.8284 79.0876 21.6057L77.8476 19.6218V8.49296H80.8236V31.1226H78.4676V23.7757H79.3356C79.2529 25.6563 78.8603 27.1856 78.1576 28.3636C77.455 29.5209 76.5663 30.3682 75.4917 30.9056C74.4377 31.4222 73.301 31.6805 72.0817 31.6805ZM72.4847 29.0766C73.4974 29.0766 74.417 28.8493 75.2437 28.3946C76.0703 27.9399 76.7316 27.289 77.2276 26.4416C77.7236 25.5737 77.9716 24.561 77.9716 23.4037V21.9777C77.9716 20.8411 77.7133 19.8801 77.1966 19.0948C76.7006 18.2888 76.029 17.6791 75.1817 17.2658C74.355 16.8318 73.4457 16.6148 72.4537 16.6148C71.3584 16.6148 70.3871 16.8731 69.5398 17.3898C68.7131 17.9065 68.0621 18.6298 67.5868 19.5598C67.1321 20.4897 66.9048 21.5851 66.9048 22.8457C66.9048 24.1063 67.1425 25.212 67.6178 26.1626C68.0931 27.0926 68.7544 27.816 69.6018 28.3326C70.4491 28.8286 71.4101 29.0766 72.4847 29.0766ZM91.5634 31.6805C90.1168 31.6805 88.8665 31.4326 87.8125 30.9366C86.7585 30.4406 85.9009 29.7896 85.2395 28.9836C84.5782 28.1569 84.0822 27.2373 83.7516 26.2246C83.4416 25.212 83.2866 24.1787 83.2866 23.1247V22.5667C83.2866 21.4921 83.4416 20.4484 83.7516 19.4358C84.0822 18.4231 84.5782 17.5138 85.2395 16.7078C85.9009 15.8812 86.7378 15.2302 87.7505 14.7549C88.7838 14.2589 89.9928 14.0109 91.3774 14.0109C93.1754 14.0109 94.653 14.4035 95.8103 15.1888C96.9883 15.9535 97.8563 16.9455 98.4143 18.1648C98.993 19.3841 99.2823 20.6861 99.2823 22.0707V23.4037H84.5885V21.1717H97.1123L96.4303 22.3807C96.4303 21.2027 96.2443 20.1901 95.8723 19.3428C95.5003 18.4748 94.9424 17.8031 94.1984 17.3278C93.4544 16.8525 92.5141 16.6148 91.3774 16.6148C90.1994 16.6148 89.2178 16.8835 88.4325 17.4208C87.6678 17.9581 87.0892 18.6918 86.6965 19.6218C86.3245 20.5517 86.1385 21.6264 86.1385 22.8457C86.1385 24.0237 86.3245 25.088 86.6965 26.0386C87.0892 26.9686 87.6885 27.7126 88.4945 28.2706C89.3005 28.8079 90.3234 29.0766 91.5634 29.0766C92.8654 29.0766 93.9194 28.7873 94.7254 28.2086C95.552 27.63 96.048 26.9583 96.2133 26.1936H99.0033C98.776 27.3303 98.3213 28.3119 97.6393 29.1386C96.9573 29.9652 96.0997 30.5956 95.0664 31.0296C94.033 31.4636 92.8654 31.6805 91.5634 31.6805ZM104.906 31.1226L99.2636 14.5689H102.364L107.881 31.1226H104.906ZM105.65 31.1226V28.7666H109.245V31.1226H105.65ZM107.075 31.1226L111.88 14.5689H114.794L109.896 31.1226H107.075ZM126.748 31.7115C124.702 31.7115 122.945 31.3602 121.478 30.6576C120.01 29.9342 118.812 28.9939 117.882 27.8366C116.952 26.6586 116.259 25.398 115.805 24.0547C115.371 22.6907 115.154 21.3681 115.154 20.0868V19.4048C115.154 17.9995 115.381 16.6148 115.836 15.2508C116.29 13.8662 116.983 12.6159 117.913 11.4999C118.863 10.3839 120.052 9.49528 121.478 8.83396C122.924 8.15197 124.629 7.81097 126.593 7.81097C128.639 7.81097 130.447 8.1933 132.017 8.95795C133.588 9.72261 134.838 10.7869 135.768 12.1509C136.719 13.4942 137.277 15.0752 137.442 16.8938H132.327C132.183 15.9845 131.852 15.2095 131.335 14.5689C130.819 13.9282 130.147 13.4322 129.321 13.0809C128.515 12.7296 127.605 12.5539 126.593 12.5539C125.58 12.5539 124.681 12.7296 123.896 13.0809C123.11 13.4322 122.449 13.9282 121.912 14.5689C121.395 15.2095 120.992 15.9742 120.703 16.8628C120.434 17.7308 120.3 18.7021 120.3 19.7768C120.3 20.8307 120.434 21.8021 120.703 22.6907C120.992 23.5587 121.405 24.3233 121.943 24.9847C122.501 25.6253 123.183 26.1213 123.989 26.4726C124.795 26.8033 125.714 26.9686 126.748 26.9686C128.318 26.9686 129.641 26.5863 130.715 25.8217C131.811 25.057 132.472 24.003 132.699 22.6597H137.783C137.597 24.313 137.039 25.832 136.109 27.2166C135.2 28.5806 133.95 29.6759 132.358 30.5026C130.788 31.3086 128.918 31.7115 126.748 31.7115ZM147.139 31.7115C145.651 31.7115 144.329 31.4842 143.171 31.0296C142.014 30.5542 141.032 29.9136 140.226 29.1076C139.441 28.3016 138.842 27.382 138.428 26.3486C138.015 25.2947 137.808 24.189 137.808 23.0317V22.3187C137.808 21.1407 138.015 20.0248 138.428 18.9708C138.862 17.8961 139.482 16.9558 140.288 16.1498C141.115 15.3438 142.107 14.7135 143.264 14.2589C144.422 13.7835 145.713 13.5459 147.139 13.5459C148.606 13.5459 149.908 13.7835 151.045 14.2589C152.202 14.7135 153.184 15.3438 153.99 16.1498C154.796 16.9558 155.416 17.8961 155.85 18.9708C156.284 20.0248 156.501 21.1407 156.501 22.3187V23.0317C156.501 24.189 156.294 25.2947 155.881 26.3486C155.468 27.382 154.858 28.3016 154.052 29.1076C153.267 29.9136 152.295 30.5542 151.138 31.0296C149.981 31.4842 148.648 31.7115 147.139 31.7115ZM147.139 27.5266C148.11 27.5266 148.916 27.32 149.557 26.9066C150.198 26.4933 150.683 25.9147 151.014 25.1707C151.365 24.4267 151.541 23.6 151.541 22.6907C151.541 21.7194 151.365 20.8721 151.014 20.1488C150.663 19.4048 150.156 18.8158 149.495 18.3818C148.854 17.9478 148.069 17.7308 147.139 17.7308C146.23 17.7308 145.444 17.9478 144.783 18.3818C144.122 18.8158 143.616 19.4048 143.264 20.1488C142.934 20.8721 142.768 21.7194 142.768 22.6907C142.768 23.6 142.934 24.4267 143.264 25.1707C143.595 25.9147 144.091 26.4933 144.752 26.9066C145.413 27.32 146.209 27.5266 147.139 27.5266ZM157.948 31.1226V14.1349H161.884V21.4197H161.605C161.605 19.6838 161.822 18.2371 162.256 17.0798C162.711 15.9225 163.393 15.0545 164.302 14.4759C165.212 13.8972 166.317 13.6079 167.619 13.6079H167.836C169.82 13.6079 171.329 14.2589 172.362 15.5608C173.416 16.8421 173.943 18.7951 173.943 21.4197V31.1226H168.983V21.1407C168.983 20.2314 168.715 19.4874 168.177 18.9088C167.64 18.3301 166.917 18.0408 166.007 18.0408C165.077 18.0408 164.323 18.3405 163.744 18.9398C163.186 19.5184 162.907 20.2831 162.907 21.2337V31.1226H157.948ZM176.527 31.1226V13.9799C176.527 12.0166 177.085 10.5596 178.201 9.60894C179.317 8.65829 180.96 8.18297 183.13 8.18297H185.3V11.9029H182.913C182.355 11.9029 181.921 12.0579 181.611 12.3679C181.301 12.6779 181.146 13.1119 181.146 13.6699V31.1226H176.527ZM174.512 18.1028V14.4759H185.548V18.1028H174.512ZM198.157 31.1226V11.8409L199.521 12.8949H193.724V8.49296H203.21V31.1226H198.157ZM205.434 31.1226V25.5737H210.889V31.1226H205.434ZM222.249 31.7115C220.451 31.7115 218.911 31.4222 217.63 30.8436C216.349 30.2442 215.305 29.4383 214.499 28.4256C213.714 27.413 213.125 26.2453 212.732 24.9227C212.36 23.5794 212.174 22.1637 212.174 20.6757V18.9088C212.174 16.8421 212.536 14.9718 213.259 13.2979C213.982 11.6239 215.088 10.2909 216.576 9.29895C218.064 8.30696 219.955 7.81097 222.249 7.81097C224.543 7.81097 226.423 8.30696 227.891 9.29895C229.379 10.2909 230.484 11.6239 231.208 13.2979C231.931 14.9718 232.293 16.8421 232.293 18.9088V20.6757C232.293 22.1637 232.096 23.5794 231.704 24.9227C231.332 26.2453 230.743 27.413 229.937 28.4256C229.151 29.4383 228.118 30.2442 226.837 30.8436C225.576 31.4222 224.047 31.7115 222.249 31.7115ZM222.249 27.0306C223.923 27.0306 225.163 26.452 225.969 25.2947C226.795 24.1167 227.209 22.298 227.209 19.8388C227.209 17.2348 226.785 15.3645 225.938 14.2279C225.111 13.0705 223.881 12.4919 222.249 12.4919C220.575 12.4919 219.325 13.0705 218.498 14.2279C217.671 15.3645 217.258 17.2141 217.258 19.7768C217.258 22.2567 217.661 24.0857 218.467 25.2637C219.294 26.4416 220.554 27.0306 222.249 27.0306Z" fill="white"/>
<defs>
<linearGradient id="paint0_linear_410_819" x1="16.1703" y1="41.3427" x2="43.519" y2="4.04064" gradientUnits="userSpaceOnUse">
<stop offset="0.0595419" stop-color="#504FF5"/>
<stop offset="0.9203" stop-color="#07DAFC"/>
</linearGradient>
</defs>
</svg>
