<svg xmlns="http://www.w3.org/2000/svg" viewBox="0 0 186.27 36.67">
  <defs>
    <style>
      .cls-1, .cls-3 {
        fill: #f58120;
      }

      .cls-2 {
        fill: #939598;
      }

      .cls-3 {
        stroke: #fff;
      }

      .cls-4 {
        fill: #fff;
      }

      .cls-5 {
        fill: #606061;
      }

      .cls-6 {
        fill: #535454;
      }
    </style>
  </defs>
  <title>Asset 1</title>
  <g id="Layer_2" data-name="Layer 2">
    <g id="Layer_1-2" data-name="Layer 1">
      <path class="cls-1" d="M24.74,14.57A12.37,12.37,0,1,1,12.37,2.2,12.37,12.37,0,0,1,24.74,14.57Z"/>
      <g>
        <path class="cls-2" d="M55.8,29.65v-.47h.68V27.74H57v1.44h1v.47H57v3.87h-.5V29.65Z"/>
        <path class="cls-2" d="M63.24,33.52V27.74h.5v2.08a1.75,1.75,0,0,1-.14.52l.08-.25a1.3,1.3,0,0,1,.58-.73,1.75,1.75,0,0,1,.92-.26,1.7,1.7,0,0,1,1.44.71A2.1,2.1,0,0,1,67,31.08v2.44H66.5V31.11a1.57,1.57,0,0,0-.35-1.06,1.27,1.27,0,0,0-1-.43,1.25,1.25,0,0,0-.35,0,1.35,1.35,0,0,0-1.05,1.48v2.38Z"/>
        <path class="cls-2" d="M77.31,31.61H73.68v-.49h3.11a1.5,1.5,0,0,0-.7-1.22A1.81,1.81,0,0,0,75,29.56a1.6,1.6,0,0,0-1.44.82,1.76,1.76,0,0,0-.28,1,1.71,1.71,0,0,0,.63,1.4,1.68,1.68,0,0,0,1.12.37,1.78,1.78,0,0,0,1.23-.51l.08-.07.37.32A2.14,2.14,0,0,1,75,33.6h-.19l-.2,0A2.12,2.12,0,0,1,73,32.45a2.19,2.19,0,0,1-.28-1.09,2.12,2.12,0,0,1,0-.42,2.15,2.15,0,0,1,1-1.45,2.25,2.25,0,0,1,1.34-.42A2.13,2.13,0,0,1,77,30.16a2.16,2.16,0,0,1,.32,1.3Z"/>
        <path class="cls-2" d="M90.09,33.52V27.74h.48V30a1.12,1.12,0,0,1-.07.35l0-.11a1.89,1.89,0,0,1,.71-.86,1.91,1.91,0,0,1,1.07-.3,2.21,2.21,0,0,1,2,1,2,2,0,0,1,.36,1,2.26,2.26,0,0,1,0,.27A2.14,2.14,0,0,1,94,33a2.23,2.23,0,0,1-1.59.64,2.12,2.12,0,0,1-1.06-.28,1.86,1.86,0,0,1-.74-.78l-.07-.15,0-.09,0,.14a1,1,0,0,1,.07.36v.72Zm.52-2.19a1.67,1.67,0,0,0,.75,1.45,1.71,1.71,0,0,0,1,.3,1.8,1.8,0,0,0,1.74-1.38,1.56,1.56,0,0,0,0-.35,1.61,1.61,0,0,0,0-.34,1.86,1.86,0,0,0-.46-.93,1.65,1.65,0,0,0-.9-.48,1.76,1.76,0,0,0-2.1,1.73Z"/>
        <path class="cls-2" d="M104.7,31.61h-3.64v-.49h3.11a1.48,1.48,0,0,0-.7-1.22,1.8,1.8,0,0,0-1.08-.34,1.63,1.63,0,0,0-1.45.82,1.76,1.76,0,0,0-.28,1,1.71,1.71,0,0,0,.63,1.4,1.68,1.68,0,0,0,1.12.37,1.78,1.78,0,0,0,1.24-.51l.08-.07.37.32a2.17,2.17,0,0,1-1.71.75h-.2l-.2,0a2.12,2.12,0,0,1-1.59-1.11,2.3,2.3,0,0,1-.28-1.09,3.29,3.29,0,0,1,0-.42,2.19,2.19,0,0,1,1-1.45,2.27,2.27,0,0,1,1.34-.42,2.12,2.12,0,0,1,1.93,1.09,2.17,2.17,0,0,1,.33,1.3Z"/>
        <path class="cls-2" d="M110.09,32.3h.51v.13a.77.77,0,0,0,.76.7l.16,0a.76.76,0,0,0,.21,0,.81.81,0,0,0,.69-.67,1,1,0,0,0,0-.15.69.69,0,0,0-.6-.72l-.34-.09q-1.26-.33-1.26-1.17a1,1,0,0,1,.05-.34,1,1,0,0,1,.47-.65,1.35,1.35,0,0,1,.78-.23,1.46,1.46,0,0,1,.94.31,1.1,1.1,0,0,1,.4.88h-.53v-.11a.72.72,0,0,0-.81-.61h-.15a.64.64,0,0,0-.61.49,1,1,0,0,0,0,.24c0,.31.23.53.71.66l.17.05.14,0,.26.07a1.15,1.15,0,0,1,.92,1.39,1.25,1.25,0,0,1-1.1,1.07,2.05,2.05,0,0,1-.37,0,1.4,1.4,0,0,1-.9-.3,1.1,1.1,0,0,1-.45-.82Z"/>
        <path class="cls-2" d="M118.12,29.65v-.47h.68V27.74h.5v1.44h1v.47h-1v3.87h-.5V29.65Z"/>
        <path class="cls-2" d="M132.72,28.6v-.86h.52v.86Zm0,4.92V29.18h.52v4.34Z"/>
        <path class="cls-2" d="M138.94,32.3h.51l0,.13a.76.76,0,0,0,.75.7l.16,0a.76.76,0,0,0,.21,0,.79.79,0,0,0,.69-.67c0-.07,0-.12,0-.15a.7.7,0,0,0-.61-.72l-.34-.09q-1.26-.33-1.26-1.17a1.33,1.33,0,0,1,0-.34,1,1,0,0,1,.47-.65,1.41,1.41,0,0,1,.79-.23,1.45,1.45,0,0,1,.93.31,1.07,1.07,0,0,1,.4.88h-.53v-.11a.71.71,0,0,0-.81-.61h-.14a.64.64,0,0,0-.62.49,1,1,0,0,0,0,.24c0,.31.24.53.71.66l.17.05.14,0,.26.07a1.12,1.12,0,0,1,.95,1.15,2.32,2.32,0,0,1,0,.24,1.27,1.27,0,0,1-1.11,1.07,2,2,0,0,1-.36,0,1.4,1.4,0,0,1-.91-.3,1.1,1.1,0,0,1-.45-.82Z"/>
        <path class="cls-2" d="M154.71,33.52V27.74h.5v2.08a1.75,1.75,0,0,1-.14.52l.08-.25a1.3,1.3,0,0,1,.58-.73,1.75,1.75,0,0,1,.92-.26,1.7,1.7,0,0,1,1.44.71,2.1,2.1,0,0,1,.39,1.27v2.44H158V31.11a1.57,1.57,0,0,0-.35-1.06,1.43,1.43,0,0,0-1.36-.39,1.35,1.35,0,0,0-1,1.48v2.38Z"/>
        <path class="cls-2" d="M168.78,31.61h-3.63v-.49h3.1a1.49,1.49,0,0,0-.69-1.22,1.81,1.81,0,0,0-1.09-.34,1.6,1.6,0,0,0-1.44.82,1.76,1.76,0,0,0-.28,1,1.71,1.71,0,0,0,.63,1.4,1.68,1.68,0,0,0,1.12.37,1.78,1.78,0,0,0,1.23-.51l.08-.07.37.32a2.14,2.14,0,0,1-1.71.75h-.19l-.2,0a2.12,2.12,0,0,1-1.59-1.11,2.19,2.19,0,0,1-.28-1.09,2.12,2.12,0,0,1,0-.42,2.15,2.15,0,0,1,.95-1.45,2.25,2.25,0,0,1,1.34-.42,2.13,2.13,0,0,1,1.93,1.09,2.16,2.16,0,0,1,.32,1.3Z"/>
        <path class="cls-2" d="M174.46,33.52V29.18H175v.93a2,2,0,0,1,1.54-1v.51l-.17,0a1.67,1.67,0,0,0-.75.38,1.57,1.57,0,0,0-.49.67,2.26,2.26,0,0,0-.13.83v2Z"/>
        <path class="cls-2" d="M186,31.61h-3.63v-.49h3.1a1.49,1.49,0,0,0-.69-1.22,1.81,1.81,0,0,0-1.09-.34,1.6,1.6,0,0,0-1.44.82,1.76,1.76,0,0,0-.28,1,1.71,1.71,0,0,0,.63,1.4,1.66,1.66,0,0,0,1.12.37A1.78,1.78,0,0,0,185,32.6l.08-.07.37.32a2.14,2.14,0,0,1-1.71.75h-.19l-.2,0a2.12,2.12,0,0,1-1.59-1.11,2.19,2.19,0,0,1-.28-1.09,2.12,2.12,0,0,1,0-.42,2.15,2.15,0,0,1,.95-1.45,2.25,2.25,0,0,1,1.34-.42,2.13,2.13,0,0,1,1.93,1.09,2.16,2.16,0,0,1,.32,1.3Z"/>
      </g>
      <path class="cls-3" d="M25.44,14.8A11.64,11.64,0,0,1,13.65,26.28,11.64,11.64,0,0,1,1.87,14.8,11.63,11.63,0,0,1,13.65,3.33,11.63,11.63,0,0,1,25.44,14.8Z"/>
      <path class="cls-4" d="M22.62,15a9.43,9.43,0,1,1-9.43-9.42A9.43,9.43,0,0,1,22.62,15Z"/>
      <path class="cls-4" d="M44.8,17.06a7.74,7.74,0,1,1-6.51-8.79A7.75,7.75,0,0,1,44.8,17.06Z"/>
      <rect class="cls-5" x="48.52" y="1.6" width="0.85" height="32.96"/>
      <path class="cls-6" d="M15.87,15.08c0,2.14-1.32,3.87-2.93,3.87S10,17.22,10,15.08s1.31-3.87,2.93-3.87S15.87,13,15.87,15.08Z"/>
      <rect class="cls-1" x="24.37" y="13.5" width="4" height="2.47"/>
      <path class="cls-1" d="M18.66,33.33a2.07,2.07,0,0,1,.37-1.2,1.39,1.39,0,0,1,1.17-.58s5.84,5.81,11.29-.11a2.38,2.38,0,0,1,2,1.77S26.58,40.91,18.66,33.33Z"/>
      <path class="cls-1" d="M44.09,15a8.15,8.15,0,1,1-8.15-8.15A8.15,8.15,0,0,1,44.09,15Z"/>
      <path class="cls-4" d="M42.21,15.14A6.2,6.2,0,1,1,36,9,6.2,6.2,0,0,1,42.21,15.14Z"/>
      <path class="cls-1" d="M55.59,25.07v-9.8A7.78,7.78,0,0,1,57.8,9.43a8.14,8.14,0,0,1,5.9-2.14,8.26,8.26,0,0,1,5.92,2.12,7.73,7.73,0,0,1,2.22,5.86v9.8H68.72V15.23a5,5,0,0,0-1.36-3.66,4.75,4.75,0,0,0-3.59-1.42,5,5,0,0,0-3.68,1.4,5,5,0,0,0-1.41,3.68v9.84Z"/>
      <path class="cls-1" d="M91.32,12.74l-9.47,7.51L80,18.11l7.31-5.9a4.68,4.68,0,0,0-4-1.91,6.16,6.16,0,0,0-3.26,1,6.24,6.24,0,0,0-2.37,2.48,6,6,0,0,0,1.13,6.94A5.81,5.81,0,0,0,83.1,22.5a5.45,5.45,0,0,0,2.8-.59,9.44,9.44,0,0,0,2-2,3.23,3.23,0,0,0,.36-.55l2.51,1.59a7.85,7.85,0,0,1-3.2,3.26,9.13,9.13,0,0,1-4.52,1.16,8.34,8.34,0,0,1-7.42-3.76,9.08,9.08,0,0,1-1.54-5.17,10,10,0,0,1,1.16-4.71,7.82,7.82,0,0,1,3.28-3.31A9.39,9.39,0,0,1,83,7.29a8.89,8.89,0,0,1,5,1.45A8.7,8.7,0,0,1,91.32,12.74Z"/>
      <path class="cls-1" d="M93.36,25.07V13.79a6,6,0,0,1,3.81-5.92,6.1,6.1,0,0,1,2.62-.58h.39a1.77,1.77,0,0,0,.43.07v2.9h-.79q-3,0-3.3,3.07l-.07.69V25.07Z"/>
      <path class="cls-1" d="M114.06,8v3.26a8.87,8.87,0,0,0-2.69-.8,7.82,7.82,0,0,0-.82,0A6.5,6.5,0,0,0,106,12.1a5.63,5.63,0,0,0-1.94,4.41,5.68,5.68,0,0,0,1.72,4.2,5.74,5.74,0,0,0,4.2,1.71,5.43,5.43,0,0,0,4.41-2A7.11,7.11,0,0,0,116,15.72V0h3.12V15.75a9.79,9.79,0,0,1-2.37,7,9.79,9.79,0,0,1-13.23.15A8.84,8.84,0,0,1,101,16.34a8.78,8.78,0,0,1,2.56-6.55,9.08,9.08,0,0,1,6.62-2.5A9.67,9.67,0,0,1,114.06,8Z"/>
      <path class="cls-2" d="M134.47,8v3.26a8.87,8.87,0,0,0-2.69-.8,7.69,7.69,0,0,0-.82,0,6.5,6.5,0,0,0-4.52,1.66,5.66,5.66,0,0,0-1.94,4.41,5.68,5.68,0,0,0,1.72,4.2,5.74,5.74,0,0,0,4.2,1.71,5.43,5.43,0,0,0,4.41-2,7.11,7.11,0,0,0,1.58-4.71V0h3.12V15.75a9.79,9.79,0,0,1-2.37,7,9.79,9.79,0,0,1-13.23.15,8.88,8.88,0,0,1-2.48-6.52A8.74,8.74,0,0,1,124,9.79a9.05,9.05,0,0,1,6.61-2.5A9.67,9.67,0,0,1,134.47,8Z"/>
      <path class="cls-2" d="M159,12.74l-9.47,7.51-1.83-2.14,7.31-5.9a4.66,4.66,0,0,0-4-1.91,6.21,6.21,0,0,0-3.27,1,6.28,6.28,0,0,0-2.36,2.48,5.94,5.94,0,0,0,1.13,6.94,5.78,5.78,0,0,0,4.25,1.79,5.48,5.48,0,0,0,2.8-.59,9.68,9.68,0,0,0,2-2,2.34,2.34,0,0,0,.36-.55l2.51,1.59a7.89,7.89,0,0,1-3.19,3.26,9.19,9.19,0,0,1-4.52,1.16,8.35,8.35,0,0,1-7.43-3.76,9.08,9.08,0,0,1-1.54-5.17A9.84,9.84,0,0,1,143,11.72a7.76,7.76,0,0,1,3.28-3.31,9.33,9.33,0,0,1,4.45-1.12,8.88,8.88,0,0,1,5,1.45A8.7,8.7,0,0,1,159,12.74Z"/>
      <path class="cls-2" d="M159.22,7.62h3.19l2.51,12.56.32.9a2.26,2.26,0,0,0,2.11,1.42,2.14,2.14,0,0,0,1.57-.69,3.12,3.12,0,0,0,.86-1.63l2.47-12.56h3.19l-2.58,12.92A6.23,6.23,0,0,1,170.92,24a5.49,5.49,0,0,1-7.19,0,6,6,0,0,1-1.92-3.46Z"/>
      <path class="cls-2" d="M176.23,20.36l3.12.11c0,1.23.56,1.85,1.68,1.85a2.2,2.2,0,0,0,1.53-.57,1.88,1.88,0,0,0,.63-1.47,2,2,0,0,0-.95-1.71l-3.51-2.4a4.58,4.58,0,0,1-2.18-4,4.55,4.55,0,0,1,3.3-4.58,4.77,4.77,0,0,1,1.72-.33,5.08,5.08,0,0,1,2.51.74,3.57,3.57,0,0,1,1.69,1.81,6.91,6.91,0,0,1,.5,1.9l-3-.1a1.56,1.56,0,0,0-1.76-1.49,1.87,1.87,0,0,0-1.33.52,1.76,1.76,0,0,0-.54,1.32,2.08,2.08,0,0,0,1,1.72l3.2,2.16a4.92,4.92,0,0,1,2.22,4.29,5.65,5.65,0,0,1-1.83,4,4.15,4.15,0,0,1-3.12,1.17,4.83,4.83,0,0,1-2.62-.79,4.25,4.25,0,0,1-1.77-2A5.75,5.75,0,0,1,176.23,20.36Z"/>
      <path class="cls-6" d="M38.18,15.24c0,1.58-1,2.87-2.17,2.87s-2.18-1.29-2.18-2.87,1-2.87,2.18-2.87S38.18,13.66,38.18,15.24Z"/>
      <path class="cls-1" d="M24.54,17.22v7.61s-.07,2.38,4.64,2.42l.05,1.58S23.35,30.25,22.6,25V17.14Z"/>
    </g>
  </g>
</svg>
