<?xml version="1.0" encoding="utf-8"?>
<!-- Generator: Adobe Illustrator 24.0.1, SVG Export Plug-In . SVG Version: 6.00 Build 0)  -->
<svg version="1.1" id="Layer_1" xmlns="http://www.w3.org/2000/svg" xmlns:xlink="http://www.w3.org/1999/xlink" x="0px" y="0px"
	 viewBox="0 0 110 34" style="enable-background:new 0 0 110 34;" xml:space="preserve">
<style type="text/css">
	.st0{fill:url(#SVGID_1_);}
	.st1{fill:url(#SVGID_2_);}
	.st2{fill:#FFFFFF;}
</style>
<linearGradient id="SVGID_1_" gradientUnits="userSpaceOnUse" x1="18.1009" y1="24.3047" x2="7.1009" y2="2.0647" gradientTransform="matrix(1 0 0 -1 0 36)">
	<stop  offset="0" style="stop-color:#02BCCC"/>
	<stop  offset="1" style="stop-color:#60F23F"/>
</linearGradient>
<path class="st0" d="M6.3,13.4c0-3.3,1.2-6.3,3.2-8.7C2,7.6-1.8,16.1,1.1,23.6C3.3,29.3,8.7,33,14.8,33c6.3,0,11.7-4,13.8-9.6
	c-2.4,2.1-5.5,3.3-8.8,3.3C12.3,26.8,6.3,20.8,6.3,13.4z"/>
<linearGradient id="SVGID_2_" gradientUnits="userSpaceOnUse" x1="25.0162" y1="32.857" x2="16.7362" y2="16.147" gradientTransform="matrix(1 0 0 -1 0 36)">
	<stop  offset="0" style="stop-color:#02BCCC"/>
	<stop  offset="1" style="stop-color:#60F23F"/>
</linearGradient>
<path class="st1" d="M19.7,0C15.6,0,12,1.8,9.5,4.7c7.6-2.9,16.1,0.8,19,8.4c0.6,1.7,1,3.4,1,5.2c0,1.8-0.3,3.5-0.9,5
	c2.8-2.4,4.6-6,4.6-10C33.1,6,27.1,0,19.7,0z"/>
<path class="st2" d="M54.5,28.4c3.9-1.6,6.4-5.4,6.3-9.7c0-2.8-1.1-5.4-3-7.4s-4.6-3.1-7.3-3c-4.2,0-7.9,2.5-9.5,6.5
	c-1.6,3.9-0.7,8.4,2.2,11.4C46.2,29.2,50.6,30.1,54.5,28.4z M50.5,24.4c-2.9,0-5.2-2.3-5.2-5.6s2.3-5.6,5.2-5.6s5.2,2.3,5.2,5.6
	S53.4,24.4,50.5,24.4z M104.3,28.7c3.8-1.6,5.6-6.1,4-9.9c-1.2-2.7-3.8-4.5-6.8-4.6c-3,0-5.7,1.8-6.9,4.7c-1.1,2.8-0.5,6.1,1.6,8.2
	C98.4,29.2,101.5,29.8,104.3,28.7z M101.4,25c-1.8,0-3.2-1.4-3.2-3.3c0-2,1.4-3.3,3.2-3.3c1.8,0,3.2,1.4,3.2,3.3S103.2,25,101.4,25z
	 M68.3,7.8V29h-5.5V7.8H68.3z M76.5,7.8V29h-5.2V7.8H76.5z M83.8,25.3l-5.9-11.2h5.5l3.1,6.1l3.1-6.1H95L84.2,34h-5.3
	C78.9,34,83.8,25.3,83.8,25.3z"/>
</svg>
