<?xml version="1.0" encoding="utf-8"?>
<!-- Generator: Adobe Illustrator 23.0.3, SVG Export Plug-In . SVG Version: 6.00 Build 0)  -->
<svg version="1.1" id="Layer_1" xmlns="http://www.w3.org/2000/svg" xmlns:xlink="http://www.w3.org/1999/xlink" x="0px" y="0px"
	 viewBox="0 0 1366 438" style="enable-background:new 0 0 1366 438;" xml:space="preserve">
<style type="text/css">
	.st0{fill:#B2208B;}
	.st1{fill:#1A87C8;}
	.st2{fill:#00A550;}
	.st3{fill:#F69220;}
	.st4{fill:#EF4923;}
	.st5{fill:#FFFFFF;}
</style>
<g>
	<path class="st0" d="M109.14,134.41c-21.66,0-40.37,11.23-49.66,29.61v88.22c9.29,18.42,28,29.5,49.66,29.5
		c33.63,0,47.63-26.63,47.63-73.58C156.77,161.15,142.77,134.41,109.14,134.41L109.14,134.41z M59.48,387.96l-31.01,13.96V115.17
		l31.01-13.6v25.65c12.4-12.56,30.03-20.87,49.66-20.87c52.83,0,78.71,36.37,78.71,101.82c0,65.37-25.88,101.75-78.71,101.75
		c-19.63,0-36.72-7.77-49.66-20.94V387.96L59.48,387.96z"/>
	<path class="st1" d="M248.89,101.57v36.37c16.07-19.43,49.65-34.03,64.69-34.03v32.99c-17.63,0-51.23,12.59-64.69,27.13v127.04
		l-31.08,13.96V115.17L248.89,101.57L248.89,101.57z"/>
	<path class="st2" d="M361.16,101.57v189.5l-31.02,13.96V115.17L361.16,101.57L361.16,101.57z M330.14,65.08V28.28l31.02-14v36.77
		L330.14,65.08L330.14,65.08z"/>
	<path class="st3" d="M393.76,253.72c15.03,13.53,35.16,30.08,63.65,30.08c19.11,0,35.72-6.91,35.72-29.11
		c0-20.44-20.17-28.17-37.8-33.89c-27.93-9.68-62.14-22.81-62.14-62.06c0-32.96,28.02-52.38,64.69-52.38
		c21.23,0,38.3,4.89,51.26,11.62v30.58c-13.93-9.72-31.04-16.01-51.26-16.01c-18.06,0-35.64,7.34-35.64,26.19
		c0,17.02,16,24.25,33.09,30.08c27.95,9.64,66.81,24.57,66.81,65.88c0,33.93-23.85,55.23-64.73,55.23
		c-32.08,0-52.32-13.56-63.65-22.38V253.72L393.76,253.72z"/>
	<path class="st4" d="M580.05,291.07l-31.04,13.96V115.17l31.04-13.6v23.21c16.52-9.14,40.41-18.42,53.29-18.42
		c26.87,0,42.44,9.75,50.74,24.28c14.99-10.69,47.02-24.28,62.53-24.28c52.32,0,60.05,36.37,60.05,71.74c0,17.45,0,117.62,0,117.62
		l-31.01,9.32c0,0,0-105.13,0-123.48c0-23.75-3.59-47.13-31.54-47.13c-16.07,0-36.78,9.79-52.32,19.97
		c1.06,7.77,1.58,15.9,1.58,23.71c0,17.45,0,112.97,0,112.97l-31.06,13.96c0,0,0-105.13,0-123.48c0-23.75-3.63-47.13-31.62-47.13
		c-15.48,0-35.16,9.25-50.65,19V291.07L580.05,291.07z"/>
	<path class="st5" d="M910.82,314.56c-47.85,0-75.19-32.31-75.19-80.3c0-30.44,11.49-54.15,29.69-67.71
		c-14.33-12.52-23.37-31.84-23.37-57.39c0-43.07,24.86-72.68,68.86-72.68c25.38,0,49.36,5.07,58.9,6.84v25.98
		c-13.79-2.73-33.04-6.76-58.9-6.76c-30.11,0-39.7,20.62-39.7,46.63c0,26.95,11.49,45.33,36.36,45.33h52.7v25.98h-52.7
		c-28.72,0-42.64,22.92-42.64,53.79c0,31.41,12.94,54.22,45.98,54.22c26.35,0,49.36-3.06,63.68-6.66v26.05
		C957.3,311.39,936.68,314.56,910.82,314.56L910.82,314.56z"/>
	<path class="st5" d="M1030.56,163.92h40.66c36.92,0,48.89-22.88,48.89-50.69c0-27.78-11.97-50.69-48.89-50.69h-40.66V163.92
		L1030.56,163.92z M1030.56,190.79v114.84h-28.8V36.48h69.45c52.23,0,77.58,34.61,77.58,76.74c0,30.98-14.36,58.72-43.55,70.84
		c22.97,19.32,35.46,48.43,46.46,84.66c5.25,18.06,8.68,20.76,17.69,20.76c3.34,0,6.71-1.01,10.07-2.7v16.98
		c-7.62,4.1-15.82,6.26-23.94,6.26c-16.25,0-24.39-12.99-28.69-25.94c-15.33-47.1-26.82-95.56-78.12-95.56
		C1041.06,188.53,1034.41,189.86,1030.56,190.79L1030.56,190.79z"/>
	<path class="st5" d="M1308.74,121.28c0-36.73-15.75-58.75-57.46-58.75c-5.23,0-31.55,0-31.55,0V179.6c0,0,25.34,0,31.55,0
		C1292.99,179.6,1308.74,158.09,1308.74,121.28L1308.74,121.28z M1337.53,121.28c0,51.16-29.12,84.33-86.26,84.33
		c-8.12,0-31.55,0-31.55,0v100.02h-28.76V36.48c0,0,57.45,0,60.3,0C1308.41,36.48,1337.53,70.19,1337.53,121.28L1337.53,121.28z"/>
	<g>
		<path class="st5" d="M406.65,354.21l8.7-3.02l-3.72,12.81h10.53l-0.83,3.27H410.7l-4.92,15.47c-1.42,4.5-2.16,7.63-2.16,9.35
			c0,0.79,0.16,1.44,0.57,1.73c0.4,0.43,0.95,0.61,1.65,0.61c1.11,0,2.78-0.65,5.03-1.76c2.95-1.55,5.71-3.27,8.41-5.32l2,2.37
			c-7.64,5-12.82,8.09-15.4,9.28c-2.62,1.11-4.71,1.69-6.25,1.69c-1.35,0-2.37-0.43-3.13-1.19c-0.77-0.9-1.12-2.23-1.12-4.14
			c0-2.12,0.68-5.47,2.01-10l5.41-18.1h-8.52l0.88-3.27h8.61L406.65,354.21z"/>
		<path class="st5" d="M469.9,389.93l1.13,1.62c-3.24,3.06-6.6,5.54-9.98,7.38c-2.32,1.19-4.17,1.8-5.72,1.8
			c-1.24,0-2.16-0.47-2.91-1.22c-0.75-0.79-1.19-2.09-1.19-3.81c0-1.19,0.31-2.99,0.9-5.33c0.59-2.23,2.26-7.27,5.03-14.93
			c1.19-3.74,1.82-6.01,1.82-6.62c0-1.01-0.63-1.48-1.82-1.48c-1.47,0-3.32,0.68-5.62,1.94c-3.07,1.69-5.84,3.99-8.32,6.69
			c-1.49,1.8-2.75,4.32-3.67,7.81l-4.28,15.87h-7.66c1.65-5.25,3-9.57,3.88-12.95l7.77-29.25c1.4-5.43,3.27-9.53,5.54-12.45
			c2.34-2.95,5.37-5.32,9.08-7.01c3.74-1.76,7.44-2.66,11.07-2.66c1.53,0,2.73,0.36,3.65,1.04c0.83,0.57,1.29,1.44,1.29,2.48
			c0,0.83-0.47,1.47-1.29,2.12c-0.84,0.72-2.1,1.08-3.52,1.08c-0.9,0-1.94-0.18-3.27-0.36c-3.07-0.4-5.18-0.58-6.31-0.58
			c-1.64,0-2.98,0.58-3.95,1.69c-1.12,1.19-2.07,3.81-3.18,8.1l-6.04,22.38c4.24-3.71,8.92-6.98,13.93-9.53
			c2.88-1.58,5.18-2.3,6.99-2.3c1.46,0,2.52,0.29,3.25,0.97c0.84,0.72,1.26,1.65,1.26,2.95c0,1.04-0.16,2.02-0.48,3.02
			c-0.47,1.8-1.55,5.15-3.24,9.82c-2.34,6.55-3.7,10.54-4.1,12.16c-0.4,1.4-0.57,2.91-0.57,4.14c0,0.43,0.03,0.76,0.25,1.01
			c0.18,0.25,0.49,0.32,0.84,0.32c0.84,0,2.37-0.83,4.78-2.55C466.49,392.35,468.04,391.19,469.9,389.93z"/>
		<path class="st5" d="M477.6,371.98l-2.3-1.58c3.49-3.31,6.65-5.72,9.49-7.09c2.84-1.4,5.32-2.12,7.28-2.12
			c1.1,0,1.94,0.29,2.55,0.68c0.59,0.39,0.86,0.97,0.86,1.65c0,0.86-1.1,4.61-3.33,11.19c-3.56,10.83-5.34,17.27-5.34,19.54
			c0,0.32,0.14,0.65,0.36,0.9c0.23,0.22,0.45,0.36,0.74,0.36c1.12,0,3.87-1.94,8.27-5.79l2.34,1.83c-4.82,3.96-8.3,6.44-10.44,7.55
			c-2.23,1.01-4.01,1.62-5.41,1.62c-1.15,0-2.12-0.32-2.88-0.9c-0.72-0.65-1.11-1.51-1.11-2.63c0-3.81,2.59-13.1,7.8-27.88
			c0.29-0.69,0.47-1.26,0.47-1.84c0-0.57-0.32-0.79-0.97-0.79c-0.72,0-1.55,0.22-2.46,0.65
			C482.67,367.81,480.65,369.43,477.6,371.98z M498.38,341.87c1.1,0,2.07,0.29,2.7,0.9c0.72,0.61,1.08,1.37,1.08,2.41
			c0,1.22-0.56,2.37-1.58,3.49c-1.1,0.86-2.28,1.4-3.68,1.4c-1.06,0-1.82-0.25-2.55-0.93c-0.74-0.61-1.06-1.4-1.06-2.48
			c0-1.4,0.5-2.45,1.58-3.45C495.77,342.33,497.01,341.87,498.38,341.87z"/>
		<path class="st5" d="M504.6,372.16l-1.87-1.62c4.6-3.63,8.12-6.08,10.84-7.3c2.7-1.19,4.96-1.8,6.88-1.8c0.74,0,1.4,0.07,1.8,0.36
			c0.36,0.29,0.57,0.61,0.57,0.93c0,0.22-0.03,0.79-0.25,1.48l-2.37,9.1c3.58-3.45,8.11-6.62,13.55-9.57
			c2.84-1.58,5.21-2.3,7.06-2.3c1.38,0,2.37,0.36,3.16,1.08c0.88,0.72,1.28,1.87,1.28,3.24c0,0.94-0.25,1.91-0.54,3.09
			c-0.52,2.05-2.01,6.3-4.31,12.92c-2.26,6.19-3.38,10.33-3.38,12.34c0,0.5,0.14,0.9,0.29,1.22c0.25,0.18,0.54,0.43,0.95,0.43
			c1.04,0,2.62-0.86,4.85-2.52c1.6-1.15,3.15-2.3,4.74-3.31l1.15,1.62c-3.25,3.06-6.6,5.54-10.05,7.45c-2.3,1.11-4.06,1.73-5.5,1.73
			c-1.38,0-2.36-0.47-3.16-1.15c-0.72-0.83-1.12-2.16-1.12-3.96c0-2.66,2-9.43,5.93-20.18c1.22-3.78,1.83-6.01,1.83-6.69
			c0-0.83-0.65-1.26-1.98-1.26c-1.46,0-3.2,0.65-5.46,1.94c-3.34,1.83-6.09,4.1-8.39,6.62c-1.38,1.65-2.59,4.25-3.47,7.81
			l-4.35,15.79h-7.68c1.46-4.5,2.75-8.85,3.79-12.95l4.69-17.27c0.2-0.79,0.27-1.3,0.27-1.58c0-0.83-0.34-1.15-1.15-1.15
			c-0.54,0-1.29,0.22-2.37,0.86C508.62,368.82,506.52,370.4,504.6,372.16z"/>
		<path class="st5" d="M561.9,399.65h-7.71l6.94-24.82c3.29-12.31,5.45-19.86,6.58-22.81c1.01-2.77,2.23-5.11,3.7-7.02
			c1.42-1.8,3.32-3.42,5.52-4.93c2.19-1.51,4.56-2.55,7.12-3.42c2.52-0.72,4.78-1.11,6.76-1.11c1.87,0,3.22,0.29,4.1,0.9
			c0.9,0.58,1.37,1.37,1.37,2.3c0,0.83-0.47,1.58-1.33,2.23c-0.7,0.61-1.74,0.9-3.02,0.9c-1.56,0-3.88-0.25-7.05-0.72
			c-1.04-0.18-1.94-0.18-2.71-0.18c-1.06,0-2.1,0.32-3.11,0.97c-0.97,0.61-1.83,1.87-2.59,3.63c-0.77,1.73-1.83,5.33-3.18,10.72
			l-3.9,14.72c3.42-3.28,6.92-5.83,10.55-7.59c2.75-1.33,5.37-1.98,7.94-1.98c1.74,0,3.29,0.54,4.51,1.66
			c1.26,1.22,1.85,2.66,1.85,4.32c0,3.31-2,6.19-5.9,8.78c-3.85,2.56-9.81,3.92-17.78,4.1c2.68,1.01,4.82,2.09,6.36,3.35
			c1.6,1.29,3.24,2.91,4.74,5.11c1.56,2.12,3.59,5.72,6,10.83c2.91,6.05,5.62,10.07,8.09,12.05c2.5,1.91,5.18,2.95,8.16,2.95
			c1.69,0,3.13-0.4,4.31-0.94c1.08-0.72,1.63-1.33,1.63-2.02c0-0.4-0.2-0.97-0.56-1.65c-0.34-0.83-0.56-1.55-0.56-2.02
			c0-0.72,0.29-1.37,0.99-1.94c0.59-0.47,1.33-0.72,2.19-0.72c0.95,0,1.83,0.25,2.52,0.94c0.77,0.65,1.08,1.58,1.08,2.73
			c0,2.16-1.15,4.17-3.45,5.76c-2.34,1.65-5.36,2.56-9.06,2.56c-3.85,0-7.32-0.86-10.28-2.48c-3.06-1.65-5.91-4.32-8.56-7.95
			c-1.51-2.16-4.13-6.94-7.89-14.46c-1.71-3.53-3.36-6.19-4.8-8.02c-1.08-1.4-2.64-2.77-4.53-4.14L561.9,399.65z M567.49,378.28
			c4.73,0.03,8.61-0.32,11.52-1.19c2.93-0.83,5.03-1.94,6.25-3.24c1.29-1.33,1.89-2.88,1.89-4.53c0-1.15-0.38-2.02-1.1-2.77
			c-0.75-0.72-1.56-0.97-2.55-0.97c-3.31,0-8.34,3.17-15.17,9.5L567.49,378.28z"/>
		<path class="st5" d="M662.91,360.94l4.3-0.79c-2.52,7.12-4.91,14.21-7.06,21.44c-1.62,5.11-2.68,9.35-3.24,12.7
			c-0.31,1.8-0.56,3.85-0.56,6.48c-0.11,4.42-0.63,7.92-1.71,10.65c-1.44,3.63-4.22,6.62-8.34,8.89c-3.99,2.3-8.84,3.42-14.43,3.42
			c-4.71,0-8.52-0.97-11.3-2.84c-2.73-1.98-4.12-4.17-4.12-6.69c0-2.37,1.12-4.64,3.36-6.8c1.6-1.62,5.03-3.53,10.24-5.79
			c2.62-1.22,5.07-2.37,7.4-3.71c-2.66,1.22-4.67,1.76-6.11,1.76c-1.38,0-2.55-0.47-3.59-1.58c-1.01-1.08-1.53-2.45-1.53-4.14
			c0-5.65,1.94-11.19,5.84-16.62c3.81-5.61,8.56-9.64,13.98-12.41c3.33-1.76,7.55-2.59,12.64-2.59c0.95,0,2.17,0,3.63,0.04
			L662.91,360.94z M649.68,392.67c-2.34,1.8-7.01,4.75-13.84,8.89c-6.06,3.49-9.78,6.01-11.2,7.59c-1.3,1.58-2.03,3.2-2.03,4.96
			c0,1.73,0.93,3.31,2.7,4.68c1.76,1.4,3.95,2.09,6.47,2.09c2.44,0,4.74-0.5,7.05-1.51c2.23-1.04,4.24-2.52,5.9-4.5
			c1.71-1.91,2.84-4.03,3.47-6.51c0.63-2.45,1.01-5.68,1.02-9.61C649.22,397.81,649.38,395.84,649.68,392.67z M656.91,367.74
			c-1.69-0.25-3.11-0.4-4.46-0.4c-3.33,0-6.22,0.79-8.56,2.27c-2.45,1.58-4.48,4.07-6.18,7.7c-2.34,5.07-3.49,9.39-3.49,12.84
			c0,1.37,0.43,2.56,1.37,3.56c0.93,0.97,2.05,1.44,3.16,1.44c1.4,0,3.16-0.57,5.21-1.73c2.08-1.12,3.76-2.63,5.07-4.35
			c1.38-1.8,2.61-4.89,4.08-9.14L656.91,367.74z"/>
		<path class="st5" d="M693.44,388.57l1.78,1.58c-2.75,2.63-6.02,5.07-9.65,7.27c-3.79,2.23-6.87,3.31-9.2,3.31
			c-1.11,0-2.05-0.36-2.7-1.04c-0.75-0.68-1.1-1.65-1.1-2.88c0-2.37,1.11-7.37,3.27-14.97l5.66-19.97
			c2.1-7.23,3.85-12.05,5.25-14.57c2.12-3.67,5.28-6.66,9.24-8.6c4.03-2.12,8.2-3.16,12.67-3.16c1.49,0,2.68,0.29,3.54,0.94
			c0.79,0.65,1.31,1.44,1.31,2.27c0,1.08-0.49,1.87-1.31,2.45c-0.75,0.68-2,0.97-3.54,0.97c-1.1,0-2.61-0.11-4.48-0.47
			c-1.67-0.25-3.2-0.4-4.6-0.4c-1.4,0-2.44,0.29-3.23,0.76c-0.97,0.76-1.91,2.27-2.7,4.57c-0.79,2.34-2.16,6.91-3.99,13.78
			l-5.32,19.14c-2.57,9.43-3.92,14.39-3.92,14.75c0,0.94,0.43,1.48,1.22,1.48c0.77,0,1.87-0.4,3.34-1.19
			C687.72,392.99,690.61,390.94,693.44,388.57z"/>
		<path class="st5" d="M724.42,361.44c3.38,0,6.31,1.12,8.52,3.53c2.27,2.37,3.42,5.58,3.42,9.86c0,6.76-2.75,12.74-8.2,18.06
			c-5.46,5.32-11.22,8.06-17.29,8.06c-3.74,0-6.74-1.04-9-3.13c-2.28-2.19-3.47-5.11-3.47-8.74c0-6.33,2.12-12.2,6.33-17.63
			C710.04,364.75,716.53,361.44,724.42,361.44z M720.06,364.79c-3,0-5.84,1.91-8.61,5.61c-2.79,3.63-4.17,8.74-4.17,15.22
			c0,4.07,0.83,7.09,2.57,9.39c1.22,1.65,2.93,2.52,5.05,2.52c2.91,0,5.61-1.65,8.02-4.79c3.07-4.07,4.53-9.17,4.53-15.25
			c0-4.53-0.61-7.77-2.05-9.75C723.99,365.79,722.21,364.79,720.06,364.79z"/>
		<path class="st5" d="M758.77,369.28c2.78-2.77,5.62-4.71,8.36-5.97c2.71-1.26,5.18-1.87,7.22-1.87c2.45,0,4.46,0.83,5.93,2.55
			c1.44,1.62,2.19,4.21,2.19,7.66c0,5-1.38,9.93-4.06,14.68c-2.7,4.79-6.08,8.35-9.99,10.9c-4.03,2.45-7.91,3.71-11.68,3.71
			c-3.2,0-5.79-0.83-7.75-2.41c-1.92-1.69-2.89-3.85-2.89-6.44c0-2.12,0.49-5.04,1.47-8.74l6.25-24.18
			c1.44-5.87,3.38-10.36,5.65-13.46c2.26-3.17,5.21-5.58,8.99-7.45c3.68-1.8,7.21-2.73,10.5-2.73c1.94,0,3.52,0.29,4.37,0.86
			c0.95,0.54,1.4,1.4,1.4,2.34c0,0.83-0.38,1.58-1.26,2.23c-0.81,0.61-1.96,0.9-3.56,0.9c-1.1,0-3.11-0.25-5.95-0.68
			c-1.22-0.22-2.34-0.22-3.34-0.22c-1.72,0-3.16,0.76-4.26,2.41c-0.81,1.33-1.89,4.53-3.25,9.68L758.77,369.28z M768.96,366.41
			c-1.69,0-3.7,0.93-6.15,2.81c-2.37,1.73-4.64,4.93-6.72,9.46c-2.09,4.57-3.2,9.07-3.2,13.42c0,1.69,0.68,3.06,1.9,4.17
			c1.15,1.12,2.59,1.58,4.22,1.58c3.88,0,7.41-2.63,10.41-7.99c3.09-5.36,4.64-10.65,4.64-16.01c0-2.41-0.61-4.28-1.74-5.83
			C771.48,366.95,770.33,366.41,768.96,366.41z"/>
		<path class="st5" d="M825.06,360.61l3.72-0.68l-3.88,11.51c-1.58,4.61-3.09,9.89-4.46,15.83c-0.77,3.24-1.19,5.4-1.19,6.3
			c0,1.04,0.41,1.58,1.29,1.58c0.56,0,1.46-0.36,2.55-1.01c2.23-1.11,4.21-2.59,6.18-4.25l1.67,1.87c-4.03,3.02-6.56,4.96-7.71,5.61
			c-2.25,1.29-4.37,2.27-6.4,2.88c-1.33,0.43-2.66,0.69-3.84,0.69c-0.97,0-1.62-0.22-2.12-0.69c-0.45-0.22-0.61-0.76-0.61-1.51
			c0-0.36,0.04-0.94,0.4-1.8l2.01-6.3c-2.95,3.13-6.61,5.79-10.75,8.02c-2.57,1.37-4.91,2.05-7.01,2.05c-2.05,0-3.63-0.61-4.71-1.8
			c-1.47-1.69-2.16-3.92-2.16-6.58c0-3.28,0.97-6.76,2.89-10.76c2.01-3.92,4.65-7.45,8-10.69c3.31-3.24,6.83-5.58,10.5-7.09
			c2.8-1.19,6.56-1.73,11-1.73c1.11,0,2.21,0.04,3.41,0.18L825.06,360.61z M818.59,367.66c-1.92-0.4-3.49-0.57-4.78-0.57
			c-3.15,0-5.93,0.76-8.32,2.23c-2.27,1.58-4.53,4.21-6.54,8.06c-1.98,3.92-2.98,7.77-2.98,11.59c0,2.16,0.36,3.53,1.22,4.46
			c0.81,0.86,1.81,1.3,3.16,1.3c2.44,0,4.98-1.04,7.76-3.31c2.77-2.27,4.85-5.51,6.08-9.72L818.59,367.66z"/>
		<path class="st5" d="M857.54,388.57l1.8,1.58c-2.73,2.63-5.9,5.07-9.67,7.27c-3.77,2.23-6.79,3.31-9.2,3.31
			c-1.1,0-2.01-0.36-2.69-1.04c-0.72-0.68-1.04-1.65-1.04-2.88c0-2.37,1.04-7.37,3.31-14.97l5.63-19.97
			c2.09-7.23,3.78-12.05,5.27-14.57c2.12-3.67,5.25-6.66,9.22-8.6c3.97-2.12,8.2-3.16,12.6-3.16c1.58,0,2.73,0.29,3.58,0.94
			c0.9,0.65,1.31,1.44,1.31,2.27c0,1.08-0.41,1.87-1.29,2.45c-0.79,0.68-2.01,0.97-3.59,0.97c-1.04,0-2.52-0.11-4.4-0.47
			c-1.67-0.25-3.15-0.4-4.64-0.4c-1.37,0-2.5,0.29-3.22,0.76c-1.01,0.76-1.94,2.27-2.73,4.57c-0.83,2.34-2.09,6.91-3.94,13.78
			l-5.3,19.14c-2.66,9.43-3.92,14.39-3.92,14.75c0,0.94,0.36,1.48,1.19,1.48c0.75,0,1.89-0.4,3.27-1.19
			C851.97,392.99,854.74,390.94,857.54,388.57z"/>
		<path class="st5" d="M856.26,413.86l-1.04-2.95c3.29-2.16,5.73-4.28,7.46-6.26c1.15-1.37,1.69-2.48,1.69-3.38
			c0-0.9-0.41-2.05-1.22-3.42c-0.81-1.4-1.26-2.52-1.26-3.42c0-1.15,0.45-2.12,1.37-3.02c0.94-0.9,2.07-1.26,3.38-1.26
			c1.4,0,2.7,0.47,3.7,1.55c1.01,1.01,1.51,2.23,1.51,3.63c0,1.62-0.5,3.6-1.62,5.61c-0.97,2.09-2.64,4.1-4.71,6.04
			C862.59,409.76,859.52,411.99,856.26,413.86z"/>
		<path class="st5" d="M928.29,369.28c2.82-2.77,5.65-4.71,8.38-5.97c2.79-1.26,5.19-1.87,7.28-1.87c2.39,0,4.37,0.83,5.88,2.55
			c1.4,1.62,2.16,4.21,2.16,7.66c0,5-1.29,9.93-4.03,14.68c-2.64,4.79-6.09,8.35-9.99,10.9c-3.99,2.45-7.94,3.71-11.61,3.71
			c-3.27,0-5.9-0.83-7.82-2.41c-1.89-1.69-2.9-3.85-2.9-6.44c0-2.12,0.49-5.04,1.44-8.74l6.34-24.18
			c1.42-5.87,3.32-10.36,5.62-13.46c2.3-3.17,5.21-5.58,8.93-7.45c3.76-1.8,7.23-2.73,10.52-2.73c2,0,3.43,0.29,4.37,0.86
			c0.95,0.54,1.4,1.4,1.4,2.34c0,0.83-0.4,1.58-1.28,2.23c-0.79,0.61-2.01,0.9-3.54,0.9c-1.13,0-3.11-0.25-5.95-0.68
			c-1.29-0.22-2.41-0.22-3.34-0.22c-1.78,0-3.15,0.76-4.21,2.41c-0.83,1.33-1.9,4.53-3.27,9.68L928.29,369.28z M938.57,366.41
			c-1.8,0-3.85,0.93-6.22,2.81c-2.37,1.73-4.6,4.93-6.72,9.46c-2.1,4.57-3.13,9.07-3.13,13.42c0,1.69,0.57,3.06,1.8,4.17
			c1.19,1.12,2.66,1.58,4.31,1.58c3.85,0,7.33-2.63,10.42-7.99c3.06-5.36,4.53-10.65,4.53-16.01c0-2.41-0.56-4.28-1.71-5.83
			C941.05,366.95,939.9,366.41,938.57,366.41z"/>
		<path class="st5" d="M986.17,388.17l1.85,1.98c-8.63,7.09-15.96,10.58-22.13,10.58c-2.48,0-4.35-0.68-5.68-2.19
			c-1.33-1.37-2.01-3.81-2.01-6.98c0-6.4,2.27-12.81,6.81-19.18c5.18-7.34,11.31-10.94,18.46-10.94c2.48,0,4.46,0.54,5.77,1.51
			c1.29,1.11,1.92,2.63,1.92,4.46c0,2.02-0.74,3.92-2.3,5.87c-1.54,1.87-4.42,3.81-8.41,5.94c-2,1.01-6.33,2.7-12.92,5.32
			c-0.29,1.73-0.45,3.2-0.45,4.75c0,2.12,0.36,3.6,1.11,4.43c0.79,0.86,1.96,1.3,3.45,1.3c1.33,0,2.98-0.4,4.6-1.08
			C978.49,392.99,981.78,391.12,986.17,388.17z M968.12,381.7c5.48-2.16,9.56-4.53,12.26-6.98c1.96-1.76,2.84-3.53,2.84-5.29
			c0-1.3-0.4-2.34-1.15-3.02c-0.79-0.83-1.76-1.23-2.98-1.23c-1.22,0-2.44,0.43-3.63,1.26c-1.55,1.12-2.93,2.84-4.03,5.11
			C969.9,374.82,968.8,378.28,968.12,381.7z"/>
		<path class="st5" d="M1043.22,388.57l1.83,1.58c-2.7,2.63-5.95,5.07-9.71,7.27c-3.74,2.23-6.78,3.31-9.2,3.31
			c-1.01,0-1.98-0.36-2.69-1.04c-0.65-0.68-1.08-1.65-1.08-2.88c0-2.37,1.1-7.37,3.34-14.97l5.68-19.97
			c2.09-7.23,3.81-12.05,5.25-14.57c2.12-3.67,5.25-6.66,9.17-8.6c4.06-2.12,8.27-3.16,12.65-3.16c1.49,0,2.7,0.29,3.59,0.94
			c0.83,0.65,1.26,1.44,1.26,2.27c0,1.08-0.43,1.87-1.26,2.45c-0.81,0.68-2.03,0.97-3.63,0.97c-0.99,0-2.48-0.11-4.35-0.47
			c-1.65-0.25-3.24-0.4-4.67-0.4s-2.52,0.29-3.2,0.76c-0.97,0.76-1.87,2.27-2.73,4.57c-0.83,2.34-2.12,6.91-3.95,13.78l-5.36,19.14
			c-2.55,9.43-3.88,14.39-3.88,14.75c0,0.94,0.41,1.48,1.26,1.48c0.75,0,1.85-0.4,3.34-1.19
			C1037.61,392.99,1040.47,390.94,1043.22,388.57z"/>
		<path class="st5" d="M1074.24,361.44c3.49,0,6.26,1.12,8.56,3.53c2.3,2.37,3.45,5.58,3.45,9.86c0,6.76-2.75,12.74-8.2,18.06
			c-5.48,5.32-11.29,8.06-17.33,8.06c-3.77,0-6.76-1.04-9.04-3.13c-2.28-2.19-3.43-5.11-3.43-8.74c0-6.33,2.07-12.2,6.26-17.63
			C1059.84,364.75,1066.4,361.44,1074.24,361.44z M1069.87,364.79c-2.93,0-5.82,1.91-8.57,5.61c-2.84,3.63-4.17,8.74-4.17,15.22
			c0,4.07,0.84,7.09,2.59,9.39c1.22,1.65,2.89,2.52,5,2.52c2.93,0,5.57-1.65,8.05-4.79c3.06-4.07,4.55-9.17,4.55-15.25
			c0-4.53-0.66-7.77-2.07-9.75C1073.81,365.79,1072.03,364.79,1069.87,364.79z"/>
		<path class="st5" d="M1121.62,389.68l1.12,2.63c-8.34,5.58-15.42,8.42-21.23,8.42c-3,0-5.27-0.9-6.63-2.84
			c-1.44-1.8-2.12-4.17-2.12-7.05c0-4.75,1.53-9.68,4.42-14.79c2.97-5.04,6.54-8.85,10.75-11.55c3.36-2.09,7.08-3.06,11.25-3.06
			c2.55,0,4.57,0.43,5.9,1.22c1.29,0.86,1.98,1.91,1.98,3.13c0,0.9-0.32,1.69-1.03,2.27c-0.66,0.57-1.67,0.86-2.93,0.86
			c-1.33,0-2.84-0.54-4.78-1.44c-2.01-1.08-3.74-1.58-5-1.58c-1.74,0-3.51,0.61-5.18,2.02c-1.74,1.37-3.34,3.96-4.82,7.81
			c-1.62,3.81-2.37,7.63-2.37,11.55c0,2.88,0.66,5.07,1.96,6.66c0.92,1.22,2.3,1.83,3.97,1.83
			C1111.03,395.76,1115.96,393.71,1121.62,389.68z"/>
		<path class="st5" d="M1166.31,360.61l3.72-0.68l-3.99,11.51c-1.49,4.61-2.97,9.89-4.42,15.83c-0.81,3.24-1.17,5.4-1.17,6.3
			c0,1.04,0.43,1.58,1.29,1.58c0.56,0,1.4-0.36,2.66-1.01c2.05-1.11,4.08-2.59,6.04-4.25l1.71,1.87c-4.05,3.02-6.63,4.96-7.68,5.61
			c-2.27,1.29-4.37,2.27-6.43,2.88c-1.35,0.43-2.59,0.69-3.9,0.69c-0.92,0-1.62-0.22-2.1-0.69c-0.4-0.22-0.61-0.76-0.61-1.51
			c0-0.36,0.13-0.94,0.4-1.8l2.12-6.3c-3.02,3.13-6.61,5.79-10.8,8.02c-2.55,1.37-4.89,2.05-7.06,2.05c-2.05,0-3.63-0.61-4.67-1.8
			c-1.49-1.69-2.19-3.92-2.19-6.58c0-3.28,0.97-6.76,2.91-10.76c2.05-3.92,4.71-7.45,8.02-10.69c3.38-3.24,6.81-5.58,10.52-7.09
			c2.82-1.19,6.52-1.73,10.96-1.73c1.15,0,2.28,0.04,3.38,0.18L1166.31,360.61z M1159.82,367.66c-1.94-0.4-3.52-0.57-4.82-0.57
			c-3.18,0-5.9,0.76-8.29,2.23c-2.32,1.58-4.49,4.21-6.58,8.06c-2,3.92-3.02,7.77-3.02,11.59c0,2.16,0.43,3.53,1.24,4.46
			c0.81,0.86,1.85,1.3,3.15,1.3c2.41,0,5.03-1.04,7.8-3.31c2.73-2.27,4.82-5.51,6.15-9.72L1159.82,367.66z"/>
		<path class="st5" d="M1198.73,388.57l1.83,1.58c-2.79,2.63-6,5.07-9.72,7.27c-3.67,2.23-6.78,3.31-9.18,3.31
			c-1.1,0-2.03-0.36-2.73-1.04c-0.65-0.68-1.01-1.65-1.01-2.88c0-2.37,1.04-7.37,3.24-14.97l5.72-19.97
			c2.05-7.23,3.77-12.05,5.23-14.57c2.14-3.67,5.2-6.66,9.26-8.6c3.92-2.12,8.16-3.16,12.62-3.16c1.47,0,2.7,0.29,3.52,0.94
			c0.84,0.65,1.35,1.44,1.35,2.27c0,1.08-0.5,1.87-1.28,2.45c-0.9,0.68-2.09,0.97-3.67,0.97c-1.01,0-2.5-0.11-4.39-0.47
			c-1.69-0.25-3.18-0.4-4.56-0.4c-1.47,0-2.59,0.29-3.2,0.76c-1.08,0.76-1.94,2.27-2.81,4.57c-0.86,2.34-2.12,6.91-3.92,13.78
			l-5.39,19.14c-2.53,9.43-3.83,14.39-3.83,14.75c0,0.94,0.34,1.48,1.13,1.48c0.86,0,1.94-0.4,3.4-1.19
			C1193.2,392.99,1195.93,390.94,1198.73,388.57z"/>
	</g>
</g>
</svg>
