<svg width="1060" height="154" viewBox="0 0 1060 154" fill="none" xmlns="http://www.w3.org/2000/svg">
<path d="M225.014 35.3999C232.714 35.3999 239.314 37.8999 244.314 44.2999L238.614 48.3999C235.214 43.6999 230.914 41.3999 224.814 41.3999C215.514 41.3999 208.914 46.5999 208.914 54.7999C208.914 61.9999 212.814 66.0999 223.714 69.2999C236.014 72.9999 245.414 75.8999 245.414 89.8999C245.414 101.4 236.214 109.8 223.414 109.8C214.014 109.8 205.914 106.8 200.414 99.0999L206.714 94.8999C210.314 100.9 215.914 103.8 222.914 103.8C232.114 103.8 238.814 98.0999 238.814 89.8999C238.814 80.5999 232.214 78.7999 218.014 74.0999C207.414 70.5999 202.314 64.7999 202.314 54.7999C202.314 43.0999 212.014 35.3999 225.014 35.3999ZM280.38 108V37.1999H286.98V68.3999H326.58V37.1999H333.18V108H326.58V74.3999H286.98V108H280.38ZM404.548 35.3999C426.648 35.3999 441.148 51.3999 441.148 72.5999C441.148 93.8999 426.248 109.8 404.548 109.8C382.848 109.8 367.948 93.8999 367.948 72.5999C367.948 51.1999 382.748 35.3999 404.548 35.3999ZM374.548 72.5999C374.548 90.3999 386.448 103.8 404.548 103.8C422.648 103.8 434.548 90.3999 434.548 72.5999C434.548 54.7999 422.948 41.3999 404.448 41.3999C386.248 41.3999 374.548 54.7999 374.548 72.5999ZM487.347 108L466.747 37.1999H473.547L491.147 99.8999H491.347L509.247 37.1999H517.647L535.547 99.8999H535.747L553.347 37.1999H560.147L539.547 107.9L539.447 108H531.447L513.547 44.9999H513.347L495.447 108H487.347ZM601.78 108L581.18 37.1999H587.98L605.58 99.8999H605.78L623.68 37.1999H632.08L649.98 99.8999H650.18L667.78 37.1999H674.58L653.98 107.9L653.88 108H645.88L627.98 44.9999H627.78L609.88 108H601.78ZM736.814 35.3999C746.514 35.3999 755.014 38.5999 761.214 46.4999L755.814 50.9999C751.814 44.9999 744.814 41.3999 736.814 41.3999C718.814 41.3999 706.814 54.5999 706.814 72.5999C706.814 90.2999 718.514 103.8 736.814 103.8C744.914 103.8 753.514 99.4999 757.714 92.7999L763.114 96.8999C756.314 106.2 747.214 109.8 736.814 109.8C715.014 109.8 700.214 93.8999 700.214 72.5999C700.214 50.7999 715.414 35.3999 736.814 35.3999ZM792.924 108H786.024L816.924 37.1999H823.724L853.524 108H846.124L838.424 89.1999H800.924L792.924 108ZM820.024 44.3999L803.524 83.1999H836.024L820.024 44.3999ZM903.881 35.3999C911.581 35.3999 918.181 37.8999 923.181 44.2999L917.481 48.3999C914.081 43.6999 909.781 41.3999 903.681 41.3999C894.381 41.3999 887.781 46.5999 887.781 54.7999C887.781 61.9999 891.681 66.0999 902.581 69.2999C914.881 72.9999 924.281 75.8999 924.281 89.8999C924.281 101.4 915.081 109.8 902.281 109.8C892.881 109.8 884.781 106.8 879.281 99.0999L885.581 94.8999C889.181 100.9 894.781 103.8 901.781 103.8C910.981 103.8 917.681 98.0999 917.681 89.8999C917.681 80.5999 911.081 78.7999 896.881 74.0999C886.281 70.5999 881.181 64.7999 881.181 54.7999C881.181 43.0999 890.881 35.3999 903.881 35.3999ZM959.251 108V37.1999H1002.55V43.1999H965.851V68.3999H1000.25V74.3999H965.851V102H1004.15V108H959.251Z" fill="white"/>
<path d="M244.314 44.2999L244.898 45.1117L245.743 44.5042L245.102 43.6843L244.314 44.2999ZM238.614 48.3999L237.804 48.986L238.388 49.7941L239.198 49.2117L238.614 48.3999ZM223.714 69.2999L224.002 68.3423L223.996 68.3404L223.714 69.2999ZM200.414 99.0999L199.859 98.2678L199 98.8407L199.6 99.6811L200.414 99.0999ZM206.714 94.8999L207.571 94.3854L207.032 93.4861L206.159 94.0678L206.714 94.8999ZM225.014 36.3999C232.467 36.3999 238.75 38.802 243.526 44.9155L245.102 43.6843C239.878 36.9977 232.961 34.3999 225.014 34.3999V36.3999ZM243.73 43.4881L238.03 47.5881L239.198 49.2117L244.898 45.1117L243.73 43.4881ZM239.424 47.8138C237.65 45.3617 235.611 43.4954 233.183 42.2479C230.755 41.0003 227.993 40.3999 224.814 40.3999V42.3999C227.735 42.3999 230.173 42.9495 232.269 44.0269C234.367 45.1043 236.178 46.7381 237.804 48.986L239.424 47.8138ZM224.814 40.3999C219.985 40.3999 215.769 41.75 212.739 44.2542C209.692 46.773 207.914 50.4079 207.914 54.7999H209.914C209.914 50.9919 211.436 47.9268 214.014 45.7956C216.609 43.6498 220.343 42.3999 224.814 42.3999V40.3999ZM207.914 54.7999C207.914 58.6066 208.957 61.7081 211.521 64.2589C214.037 66.7609 217.93 68.6441 223.432 70.2594L223.996 68.3404C218.598 66.7557 215.091 64.9889 212.932 62.8409C210.821 60.7417 209.914 58.1932 209.914 54.7999H207.914ZM223.426 70.2575C229.628 72.1233 234.859 73.7281 238.574 76.5352C242.182 79.2619 244.414 83.1753 244.414 89.8999H246.414C246.414 82.6245 243.946 78.0879 239.779 74.9396C235.719 71.8717 230.1 70.1765 224.002 68.3423L223.426 70.2575ZM244.414 89.8999C244.414 100.758 235.756 108.8 223.414 108.8V110.8C236.672 110.8 246.414 102.042 246.414 89.8999H244.414ZM223.414 108.8C214.241 108.8 206.491 105.887 201.228 98.5187L199.6 99.6811C205.337 107.713 213.787 110.8 223.414 110.8V108.8ZM200.969 99.932L207.269 95.7319L206.159 94.0678L199.859 98.2678L200.969 99.932ZM205.856 95.4144C209.652 101.74 215.592 104.8 222.914 104.8V102.8C216.236 102.8 210.976 100.06 207.571 94.3854L205.856 95.4144ZM222.914 104.8C232.528 104.8 239.814 98.7811 239.814 89.8999H237.814C237.814 97.4187 231.7 102.8 222.914 102.8V104.8ZM239.814 89.8999C239.814 87.4558 239.38 85.4249 238.44 83.6919C237.499 81.957 236.094 80.5989 234.279 79.4335C230.719 77.1465 225.356 75.4765 218.328 73.1505L217.7 75.0492C224.872 77.4233 229.909 79.0033 233.199 81.1163C234.809 82.1508 235.941 83.2803 236.682 84.6454C237.423 86.0124 237.814 87.694 237.814 89.8999H239.814ZM218.328 73.1505C213.128 71.4336 209.396 69.1896 206.959 66.2493C204.538 63.3278 203.314 59.6193 203.314 54.7999H201.314C201.314 59.9805 202.64 64.172 205.419 67.5255C208.182 70.8602 212.3 73.2661 217.7 75.0492L218.328 73.1505ZM203.314 54.7999C203.314 49.2493 205.605 44.679 209.431 41.4795C213.27 38.2679 218.706 36.3999 225.014 36.3999V34.3999C218.322 34.3999 212.408 36.3819 208.147 39.9453C203.873 43.5207 201.314 48.6505 201.314 54.7999H203.314ZM280.38 108H279.38V109H280.38V108ZM280.38 37.1999V36.1999H279.38V37.1999H280.38ZM286.98 37.1999H287.98V36.1999H286.98V37.1999ZM286.98 68.3999H285.98V69.3999H286.98V68.3999ZM326.58 68.3999V69.3999H327.58V68.3999H326.58ZM326.58 37.1999V36.1999H325.58V37.1999H326.58ZM333.18 37.1999H334.18V36.1999H333.18V37.1999ZM333.18 108V109H334.18V108H333.18ZM326.58 108H325.58V109H326.58V108ZM326.58 74.3999H327.58V73.3999H326.58V74.3999ZM286.98 74.3999V73.3999H285.98V74.3999H286.98ZM286.98 108V109H287.98V108H286.98ZM281.38 108V37.1999H279.38V108H281.38ZM280.38 38.1999H286.98V36.1999H280.38V38.1999ZM285.98 37.1999V68.3999H287.98V37.1999H285.98ZM286.98 69.3999H326.58V67.3999H286.98V69.3999ZM327.58 68.3999V37.1999H325.58V68.3999H327.58ZM326.58 38.1999H333.18V36.1999H326.58V38.1999ZM332.18 37.1999V108H334.18V37.1999H332.18ZM333.18 107H326.58V109H333.18V107ZM327.58 108V74.3999H325.58V108H327.58ZM326.58 73.3999H286.98V75.3999H326.58V73.3999ZM285.98 74.3999V108H287.98V74.3999H285.98ZM286.98 107H280.38V109H286.98V107ZM404.548 36.3999C415.346 36.3999 424.229 40.3031 430.415 46.7426C436.605 53.187 440.148 62.23 440.148 72.5999H442.148C442.148 61.7698 438.442 52.2128 431.857 45.3572C425.267 38.4967 415.85 34.3999 404.548 34.3999V36.3999ZM440.148 72.5999C440.148 93.3767 425.667 108.8 404.548 108.8V110.8C426.829 110.8 442.148 94.4231 442.148 72.5999H440.148ZM404.548 108.8C383.429 108.8 368.948 93.3767 368.948 72.5999H366.948C366.948 94.4231 382.267 110.8 404.548 110.8V108.8ZM368.948 72.5999C368.948 62.1338 372.564 53.0917 378.791 46.6711C385.015 40.2538 393.899 36.3999 404.548 36.3999V34.3999C393.397 34.3999 383.982 38.446 377.355 45.2787C370.732 52.1081 366.948 61.666 366.948 72.5999H368.948ZM373.548 72.5999C373.548 81.7235 376.6 89.7778 382.032 95.5596C387.47 101.348 395.239 104.8 404.548 104.8V102.8C395.758 102.8 388.527 99.5521 383.49 94.1902C378.446 88.822 375.548 81.2763 375.548 72.5999H373.548ZM404.548 104.8C413.858 104.8 421.627 101.348 427.065 95.5596C432.496 89.7778 435.548 81.7235 435.548 72.5999H433.548C433.548 81.2763 430.65 88.822 425.607 94.1902C420.57 99.5521 413.339 102.8 404.548 102.8V104.8ZM435.548 72.5999C435.548 63.4831 432.576 55.4274 427.166 49.6419C421.75 43.8487 413.953 40.3999 404.448 40.3999V42.3999C413.444 42.3999 420.697 45.6511 425.705 51.0079C430.721 56.3724 433.548 63.9167 433.548 72.5999H435.548ZM404.448 40.3999C395.09 40.3999 387.344 43.8517 381.942 49.6428C376.547 55.4266 373.548 63.4809 373.548 72.5999H375.548C375.548 63.9189 378.399 56.3732 383.405 51.007C388.403 45.6481 395.607 42.3999 404.448 42.3999V40.3999ZM487.347 108L486.387 108.279L486.596 109H487.347V108ZM466.747 37.1999V36.1999H465.414L465.787 37.4793L466.747 37.1999ZM473.547 37.1999L474.51 36.9296L474.305 36.1999H473.547V37.1999ZM491.147 99.8999L490.184 100.17L490.389 100.9H491.147V99.8999ZM491.347 99.8999V100.9H492.101L492.308 100.175L491.347 99.8999ZM509.247 37.1999V36.1999H508.492L508.285 36.9254L509.247 37.1999ZM517.647 37.1999L518.608 36.9254L518.401 36.1999H517.647V37.1999ZM535.547 99.8999L534.585 100.175L534.792 100.9H535.547V99.8999ZM535.747 99.8999V100.9H536.505L536.71 100.17L535.747 99.8999ZM553.347 37.1999V36.1999H552.589L552.384 36.9296L553.347 37.1999ZM560.147 37.1999L561.107 37.4796L561.48 36.1999H560.147V37.1999ZM539.547 107.9L540.254 108.607L540.435 108.426L540.507 108.18L539.547 107.9ZM539.447 108V109H539.861L540.154 108.707L539.447 108ZM531.447 108L530.485 108.273L530.691 109H531.447V108ZM513.547 44.9999L514.509 44.7266L514.302 43.9999H513.547V44.9999ZM513.347 44.9999V43.9999H512.591L512.385 44.7266L513.347 44.9999ZM495.447 108V109H496.202L496.409 108.273L495.447 108ZM488.307 107.721L467.707 36.9205L465.787 37.4793L486.387 108.279L488.307 107.721ZM466.747 38.1999H473.547V36.1999H466.747V38.1999ZM472.584 37.4702L490.184 100.17L492.11 99.6296L474.51 36.9296L472.584 37.4702ZM491.147 100.9H491.347V98.8999H491.147V100.9ZM492.308 100.175L510.208 37.4744L508.285 36.9254L490.385 99.6254L492.308 100.175ZM509.247 38.1999H517.647V36.1999H509.247V38.1999ZM516.685 37.4744L534.585 100.175L536.508 99.6254L518.608 36.9254L516.685 37.4744ZM535.547 100.9H535.747V98.8999H535.547V100.9ZM536.71 100.17L554.31 37.4702L552.384 36.9296L534.784 99.6296L536.71 100.17ZM553.347 38.1999H560.147V36.1999H553.347V38.1999ZM559.187 36.9202L538.587 107.62L540.507 108.18L561.107 37.4796L559.187 36.9202ZM538.84 107.193L538.74 107.293L540.154 108.707L540.254 108.607L538.84 107.193ZM539.447 107H531.447V109H539.447V107ZM532.409 107.727L514.509 44.7266L512.585 45.2732L530.485 108.273L532.409 107.727ZM513.547 43.9999H513.347V45.9999H513.547V43.9999ZM512.385 44.7266L494.485 107.727L496.409 108.273L514.309 45.2732L512.385 44.7266ZM495.447 107H487.347V109H495.447V107ZM601.78 108L600.82 108.279L601.03 109H601.78V108ZM581.18 37.1999V36.1999H579.848L580.22 37.4793L581.18 37.1999ZM587.98 37.1999L588.943 36.9296L588.738 36.1999H587.98V37.1999ZM605.58 99.8999L604.618 100.17L604.822 100.9H605.58V99.8999ZM605.78 99.8999V100.9H606.535L606.742 100.175L605.78 99.8999ZM623.68 37.1999V36.1999H622.926L622.719 36.9254L623.68 37.1999ZM632.08 37.1999L633.042 36.9254L632.835 36.1999H632.08V37.1999ZM649.98 99.8999L649.019 100.175L649.226 100.9H649.98V99.8999ZM650.18 99.8999V100.9H650.938L651.143 100.17L650.18 99.8999ZM667.78 37.1999V36.1999H667.022L666.818 36.9296L667.78 37.1999ZM674.58 37.1999L675.54 37.4796L675.913 36.1999H674.58V37.1999ZM653.98 107.9L654.687 108.607L654.869 108.426L654.94 108.18L653.98 107.9ZM653.88 108V109H654.295L654.587 108.707L653.88 108ZM645.88 108L644.918 108.273L645.125 109H645.88V108ZM627.98 44.9999L628.942 44.7266L628.736 43.9999H627.98V44.9999ZM627.78 44.9999V43.9999H627.025L626.818 44.7266L627.78 44.9999ZM609.88 108V109H610.636L610.842 108.273L609.88 108ZM602.741 107.721L582.141 36.9205L580.22 37.4793L600.82 108.279L602.741 107.721ZM581.18 38.1999H587.98V36.1999H581.18V38.1999ZM587.018 37.4702L604.618 100.17L606.543 99.6296L588.943 36.9296L587.018 37.4702ZM605.58 100.9H605.78V98.8999H605.58V100.9ZM606.742 100.175L624.642 37.4744L622.719 36.9254L604.819 99.6254L606.742 100.175ZM623.68 38.1999H632.08V36.1999H623.68V38.1999ZM631.119 37.4744L649.019 100.175L650.942 99.6254L633.042 36.9254L631.119 37.4744ZM649.98 100.9H650.18V98.8999H649.98V100.9ZM651.143 100.17L668.743 37.4702L666.818 36.9296L649.218 99.6296L651.143 100.17ZM667.78 38.1999H674.58V36.1999H667.78V38.1999ZM673.62 36.9202L653.02 107.62L654.94 108.18L675.54 37.4796L673.62 36.9202ZM653.273 107.193L653.173 107.293L654.587 108.707L654.687 108.607L653.273 107.193ZM653.88 107H645.88V109H653.88V107ZM646.842 107.727L628.942 44.7266L627.018 45.2732L644.918 108.273L646.842 107.727ZM627.98 43.9999H627.78V45.9999H627.98V43.9999ZM626.818 44.7266L608.918 107.727L610.842 108.273L628.742 45.2732L626.818 44.7266ZM609.88 107H601.78V109H609.88V107ZM761.214 46.4999L761.854 47.2681L762.6 46.6464L762.001 45.8825L761.214 46.4999ZM755.814 50.9999L754.982 51.5546L755.599 52.4806L756.454 51.7681L755.814 50.9999ZM757.714 92.7999L758.319 92.0035L757.448 91.3421L756.867 92.2688L757.714 92.7999ZM763.114 96.8999L763.921 97.4901L764.501 96.6973L763.719 96.1035L763.114 96.8999ZM736.814 36.3999C746.273 36.3999 754.454 39.5064 760.427 47.1173L762.001 45.8825C755.574 37.6934 746.755 34.3999 736.814 34.3999V36.3999ZM760.574 45.7317L755.174 50.2317L756.454 51.7681L761.854 47.2681L760.574 45.7317ZM756.646 50.4452C752.443 44.1403 745.115 40.3999 736.814 40.3999V42.3999C744.513 42.3999 751.185 45.8594 754.982 51.5546L756.646 50.4452ZM736.814 40.3999C727.558 40.3999 719.789 43.7996 714.338 49.5627C708.891 55.3204 705.814 63.3762 705.814 72.5999H707.814C707.814 63.8235 710.737 56.2794 715.79 50.9371C720.839 45.6002 728.07 42.3999 736.814 42.3999V40.3999ZM705.814 72.5999C705.814 81.67 708.814 89.724 714.22 95.5195C719.634 101.323 727.405 104.8 736.814 104.8V102.8C727.923 102.8 720.694 99.5272 715.683 94.1553C710.664 88.7758 707.814 81.2298 707.814 72.5999H705.814ZM736.814 104.8C745.216 104.8 754.157 100.357 758.561 93.331L756.867 92.2688C752.871 98.6431 744.612 102.8 736.814 102.8V104.8ZM757.109 93.5963L762.509 97.6963L763.719 96.1035L758.319 92.0035L757.109 93.5963ZM762.307 96.3097C755.724 105.313 746.947 108.8 736.814 108.8V110.8C747.481 110.8 756.904 107.087 763.921 97.4901L762.307 96.3097ZM736.814 108.8C715.597 108.8 701.214 93.3785 701.214 72.5999H699.214C699.214 94.4213 714.431 110.8 736.814 110.8V108.8ZM701.214 72.5999C701.214 61.9376 704.927 52.8975 711.201 46.5266C717.475 40.1566 726.361 36.3999 736.814 36.3999V34.3999C725.867 34.3999 716.453 38.3432 709.776 45.1232C703.101 51.9023 699.214 61.4621 699.214 72.5999H701.214ZM792.924 108V109H793.585L793.844 108.392L792.924 108ZM786.024 108L785.108 107.6L784.497 109H786.024V108ZM816.924 37.1999V36.1999H816.269L816.008 36.7999L816.924 37.1999ZM823.724 37.1999L824.646 36.812L824.388 36.1999H823.724V37.1999ZM853.524 108V109H855.03L854.446 107.612L853.524 108ZM846.124 108L845.199 108.379L845.453 109H846.124V108ZM838.424 89.1999L839.35 88.8209L839.095 88.1999H838.424V89.1999ZM800.924 89.1999V88.1999H800.263L800.004 88.8083L800.924 89.1999ZM820.024 44.3999L820.949 44.0187L820.038 41.8112L819.104 44.0086L820.024 44.3999ZM803.524 83.1999L802.604 82.8086L802.012 84.1999H803.524V83.1999ZM836.024 83.1999V84.1999H837.518L836.949 82.8187L836.024 83.1999ZM792.924 107H786.024V109H792.924V107ZM786.941 108.4L817.841 37.5999L816.008 36.7999L785.108 107.6L786.941 108.4ZM816.924 38.1999H823.724V36.1999H816.924V38.1999ZM822.802 37.5878L852.602 108.388L854.446 107.612L824.646 36.812L822.802 37.5878ZM853.524 107H846.124V109H853.524V107ZM847.05 107.621L839.35 88.8209L837.499 89.5789L845.199 108.379L847.05 107.621ZM838.424 88.1999H800.924V90.1999H838.424V88.1999ZM800.004 88.8083L792.004 107.608L793.844 108.392L801.844 89.5915L800.004 88.8083ZM819.104 44.0086L802.604 82.8086L804.444 83.5912L820.944 44.7912L819.104 44.0086ZM803.524 84.1999H836.024V82.1999H803.524V84.1999ZM836.949 82.8187L820.949 44.0187L819.1 44.7811L835.1 83.5811L836.949 82.8187ZM923.181 44.2999L923.765 45.1117L924.61 44.5042L923.969 43.6843L923.181 44.2999ZM917.481 48.3999L916.671 48.986L917.255 49.7941L918.065 49.2117L917.481 48.3999ZM902.581 69.2999L902.869 68.3423L902.863 68.3404L902.581 69.2999ZM879.281 99.0999L878.726 98.2678L877.867 98.8407L878.467 99.6811L879.281 99.0999ZM885.581 94.8999L886.439 94.3854L885.899 93.4861L885.026 94.0678L885.581 94.8999ZM903.881 36.3999C911.334 36.3999 917.617 38.802 922.393 44.9155L923.969 43.6843C918.745 36.9977 911.829 34.3999 903.881 34.3999V36.3999ZM922.597 43.4881L916.897 47.5881L918.065 49.2117L923.765 45.1117L922.597 43.4881ZM918.291 47.8138C916.518 45.3617 914.479 43.4954 912.051 42.2479C909.623 41.0003 906.86 40.3999 903.681 40.3999V42.3999C906.602 42.3999 909.04 42.9495 911.137 44.0269C913.234 45.1043 915.045 46.7381 916.671 48.986L918.291 47.8138ZM903.681 40.3999C898.852 40.3999 894.636 41.75 891.607 44.2542C888.56 46.773 886.781 50.4079 886.781 54.7999H888.781C888.781 50.9919 890.303 47.9268 892.881 45.7956C895.477 43.6498 899.21 42.3999 903.681 42.3999V40.3999ZM886.781 54.7999C886.781 58.6066 887.824 61.7081 890.388 64.2589C892.904 66.7609 896.797 68.6441 902.299 70.2594L902.863 68.3404C897.465 66.7557 893.958 64.9889 891.799 62.8409C889.688 60.7417 888.781 58.1932 888.781 54.7999H886.781ZM902.293 70.2575C908.496 72.1233 913.726 73.7281 917.441 76.5352C921.049 79.2619 923.281 83.1753 923.281 89.8999H925.281C925.281 82.6245 922.813 78.0879 918.647 74.9396C914.587 71.8717 908.967 70.1765 902.869 68.3423L902.293 70.2575ZM923.281 89.8999C923.281 100.758 914.623 108.8 902.281 108.8V110.8C915.539 110.8 925.281 102.042 925.281 89.8999H923.281ZM902.281 108.8C893.108 108.8 885.358 105.887 880.095 98.5187L878.467 99.6811C884.205 107.713 892.654 110.8 902.281 110.8V108.8ZM879.836 99.932L886.136 95.7319L885.026 94.0678L878.726 98.2678L879.836 99.932ZM884.724 95.4144C888.519 101.74 894.46 104.8 901.781 104.8V102.8C895.103 102.8 889.843 100.06 886.439 94.3854L884.724 95.4144ZM901.781 104.8C911.395 104.8 918.681 98.7811 918.681 89.8999H916.681C916.681 97.4187 910.567 102.8 901.781 102.8V104.8ZM918.681 89.8999C918.681 87.4558 918.247 85.4249 917.307 83.6919C916.366 81.957 914.961 80.5989 913.147 79.4335C909.586 77.1465 904.223 75.4765 897.195 73.1505L896.567 75.0492C903.74 77.4233 908.776 79.0033 912.066 81.1163C913.676 82.1508 914.809 83.2803 915.549 84.6454C916.29 86.0124 916.681 87.694 916.681 89.8999H918.681ZM897.195 73.1505C891.995 71.4336 888.263 69.1896 885.826 66.2493C883.405 63.3278 882.181 59.6193 882.181 54.7999H880.181C880.181 59.9805 881.507 64.172 884.286 67.5255C887.05 70.8602 891.168 73.2664 896.568 75.0495L897.195 73.1505ZM882.181 54.7999C882.181 49.2493 884.472 44.679 888.298 41.4795C892.137 38.2679 897.573 36.3999 903.881 36.3999V34.3999C897.19 34.3999 891.275 36.3819 887.015 39.9453C882.74 43.5207 880.181 48.6505 880.181 54.7999H882.181ZM959.251 108H958.251V109H959.251V108ZM959.251 37.1999V36.1999H958.251V37.1999H959.251ZM1002.55 37.1999H1003.55V36.1999H1002.55V37.1999ZM1002.55 43.1999V44.1999H1003.55V43.1999H1002.55ZM965.851 43.1999V42.1999H964.851V43.1999H965.851ZM965.851 68.3999H964.851V69.3999H965.851V68.3999ZM1000.25 68.3999H1001.25V67.3999H1000.25V68.3999ZM1000.25 74.3999V75.3999H1001.25V74.3999H1000.25ZM965.851 74.3999V73.3999H964.851V74.3999H965.851ZM965.851 102H964.851V103H965.851V102ZM1004.15 102H1005.15V101H1004.15V102ZM1004.15 108V109H1005.15V108H1004.15ZM960.251 108V37.1999H958.251V108H960.251ZM959.251 38.1999H1002.55V36.1999H959.251V38.1999ZM1001.55 37.1999V43.1999H1003.55V37.1999H1001.55ZM1002.55 42.1999H965.851V44.1999H1002.55V42.1999ZM964.851 43.1999V68.3999H966.851V43.1999H964.851ZM965.851 69.3999H1000.25V67.3999H965.851V69.3999ZM999.251 68.3999V74.3999H1001.25V68.3999H999.251ZM1000.25 73.3999H965.851V75.3999H1000.25V73.3999ZM964.851 74.3999V102H966.851V74.3999H964.851ZM965.851 103H1004.15V101H965.851V103ZM1003.15 102V108H1005.15V102H1003.15ZM1004.15 107H959.251V109H1004.15V107Z" fill="white"/>
<mask id="mask0_591_11811" style="mask-type:luminance" maskUnits="userSpaceOnUse" x="0" y="3" width="147" height="132">
<path d="M146.92 3H0V134.037H146.92V3Z" fill="white"/>
</mask>
<g mask="url(#mask0_591_11811)">
<path fill-rule="evenodd" clip-rule="evenodd" d="M52.3626 13.5425C55.7958 12.9165 59.2601 12.4713 62.741 12.2088C63.5285 12.1491 64.0765 12.0195 64.4159 11.4706C64.9889 10.5475 66.0085 10.1923 67.4278 10.0874C71.2475 9.805 75.0366 9.78462 78.8656 10.0452C80.7126 10.1719 81.9436 10.6364 82.6519 11.8404C82.9305 12.3136 83.4112 12.4883 84.1312 12.5393C85.634 12.6441 87.1285 12.8043 88.6182 13.0009C90.5527 13.2571 92.4686 13.5818 94.4769 13.9079C94.1307 12.7504 93.5914 11.7706 92.9845 10.8081C90.6658 7.13476 86.9478 4.63195 81.416 3.61714C77.2594 2.85567 73.0531 2.92265 68.8396 3.16434C66.2024 3.31576 63.6857 3.83408 61.3365 4.73096C56.4411 6.59459 54.0345 9.77734 52.3626 13.5425ZM2.91068 16.8999C4.57406 17.5226 6.13515 18.3862 7.54304 19.4624C10.621 21.7964 12.7396 24.5801 14.7025 27.4295C16.8842 30.5947 18.6017 33.9013 20.2208 37.2514C20.5426 37.0577 20.5661 36.8263 20.6351 36.6021C21.4608 33.9522 22.4305 31.33 23.672 28.7617C25.8743 24.2118 28.8215 20.004 34.1871 16.913C34.7262 16.6029 34.6822 16.386 34.284 16.0205C32.5841 14.4597 30.7491 12.9921 28.6085 11.74C26.916 10.7514 24.9707 10.2506 22.7596 10.2869C17.9054 10.3655 13.4889 11.4997 9.30169 13.1654C6.88927 14.1248 4.64434 15.2474 2.91068 16.8999ZM66.7754 13.6138L66.273 13.6866C66.198 13.6706 66.1201 13.6342 66.0481 13.6371C59.6895 13.9821 53.3807 14.5369 47.2571 15.8968C40.6986 17.3528 35.6372 20.1817 32.1199 24.4258C29.3196 27.8065 27.7887 31.5426 26.3929 35.3019C24.934 39.2301 23.9202 43.234 23.0197 47.2466C21.5652 53.7242 20.4603 60.2367 19.4201 66.7522C18.6735 71.504 17.98 76.2641 17.3397 81.0311C16.4155 87.7954 15.5943 94.5638 15.5326 101.371C15.4753 107.342 15.6604 113.295 18.2212 119.059C19.9005 122.839 22.7904 125.946 27.6535 128.016C32.6929 130.162 38.2082 131.322 43.8559 132.193C52.22 133.485 60.7194 133.91 69.2496 134.008C78.4173 134.113 87.5782 133.954 96.6735 133C103.343 132.301 109.882 131.238 116.07 129.236C121.695 127.417 125.8 124.58 128.034 120.365C130.252 116.182 131.011 111.819 131.269 107.404C131.852 97.4307 130.512 87.5216 129.105 77.6207C128.072 70.3542 126.951 63.0933 125.595 55.8514C124.765 51.4224 123.885 47.002 122.729 42.6123C121.384 37.5164 119.79 32.4715 117.03 27.6552C113.666 21.7847 108.01 17.6396 99.4212 15.8618C88.7486 13.6545 77.8235 13.1203 66.7754 13.6138ZM133.999 75.0193C134.003 75.5972 134.028 76.1752 134.234 76.7386L134.911 81.3849C134.814 81.6787 134.863 81.9553 135.058 82.3312C135.217 81.9408 135.563 81.7194 135.455 81.3932L137.512 74.1206C137.654 73.8531 137.789 73.5848 137.714 73.291C138.112 72.6268 138.203 71.9078 138.449 71.2162C139.942 67.0274 140.959 62.7716 141.916 58.5085C142.971 53.8174 143.881 49.1074 145.052 44.4308C146.492 38.6797 147.138 32.8995 146.859 27.0684C146.754 24.9106 146.612 22.7398 145.807 20.4976C145.135 20.8747 144.548 21.1572 144.035 21.4993C141.67 23.082 139.992 25.0344 138.489 27.0553C134.207 32.8107 131.429 38.987 128.835 45.2112C128.702 45.5271 128.779 45.8285 128.853 46.1416C130.196 51.7878 131.172 57.469 132.095 63.156C132.737 67.1104 133.364 71.0648 133.999 75.0193ZM0.410092 22.0118C-0.0189149 23.2465 0.00312309 24.5088 0.00018468 25.7668C-0.0145074 31.4814 0.849381 37.1437 1.88664 42.8016C2.78726 47.7184 4.03902 52.5871 5.25846 57.4617C6.43038 62.1968 7.6538 66.9193 8.92851 71.6283C10.1538 76.111 10.5961 80.6511 11.0618 85.1919C11.0956 85.5243 11.0177 85.8809 11.338 86.2112C11.3997 86.1181 11.479 86.0512 11.4879 85.9781C12.3221 79.3235 13.2802 72.6848 14.3616 66.065C15.4165 59.6107 16.4229 53.1535 17.9098 46.7414C18.1052 45.9043 18.3461 45.086 17.9068 44.208C17.0488 42.4871 16.4009 40.7137 15.5752 38.984C13.3905 34.4093 11.0648 29.8711 7.57683 25.7056C6.16496 24.0167 4.7031 22.3365 2.442 21.1339C1.92778 20.8165 1.36948 20.253 0.756821 20.451C0.247011 20.617 0.43213 21.3086 0.333694 21.7701C0.319002 21.8459 0.382178 21.9303 0.410092 22.0118ZM136.605 12.9309C131.828 11.2788 126.799 10.4563 121.74 10.4995C120.277 10.5015 118.846 10.9183 117.616 11.7006C115.521 13.03 114.065 14.6956 112.817 16.4718C112.561 16.8358 112.837 16.9829 113.159 17.1751C114.585 18.0167 115.911 19.0124 117.115 20.1438C121.253 24.0487 123.369 28.5928 125.115 33.2519C125.647 34.6729 126.121 36.1041 126.684 37.7071C128.393 34.2216 130.045 30.9121 132.211 27.7571C134.843 23.9206 137.676 20.1787 142.613 17.5537L143.253 17.2596L143.809 17.0383C144.323 16.9043 144.012 16.7689 143.809 16.6335C143.708 16.3423 143.441 16.1385 143.124 15.9593C142.863 15.5998 142.444 15.358 141.963 15.1615C140.891 14.4379 139.642 13.9094 138.317 13.4667C137.769 13.2513 137.267 12.9572 136.605 12.9309Z" fill="white"/>
</g>
</svg>
