<svg xmlns="http://www.w3.org/2000/svg" viewBox="0 0 420 100">
  <defs>
    <style>
      .cls-1 {
        fill: #f37821;
      }

      .cls-2 {
        fill: #fff;
      }

      .cls-3 {
        fill: #231f20;
        fill-rule: evenodd;
      }
    </style>
  </defs>
  <title>Asset 1</title>
  <g id="Layer_2" data-name="Layer 2">
    <g id="Layer_1-2" data-name="Layer 1">
      <path class="cls-1" d="M268.19,27.44v9.23A7.77,7.77,0,0,1,273.7,39,7.85,7.85,0,0,1,276,44.51V76.38h11.26V47.76c0-8.93-2.82-11.08-2.82-11.08h18.43V27.44Z"/>
      <path class="cls-1" d="M332.65,60.66H304.32c1.05,4.69,5,7.55,10.71,7.55a12.61,12.61,0,0,0,9.4-3.64l5.77,6.27c-3.47,4-8.69,6.07-15.44,6.07-12.94,0-21.36-8.17-21.36-19.35s8.56-19.39,20-19.39c11,0,19.48,7.42,19.48,19.52C332.85,58.56,332.72,59.75,332.65,60.66ZM304.19,54.3h18.43a9.29,9.29,0,0,0-15.34-5.8A9.38,9.38,0,0,0,304.19,54.3Z"/>
      <path class="cls-1" d="M338.17,57.59c0-11.33,8.71-19.38,20.88-19.38,7.86,0,14.05,3.43,16.78,9.59l-8.43,4.54a9.44,9.44,0,0,0-3.48-3.8A9.25,9.25,0,0,0,359,47.17c-5.52,0-9.81,3.84-9.81,10.42S353.48,68,359,68a9.2,9.2,0,0,0,8.42-5.17l8.43,4.62c-2.73,6-8.92,9.51-16.78,9.51C346.9,77,338.17,68.91,338.17,57.59Z"/>
      <path class="cls-1" d="M420,54.86V76.38H409.14V56.54c0-6.09-2.78-8.87-7.57-8.87-5.22,0-9,3.21-9,10.13V76.38H381.74V24.5h10.84V42.69a16.42,16.42,0,0,1,11.91-4.44C413.33,38.21,420,43.39,420,54.86Z"/>
      <path class="cls-2" d="M200.85,54.93V76.38H190.68V71.71c-2,3.43-5.91,5.24-11.4,5.24-8.77,0-14-4.89-14-11.4S170,54.3,181.36,54.3H190c0-4.68-2.78-7.41-8.63-7.41a17.91,17.91,0,0,0-10.79,3.49l-3.89-7.63c4.1-2.94,10.16-4.54,16.14-4.54C194.24,38.22,200.85,43.53,200.85,54.93ZM190,64.51V60.66h-7.45c-5.07,0-6.67,1.88-6.67,4.44,0,2.72,2.29,4.54,6.12,4.54,3.61,0,6.74-1.67,8-5.1Z"/>
      <path class="cls-2" d="M269.07,54.86V76.38H258.22V56.54c0-6.09-2.72-8.87-7.1-8.87-4.86,0-8.27,3.14-8.27,9.85V76.38H232V56.54c0-6.09-2.57-8.87-7.1-8.87-4.8,0-8.21,3.14-8.21,9.85V76.38h-10.9V38.77h10.37v4.35a15.12,15.12,0,0,1,11.76-4.9c5.22,0,9.67,2,12.31,6.15a16.87,16.87,0,0,1,13.51-6.15C262.67,38.21,269.07,43.39,269.07,54.86Z"/>
      <path class="cls-2" d="M159.32,65.29c.15-.35.28-.72.41-1.1s.22-.64.31-1c.19-.66.35-1.35.48-2l.1-.59v-.36c0-.26.07-.51.09-.77v-.18c.07-.83.09-1.66.08-2.49v-1a.6.6,0,0,1,0-.19v-.06a2.17,2.17,0,0,0-.09-.76c-.06-.45-.13-.89-.21-1.34a17.28,17.28,0,0,0-.48-2l-.13-.43c-.09-.25-.17-.52-.26-.78-.18-.5-.38-1-.6-1.48l-.09-.17a21.19,21.19,0,0,0-9-9.89h-.07c-.2-.12-.42-.22-.62-.33l-.17-.09a21.09,21.09,0,0,0-6.2-1.93L151.35,28a3.9,3.9,0,0,0,.91-1.32,4.26,4.26,0,0,0,.34-1.57,4.32,4.32,0,0,0-.3-1.59,4.09,4.09,0,0,0-4.9-2.41,4.05,4.05,0,0,0-1.72,1L136,31.65l-.5.49-9.92,9.68-.4.39-.52.5a21.24,21.24,0,0,0-3.61,5.1c-.26.52-.51,1-.73,1.6a21.42,21.42,0,0,0-1.1,3.85,20.48,20.48,0,0,0,.29,9.31c.06.29.15.57.23.86l.08.25c.08.3.19.58.29.88s.26.67.39,1,.36.81.56,1.2l.42.82.43.75c.23.38.47.75.71,1.11a21,21,0,0,0,36.25-2.68l.11-.23c.1-.19.21-.38.3-.58S159.23,65.51,159.32,65.29Zm-15.14,4.23a12.84,12.84,0,0,1-6.08.69,4.88,4.88,0,0,1-1-.18l-.27-.07a5.38,5.38,0,0,1-.76-.21l-.51-.15-.49-.2-.73-.31L134.1,69c-.31-.15-.63-.32-.93-.49A14.17,14.17,0,0,1,131.24,67a12.87,12.87,0,0,1-2.69-3.32,3.23,3.23,0,0,1-.22-.41c-.07-.14-.31-.6-.45-.91s-.16-.42-.23-.63a7,7,0,0,1-.27-.89,5.87,5.87,0,0,1-.16-.6,13.21,13.21,0,0,1,.72-8.07A12.85,12.85,0,0,1,152.38,55a1,1,0,0,0,.08.47,13.33,13.33,0,0,1,.15,1.55v1.47a2.34,2.34,0,0,1-.09.78c-.09.26,0,.29-.08.43a12.95,12.95,0,0,1-8.27,9.85Z"/>
      <path class="cls-2" d="M75.78,0h-52A23.67,23.67,0,0,0,7,7,23.93,23.93,0,0,0,0,23.85v52.3A23.93,23.93,0,0,0,7,93a23.67,23.67,0,0,0,16.78,7H75.78a23.66,23.66,0,0,0,16.77-7,23.93,23.93,0,0,0,7-16.87V23.85A23.93,23.93,0,0,0,92.55,7,23.66,23.66,0,0,0,75.78,0Z"/>
      <path class="cls-1" d="M41.29,57.62,29.17,32A21.77,21.77,0,0,1,58.22,42.38L70.34,68A21.78,21.78,0,0,1,41.29,57.62Z"/>
      <path class="cls-3" d="M73.16,66.6l11.55-5.53-17-6Z"/>
      <path class="cls-3" d="M26,33.48,14.49,39l17.08,6.08Z"/>
    </g>
  </g>
</svg>
