<svg xmlns="http://www.w3.org/2000/svg" xmlns:xlink="http://www.w3.org/1999/xlink" viewBox="0 0 509.02 92.59">
  <defs>
    <style>
      .cls-1 {
        fill: url(#linear-gradient);
      }

      .cls-2 {
        fill: #6387ff;
      }

      .cls-3 {
        fill: #fff;
      }

      .cls-4 {
        fill: #e15aab;
      }
    </style>
    <linearGradient id="linear-gradient" x1="9.79" y1="67.62" x2="59.48" y2="-1.18" gradientTransform="matrix(1, 0, 0, -1, 0, 94.02)" gradientUnits="userSpaceOnUse">
      <stop offset="0.07" stop-color="#b843ae"/>
      <stop offset="0.4" stop-color="#fb6aab"/>
      <stop offset="0.71" stop-color="#faa247"/>
      <stop offset="1" stop-color="#f7bd01"/>
    </linearGradient>
  </defs>
  <title>Asset 1</title>
  <g id="Layer_2" data-name="Layer 2">
    <g id="Layer_1-2" data-name="Layer 1">
      <g id="Layer_2-2" data-name="Layer 2">
        <g id="Layer_1-2-2" data-name="Layer 1-2">
          <path class="cls-1" d="M27.41,32.8,12,24.64a6.23,6.23,0,0,0-8.38,2.6C.78,32.84,4.38,40.87,10.06,44l27.82,15.2a2.78,2.78,0,0,1,1.51,2.39c0,2.2-2.72,3.54-4.83,2.4l-17.4-9.54A11.57,11.57,0,0,0,2.6,56.7,9.75,9.75,0,0,0,0,63.29c0,5.78,5.43,9.49,10.38,12.43C13.93,77.83,17.5,79.86,21,82L32.42,88.9,37.63,92a4.18,4.18,0,0,0,4.24,0h0L57.48,82.4c6.52-4,14.87-7.69,16-15.39a11.3,11.3,0,0,0,.11-1.74,13.11,13.11,0,0,0-2.92-8c-2.31-2.88-5.94-4.51-9.26-6.32s-6.87-3.74-10.31-5.59l-2.27,4,2.27-4.08L50.4,45C42.78,40.86,35.06,36.87,27.41,32.8Z"/>
          <path class="cls-2" d="M74.63,24.46A11.16,11.16,0,0,1,61.79,6.24,39.9,39.9,0,0,0,39.56,0,40.74,40.74,0,0,0,14.15,8.77c-3.71,3-3.11,8.34,1.18,10.66l24.12,13v-.12L54,40.1l15.7,8.42c2.94,1.58,6.7-.32,6.67-3.37,0-5.93,0-11.85-1-17.49C75.13,26.58,74.9,25.51,74.63,24.46Z"/>
          <circle class="cls-2" cx="68.73" cy="14.99" r="6.34"/>
          <path class="cls-3" d="M115.19,60.42a5,5,0,0,0-1.94-4.24,23,23,0,0,0-7-3,33.76,33.76,0,0,1-8-3.39q-5.7-3.6-5.71-9.35a10.19,10.19,0,0,1,4.12-8.32q4.11-3.27,10.69-3.27a17.94,17.94,0,0,1,7.77,1.61A12.7,12.7,0,0,1,120.47,35a11.72,11.72,0,0,1,2,6.59h-7.23a6.49,6.49,0,0,0-2-5.08,8.48,8.48,0,0,0-5.87-1.84,8.8,8.8,0,0,0-5.52,1.52,5,5,0,0,0-2,4.22A4.57,4.57,0,0,0,102,44.24a24.41,24.41,0,0,0,7,3,31.88,31.88,0,0,1,7.83,3.29,12.49,12.49,0,0,1,4.33,4.25,11,11,0,0,1,1.38,5.61,10,10,0,0,1-4,8.3q-4,3.09-10.85,3.09a20.42,20.42,0,0,1-8.34-1.68,14.07,14.07,0,0,1-5.91-4.63,11.57,11.57,0,0,1-2.11-6.89h7.26a6.78,6.78,0,0,0,2.35,5.51c1.57,1.3,3.82,2,6.75,2a9,9,0,0,0,5.69-1.53A5,5,0,0,0,115.19,60.42Z"/>
          <path class="cls-3" d="M147,68.14q-3.08,3.61-8.73,3.62-5,0-7.64-3T128,60.25V40.14h7v20q0,5.91,4.91,5.91c3.39,0,5.67-1.22,6.86-3.65V40.14h7v31H147.2Z"/>
          <path class="cls-3" d="M188,56q0,7.23-3.23,11.5a10.53,10.53,0,0,1-8.88,4.28,10.16,10.16,0,0,1-8.49-3.93l-.34,3.35h-6.32V27.12h7v16a10,10,0,0,1,8.11-3.56,10.61,10.61,0,0,1,8.93,4.22Q188,48,188,55.58Zm-7-.6c0-3.37-.6-5.89-1.78-7.58a5.91,5.91,0,0,0-5.17-2.52,6.45,6.45,0,0,0-6.36,4V62a6.53,6.53,0,0,0,6.42,4,5.9,5.9,0,0,0,5-2.44c1.19-1.63,1.8-4.08,1.84-7.37Z"/>
          <path class="cls-3" d="M211.27,62.75a3.18,3.18,0,0,0-1.54-2.84,15.88,15.88,0,0,0-5.09-1.72,26.37,26.37,0,0,1-5.94-1.9q-5.22-2.52-5.22-7.31a8.26,8.26,0,0,1,3.38-6.71,13.34,13.34,0,0,1,8.61-2.7,13.92,13.92,0,0,1,9,2.75,8.73,8.73,0,0,1,3.43,7.15h-7a4.31,4.31,0,0,0-1.49-3.35,5.73,5.73,0,0,0-4-1.33,6.14,6.14,0,0,0-3.74,1.06,3.35,3.35,0,0,0-1.45,2.84,2.85,2.85,0,0,0,1.35,2.5A18.79,18.79,0,0,0,207.08,53a25.69,25.69,0,0,1,6.44,2.15,9.14,9.14,0,0,1,3.47,3,7.57,7.57,0,0,1,1.13,4.25,8.09,8.09,0,0,1-3.47,6.78,14.78,14.78,0,0,1-9.09,2.6,16.08,16.08,0,0,1-6.8-1.38,11.24,11.24,0,0,1-4.65-3.79,9,9,0,0,1-1.66-5.19h6.77a4.87,4.87,0,0,0,1.86,3.8,7.28,7.28,0,0,0,4.56,1.34,7.08,7.08,0,0,0,4.19-1A3.26,3.26,0,0,0,211.27,62.75Z"/>
          <path class="cls-3" d="M236.94,66.19a6.35,6.35,0,0,0,4.33-1.52,5.22,5.22,0,0,0,1.84-3.76h6.57a10.29,10.29,0,0,1-1.81,5.41,11.82,11.82,0,0,1-4.59,4A13.68,13.68,0,0,1,237,71.76a13.26,13.26,0,0,1-10.33-4.22q-3.82-4.23-3.81-11.65v-.72q0-7.08,3.78-11.34T237,39.57a12.68,12.68,0,0,1,9,3.23,11.48,11.48,0,0,1,3.66,8.47h-6.57a6.38,6.38,0,0,0-1.82-4.39,5.89,5.89,0,0,0-4.35-1.72,6.13,6.13,0,0,0-5.22,2.46c-1.22,1.63-1.85,4.11-1.86,7.44v1.12c0,3.37.6,5.88,1.82,7.53A6.13,6.13,0,0,0,236.94,66.19Z"/>
          <path class="cls-3" d="M271.2,46.51a18,18,0,0,0-2.84-.23c-3.2,0-5.35,1.23-6.46,3.67V71.18h-7v-31h6.66l.17,3.47a7.85,7.85,0,0,1,7-4,6.5,6.5,0,0,1,2.47.4Z"/>
          <path class="cls-3" d="M275.61,32a3.71,3.71,0,0,1,1-2.69,3.83,3.83,0,0,1,2.91-1.07,3.88,3.88,0,0,1,2.93,1.07,3.71,3.71,0,0,1,1,2.69,3.62,3.62,0,0,1-1,2.65,3.91,3.91,0,0,1-2.93,1.05,3.87,3.87,0,0,1-2.91-1.05A3.64,3.64,0,0,1,275.61,32ZM283,71.18h-7v-31h7Z"/>
          <path class="cls-3" d="M317.79,56q0,7.2-3.27,11.49a11.37,11.37,0,0,1-16,1.86,13,13,0,0,1-1-.93V83.12h-7v-43H297l.28,3.16a10.22,10.22,0,0,1,8.35-3.73,10.57,10.57,0,0,1,8.91,4.23q3.22,4.23,3.23,11.75Zm-7-.6A12.89,12.89,0,0,0,309,48a6,6,0,0,0-5.29-2.72,6.39,6.39,0,0,0-6.14,3.53V62.58a6.47,6.47,0,0,0,6.2,3.61A6,6,0,0,0,309,63.51c1.23-1.79,1.85-4.5,1.84-8.13Z"/>
          <path class="cls-3" d="M332.42,32.6v7.54h5.48v5.17h-5.48V62.63a3.81,3.81,0,0,0,.7,2.57,3.28,3.28,0,0,0,2.51.79,10.57,10.57,0,0,0,2.44-.29v5.4a17.38,17.38,0,0,1-4.59.66q-8,0-8-8.87V45.31h-5.11V40.14h5.11V32.6Z"/>
          <path class="cls-3" d="M343.23,32a3.71,3.71,0,0,1,1-2.69,3.83,3.83,0,0,1,2.91-1.07,3.88,3.88,0,0,1,2.93,1.07,3.71,3.71,0,0,1,1,2.69,3.62,3.62,0,0,1-1,2.65,3.91,3.91,0,0,1-2.93,1.05,3.87,3.87,0,0,1-2.91-1.05A3.64,3.64,0,0,1,343.23,32Zm7.41,39.13h-7v-31h7Z"/>
          <path class="cls-3" d="M356.92,55.38a18.11,18.11,0,0,1,1.81-8.22,13.14,13.14,0,0,1,5.07-5.63,14.3,14.3,0,0,1,7.52-2,13.57,13.57,0,0,1,10.2,4,15.93,15.93,0,0,1,4.23,10.73V55.9A18.45,18.45,0,0,1,384,64.1a13,13,0,0,1-5,5.6,14.45,14.45,0,0,1-7.59,2,13.49,13.49,0,0,1-10.52-4.38q-3.94-4.38-3.94-11.66Zm7,.6a12.52,12.52,0,0,0,2,7.5,6.91,6.91,0,0,0,9.68,1.32,7.17,7.17,0,0,0,1.32-1.32c1.31-1.84,2-4.52,2-8.06a12.31,12.31,0,0,0-2-7.46,6.81,6.81,0,0,0-9.53-1.38A6.94,6.94,0,0,0,366,48q-2.11,2.63-2.12,8Z"/>
          <path class="cls-3" d="M398.14,40.14l.2,3.59a11.18,11.18,0,0,1,9-4.16q9.71,0,9.87,11.1V71.18h-7V51.07A6.32,6.32,0,0,0,409,46.7a5.34,5.34,0,0,0-4.17-1.42,6.71,6.71,0,0,0-6.28,3.81V71.18h-7v-31Z"/>
          <path class="cls-4" d="M432.28,55.69V71.18H425V29.41h16q7,0,11.12,3.65a12.26,12.26,0,0,1,4.12,9.65q0,6.15-4,9.56T441,55.69Zm0-5.85H441A8.62,8.62,0,0,0,446.91,48a6.71,6.71,0,0,0,2-5.27,7.26,7.26,0,0,0-2.06-5.41,8,8,0,0,0-5.68-2.07h-8.93Z"/>
          <path class="cls-4" d="M478.16,46.51a18,18,0,0,0-2.84-.23c-3.2,0-5.35,1.23-6.46,3.67V71.18h-7v-31h6.66l.17,3.47a7.85,7.85,0,0,1,7-4,6.5,6.5,0,0,1,2.47.4Z"/>
          <path class="cls-4" d="M480.22,55.38A18.37,18.37,0,0,1,482,47.16a13.17,13.17,0,0,1,5.08-5.63,14.27,14.27,0,0,1,7.51-2,13.57,13.57,0,0,1,10.2,4A15.93,15.93,0,0,1,509,54.26V55.9a18.44,18.44,0,0,1-1.76,8.2,13.09,13.09,0,0,1-5.05,5.6,14.45,14.45,0,0,1-7.59,2,13.45,13.45,0,0,1-10.51-4.38q-3.94-4.38-3.95-11.66Zm7,.6a12.45,12.45,0,0,0,2,7.5,6.92,6.92,0,0,0,11,0c1.31-1.84,2-4.52,2-8.06a12.31,12.31,0,0,0-2-7.46,6.8,6.8,0,0,0-10.92,0q-2.12,2.63-2.11,8Z"/>
        </g>
      </g>
    </g>
  </g>
</svg>
