<svg width="287" height="33" viewBox="0 0 287 33" fill="none" xmlns="http://www.w3.org/2000/svg">
<path d="M37.4046 8.41119H31.3936V5.09006H47.1521V8.41119H41.1411V24.4633H37.4046V8.41119ZM51.7944 24.4633C51.0182 24.4633 50.3863 24.2235 49.8989 23.7437C49.4115 23.264 49.1678 22.6367 49.1678 21.8618V5.09006H63.6269V8.41119H52.9045V12.8947H62.8146V16.2159H52.9045V21.1422H63.6269V24.4633H51.7944ZM72.4556 24.6847C71.0657 24.6847 69.8382 24.3803 68.7732 23.7714C67.7262 23.1626 66.9139 22.3046 66.3363 21.1975C65.7587 20.0721 65.4699 18.7805 65.4699 17.3229V12.2305C65.4699 10.7729 65.7587 9.49056 66.3363 8.38352C66.932 7.25802 67.7623 6.39084 68.8274 5.78196C69.9104 5.17309 71.1559 4.86865 72.5639 4.86865H75.434C76.7879 4.86865 77.9792 5.16386 79.0081 5.75429C80.0371 6.34471 80.8313 7.17499 81.3909 8.24514C81.9685 9.29683 82.2573 10.5238 82.2573 11.9261H78.5749C78.5749 10.819 78.2861 9.93338 77.7085 9.26915C77.1308 8.58647 76.3727 8.24514 75.434 8.24514H72.5639C71.5531 8.24514 70.7408 8.6326 70.127 9.40753C69.5133 10.164 69.2064 11.1604 69.2064 12.3965V17.1568C69.2064 18.393 69.5043 19.3986 70.1 20.1735C70.6956 20.93 71.4809 21.3083 72.4556 21.3083H75.3799C76.3366 21.3083 77.1128 20.93 77.7085 20.1735C78.3222 19.4171 78.6291 18.4207 78.6291 17.1845H82.3115C82.3115 18.679 82.0227 19.9983 81.445 21.1422C80.8674 22.2677 80.0551 23.1441 79.0081 23.7714C77.9612 24.3803 76.7518 24.6847 75.3799 24.6847H72.4556ZM84.6532 5.09006H88.3897V13.0885H97.2167V5.09006H100.953V24.4633H97.2167V16.4096H88.3897V24.4633H84.6532V5.09006ZM104.299 5.09006H107.63L116.728 18.2639V5.09006H120.383V24.4633H117.053L107.955 11.2895V24.4633H104.299V5.09006ZM130.422 24.6847C128.996 24.6847 127.732 24.3803 126.631 23.7714C125.548 23.1441 124.7 22.2769 124.086 21.1699C123.49 20.0444 123.193 18.7436 123.193 17.2675V12.2858C123.193 10.8098 123.49 9.51824 124.086 8.41119C124.7 7.2857 125.548 6.41851 126.631 5.80964C127.732 5.18231 128.996 4.86865 130.422 4.86865H133.292C134.718 4.86865 135.973 5.18231 137.056 5.80964C138.157 6.41851 139.005 7.2857 139.601 8.41119C140.215 9.51824 140.522 10.8098 140.522 12.2858V17.2675C140.522 18.7436 140.215 20.0444 139.601 21.1699C139.005 22.2769 138.157 23.1441 137.056 23.7714C135.973 24.3803 134.718 24.6847 133.292 24.6847H130.422ZM133.292 21.3083C134.339 21.3083 135.178 20.9208 135.81 20.1459C136.46 19.3709 136.785 18.3561 136.785 17.1015V12.4519C136.785 11.1973 136.46 10.1825 135.81 9.40753C135.178 8.6326 134.339 8.24514 133.292 8.24514H130.422C129.375 8.24514 128.527 8.6326 127.877 9.40753C127.245 10.1825 126.929 11.1973 126.929 12.4519V17.1015C126.929 18.3561 127.245 19.3709 127.877 20.1459C128.527 20.9208 129.375 21.3083 130.422 21.3083H133.292Z" fill="white"/>
<path d="M143.312 5.14746H146.631L155.696 18.2428V5.14746H159.338V24.4053H156.019L146.955 11.31V24.4053H143.312V5.14746ZM165.294 24.4053C164.52 24.4053 163.891 24.1669 163.405 23.6901C162.92 23.2132 162.677 22.5896 162.677 21.8193V5.14746H177.084V8.44881H166.4V12.9056H176.274V16.207H166.4V21.104H177.084V24.4053H165.294Z" fill="#FF5834"/>
<path d="M178.759 24.4058L190.193 8.49707L194.667 14.5808L187.578 24.4058H178.759Z" fill="#FF5834"/>
<path d="M185.786 14.6369L178.759 5.14746H187.714L190.202 8.62692L185.786 14.6369Z" fill="white"/>
<path d="M198.224 8.44881H192.156V5.14746H208.064V8.44881H201.996V24.4053H198.224V8.44881Z" fill="#FF5834"/>
<path d="M2.4335 2.99122C3.05342 2.99122 3.55596 2.48743 3.55596 1.86597C3.55596 1.24451 3.05342 0.740723 2.4335 0.740723C1.81358 0.740723 1.31104 1.24451 1.31104 1.86597C1.31104 2.48743 1.81358 2.99122 2.4335 2.99122Z" fill="white"/>
<path d="M5.4252 5.99171C6.04511 5.99171 6.54766 5.48792 6.54766 4.86646C6.54766 4.245 6.04511 3.74121 5.4252 3.74121C4.80528 3.74121 4.30273 4.245 4.30273 4.86646C4.30273 5.48792 4.80528 5.99171 5.4252 5.99171Z" fill="white"/>
<path d="M8.4208 8.9922C9.04072 8.9922 9.54326 8.48841 9.54326 7.86695C9.54326 7.24549 9.04072 6.7417 8.4208 6.7417C7.80088 6.7417 7.29834 7.24549 7.29834 7.86695C7.29834 8.48841 7.80088 8.9922 8.4208 8.9922Z" fill="white"/>
<path d="M11.6034 11.9937C12.2233 11.9937 12.7259 11.4899 12.7259 10.8684C12.7259 10.247 12.2233 9.74316 11.6034 9.74316C10.9835 9.74316 10.481 10.247 10.481 10.8684C10.481 11.4899 10.9835 11.9937 11.6034 11.9937Z" fill="white"/>
<path d="M14.5927 14.9917C15.2126 14.9917 15.7151 14.4879 15.7151 13.8665C15.7151 13.245 15.2126 12.7412 14.5927 12.7412C13.9728 12.7412 13.4702 13.245 13.4702 13.8665C13.4702 14.4879 13.9728 14.9917 14.5927 14.9917Z" fill="white"/>
<path d="M5.4252 2.99122C6.04511 2.99122 6.54766 2.48743 6.54766 1.86597C6.54766 1.24451 6.04511 0.740723 5.4252 0.740723C4.80528 0.740723 4.30273 1.24451 4.30273 1.86597C4.30273 2.48743 4.80528 2.99122 5.4252 2.99122Z" fill="white"/>
<path d="M8.4208 5.99171C9.04072 5.99171 9.54326 5.48792 9.54326 4.86646C9.54326 4.245 9.04072 3.74121 8.4208 3.74121C7.80088 3.74121 7.29834 4.245 7.29834 4.86646C7.29834 5.48792 7.80088 5.99171 8.4208 5.99171Z" fill="white"/>
<path d="M11.413 8.9922C12.0329 8.9922 12.5355 8.48841 12.5355 7.86695C12.5355 7.24549 12.0329 6.7417 11.413 6.7417C10.7931 6.7417 10.2905 7.24549 10.2905 7.86695C10.2905 8.48841 10.7931 8.9922 11.413 8.9922Z" fill="white"/>
<path d="M14.5927 11.9937C15.2126 11.9937 15.7151 11.4899 15.7151 10.8684C15.7151 10.247 15.2126 9.74316 14.5927 9.74316C13.9728 9.74316 13.4702 10.247 13.4702 10.8684C13.4702 11.4899 13.9728 11.9937 14.5927 11.9937Z" fill="white"/>
<path d="M17.5893 14.9917C18.2092 14.9917 18.7117 14.4879 18.7117 13.8665C18.7117 13.245 18.2092 12.7412 17.5893 12.7412C16.9693 12.7412 16.4668 13.245 16.4668 13.8665C16.4668 14.4879 16.9693 14.9917 17.5893 14.9917Z" fill="white"/>
<path d="M8.60635 2.99122C9.22627 2.99122 9.72881 2.48743 9.72881 1.86597C9.72881 1.24451 9.22627 0.740723 8.60635 0.740723C7.98643 0.740723 7.48389 1.24451 7.48389 1.86597C7.48389 2.48743 7.98643 2.99122 8.60635 2.99122Z" fill="white"/>
<path d="M11.6034 5.99171C12.2233 5.99171 12.7259 5.48792 12.7259 4.86646C12.7259 4.245 12.2233 3.74121 11.6034 3.74121C10.9835 3.74121 10.481 4.245 10.481 4.86646C10.481 5.48792 10.9835 5.99171 11.6034 5.99171Z" fill="white"/>
<path d="M14.5927 8.9922C15.2126 8.9922 15.7151 8.48841 15.7151 7.86695C15.7151 7.24549 15.2126 6.7417 14.5927 6.7417C13.9728 6.7417 13.4702 7.24549 13.4702 7.86695C13.4702 8.48841 13.9728 8.9922 14.5927 8.9922Z" fill="white"/>
<path d="M17.7738 11.9937C18.3937 11.9937 18.8963 11.4899 18.8963 10.8684C18.8963 10.247 18.3937 9.74316 17.7738 9.74316C17.1539 9.74316 16.6514 10.247 16.6514 10.8684C16.6514 11.4899 17.1539 11.9937 17.7738 11.9937Z" fill="white"/>
<path d="M11.6034 2.99122C12.2233 2.99122 12.7259 2.48743 12.7259 1.86597C12.7259 1.24451 12.2233 0.740723 11.6034 0.740723C10.9835 0.740723 10.481 1.24451 10.481 1.86597C10.481 2.48743 10.9835 2.99122 11.6034 2.99122Z" fill="white"/>
<path d="M14.5927 5.99171C15.2126 5.99171 15.7151 5.48792 15.7151 4.86646C15.7151 4.245 15.2126 3.74121 14.5927 3.74121C13.9728 3.74121 13.4702 4.245 13.4702 4.86646C13.4702 5.48792 13.9728 5.99171 14.5927 5.99171Z" fill="white"/>
<path d="M17.5893 8.9922C18.2092 8.9922 18.7117 8.48841 18.7117 7.86695C18.7117 7.24549 18.2092 6.7417 17.5893 6.7417C16.9693 6.7417 16.4668 7.24549 16.4668 7.86695C16.4668 8.48841 16.9693 8.9922 17.5893 8.9922Z" fill="white"/>
<path d="M20.7689 11.9937C21.3889 11.9937 21.8914 11.4899 21.8914 10.8684C21.8914 10.247 21.3889 9.74316 20.7689 9.74316C20.149 9.74316 19.6465 10.247 19.6465 10.8684C19.6465 11.4899 20.149 11.9937 20.7689 11.9937Z" fill="white"/>
<path d="M14.5927 2.99122C15.2126 2.99122 15.7151 2.48743 15.7151 1.86597C15.7151 1.24451 15.2126 0.740723 14.5927 0.740723C13.9728 0.740723 13.4702 1.24451 13.4702 1.86597C13.4702 2.48743 13.9728 2.99122 14.5927 2.99122Z" fill="white"/>
<path d="M17.5893 5.99171C18.2092 5.99171 18.7117 5.48792 18.7117 4.86646C18.7117 4.245 18.2092 3.74121 17.5893 3.74121C16.9693 3.74121 16.4668 4.245 16.4668 4.86646C16.4668 5.48792 16.9693 5.99171 17.5893 5.99171Z" fill="white"/>
<path d="M20.5805 8.9922C21.2004 8.9922 21.7029 8.48841 21.7029 7.86695C21.7029 7.24549 21.2004 6.7417 20.5805 6.7417C19.9606 6.7417 19.458 7.24549 19.458 7.86695C19.458 8.48841 19.9606 8.9922 20.5805 8.9922Z" fill="white"/>
<path d="M0 32.9995H14.9662C18.1777 29.7983 25.1432 22.812 27.3133 20.4769C30.0259 17.5581 28.5293 14.3569 28.1551 13.8861C27.8558 13.5095 22.917 8.45646 20.485 5.97705C21.9068 9.51729 21.0774 11.7833 20.485 12.4737L0 32.9995Z" fill="url(#paint0_linear_76_4174)"/>
<path d="M220.41 14.1719V24.25H219.473V12.5469H220.348L220.41 14.1719ZM226.285 16.6953V16.8594C226.285 17.4896 226.212 18.0677 226.066 18.5938C225.921 19.1198 225.71 19.5755 225.434 19.9609C225.163 20.3411 224.827 20.6354 224.426 20.8438C224.025 21.0521 223.569 21.1562 223.059 21.1562C222.553 21.1562 222.103 21.0781 221.707 20.9219C221.311 20.7656 220.97 20.5443 220.684 20.2578C220.402 19.9661 220.176 19.6276 220.004 19.2422C219.837 18.8516 219.72 18.4245 219.652 17.9609V15.7969C219.73 15.2865 219.858 14.8229 220.035 14.4062C220.212 13.9896 220.439 13.6302 220.715 13.3281C220.996 13.026 221.329 12.7943 221.715 12.6328C222.1 12.4714 222.54 12.3906 223.035 12.3906C223.551 12.3906 224.009 12.4922 224.41 12.6953C224.816 12.8932 225.158 13.1823 225.434 13.5625C225.715 13.9375 225.926 14.3906 226.066 14.9219C226.212 15.4479 226.285 16.0391 226.285 16.6953ZM225.348 16.8594V16.6953C225.348 16.2005 225.296 15.7422 225.191 15.3203C225.092 14.8984 224.939 14.5312 224.73 14.2188C224.527 13.901 224.267 13.6536 223.949 13.4766C223.637 13.2995 223.264 13.2109 222.832 13.2109C222.384 13.2109 222.001 13.2865 221.684 13.4375C221.371 13.5833 221.111 13.7786 220.902 14.0234C220.694 14.263 220.53 14.526 220.41 14.8125C220.29 15.099 220.202 15.3802 220.145 15.6562V18.1484C220.243 18.5443 220.402 18.9115 220.621 19.25C220.84 19.5833 221.132 19.8516 221.496 20.0547C221.866 20.2526 222.316 20.3516 222.848 20.3516C223.275 20.3516 223.645 20.263 223.957 20.0859C224.27 19.9089 224.527 19.6615 224.73 19.3438C224.939 19.026 225.092 18.6562 225.191 18.2344C225.296 17.8125 225.348 17.3542 225.348 16.8594ZM230.293 13.9453V21H229.363V12.5469H230.27L230.293 13.9453ZM233.285 12.4844L233.262 13.3438C233.158 13.3281 233.056 13.3151 232.957 13.3047C232.858 13.2943 232.751 13.2891 232.637 13.2891C232.23 13.2891 231.874 13.3646 231.566 13.5156C231.264 13.6615 231.009 13.8672 230.801 14.1328C230.592 14.3932 230.434 14.7005 230.324 15.0547C230.215 15.4036 230.152 15.7786 230.137 16.1797L229.793 16.3125C229.793 15.7604 229.85 15.2474 229.965 14.7734C230.079 14.2995 230.254 13.8854 230.488 13.5312C230.728 13.1719 231.027 12.8932 231.387 12.6953C231.751 12.4922 232.178 12.3906 232.668 12.3906C232.788 12.3906 232.905 12.401 233.02 12.4219C233.139 12.4375 233.228 12.4583 233.285 12.4844ZM238.863 21.1562C238.311 21.1562 237.803 21.0547 237.34 20.8516C236.882 20.6484 236.48 20.362 236.137 19.9922C235.798 19.6224 235.535 19.1849 235.348 18.6797C235.165 18.1693 235.074 17.612 235.074 17.0078V16.6719C235.074 16.0208 235.171 15.4323 235.363 14.9062C235.556 14.3802 235.822 13.9297 236.16 13.5547C236.499 13.1797 236.884 12.8932 237.316 12.6953C237.754 12.4922 238.212 12.3906 238.691 12.3906C239.228 12.3906 239.704 12.487 240.121 12.6797C240.538 12.8672 240.887 13.1354 241.168 13.4844C241.454 13.8281 241.671 14.237 241.816 14.7109C241.962 15.1797 242.035 15.6979 242.035 16.2656V16.8359H235.637V16.0391H241.105V15.9297C241.095 15.4557 240.999 15.013 240.816 14.6016C240.639 14.1849 240.374 13.8464 240.02 13.5859C239.665 13.3255 239.223 13.1953 238.691 13.1953C238.296 13.1953 237.931 13.2786 237.598 13.4453C237.27 13.612 236.986 13.8516 236.746 14.1641C236.512 14.4714 236.329 14.8385 236.199 15.2656C236.074 15.6875 236.012 16.1562 236.012 16.6719V17.0078C236.012 17.4766 236.079 17.9141 236.215 18.3203C236.355 18.7214 236.553 19.0755 236.809 19.3828C237.069 19.6901 237.376 19.9297 237.73 20.1016C238.085 20.2734 238.475 20.3594 238.902 20.3594C239.402 20.3594 239.845 20.2682 240.23 20.0859C240.616 19.8984 240.962 19.6042 241.27 19.2031L241.855 19.6562C241.673 19.9271 241.444 20.1771 241.168 20.4062C240.897 20.6354 240.572 20.8177 240.191 20.9531C239.811 21.0885 239.368 21.1562 238.863 21.1562ZM249.941 18.8438C249.941 18.6146 249.884 18.388 249.77 18.1641C249.655 17.9401 249.434 17.7344 249.105 17.5469C248.783 17.3594 248.306 17.2005 247.676 17.0703C247.207 16.9661 246.788 16.849 246.418 16.7188C246.053 16.5885 245.746 16.4323 245.496 16.25C245.246 16.0677 245.056 15.849 244.926 15.5938C244.796 15.3385 244.73 15.0365 244.73 14.6875C244.73 14.375 244.798 14.0807 244.934 13.8047C245.074 13.5234 245.272 13.2786 245.527 13.0703C245.788 12.8568 246.1 12.6901 246.465 12.5703C246.835 12.4505 247.249 12.3906 247.707 12.3906C248.358 12.3906 248.915 12.5026 249.379 12.7266C249.848 12.9453 250.204 13.2448 250.449 13.625C250.699 14.0052 250.824 14.4349 250.824 14.9141H249.895C249.895 14.6224 249.809 14.3464 249.637 14.0859C249.47 13.8255 249.223 13.612 248.895 13.4453C248.572 13.2786 248.176 13.1953 247.707 13.1953C247.223 13.1953 246.829 13.2682 246.527 13.4141C246.225 13.5599 246.004 13.7448 245.863 13.9688C245.728 14.1927 245.66 14.4245 245.66 14.6641C245.66 14.8516 245.689 15.0234 245.746 15.1797C245.809 15.3307 245.918 15.4714 246.074 15.6016C246.236 15.7318 246.465 15.8542 246.762 15.9688C247.059 16.0833 247.444 16.1953 247.918 16.3047C248.6 16.4557 249.158 16.6406 249.59 16.8594C250.027 17.0729 250.35 17.3385 250.559 17.6562C250.767 17.9688 250.871 18.349 250.871 18.7969C250.871 19.1458 250.798 19.4661 250.652 19.7578C250.507 20.0443 250.296 20.2917 250.02 20.5C249.749 20.7083 249.421 20.8698 249.035 20.9844C248.655 21.099 248.228 21.1562 247.754 21.1562C247.04 21.1562 246.436 21.0391 245.941 20.8047C245.452 20.5651 245.079 20.2526 244.824 19.8672C244.574 19.4766 244.449 19.0625 244.449 18.625H245.379C245.41 19.0625 245.548 19.4089 245.793 19.6641C246.038 19.9141 246.337 20.0911 246.691 20.1953C247.051 20.2995 247.405 20.3516 247.754 20.3516C248.233 20.3516 248.634 20.2812 248.957 20.1406C249.28 20 249.525 19.8151 249.691 19.5859C249.858 19.3568 249.941 19.1094 249.941 18.8438ZM257.254 21.1562C256.702 21.1562 256.194 21.0547 255.73 20.8516C255.272 20.6484 254.871 20.362 254.527 19.9922C254.189 19.6224 253.926 19.1849 253.738 18.6797C253.556 18.1693 253.465 17.612 253.465 17.0078V16.6719C253.465 16.0208 253.561 15.4323 253.754 14.9062C253.947 14.3802 254.212 13.9297 254.551 13.5547C254.889 13.1797 255.275 12.8932 255.707 12.6953C256.145 12.4922 256.603 12.3906 257.082 12.3906C257.618 12.3906 258.095 12.487 258.512 12.6797C258.928 12.8672 259.277 13.1354 259.559 13.4844C259.845 13.8281 260.061 14.237 260.207 14.7109C260.353 15.1797 260.426 15.6979 260.426 16.2656V16.8359H254.027V16.0391H259.496V15.9297C259.486 15.4557 259.389 15.013 259.207 14.6016C259.03 14.1849 258.764 13.8464 258.41 13.5859C258.056 13.3255 257.613 13.1953 257.082 13.1953C256.686 13.1953 256.322 13.2786 255.988 13.4453C255.66 13.612 255.376 13.8516 255.137 14.1641C254.902 14.4714 254.72 14.8385 254.59 15.2656C254.465 15.6875 254.402 16.1562 254.402 16.6719V17.0078C254.402 17.4766 254.47 17.9141 254.605 18.3203C254.746 18.7214 254.944 19.0755 255.199 19.3828C255.46 19.6901 255.767 19.9297 256.121 20.1016C256.475 20.2734 256.866 20.3594 257.293 20.3594C257.793 20.3594 258.236 20.2682 258.621 20.0859C259.007 19.8984 259.353 19.6042 259.66 19.2031L260.246 19.6562C260.064 19.9271 259.835 20.1771 259.559 20.4062C259.288 20.6354 258.962 20.8177 258.582 20.9531C258.202 21.0885 257.759 21.1562 257.254 21.1562ZM264.199 14.3516V21H263.27V12.5469H264.16L264.199 14.3516ZM263.988 16.25L263.574 16.0156C263.605 15.5156 263.707 15.0469 263.879 14.6094C264.051 14.1719 264.283 13.7865 264.574 13.4531C264.871 13.1198 265.217 12.8594 265.613 12.6719C266.014 12.4844 266.457 12.3906 266.941 12.3906C267.363 12.3906 267.741 12.4479 268.074 12.5625C268.408 12.6771 268.691 12.8594 268.926 13.1094C269.16 13.3594 269.337 13.6797 269.457 14.0703C269.582 14.4609 269.645 14.9375 269.645 15.5V21H268.707V15.4922C268.707 14.9089 268.626 14.4531 268.465 14.125C268.303 13.7917 268.074 13.5547 267.777 13.4141C267.48 13.2734 267.129 13.2031 266.723 13.2031C266.275 13.2031 265.882 13.3021 265.543 13.5C265.21 13.6927 264.928 13.9453 264.699 14.2578C264.475 14.5651 264.303 14.8958 264.184 15.25C264.064 15.599 263.999 15.9323 263.988 16.25ZM276.262 12.5469V13.3125H272.027V12.5469H276.262ZM273.582 10.375H274.512V18.9453C274.512 19.3359 274.564 19.6302 274.668 19.8281C274.772 20.026 274.908 20.1589 275.074 20.2266C275.241 20.2943 275.421 20.3281 275.613 20.3281C275.754 20.3281 275.889 20.3203 276.02 20.3047C276.15 20.2839 276.267 20.263 276.371 20.2422L276.41 21.0312C276.296 21.0677 276.147 21.0964 275.965 21.1172C275.783 21.1432 275.6 21.1562 275.418 21.1562C275.059 21.1562 274.741 21.0911 274.465 20.9609C274.189 20.8255 273.973 20.5964 273.816 20.2734C273.66 19.9453 273.582 19.5 273.582 18.9375V10.375ZM284.285 18.8438C284.285 18.6146 284.228 18.388 284.113 18.1641C283.999 17.9401 283.777 17.7344 283.449 17.5469C283.126 17.3594 282.65 17.2005 282.02 17.0703C281.551 16.9661 281.132 16.849 280.762 16.7188C280.397 16.5885 280.09 16.4323 279.84 16.25C279.59 16.0677 279.4 15.849 279.27 15.5938C279.139 15.3385 279.074 15.0365 279.074 14.6875C279.074 14.375 279.142 14.0807 279.277 13.8047C279.418 13.5234 279.616 13.2786 279.871 13.0703C280.132 12.8568 280.444 12.6901 280.809 12.5703C281.178 12.4505 281.592 12.3906 282.051 12.3906C282.702 12.3906 283.259 12.5026 283.723 12.7266C284.191 12.9453 284.548 13.2448 284.793 13.625C285.043 14.0052 285.168 14.4349 285.168 14.9141H284.238C284.238 14.6224 284.152 14.3464 283.98 14.0859C283.814 13.8255 283.566 13.612 283.238 13.4453C282.915 13.2786 282.52 13.1953 282.051 13.1953C281.566 13.1953 281.173 13.2682 280.871 13.4141C280.569 13.5599 280.348 13.7448 280.207 13.9688C280.072 14.1927 280.004 14.4245 280.004 14.6641C280.004 14.8516 280.033 15.0234 280.09 15.1797C280.152 15.3307 280.262 15.4714 280.418 15.6016C280.579 15.7318 280.809 15.8542 281.105 15.9688C281.402 16.0833 281.788 16.1953 282.262 16.3047C282.944 16.4557 283.501 16.6406 283.934 16.8594C284.371 17.0729 284.694 17.3385 284.902 17.6562C285.111 17.9688 285.215 18.349 285.215 18.7969C285.215 19.1458 285.142 19.4661 284.996 19.7578C284.85 20.0443 284.639 20.2917 284.363 20.5C284.092 20.7083 283.764 20.8698 283.379 20.9844C282.999 21.099 282.572 21.1562 282.098 21.1562C281.384 21.1562 280.78 21.0391 280.285 20.8047C279.796 20.5651 279.423 20.2526 279.168 19.8672C278.918 19.4766 278.793 19.0625 278.793 18.625H279.723C279.754 19.0625 279.892 19.4089 280.137 19.6641C280.382 19.9141 280.681 20.0911 281.035 20.1953C281.395 20.2995 281.749 20.3516 282.098 20.3516C282.577 20.3516 282.978 20.2812 283.301 20.1406C283.624 20 283.868 19.8151 284.035 19.5859C284.202 19.3568 284.285 19.1094 284.285 18.8438Z" fill="#B0B0CC"/>
<defs>
<linearGradient id="paint0_linear_76_4174" x1="14.452" y1="5.97705" x2="14.452" y2="32.9995" gradientUnits="userSpaceOnUse">
<stop stop-color="#FFA800"/>
<stop offset="1" stop-color="#FF0344"/>
</linearGradient>
</defs>
</svg>
