<?xml version="1.0" encoding="utf-8"?>
<!-- Generator: Adobe Illustrator 24.0.1, SVG Export Plug-In . SVG Version: 6.00 Build 0)  -->
<svg version="1.1" id="Layer_1" xmlns="http://www.w3.org/2000/svg" xmlns:xlink="http://www.w3.org/1999/xlink" x="0px" y="0px"
	 viewBox="0 0 180 40" style="enable-background:new 0 0 180 40;" xml:space="preserve">
<style type="text/css">
	.st0{fill-rule:evenodd;clip-rule:evenodd;fill:#0074BC;}
	.st1{fill-rule:evenodd;clip-rule:evenodd;fill:url(#Path_16_);}
	.st2{fill-rule:evenodd;clip-rule:evenodd;fill:url(#Path_17_);}
	.st3{fill-rule:evenodd;clip-rule:evenodd;fill:url(#Path_18_);}
	.st4{fill-rule:evenodd;clip-rule:evenodd;fill:#FFFFFF;}
	.st5{fill:#FFFFFF;}
</style>
<g id="Page-1">
	<g id="_x34__x40_2x">
		<g id="Group-2-Copy">
			<path id="Path" class="st0" d="M14.3,28.7c0-4.4-2.6-8.2-6.6-9.6c-4.3-1.5-7.3-5.7-7.3-10.4V2.8c7.6,0,13.9,6.4,13.9,14.1V28.7z"
				/>
			<path id="Path_1_" class="st0" d="M28.3,10.2h8.4v-0.2l-8.6-1.2L28.3,10.2z"/>
			
				<linearGradient id="Path_16_" gradientUnits="userSpaceOnUse" x1="-287.2667" y1="408.1212" x2="-287.4603" y2="407.3479" gradientTransform="matrix(14.5638 0 0 -29.5093 4205.4902 12054.21)">
				<stop  offset="0" style="stop-color:#FFDD00"/>
				<stop  offset="1" style="stop-color:#EF4056"/>
			</linearGradient>
			<path id="Path_2_" class="st1" d="M28.3,10.1c-4.8-1-9.6,0.7-12.9,4.2l-1.2,1.2v8.1v6.9l0,0v8.9c2.6,0,4.3-2.7,3.1-5l-1.2-2.2
				c-0.8-1.7-0.5-3.9,1.2-5c3.6-3,6.3-6.7,7-10.4c0.8-5.2,4.5-6.5,4.5-6.5H28.3z"/>
			
				<linearGradient id="Path_17_" gradientUnits="userSpaceOnUse" x1="-286.2462" y1="400.784" x2="-288.381" y2="400.784" gradientTransform="matrix(14.2328 0 0 -19.223 4103.2124 7719.4961)">
				<stop  offset="0" style="stop-color:#5BC4BF"/>
				<stop  offset="1" style="stop-color:#2A5CAA"/>
			</linearGradient>
			<path id="Path_3_" class="st2" d="M14.3,24.8V13.3c0-2.9,1.3-5,3.3-6.4c3-1.8,6.8-1.7,9.4,0.7c0.8,0.7,1.5,1.7,1.5,2.7
				C20.7,10.2,14.3,16.8,14.3,24.8z"/>
			
				<linearGradient id="Path_18_" gradientUnits="userSpaceOnUse" x1="-286.7756" y1="404.0265" x2="-285.1298" y2="404.0265" gradientTransform="matrix(13.9019 0 0 -23.0067 3987.0327 9307.3057)">
				<stop  offset="0" style="stop-color:#5BC4BF"/>
				<stop  offset="1" style="stop-color:#2A5CAA"/>
			</linearGradient>
			<path id="Path_4_" class="st3" d="M14.3,23.5c0-4.4-2.6-8.2-6.6-9.6C3.3,12.4,0.4,8.2,0.4,3.5v-3c7.6,0,13.9,6.4,13.9,14.1V23.5z
				"/>
			<polygon id="Path_5_" class="st0" points="14.3,29 11.9,39.5 14.3,39.5 			"/>
			<path id="Path_6_" class="st4" d="M114.8,37.9V21.3c0-0.9,0.7-1.7,1.7-1.7c0.8,0,1.7,0.7,1.7,1.7v16.4c0,0.9-0.7,1.7-1.7,1.7
				C115.7,39.5,114.8,38.8,114.8,37.9z"/>
			<path id="Path_7_" class="st4" d="M29.6,38.3V22.9h-2.7c-0.8,0-1.5-0.7-1.5-1.6s0.7-1.6,1.5-1.6h8.5c0.8,0,1.5,0.7,1.5,1.6
				s-0.7,1.6-1.5,1.6h-2.7v15.4c0,0.9-0.7,1.6-1.5,1.6h-0.2C30.3,39.8,29.6,39.2,29.6,38.3z"/>
			<path id="Path_8_" class="st4" d="M56.6,39.8V19.8h8c0.8,0,1.5,0.7,1.5,1.6s-0.7,1.6-1.5,1.6h-4.7v5h4.2c0.8,0,1.5,0.7,1.5,1.6
				S65,31,64.1,31h-4.2v5.5h5c0.8,0,1.5,0.7,1.5,1.6v0.2c0,0.9-0.7,1.6-1.5,1.6H56.6z"/>
			<path id="Path_9_" class="st4" d="M89.4,39.8V19.8h8c0.8,0,1.5,0.7,1.5,1.6s-0.7,1.6-1.5,1.6h-4.7v5h4.2c0.8,0,1.5,0.7,1.5,1.6
				S97.8,31,96.9,31h-4.2v5.5h5c0.8,0,1.5,0.7,1.5,1.6v0.2c0,0.9-0.7,1.6-1.5,1.6H89.4z"/>
			<path id="Path_10_" class="st4" d="M102.3,37.8V19.6h8c0.8,0,1.5,0.7,1.5,1.6c0,0.9-0.7,1.6-1.5,1.6h-4.7v5.2h3.9
				c0.8,0,1.5,0.7,1.5,1.6s-0.7,1.6-1.5,1.6h-3.9v6.9c0,1-0.7,1.7-1.7,1.7C103.1,39.5,102.3,38.8,102.3,37.8z"/>
			<path id="Path_11_" class="st4" d="M127.7,39.8c-2,0-3.9-0.7-5-1.9c-0.3-0.3-0.5-0.7-0.7-1c-0.7-1,0.2-2.4,1.3-2.4h0.2
				c0.5,0,1,0.3,1.3,0.7c0.2,0.2,0.2,0.3,0.3,0.5c0.7,0.7,1.5,1,2.5,1c2,0,3.2-1.2,3.2-2.9c0-2.6-2.7-2.8-3.7-2.9
				c-1.7-0.2-5.7-0.9-5.7-5.7c0-3.6,2.3-5.9,6-5.9c1.8,0,3.5,0.5,4.5,1.7c0.3,0.3,0.5,0.7,0.8,1c0.5,1-0.2,2.4-1.3,2.4
				c-0.5,0-1-0.3-1.3-0.9c-0.2-0.2-0.2-0.3-0.3-0.5c-0.5-0.5-1.3-0.9-2.2-0.9c-1.8,0-3,1.2-3,2.9c0,0.9,0.3,2.4,3.2,2.8
				c4,0.3,6.4,1.6,6.4,5.9C134.3,37.6,131.8,39.8,127.7,39.8z"/>
			<path id="Path_12_" class="st4" d="M147.5,37.8v-6.6H141v6.6c0,1-0.7,1.7-1.7,1.7s-1.7-0.7-1.7-1.7V21.3c0-1,0.7-1.7,1.7-1.7
				s1.7,0.7,1.7,1.7v6.6h6.5v-6.6c0-1,0.7-1.7,1.7-1.7c1,0,1.7,0.7,1.7,1.7v16.4c0,1-0.7,1.7-1.7,1.7
				C148.3,39.5,147.5,38.8,147.5,37.8z"/>
			<path id="Path_13_" class="st4" d="M49.5,37.8v-6.6H43v6.6c0,1-0.7,1.7-1.7,1.7c-1,0-1.7-0.7-1.7-1.7V21.3c0-1,0.7-1.7,1.7-1.7
				c1,0,1.7,0.7,1.7,1.7v6.6h6.5v-6.6c0-1,0.7-1.7,1.7-1.7c1,0,1.7,0.7,1.7,1.7v16.4c0,1-0.7,1.7-1.7,1.7
				C50.2,39.5,49.5,38.8,49.5,37.8z"/>
			<path id="Path_14_" class="st4" d="M154.7,39.5V19.6h8c0.8,0,1.5,0.7,1.5,1.6c0,0.9-0.7,1.6-1.5,1.6H158v5h4.2
				c0.8,0,1.5,0.7,1.5,1.6s-0.7,1.6-1.5,1.6H158v5.5h4.9c0.8,0,1.5,0.7,1.5,1.6v0.2c0,0.9-0.7,1.6-1.5,1.6h-8.2V39.5z"/>
			<path id="Shape" class="st5" d="M176.5,38.5l-2.3-5.7h-3.5v5c0,0.9-0.7,1.7-1.7,1.7c-0.8,0-1.7-0.7-1.7-1.7v-18h6.5
				c3.7,0,6.2,2.6,6.2,6.7c0,2.4-0.7,4-2.2,5l-0.7,0.5l2.3,5c0.5,1.2-0.3,2.4-1.5,2.4C177.3,39.5,176.6,39.2,176.5,38.5z M170.4,30
				h3.2c1.8,0,3-1.6,3-3.6s-1.2-3.6-3-3.6h-3.2V30z"/>
			<path id="Path_15_" class="st4" d="M82.2,38.1V27.9l-3.9,7.8c-0.3,0.7-1.3,0.7-1.7,0l-3.9-7.8v10.2c0,1-0.8,1.7-1.7,1.7
				c-1,0-1.7-0.9-1.7-1.7V21.5c0-1.7,2-2.4,3-1l4.7,10c0.2,0.2,0.5,0.2,0.5,0l4.7-10c1-1.2,3-0.5,3,1v16.6c0,1-0.8,1.7-1.7,1.7
				S82.2,39.2,82.2,38.1z"/>
		</g>
	</g>
</g>
</svg>
