<svg width="2484" height="409" viewBox="0 0 2484 409" fill="none" xmlns="http://www.w3.org/2000/svg">
<path d="M123.024 280.854L160.002 202.642L123.024 124.425C123.024 124.425 220.017 116.575 225.617 202.639C220.017 288.704 123.024 280.854 123.024 280.854ZM334.67 202.639C334.693 190.646 333.294 178.693 330.503 167.024C331.678 171.912 332.824 176.6 330.455 166.81C328.092 157.059 329.208 161.682 330.386 166.558C318.042 115.966 283.299 74.3737 233.445 49.3649C195.789 30.4687 158.569 27.051 116.922 26.0273H14.8743L51.8453 202.642L14.8743 379.255H116.922C158.569 378.232 195.792 374.815 233.448 355.917C283.299 330.911 318.038 289.319 330.386 238.724C329.208 243.6 328.092 248.219 330.451 238.472C332.824 228.679 331.681 233.37 330.503 238.258C333.293 226.589 334.69 214.635 334.667 202.642" fill="#1A63E8"/>
<path d="M521.77 345.846V122.142H605.326L615.868 67.8751H374.571L364.419 122.142H457.346V345.846H521.77ZM701.767 345.846V223.258C701.767 216.231 702.288 210.311 703.329 205.496C704.37 200.677 706.256 196.84 708.989 193.977C711.722 191.114 715.433 189.032 720.118 187.731C724.804 186.429 730.66 185.779 737.689 185.779C744.717 185.779 750.38 186.366 754.671 187.534C758.966 188.709 762.287 190.594 764.63 193.196C766.972 195.799 768.534 199.053 769.315 202.957C770.096 206.861 770.486 211.546 770.486 217.011V345.846H832.568V204.128C832.568 179.923 825.603 162.421 811.681 151.616C797.751 140.815 778.556 135.416 754.087 135.416C740.292 135.416 729.359 136.78 721.29 139.513C713.22 142.246 706.713 145.567 701.767 149.471V55.7725H639.686V345.846H701.767ZM932.132 345.846V224.039C932.132 218.313 932.456 213.301 933.11 209.006C933.761 204.712 935.256 201.265 937.599 198.662C939.941 196.059 943.258 194.107 947.557 192.806C951.852 191.505 957.511 190.854 964.54 190.854C970.526 190.854 976.643 190.917 982.891 191.047C989.138 191.177 993.433 191.375 995.775 191.635L1005.15 141.272C995.775 140.752 987.509 140.491 980.351 140.491H958.292C943.715 140.491 930.898 141.726 919.835 144.198C908.772 146.671 899.532 150.902 892.113 156.888C884.695 162.875 879.161 170.813 875.517 180.703C871.873 190.594 870.051 202.827 870.051 217.402V345.846H932.132ZM1054.73 115.505C1068.27 115.505 1077.51 113.163 1082.46 108.478C1087.4 103.793 1089.87 96.1147 1089.87 85.4436C1089.87 75.2929 1087.4 67.8082 1082.46 62.9932C1077.51 58.1781 1068.27 55.7725 1054.73 55.7725C1040.94 55.7725 1031.57 58.1781 1026.62 62.9932C1021.68 67.8082 1019.2 75.2929 1019.2 85.4436C1019.2 96.1147 1021.68 103.793 1026.62 108.478C1031.57 113.163 1040.94 115.505 1054.73 115.505ZM1085.58 345.846V141.662H1023.5V345.846H1085.58ZM1251.13 345.846L1321.8 141.662H1257.77L1215.99 283.381L1175.38 141.662H1107.44L1178.9 345.846H1251.13ZM1472.12 346.627C1483.32 346.627 1495.42 346.367 1508.44 345.846L1517.42 297.436C1502.06 297.696 1488.2 297.826 1475.83 297.826H1441.28C1433.73 297.826 1427.48 297.372 1422.54 296.462C1417.59 295.551 1413.62 293.792 1410.63 291.189C1407.63 288.586 1405.55 285.203 1404.38 281.038C1403.21 276.874 1402.49 271.408 1402.23 264.641H1494.38C1500.89 264.641 1506.35 263.991 1510.78 262.689C1515.2 261.388 1518.78 259.045 1521.52 255.662C1524.25 252.278 1526.14 247.854 1527.18 242.388C1528.22 236.922 1528.74 229.895 1528.74 221.306V213.107C1528.74 188.642 1521.71 169.579 1507.65 155.911C1493.6 142.246 1470.17 135.416 1437.37 135.416C1419.15 135.416 1403.86 137.431 1391.5 141.465C1379.13 145.5 1369.11 151.553 1361.43 159.621C1353.75 167.69 1348.29 177.773 1345.03 189.876C1341.78 201.979 1340.15 216.231 1340.15 232.628V254.1C1340.15 269.717 1341.65 283.314 1344.64 294.9C1347.64 306.478 1352.78 316.108 1360.06 323.79C1367.35 331.464 1377.11 337.19 1389.35 340.968C1401.58 344.738 1416.94 346.627 1435.42 346.627H1472.12ZM1469.78 221.696H1402.23C1402.23 213.368 1402.69 206.601 1403.6 201.395C1404.51 196.19 1406.2 192.088 1408.67 189.095C1411.15 186.102 1414.53 184.02 1418.83 182.849C1423.12 181.678 1428.78 181.094 1435.81 181.094C1442.84 181.094 1448.5 181.678 1452.79 182.849C1457.09 184.02 1460.54 186.102 1463.14 189.095C1465.75 192.088 1467.5 196.19 1468.42 201.395C1469.33 206.601 1469.78 213.368 1469.78 221.696ZM1681.01 345.846C1704.7 345.846 1724.35 343.244 1739.97 338.038C1755.59 332.833 1768.08 325.025 1777.45 314.614C1786.83 304.203 1793.4 291.386 1797.17 276.16C1800.95 260.934 1802.83 243.299 1802.83 223.258V190.073C1802.83 169.512 1800.95 151.62 1797.17 136.394C1793.4 121.168 1786.83 108.478 1777.45 98.327C1768.08 88.1764 1755.46 80.5653 1739.58 75.49C1723.7 70.4147 1703.79 67.8751 1679.84 67.8751H1565.05V345.846H1681.01ZM1674.77 291.97H1628.3V121.752H1674.77C1686.22 121.752 1695.85 122.729 1703.66 124.678C1711.47 126.63 1717.78 130.144 1722.6 135.219C1727.41 140.298 1730.86 147.258 1732.94 156.108C1735.03 164.957 1736.07 176.409 1736.07 190.464V222.868C1736.07 236.922 1735.03 248.441 1732.94 257.421C1730.86 266.396 1727.41 273.424 1722.59 278.503C1717.78 283.574 1711.47 287.092 1703.66 289.04C1695.85 290.996 1686.22 291.97 1674.77 291.97ZM1966.43 346.627C1977.62 346.627 1989.73 346.367 2002.74 345.846L2011.72 297.436C1996.37 297.696 1982.51 297.826 1970.14 297.826H1935.59C1928.04 297.826 1921.79 297.372 1916.84 296.462C1911.9 295.551 1907.93 293.792 1904.94 291.189C1901.94 288.586 1899.86 285.203 1898.69 281.038C1897.52 276.874 1896.8 271.408 1896.54 264.641H1988.69C1995.19 264.641 2000.66 263.991 2005.09 262.689C2009.51 261.388 2013.09 259.045 2015.83 255.662C2018.56 252.278 2020.44 247.854 2021.49 242.388C2022.53 236.922 2023.05 229.895 2023.05 221.306V213.107C2023.05 188.642 2016.02 169.579 2001.96 155.911C1987.91 142.246 1964.48 135.416 1931.68 135.416C1913.46 135.416 1898.17 137.431 1885.81 141.465C1873.44 145.5 1863.42 151.553 1855.74 159.621C1848.06 167.69 1842.6 177.773 1839.34 189.876C1836.09 201.979 1834.46 216.231 1834.46 232.628V254.1C1834.46 269.717 1835.96 283.314 1838.95 294.9C1841.95 306.478 1847.08 316.108 1854.37 323.79C1861.66 331.464 1871.42 337.19 1883.66 340.968C1895.89 344.738 1911.25 346.627 1929.73 346.627H1966.43ZM1964.09 221.696H1896.54C1896.54 213.368 1897 206.601 1897.91 201.395C1898.82 196.19 1900.51 192.092 1902.99 189.099C1905.46 186.106 1908.84 184.024 1913.14 182.852C1917.43 181.681 1923.09 181.094 1930.12 181.094C1937.15 181.094 1942.81 181.681 1947.11 182.852C1951.4 184.024 1954.85 186.106 1957.45 189.099C1960.05 192.092 1961.81 196.19 1962.72 201.395C1963.64 206.601 1964.09 213.368 1964.09 221.696ZM2139.79 346.627C2170.51 346.627 2193.02 341.552 2207.34 331.401C2221.66 321.251 2228.81 305.374 2228.81 283.771V277.134C2228.81 269.066 2227.84 261.581 2225.89 254.688C2224 247.911 2220.52 241.686 2215.74 236.532C2210.92 231.326 2204.48 227.032 2196.41 223.648C2188.34 220.265 2178.32 218.053 2166.34 217.011L2130.42 213.888C2121.31 213.107 2115.45 211.739 2112.85 209.787C2110.25 207.835 2108.95 204.779 2108.95 200.614C2108.95 195.409 2110.77 192.155 2114.41 190.854C2118.06 189.553 2124.56 188.902 2133.93 188.902H2162.05C2168.55 188.902 2176.17 188.965 2184.89 189.095C2193.61 189.225 2203.96 189.423 2215.93 189.683L2224.91 141.662C2213.72 141.402 2203.76 141.205 2195.04 141.075C2187.3 140.953 2179.55 140.889 2171.81 140.882H2137.84C2121.7 140.882 2108.03 142.246 2096.84 144.979C2085.65 147.712 2076.61 151.683 2069.7 156.888C2062.81 162.094 2057.8 168.404 2054.67 175.821C2051.55 183.239 2049.99 191.765 2049.99 201.395V208.813C2049.99 224.689 2054.54 238.094 2063.65 249.025C2072.76 259.956 2088.12 266.203 2109.73 267.765L2147.99 270.497C2157.1 271.018 2162.96 272.383 2165.56 274.599C2168.16 276.811 2169.47 280.128 2169.47 284.552C2169.47 290.278 2167.58 294.052 2163.8 295.874C2160.03 297.696 2152.68 298.607 2141.74 298.607C2129.25 298.607 2115.19 298.54 2099.58 298.414C2083.96 298.283 2069.64 298.086 2056.63 297.826L2048.04 345.846C2056.11 346.107 2064.56 346.3 2073.42 346.434C2082.27 346.568 2090.92 346.627 2099.38 346.627H2139.79ZM2322.91 345.846V256.443L2395.93 345.846H2471.28L2376.79 233.409L2463.47 141.662H2390.07L2322.91 215.84V55.7725H2260.83V345.846H2322.91Z" fill="white"/>
</svg>
