<svg width="285" height="65" viewBox="0 0 285 65" fill="none" xmlns="http://www.w3.org/2000/svg">
<path fill-rule="evenodd" clip-rule="evenodd" d="M277.68 51.5569C276.556 51.5569 275.557 51.2864 274.68 50.7449C273.802 50.2038 273.095 49.4828 272.557 48.5799C272.016 47.6778 271.747 46.6853 271.747 45.6029C271.747 44.5208 272.016 43.5283 272.557 42.6259C273.095 41.7238 273.802 41.0023 274.68 40.4608C275.557 39.9197 276.556 39.6489 277.68 39.6489C278.804 39.6489 279.805 39.9197 280.683 40.4608C281.558 41.0023 282.267 41.7238 282.805 42.6259C283.346 43.5283 283.616 44.5208 283.616 45.6029C283.616 46.6853 283.346 47.6778 282.805 48.5799C282.267 49.4828 281.558 50.2038 280.683 50.7449C279.805 51.2864 278.804 51.5569 277.68 51.5569Z" fill="white"/>
<path fill-rule="evenodd" clip-rule="evenodd" d="M1.57534 25.3388C1.47648 25.3388 1.37491 25.3361 1.27566 25.3319C0.81642 25.3121 0.445911 24.9499 0.419834 24.4896L0.00145517 17.0011C-0.0277341 16.4822 0.385975 16.0499 0.903208 16.0581C3.8124 16.1061 12.7245 15.8918 18.8674 11.7842C26.2507 6.84849 32.5654 4.0919 34.7978 3.18643C35.2633 2.99706 35.789 3.23406 35.9625 3.70728L38.4232 10.4141C38.5881 10.8639 38.372 11.3641 37.9308 11.5468C35.9152 12.3801 30.2921 14.8739 23.8015 19.2126C15.3009 24.8964 4.67252 25.3388 1.57534 25.3388Z" fill="white"/>
<path fill-rule="evenodd" clip-rule="evenodd" d="M24.0223 61.9617L22.1737 55.0587C22.0504 54.5972 22.3096 54.1189 22.7645 53.9763C25.101 53.2439 32.0649 50.8382 38.4873 46.3913C48.7141 39.3108 56.8262 39.6257 59.6152 40.022C60.1325 40.0948 60.4706 40.604 60.3481 41.1133L58.4857 48.8759L58.5645 48.8938C58.3103 48.8418 52.2514 47.7088 43.5405 53.7385C35.8758 59.0452 27.7829 61.7784 25.1369 62.5855C24.6558 62.7323 24.1527 62.4492 24.0223 61.9617Z" fill="white"/>
<path fill-rule="evenodd" clip-rule="evenodd" d="M1.95771 39.9086C1.45955 39.9627 1.01899 39.5928 0.9789 39.0919L0.341797 31.0989L0.696348 35.5474L0.407569 31.9683C0.36904 31.4889 0.712306 31.0651 1.18906 31.0101C4.63766 30.6143 17.7837 28.7461 26.5067 22.5144C38.7725 13.7534 56.2443 12.404 60.8326 12.1841C61.4051 12.1568 61.8505 12.6722 61.7471 13.2372L60.5254 19.9022C60.4522 20.3009 60.1237 20.6 59.7202 20.6304C56.4494 20.8756 42.0767 22.3512 31.6677 29.7866C20.9751 37.4247 5.83248 39.4917 1.95771 39.9086Z" fill="white"/>
<path fill-rule="evenodd" clip-rule="evenodd" d="M3.03751 53.9925C2.54675 54.0734 2.08749 53.7359 2.01472 53.2423L0.841309 45.304L1.49398 49.7193L0.968964 46.1753C0.897741 45.6945 1.21999 45.2455 1.69753 45.1646C5.81321 44.4664 23.6813 41.125 32.6733 34.3935C45.0298 25.1442 56.9001 26.1163 60.2827 26.6399C60.7936 26.719 61.126 27.2175 61.01 27.7227L59.2194 35.511C59.2194 35.511 56.6032 34.9668 52.6891 35.4474C47.4945 36.0846 42.5507 38.1377 37.9945 41.5477C27.2146 49.6176 7.5167 53.2504 3.03751 53.9925Z" fill="white"/>
<path d="M71.811 23.1734V16.0298H100.181V23.1734H90.363V48.6859H81.6289V23.1734H71.811Z" fill="white"/>
<path d="M103.644 48.6858V24.1938H112.442V48.6858H103.644ZM108.042 21.6424C106.852 21.6424 105.832 21.2491 104.982 20.4625C104.132 19.6758 103.707 18.7297 103.707 17.6242C103.707 16.5187 104.132 15.5726 104.982 14.7859C105.832 13.9993 106.852 13.606 108.042 13.606C109.243 13.606 110.263 13.9993 111.103 14.7859C111.953 15.5726 112.378 16.5187 112.378 17.6242C112.378 18.7297 111.953 19.6758 111.103 20.4625C110.263 21.2491 109.243 21.6424 108.042 21.6424Z" fill="white"/>
<path d="M125.722 34.9086V48.6855H116.924V24.1935H125.275V28.8495H125.53C126.062 27.2973 126.997 26.0803 128.336 25.198C129.685 24.3156 131.258 23.8745 133.053 23.8745C134.785 23.8745 136.289 24.273 137.564 25.0703C138.849 25.857 139.843 26.9414 140.544 28.3232C141.256 29.7052 141.607 31.2838 141.596 33.059V48.6855H132.798V34.9086C132.809 33.6969 132.501 32.7454 131.874 32.0544C131.258 31.3634 130.397 31.018 129.292 31.018C128.569 31.018 127.937 31.1774 127.395 31.4963C126.864 31.8047 126.455 32.2512 126.168 32.8358C125.881 33.4098 125.732 34.1008 125.722 34.9086Z" fill="white"/>
<path d="M150.418 57.8704C149.408 57.8704 148.447 57.7908 147.533 57.6312C146.619 57.4824 145.817 57.275 145.127 57.0094L147.039 50.7587C147.762 51.014 148.42 51.1787 149.015 51.2531C149.621 51.3275 150.136 51.285 150.561 51.1256C150.997 50.966 151.31 50.6632 151.502 50.2167L151.693 49.7702L143.086 24.1938H152.267L156.219 41.1597H156.474L160.491 24.1938H169.735L160.81 50.7269C160.363 52.0768 159.715 53.2887 158.865 54.3624C158.026 55.4467 156.921 56.3025 155.55 56.9296C154.179 57.5568 152.469 57.8704 150.418 57.8704Z" fill="white"/>
<path d="M186.9 24.1939V30.572H170.516V24.1939H186.9ZM173.64 48.6859V23.4921C173.64 21.4725 174.001 19.7982 174.724 18.4694C175.446 17.1406 176.466 16.1467 177.784 15.4876C179.101 14.8286 180.653 14.499 182.438 14.499C183.553 14.499 184.637 14.5841 185.689 14.7542C186.752 14.9242 187.538 15.0731 188.048 15.2006L186.773 21.515C186.454 21.4193 186.082 21.3449 185.657 21.2917C185.232 21.228 184.86 21.1961 184.542 21.1961C183.713 21.1961 183.155 21.3715 182.868 21.7223C182.581 22.0731 182.438 22.5355 182.438 23.1095V48.6859H173.64Z" fill="white"/>
<path d="M199.093 16.0298V48.6859H190.295V16.0298H199.093Z" fill="white"/>
<path d="M215.37 49.1319C212.714 49.1319 210.44 48.6057 208.548 47.5533C206.657 46.4903 205.207 45.0127 204.197 43.1206C203.188 41.2176 202.683 39.0119 202.683 36.5031C202.683 33.9946 203.188 31.794 204.197 29.9018C205.207 27.9991 206.657 26.5214 208.548 25.469C210.44 24.4059 212.714 23.8745 215.37 23.8745C218.026 23.8745 220.3 24.4059 222.191 25.469C224.083 26.5214 225.534 27.9991 226.543 29.9018C227.551 31.794 228.056 33.9946 228.056 36.5031C228.056 39.0119 227.551 41.2176 226.543 43.1206C225.534 45.0127 224.083 46.4903 222.191 47.5533C220.3 48.6057 218.026 49.1319 215.37 49.1319ZM215.434 42.6263C216.178 42.6263 216.82 42.3764 217.362 41.8768C217.904 41.3772 218.324 40.6649 218.621 39.7401C218.919 38.8153 219.068 37.715 219.068 36.4395C219.068 35.1531 218.919 34.0528 218.621 33.1388C218.324 32.214 217.904 31.5017 217.362 31.0021C216.82 30.5025 216.178 30.2526 215.434 30.2526C214.647 30.2526 213.973 30.5025 213.41 31.0021C212.846 31.5017 212.416 32.214 212.119 33.1388C211.821 34.0528 211.672 35.1531 211.672 36.4395C211.672 37.715 211.821 38.8153 212.119 39.7401C212.416 40.6649 212.846 41.3772 213.41 41.8768C213.973 42.3764 214.647 42.6263 215.434 42.6263Z" fill="white"/>
<path d="M235.524 48.6858L229.402 24.1938H238.201L241.007 39.1187H241.197L244.321 24.1938H252.864L256.116 38.991H256.307L258.984 24.1938H267.783L261.661 48.6858H252.164L248.72 35.5469H248.466L245.023 48.6858H235.524Z" fill="white"/>
</svg>
