<svg xmlns="http://www.w3.org/2000/svg" viewBox="0 0 2627.44 570.39">
  <defs>
    <style>
      .cls-1 {
        fill: #fff;
      }

      .cls-2 {
        fill: #f0482e;
      }
    </style>
  </defs>
  <title>Asset 1</title>
  <g id="Layer_2" data-name="Layer 2">
    <g id="Regular">
      <g>
        <path class="cls-1" d="M1435.57,535V509.08l-19.31-35.17h9l8.61,16.86c2.35,4.62,4.17,8.34,6.07,12.6h.18c1.72-4,3.81-8,6.16-12.6l8.79-16.86h9L1443.54,509v26Z"/>
        <path class="cls-1" d="M1523.4,503.82c0,21-12.78,32.18-28.37,32.18-16.14,0-27.47-12.51-27.47-31,0-19.4,12.06-32.09,28.37-32.09C1512.61,472.91,1523.4,485.69,1523.4,503.82Zm-47.41,1c0,13.05,7.07,24.74,19.49,24.74s19.58-11.51,19.58-25.38c0-12.14-6.35-24.83-19.49-24.83S1476,491.4,1476,504.82Z"/>
        <path class="cls-1" d="M1545,473.91v36.16c0,13.69,6.07,19.49,14.23,19.49,9.06,0,14.86-6,14.86-19.49V473.91h8v35.62c0,18.76-9.88,26.47-23.12,26.47-12.5,0-21.93-7.16-21.93-26.11v-36Z"/>
        <path class="cls-1" d="M1599.17,474.72a82.71,82.71,0,0,1,15.13-1.26c8.43,0,13.87,1.54,17.68,5a15.22,15.22,0,0,1,4.8,11.6c0,8.07-5.07,13.42-11.51,15.59v.27c4.71,1.64,7.52,6,9,12.33,2,8.52,3.45,14.41,4.72,16.77h-8.16c-1-1.72-2.36-7-4.08-14.59-1.81-8.43-5.08-11.61-12.24-11.88h-7.43V535h-7.88Zm7.88,27.83h8.07c8.43,0,13.78-4.62,13.78-11.6,0-7.89-5.71-11.33-14.05-11.42a32.7,32.7,0,0,0-7.8.72Z"/>
        <path class="cls-1" d="M1680.74,535l-15.5-61.09h8.34l7.25,30.91c1.81,7.61,3.44,15.22,4.53,21.11h.18c1-6.07,2.9-13.32,5-21.2l8.16-30.82h8.24l7.44,31c1.72,7.25,3.35,14.5,4.26,20.93h.18c1.27-6.7,3-13.5,4.89-21.11l8.07-30.82h8.06L1722.52,535h-8.24l-7.71-31.81a185.92,185.92,0,0,1-4-19.95h-.18a192.84,192.84,0,0,1-4.71,19.95L1689,535Z"/>
        <path class="cls-1" d="M1782.53,506.36h-23.75v22h26.47V535h-34.36V473.91h33v6.62h-25.11v19.3h23.75Z"/>
        <path class="cls-1" d="M1798.93,474.72a76.88,76.88,0,0,1,14.41-1.26c7.89,0,13,1.36,16.77,4.44a12.8,12.8,0,0,1,5.07,10.78c0,5.89-3.89,11.06-10.33,13.42v.18c5.8,1.45,12.6,6.25,12.6,15.32a16.43,16.43,0,0,1-5.17,12.23c-4.26,3.9-11.14,5.71-21.11,5.71a92.9,92.9,0,0,1-12.24-.72Zm7.88,25H1814c8.33,0,13.23-4.35,13.23-10.24,0-7.16-5.44-10-13.42-10a34.12,34.12,0,0,0-7,.54Zm0,29.28a42.55,42.55,0,0,0,6.62.36c8.16,0,15.68-3,15.68-11.87,0-8.34-7.16-11.79-15.77-11.79h-6.53Z"/>
        <path class="cls-1" d="M1882,473.91v25.56h29.55V473.91h8V535h-8V506.36H1882V535h-7.88V473.91Z"/>
        <path class="cls-1" d="M1988.9,503.82c0,21-12.78,32.18-28.37,32.18-16.13,0-27.46-12.51-27.46-31,0-19.4,12.06-32.09,28.37-32.09C1978.12,472.91,1988.9,485.69,1988.9,503.82Zm-47.4,1c0,13.05,7.07,24.74,19.49,24.74s19.58-11.51,19.58-25.38c0-12.14-6.35-24.83-19.49-24.83S1941.5,491.4,1941.5,504.82Z"/>
        <path class="cls-1" d="M2001.5,525.39a27.91,27.91,0,0,0,14.14,4c8.07,0,12.78-4.26,12.78-10.42,0-5.71-3.26-9-11.51-12.15-10-3.53-16.13-8.7-16.13-17.31,0-9.52,7.88-16.59,19.76-16.59,6.25,0,10.78,1.45,13.5,3l-2.17,6.44a24.36,24.36,0,0,0-11.61-2.9c-8.33,0-11.51,5-11.51,9.15,0,5.71,3.72,8.52,12.15,11.79,10.33,4,15.59,9,15.59,17.94,0,9.43-7,17.58-21.39,17.58-5.89,0-12.33-1.72-15.59-3.89Z"/>
        <path class="cls-1" d="M2062.32,480.62h-18.58v-6.71H2089v6.71H2070.3V535h-8Z"/>
        <path class="cls-1" d="M2107.09,473.91V535h-7.88V473.91Z"/>
        <path class="cls-1" d="M2124.32,535V473.91h8.61l19.57,30.91a171.16,171.16,0,0,1,11,19.85l.18-.09c-.72-8.16-.9-15.59-.9-25.11V473.91h7.43V535h-8l-19.39-31a194.43,194.43,0,0,1-11.42-20.39l-.28.09c.46,7.7.64,15,.64,25.2V535Z"/>
        <path class="cls-1" d="M2233.9,532.28a57,57,0,0,1-18.77,3.35c-9.24,0-16.85-2.35-22.84-8.06-5.25-5.08-8.52-13.24-8.52-22.75.09-18.22,12.6-31.55,33.09-31.55,7.07,0,12.6,1.55,15.22,2.81l-1.9,6.44a31.66,31.66,0,0,0-13.51-2.63c-14.86,0-24.56,9.25-24.56,24.56,0,15.5,9.34,24.66,23.57,24.66,5.16,0,8.7-.73,10.51-1.63V509.26h-12.42v-6.35h20.13Z"/>
        <path class="cls-1" d="M2272.05,474.63a92.15,92.15,0,0,1,15.14-1.17c7.79,0,13.5,1.81,17.13,5.07,3.35,2.9,5.35,7.34,5.35,12.78s-1.63,9.88-4.71,13.05c-4.17,4.44-11,6.71-18.68,6.71a27.31,27.31,0,0,1-6.34-.54V535h-7.89Zm7.89,29.46a26.55,26.55,0,0,0,6.52.64c9.52,0,15.32-4.63,15.32-13.06,0-8.06-5.71-12-14.41-12a33.32,33.32,0,0,0-7.43.63Z"/>
        <path class="cls-1" d="M2326,515.78,2319.64,535h-8.16l20.76-61.09h9.51L2362.6,535h-8.43l-6.52-19.22Zm20-6.16L2340,492c-1.36-4-2.26-7.62-3.17-11.15h-.18c-.91,3.62-1.91,7.34-3.08,11.06l-6,17.67Z"/>
        <path class="cls-1" d="M2375,474.72a82.63,82.63,0,0,1,15.13-1.26c8.43,0,13.87,1.54,17.68,5a15.22,15.22,0,0,1,4.8,11.6c0,8.07-5.07,13.42-11.51,15.59v.27c4.71,1.64,7.52,6,9,12.33,2,8.52,3.45,14.41,4.72,16.77h-8.16c-1-1.72-2.36-7-4.08-14.59-1.81-8.43-5.07-11.61-12.24-11.88h-7.43V535H2375Zm7.88,27.83H2391c8.43,0,13.78-4.62,13.78-11.6,0-7.89-5.71-11.33-14.05-11.42a32.7,32.7,0,0,0-7.8.72Z"/>
        <path class="cls-1" d="M2439.64,480.62h-18.58v-6.71h45.23v6.71h-18.67V535h-8Z"/>
        <path class="cls-1" d="M2476.53,535V473.91h8.61l19.58,30.91a172.67,172.67,0,0,1,11,19.85l.18-.09c-.73-8.16-.91-15.59-.91-25.11V473.91h7.43V535h-8L2495,504a194.43,194.43,0,0,1-11.42-20.39l-.27.09c.45,7.7.63,15,.63,25.2V535Z"/>
        <path class="cls-1" d="M2571.25,506.36H2547.5v22H2574V535h-34.35V473.91h33v6.62h-25.1v19.3h23.75Z"/>
        <path class="cls-1" d="M2587.65,474.72a82.74,82.74,0,0,1,15.14-1.26c8.43,0,13.86,1.54,17.67,5a15.22,15.22,0,0,1,4.8,11.6c0,8.07-5.07,13.42-11.51,15.59v.27c4.72,1.64,7.53,6,9,12.33,2,8.52,3.44,14.41,4.71,16.77h-8.16c-1-1.72-2.35-7-4.08-14.59-1.81-8.43-5.07-11.61-12.23-11.88h-7.43V535h-7.89Zm7.89,27.83h8.06c8.43,0,13.78-4.62,13.78-11.6,0-7.89-5.71-11.33-14.05-11.42a32.53,32.53,0,0,0-7.79.72Z"/>
      </g>
    </g>
    <g id="Lite">
      <path class="cls-1" d="M769.3,262.27C749.28,177.73,664.74,180,664.74,180c-28.92-53.39-79-56.73-79-56.73C585.76,112.1,563.51,12,450.05.86s-155.73,89-155.73,89S250.94,55.37,182,82.06,106.34,180,106.34,180C77.42,175.5-13.8,206.65,1.78,297.86S97.44,391.3,97.44,391.3H675.86C715.91,391.3,789.32,346.8,769.3,262.27ZM677,356.82H91.88s-48.95-15.58-55.62-62.3,37.82-75.64,57.84-77.86,42.27-2.23,42.27-2.23S131.92,141,198.66,114.32,309.9,138.79,309.9,138.79,338.82,32,438.93,34.23s120.13,97.89,120.13,120.14c0,0,64.52-4.45,84.54,60.06,0,0,71.19-8.89,91.22,53.4S690.32,354.59,677,356.82Z"/>
      <path class="cls-1" d="M285.43,205.54a31.15,31.15,0,1,0,31.14,31.14A31.14,31.14,0,0,0,285.43,205.54Zm0,42.27a11.13,11.13,0,1,1,11.12-11.13A11.14,11.14,0,0,1,285.43,247.81Z"/>
      <path class="cls-1" d="M487.87,205.54A31.15,31.15,0,1,0,519,236.68,31.14,31.14,0,0,0,487.87,205.54Zm0,42.27A11.13,11.13,0,1,1,499,236.68,11.14,11.14,0,0,1,487.87,247.81Z"/>
      <rect class="cls-1" x="272.08" y="263.38" width="28.92" height="209.12"/>
      <rect class="cls-1" x="472.3" y="254.48" width="28.92" height="218.02"/>
      <path class="cls-2" d="M47.38,283.4s4.45-57.84,86.77-55.62C134.15,227.78,66.29,246.69,47.38,283.4Z"/>
      <path class="cls-2" d="M167.52,163.27S194.21,98.75,281,136.57C281,136.57,213.12,119.88,167.52,163.27Z"/>
      <path class="cls-2" d="M361.07,78.73S441.15,18.66,507.9,76.5C507.9,76.5,446.72,48.69,361.07,78.73Z"/>
      <path class="cls-2" d="M563.51,172.17s46.72,0,66.75,33.37C630.26,205.54,578,177.73,563.51,172.17Z"/>
      <path class="cls-2" d="M665.85,236.68s44.49-6.67,55.62,44.5C721.47,281.18,700.33,253.37,665.85,236.68Z"/>
      <path class="cls-2" d="M272.08,485.85H301s11.51,60.07,87.9,57.84S472,485.85,472,485.85h29.2s-12.65,73.41-84.54,84.54H361.94S294.54,565.94,272.08,485.85Z"/>
      <g>
        <path class="cls-1" d="M957,392.38q-25.4.19-45.24-6.06T878.34,367q-13.59-13.1-20.62-32.93t-7-47V129.54q0-7.81,2.55-10.45t10.35-2.64h12.9q7.82,0,10.46,2.64t2.63,10.45v154q0,19.74,3.62,34.1t11.63,23.65a47.71,47.71,0,0,0,20.81,13.78q12.79,4.5,31.36,4.49,18,0,30.49-5.18a50.24,50.24,0,0,0,20.32-14.85A60.69,60.69,0,0,0,1019.14,316a127.68,127.68,0,0,0,3.52-31.26V129.54q0-7.62,2.54-10.36t10.16-2.73h13.48a29.47,29.47,0,0,1,6.45.58,8.11,8.11,0,0,1,4,2.06,7.48,7.48,0,0,1,2,4,34.83,34.83,0,0,1,.49,6.45V287.05q0,27-6.94,46.71t-20.32,32.73a84.51,84.51,0,0,1-32.83,19.44Q982.2,392.38,957,392.38Z"/>
        <path class="cls-1" d="M1119.39,233.11q0-7.81,3.52-12.7a33.45,33.45,0,0,1,10-8.79q4.31-2.35,12.61-6.55a165.55,165.55,0,0,1,19.74-8.21,202.66,202.66,0,0,1,25.4-6.93,143.5,143.5,0,0,1,29.61-2.94q18.94,0,32,6a55.06,55.06,0,0,1,20.91,16.13,63.36,63.36,0,0,1,11.33,23.35,110.56,110.56,0,0,1,3.42,27.85V376q0,7.81-2.63,10.35t-8.9,2.55h-14.26q-5.86,0-8.7-2.55T1250.52,376V262.43a81.44,81.44,0,0,0-1.47-15.05,39,39,0,0,0-5.57-14.17,32.38,32.38,0,0,0-11.14-10.45q-7-4.11-18.17-4.11a67.46,67.46,0,0,0-16.12,2,132.71,132.71,0,0,0-15.93,5,143.77,143.77,0,0,0-14.27,6.35q-6.64,3.42-11.13,6V376q0,7.81-2.64,10.35t-9.09,2.55h-14.46q-5.67,0-8.4-2.55T1119.39,376Z"/>
        <path class="cls-1" d="M1362.3,120q11.33,0,17.2,4.79t5.86,15.34q0,8.61-5.28,14t-17.39,5.37q-24,0-24-19.93,0-10.37,6-14.95T1362.3,120Zm-7.23,268.91q-6.64,0-9-2.55T1343.73,376V204.19q0-7.81,2.35-10.45t9-2.64h14.85q6.64,0,8.89,2.64t2.25,10.45V376q0,7.81-2.44,10.35t-9.09,2.55Z"/>
        <path class="cls-1" d="M1501.44,388.87q-7.82,0-11.92-2.64t-7.62-9.48A637,637,0,0,1,1445,294.57,552.16,552.16,0,0,1,1420,203a25.92,25.92,0,0,1-.69-6.06,6.83,6.83,0,0,1,1.08-3.71,5.42,5.42,0,0,1,3.13-2,27.37,27.37,0,0,1,5.47-.78l17.78-.58q6.26-.39,8.89,1.66t3.62,9.67q1.37,7.81,4.1,19.35t6.45,25.21q3.71,13.68,8.4,28.63t10,29.41q5.28,14.46,10.94,27.84a232.14,232.14,0,0,0,11.53,23.75H1513q5.47-10,10.75-22T1534,308.25q5-13.19,9.48-27.16t8.3-27.65q3.81-13.68,6.94-26.68t5.27-24.52q1.18-7.62,4-10.26t8.89-2l16.81.39a45.92,45.92,0,0,1,6.06,1,6.91,6.91,0,0,1,3.51,1.86,5.16,5.16,0,0,1,1.27,3.42,30.29,30.29,0,0,1-.48,5.86q-4.11,23.07-10.56,46.12t-14.56,45.34q-8.1,22.28-17.49,43.29t-19.34,39.76a37.13,37.13,0,0,1-3.62,5.67,14.89,14.89,0,0,1-9.28,5.67,35.35,35.35,0,0,1-6.84.59Z"/>
        <path class="cls-1" d="M1646.25,214a18.81,18.81,0,0,1-1.37-4,6.43,6.43,0,0,1,.19-3.52,8.46,8.46,0,0,1,2.45-3.32,20.18,20.18,0,0,1,5.57-3.23q3.71-1.75,9.28-4a117,117,0,0,1,12.72-4.21,147.69,147.69,0,0,1,16-3.32,125.54,125.54,0,0,1,19.18-1.37,122.35,122.35,0,0,1,29.56,3.42,62.59,62.59,0,0,1,23.78,11.34,53.21,53.21,0,0,1,15.76,20.71Q1785,235.27,1785,254V376q0,7.81-2.07,10.35c-1.38,1.7-4.09,2.55-8.15,2.55H1762.4q-5.31,0-8.16-2.55t-4.42-10l-1.76-6.45q-3.32,2.93-8.4,6.74a71.57,71.57,0,0,1-12.31,7.23,95.43,95.43,0,0,1-16.42,5.86,78.87,78.87,0,0,1-20.32,2.45,90.64,90.64,0,0,1-24.33-3.13,49.93,49.93,0,0,1-19.45-10.16,46.62,46.62,0,0,1-12.8-18.57q-4.59-11.52-4.59-28.33,0-14.65,5.37-25.31a50.84,50.84,0,0,1,14.76-17.78,70.14,70.14,0,0,1,22-11,133.55,133.55,0,0,1,27.27-5.28l48.85-4.3V252.46a46.44,46.44,0,0,0-1.76-12.8,24.94,24.94,0,0,0-6.55-10.94q-4.78-4.78-13.19-7.62t-21.49-2.84a81.22,81.22,0,0,0-12.9,1,98.48,98.48,0,0,0-11.24,2.44q-5.18,1.47-9.08,2.93t-6.45,2.45q-2.74,1-4.89,1.56a10.51,10.51,0,0,1-3.91.39,6.19,6.19,0,0,1-3.22-1.37,10,10,0,0,1-2.64-3.71Zm101.42,80.32-43,3.71a93.72,93.72,0,0,0-13.29,2.25,38.53,38.53,0,0,0-12.41,5.38,29.89,29.89,0,0,0-9.18,9.77q-3.63,6.06-3.62,15.24,0,9.78,2.74,15.93a24.32,24.32,0,0,0,7.52,9.77,27.94,27.94,0,0,0,11,5,62.22,62.22,0,0,0,13.29,1.37,72.47,72.47,0,0,0,14.85-1.47,90.36,90.36,0,0,0,13.1-3.71,67.36,67.36,0,0,0,10.84-5.08,53.26,53.26,0,0,0,8.11-5.77Z"/>
        <path class="cls-2" d="M1857.89,388.87q-7.62,0-10.26-2.55T1845,376V129.54q0-7.81,2.64-10.45t10.26-2.64h13.48q7.82,0,10.26,2.64t2.45,10.45V233.7h135V129.54q0-7.81,2.54-10.45t10.36-2.64h13.68q7.82,0,10.26,2.64t2.44,10.45V376q0,7.81-2.44,10.35t-10.26,2.55H2032q-7.82,0-10.36-2.55T2019.11,376V266.53h-135V376q0,7.81-2.45,10.35t-10.26,2.55Z"/>
        <path class="cls-2" d="M2111,288.42q0-23.44,6.25-42.21a88,88,0,0,1,18.28-32,79.1,79.1,0,0,1,29.6-20.23q17.6-7,40.06-7a115,115,0,0,1,34.49,5.28,78.34,78.34,0,0,1,30,17.3q13.09,12,21.11,31.36t8,47.49q0,25.2-6.45,44.65t-18.56,32.64a77.49,77.49,0,0,1-29.51,19.93q-17.4,6.75-39.28,6.74t-39.28-6.64a77.25,77.25,0,0,1-29.61-19.84q-12.21-13.18-18.66-32.54T2111,288.42Zm36.54,0q0,19.74,4.2,33.61t11.83,22.57a44.38,44.38,0,0,0,18.17,12.61,67.23,67.23,0,0,0,23.45,3.91A64.1,64.1,0,0,0,2228.6,357a43.67,43.67,0,0,0,18-13q7.43-8.89,11.43-22.67t4-33.13q0-18-4.3-31.17t-11.92-21.79a47.72,47.72,0,0,0-18.08-12.8,60.51,60.51,0,0,0-22.76-4.2,61.23,61.23,0,0,0-23.26,4.3,48,48,0,0,0-18.17,13,60.68,60.68,0,0,0-11.83,21.88Q2147.5,270.64,2147.5,288.42Z"/>
        <path class="cls-2" d="M2335.3,356.42a24.26,24.26,0,0,1,1.86-3.71,8,8,0,0,1,2.64-2.73,6.5,6.5,0,0,1,4-.79,20.94,20.94,0,0,1,6.36,2,119.12,119.12,0,0,0,23.25,7.43,125.11,125.11,0,0,0,27,2.93,41.5,41.5,0,0,0,14.26-2.35,35.65,35.65,0,0,0,11.14-6.35,28.83,28.83,0,0,0,7.23-9.09,22.84,22.84,0,0,0,2.55-10.36,21.81,21.81,0,0,0-1.47-8.89,22.26,22.26,0,0,0-6.35-8.3,63.63,63.63,0,0,0-13-8.31,198.71,198.71,0,0,0-21.2-8.89q-12.32-4.29-23.35-8.7a78.88,78.88,0,0,1-19.25-10.74,47.48,47.48,0,0,1-13-15.34q-4.79-9-4.79-22.67a51.17,51.17,0,0,1,5.18-23.36,47.65,47.65,0,0,1,14.46-17.1,68.18,68.18,0,0,1,22.09-10.45,103.63,103.63,0,0,1,28.23-3.62q19,0,32.54,3.35a129,129,0,0,1,21,6.68,37.14,37.14,0,0,1,5.37,3.15,7.47,7.47,0,0,1,2.54,3,5.82,5.82,0,0,1,.3,3.54,28.55,28.55,0,0,1-1.57,4.91l-2.54,7.08q-1.17,2.94-2.14,4.89a6.65,6.65,0,0,1-2.45,2.83,5.42,5.42,0,0,1-3.61.59,25,25,0,0,1-5.87-1.86,130.63,130.63,0,0,0-16-4.59,91.27,91.27,0,0,0-20.52-2.25q-19.16,0-29.9,6.05t-10.75,19.53a15.25,15.25,0,0,0,3.91,10.83,31.39,31.39,0,0,0,10.07,7,98.69,98.69,0,0,0,14,5.08q7.82,2.25,15.63,4.78a164.66,164.66,0,0,1,27.65,11.71A72.55,72.55,0,0,1,2458.91,297a45.46,45.46,0,0,1,10,16.69,64.45,64.45,0,0,1,3,20.3,51.69,51.69,0,0,1-5.17,22.93,56.89,56.89,0,0,1-14.47,18.55,68.5,68.5,0,0,1-22.18,12.39,85.75,85.75,0,0,1-28.33,4.49,155.56,155.56,0,0,1-23.06-1.56,168.47,168.47,0,0,1-18.37-3.71,120.05,120.05,0,0,1-13.58-4.4q-5.58-2.25-8.7-3.62-6.26-2.54-7-5.86t1.57-9Z"/>
        <path class="cls-2" d="M2507.08,204.58c0-3.38.84-5.92,2.54-7.62s5.08-3.06,10.16-4.1l10.75-1.57,3.11-35.17a34.65,34.65,0,0,1,1.16-6.26,8.94,8.94,0,0,1,2.34-4,8.62,8.62,0,0,1,4.08-2.05,29.16,29.16,0,0,1,6.42-.59h7.19q7.77,0,10.3,2.54t2.53,10.36v35.17h33.42q7.82,0,10.35,2.74c1.7,1.83,2.54,4.49,2.54,8v8.41c0,4.17-.84,6.87-2.54,8.1s-5.14,1.86-10.35,1.86h-33.42V328.48a76.94,76.94,0,0,0,1.07,13.29,29.57,29.57,0,0,0,3.72,10.36,18.34,18.34,0,0,0,6.94,6.64,21.79,21.79,0,0,0,10.55,2.35,53.87,53.87,0,0,0,13.38-1.37,73.06,73.06,0,0,0,8.11-2.54,26.32,26.32,0,0,1,5.09-1.47,5.29,5.29,0,0,1,3.12.29,4.62,4.62,0,0,1,2,2.15c.52,1.05,1.1,2.35,1.76,3.91l2.93,8.21q2.14,5.28.29,8.7t-7.33,5.76a129.92,129.92,0,0,1-14.56,5q-9.09,2.64-23.55,2.64a56.91,56.91,0,0,1-21-3.71,40.9,40.9,0,0,1-16-11.24,51.91,51.91,0,0,1-10.21-18.85q-3.6-11.34-3.6-26.78V220.41H2520q-7.83,0-10.36-2.15c-1.7-1.43-2.54-3.84-2.54-7.23Z"/>
      </g>
    </g>
  </g>
</svg>
