<svg width="1200" height="266" viewBox="0 0 1200 266" fill="none" xmlns="http://www.w3.org/2000/svg">
<path d="M305.686 80.1475H334.824L357.317 148.688H358.086L384.539 87.9891L410.564 148.688H411.206L433.943 80.1475H462.897L413.979 208.989L384.782 140.098H384.033L354.671 208.96L305.686 80.1475Z" fill="white"/>
<path d="M496.539 94.6535C509.089 82.6673 524.374 76.564 542.392 76.3435C560.41 76.123 576.722 82.8781 591.329 96.609L596.651 101.931L522.233 176.329C528.564 182.043 536.639 184.754 546.459 184.462C556.278 184.17 565.375 180.084 573.748 172.204C580.189 165.289 583.967 158.229 585.083 151.023C586.183 144.984 586.347 138.812 585.569 132.723L610.699 125.679C611.997 133.871 611.348 143.84 608.754 155.586C606.159 167.333 599.955 178.501 590.142 189.093C575.315 203.2 559.048 210.309 541.341 210.419C523.634 210.529 507.899 203.953 494.136 190.689C481.936 178.509 475.038 162.006 474.941 144.768C474.61 126.97 481.809 110.265 496.539 94.6535ZM506.472 160.607L558.591 108.566C551.104 104.348 542.55 102.404 533.976 102.972C525.668 103.575 518.014 107.243 511.016 113.975C504.465 120.682 500.855 128.125 500.187 136.303C499.614 144.881 501.832 153.414 506.511 160.626L506.472 160.607Z" fill="white"/>
<path d="M761.462 41.5817V204.387H735.768V191.545H735.184C730.475 196.861 724.766 201.198 718.382 204.309C710.555 207.793 702.092 209.622 693.524 209.68C673.502 208.979 657.624 202.247 645.852 189.599C634.08 176.951 628.106 161.502 627.844 143.318C628.103 126.357 634.236 111.186 646.241 97.8057C658.247 84.425 674.481 77.352 694.945 76.5867C703.516 76.6683 711.938 78.8389 719.481 82.9105C726.126 86.4616 731.37 88.7479 735.203 97.2706H735.777V41.5817H761.462ZM736.721 143.016C736.699 132.349 732.603 122.093 725.27 114.345C721.658 110.473 717.291 107.382 712.439 105.262C707.586 103.142 702.351 102.038 697.056 102.018C685.037 102.343 675.347 106.49 667.986 114.462C660.702 122.196 656.603 132.393 656.505 143.016C656.765 154.769 660.708 164.547 668.336 172.349C672.061 176.187 676.522 179.234 681.452 181.308C686.381 183.383 691.679 184.442 697.027 184.423C702.334 184.396 707.578 183.275 712.432 181.131C717.287 178.987 721.647 175.865 725.241 171.96C732.594 164.114 736.697 153.77 736.721 143.016Z" fill="white"/>
<path d="M812.218 94.6535C824.762 82.6673 840.056 76.564 858.1 76.3435C876.144 76.123 892.446 82.8781 907.008 96.609L912.339 101.931L837.873 176.329C844.223 182.01 852.295 184.722 862.089 184.462C871.882 184.203 880.963 180.11 889.33 172.184C895.783 165.257 899.565 158.194 900.674 150.994C901.763 144.954 901.93 138.784 901.17 132.694L926.3 125.65C927.597 133.842 926.949 143.811 924.354 155.557C921.76 167.303 915.566 178.472 905.772 189.064C890.951 203.171 874.71 210.28 857.049 210.39C839.388 210.5 823.653 203.933 809.844 190.689C797.623 178.517 790.697 162.016 790.571 144.768C790.253 126.97 797.468 110.265 812.218 94.6535ZM822.151 160.607L874.26 108.566C866.774 104.354 858.226 102.407 849.655 102.962C841.346 103.565 833.696 107.236 826.704 113.975C820.14 120.682 816.521 128.125 815.847 136.303C815.272 144.872 817.484 153.397 822.151 160.607Z" fill="white"/>
<path d="M935.553 80.1475H965.207L993.333 152.979H994.102L1022.05 80.1475H1052.08L993.81 209.592L935.553 80.1475Z" fill="white"/>
<path d="M1113.31 76.5867C1123.09 76.5887 1132.77 78.5022 1141.82 82.2198C1149.27 85.2847 1156.31 89.2758 1162.76 94.0989L1147.42 113.022C1143.07 109.084 1138.15 105.83 1132.83 103.371C1126.9 100.52 1120.43 98.9744 1113.85 98.8369C1106.52 99.0121 1100.74 100.608 1096.48 103.624C1092.23 106.64 1090.09 110.366 1090.08 114.802C1090.42 121.107 1094.41 125.222 1102.07 127.148C1110.84 129.253 1119.72 130.909 1128.65 132.11C1138.08 133.314 1147.14 136.518 1155.22 141.508C1162.87 146.334 1166.96 154.986 1167.48 167.465C1167.48 178.265 1163.03 187.841 1154.13 196.195C1145.22 204.549 1131.87 208.986 1114.06 209.505C1100.08 209.063 1088.2 206.469 1078.41 201.721C1068.63 196.974 1061.51 192.268 1057.07 187.605L1075.55 168.944C1080.54 173.98 1086.25 178.243 1092.49 181.592C1099.54 185.408 1107.41 187.467 1115.42 187.595C1123.34 187.42 1129.47 185.649 1133.82 182.283C1138.16 178.926 1140.39 175.2 1140.47 171.104C1140.45 169.576 1140.17 168.062 1139.64 166.629C1139.04 165.042 1138.1 163.605 1136.89 162.416C1133.23 159.264 1127.44 156.994 1119.52 155.606C1111.6 154.218 1103.38 152.528 1094.87 150.537C1086.79 148.761 1079.21 145.234 1072.65 140.205C1066.45 135.379 1063.25 127.966 1063.07 117.964C1063.07 112.421 1064.28 106.944 1066.61 101.913C1068.94 96.8816 1072.33 92.4163 1076.56 88.8258C1085.38 81.0166 1097.64 76.9369 1113.31 76.5867Z" fill="white"/>
<path d="M55.0565 75.8169C55.0565 75.8169 46.1265 23.8069 95.9965 17.5369C95.9965 17.5369 137.516 11.9369 153.066 62.1969C152.996 62.1969 90.6765 66.6769 55.0565 75.8169Z" fill="url(#paint0_linear_523_10858)"/>
<path d="M152.996 62.1969C152.996 62.1969 16.4862 65.8369 4.61624 109.287C4.61624 109.287 -25.1038 168.727 66.2762 246.847C66.2762 246.847 106.956 271.537 137.586 237.707C137.586 237.707 85.0262 186.707 67.6562 153.937C67.6562 153.937 115.186 103.857 159.066 82.8069C157.636 75.7759 155.606 68.8806 152.996 62.1969Z" fill="url(#paint1_radial_523_10858)"/>
<path d="M67.2157 154.737C67.2157 154.737 30.2157 193.047 61.0257 227.397C61.0257 227.397 91.1857 256.857 128.226 231.507C128.226 231.507 84.3357 180.087 67.2157 154.737Z" fill="url(#paint2_linear_523_10858)"/>
<path d="M84.8056 137.367C84.8056 137.367 150.806 178.267 189.376 177.367C207.306 145.866 219.766 111.553 226.226 75.887C226.226 75.887 270.116 89.617 268.736 137.147C268.736 137.147 273.736 173.567 228.666 228.527C228.666 228.527 198.946 263.267 169.266 257.337C169.266 257.337 111.216 230.597 67.2656 154.737C72.776 148.617 78.6323 142.818 84.8056 137.367Z" fill="url(#paint3_radial_523_10858)"/>
<path d="M224.846 87.4369C224.846 87.4369 261.846 102.617 258.566 140.347C258.566 140.347 250.816 192.107 189.116 179.067C188.996 179.067 217.346 116.347 224.846 87.4369Z" fill="url(#paint4_linear_523_10858)"/>
<path d="M42.4565 79.7869C42.4565 79.7869 31.9965 28.8369 80.1165 8.72692C80.1165 8.72692 93.7365 0.496919 146.726 0.0269188C146.726 0.0269188 205.726 -2.27308 225.796 35.6469C225.796 35.6469 244.516 78.2569 189.006 179.027L182.596 177.787C182.596 177.787 178.086 176.987 165.226 173.897C165.226 173.897 170.037 77.2369 142.937 42.9669C142.937 42.9669 124.106 11.7869 88.8165 18.9669C88.8165 18.9669 49.8865 30.5469 55.0565 75.7769C55.0565 75.8169 53.4165 76.5069 42.4565 79.7869Z" fill="url(#paint5_radial_523_10858)"/>
<defs>
<linearGradient id="paint0_linear_523_10858" x1="54.4365" y1="46.5869" x2="153.056" y2="46.5869" gradientUnits="userSpaceOnUse">
<stop stop-color="#147BC1"/>
<stop offset="0.23" stop-color="#1475B7"/>
<stop offset="0.62" stop-color="#13659E"/>
<stop offset="1" stop-color="#12527E"/>
</linearGradient>
<radialGradient id="paint1_radial_523_10858" cx="0" cy="0" r="1" gradientUnits="userSpaceOnUse" gradientTransform="translate(44.7462 127.317) scale(88.57)">
<stop stop-color="#B8D435"/>
<stop offset="0.12" stop-color="#B2D236"/>
<stop offset="0.29" stop-color="#A1CC39"/>
<stop offset="0.47" stop-color="#86C23D"/>
<stop offset="0.67" stop-color="#60B543"/>
<stop offset="0.82" stop-color="#3FA948"/>
<stop offset="1" stop-color="#49A649"/>
</radialGradient>
<linearGradient id="paint2_linear_523_10858" x1="48.7557" y1="198.267" x2="128.226" y2="198.267" gradientUnits="userSpaceOnUse">
<stop stop-color="#338A47"/>
<stop offset="0.42" stop-color="#256232"/>
<stop offset="0.79" stop-color="#1A4422"/>
<stop offset="1" stop-color="#16391C"/>
</linearGradient>
<radialGradient id="paint3_radial_523_10858" cx="0" cy="0" r="1" gradientUnits="userSpaceOnUse" gradientTransform="translate(207.876 185.917) scale(94.15 94.15)">
<stop stop-color="#FFC713"/>
<stop offset="0.15" stop-color="#FCBD15"/>
<stop offset="0.39" stop-color="#F5A41A"/>
<stop offset="0.7" stop-color="#E97A23"/>
<stop offset="0.9" stop-color="#E05B29"/>
<stop offset="1" stop-color="#DD5430"/>
</radialGradient>
<linearGradient id="paint4_linear_523_10858" x1="270.906" y1="113.547" x2="206.836" y2="141.087" gradientUnits="userSpaceOnUse">
<stop stop-color="#CA2027"/>
<stop offset="0.6" stop-color="#C73927"/>
<stop offset="1" stop-color="#C64427"/>
</linearGradient>
<radialGradient id="paint5_radial_523_10858" cx="0" cy="0" r="1" gradientUnits="userSpaceOnUse" gradientTransform="translate(171.487 59.0269) scale(91.49 91.49)">
<stop stop-color="#C7EAFB"/>
<stop offset="0.13" stop-color="#BDE4F8"/>
<stop offset="0.35" stop-color="#A4D4F0"/>
<stop offset="0.62" stop-color="#79BAE3"/>
<stop offset="0.94" stop-color="#4096D1"/>
<stop offset="1" stop-color="#358FCE"/>
</radialGradient>
</defs>
</svg>
