<svg width="1983" height="1047" viewBox="0 0 1983 1047" fill="none" xmlns="http://www.w3.org/2000/svg">
<g clip-path="url(#clip0_481_4468)">
<path d="M148.27 1040.53H115.65V799.069H148.27V1040.53Z" fill="white"/>
<path d="M364.16 799.069H395.77V1040.53H359.11L236.36 845.529H235.69V1040.53H204.08V799.069H242.75L363.49 994.069H364.16V799.069Z" fill="white"/>
<path d="M592.48 869.7C590.79 832.37 559.86 820.59 532.61 820.59C512.1 820.59 477.46 826.31 477.46 862.97C477.46 883.48 491.92 890.21 506.05 893.57L575 909.38C606.27 916.78 629.81 935.61 629.81 973.95C629.81 1031.12 576.67 1046.95 535.31 1046.95C490.58 1046.95 473.09 1033.5 462.31 1023.75C441.81 1005.25 437.77 985.07 437.77 962.54H468.37C468.37 1006.26 504.02 1019.04 534.96 1019.04C558.5 1019.04 598.18 1013.04 598.18 978.35C598.18 953.12 586.41 945.06 546.73 935.64L497.3 924.17C481.5 920.47 445.85 909.38 445.85 867.34C445.85 829.67 470.4 792.68 528.91 792.68C613.33 792.68 621.73 843.13 623.07 869.68L592.48 869.7Z" fill="white"/>
<path d="M643.56 799.069H839.63V827.999H757.9V1040.53H725.28V827.999H643.56V799.069Z" fill="white"/>
<path d="M907.54 1040.53H874.92V799.069H907.54V1040.53Z" fill="white"/>
<path d="M935.78 799.069H1131.84V827.999H1050.12V1040.53H1017.5V827.999H935.78V799.069Z" fill="white"/>
<path d="M1353.1 799.069V955.789C1353.1 1005.22 1322.17 1046.92 1255.91 1046.92C1191.01 1046.92 1163.09 1005.22 1163.09 960.159V799.069H1195.72V951.069C1195.72 1003.53 1227.66 1017.99 1256.93 1017.99C1286.85 1017.99 1320.48 1004.2 1320.48 951.739V799.069H1353.1Z" fill="white"/>
<path d="M1384 799.069H1580.06V827.999H1498.34V1040.53H1465.72V827.999H1384V799.069Z" fill="white"/>
<path d="M1791.91 1040.53H1613.68V799.069H1789.56V827.999H1646.3V901.999H1778.46V930.899H1646.3V1011.61H1791.91V1040.53Z" fill="white"/>
<path d="M733.61 718.89C701.377 719.776 669.712 710.286 643.28 691.818C616.847 673.35 597.045 646.881 586.79 616.31L514.9 402L444.81 615C435.087 644.544 416.483 670.367 391.537 688.945C366.592 707.522 336.521 717.948 305.43 718.8C272.47 719.708 240.117 709.811 213.307 690.616C186.497 671.422 166.701 643.985 156.94 612.49L4.19998 119.72C-14.22 60.28 30.21 3.04827e-06 92.44 3.04827e-06C112.373 0.0102512 131.768 6.4676 147.73 18.4079C163.691 30.3482 175.362 47.1308 181 66.25L321.46 539.25L436.88 179.25L416 116.49C396.91 59.18 439.57 3.04827e-06 500 3.04827e-06C518.742 0.00129831 537 5.95107 552.144 16.9924C567.288 28.0337 578.537 43.5968 584.27 61.44L734.63 539.22L859.63 62.44C864.424 44.5246 874.999 28.693 889.712 17.4027C904.425 6.11246 922.454 -0.00498526 941 3.04827e-06C997.23 3.04827e-06 1037.66 54 1021.79 108L873.79 610.95C864.816 641.439 846.419 668.305 821.237 687.695C796.055 707.086 765.38 718.006 733.61 718.89Z" fill="#02ADF2"/>
<path d="M1116.47 627.79V330.79C1116.47 306.623 1126.07 283.445 1143.16 266.355C1160.25 249.265 1183.42 239.663 1207.59 239.66C1231.76 239.66 1254.94 249.261 1272.03 266.352C1289.12 283.442 1298.72 306.621 1298.72 330.79V627.79C1298.72 651.959 1289.12 675.139 1272.03 692.229C1254.94 709.319 1231.76 718.92 1207.59 718.92C1183.42 718.917 1160.25 709.315 1143.16 692.225C1126.07 675.135 1116.47 651.958 1116.47 627.79Z" fill="#02ADF2"/>
<path d="M1960.15 22.21C1953.19 15.169 1944.9 9.58021 1935.76 5.76767C1926.62 1.95513 1916.81 -0.00530632 1906.91 1.07868e-05H1262.7C1273 9.68284 1281.21 21.3725 1286.82 34.3486C1292.43 47.3247 1295.33 61.3125 1295.33 75.45C1295.33 89.5875 1292.43 103.575 1286.82 116.551C1281.21 129.528 1273 141.217 1262.7 150.9H1607.56V627.65C1607.56 639.637 1609.92 651.507 1614.51 662.581C1619.09 673.656 1625.82 683.718 1634.29 692.194C1642.77 700.67 1652.83 707.392 1663.91 711.978C1674.98 716.564 1686.85 718.923 1698.84 718.92C1723 718.838 1746.14 709.187 1763.19 692.081C1780.25 674.974 1789.83 651.806 1789.84 627.65V150.9H1906.84C1926.83 150.868 1945.99 142.905 1960.11 128.759C1974.24 114.613 1982.17 95.4398 1982.17 75.45C1982.21 65.5599 1980.28 55.761 1976.5 46.6217C1972.72 37.4824 1967.16 29.1847 1960.15 22.21Z" fill="#02ADF2"/>
<path d="M1191.84 150.89C1233.49 150.89 1267.26 117.123 1267.26 75.4698C1267.26 33.8165 1233.49 0.0498047 1191.84 0.0498047C1150.19 0.0498047 1116.42 33.8165 1116.42 75.4698C1116.42 117.123 1150.19 150.89 1191.84 150.89Z" fill="#02ADF2"/>
</g>
<defs>
<clipPath id="clip0_481_4468">
<rect width="1982.24" height="1046.92" fill="white"/>
</clipPath>
</defs>
</svg>
