<svg width="940" height="278" viewBox="0 0 940 278" fill="none" xmlns="http://www.w3.org/2000/svg">
<g clip-path="url(#clip0_529_10912)">
<path d="M395.16 189.269H375.774L351.128 148.768H350.678L326.332 189.269H308.148L341.06 137.272L309.276 87.6044H328.662L351.805 125.475H352.105L375.549 87.6044H393.733L361.648 137.122L395.16 189.269ZM475.936 196.407C475.936 204.297 472.93 210.233 466.919 214.215C460.908 218.198 451.065 220.151 437.464 220.151C431.228 220.151 425.968 219.7 421.61 218.874C417.327 218.122 413.795 216.92 410.94 215.342C408.235 213.764 406.206 211.886 405.004 209.632C403.726 207.377 403.125 204.823 403.125 201.892C403.125 197.684 404.252 194.453 406.507 192.124C408.836 189.795 412.067 188.217 416.124 187.315V185.737C410.414 183.859 407.559 180.027 407.559 174.09C407.559 170.183 408.836 167.253 411.466 165.224C414.096 163.12 417.252 161.617 420.933 160.716V160.114C416.5 158.011 413.044 155.005 410.564 151.248C408.235 147.341 407.033 142.832 407.033 137.723C407.033 129.983 409.587 123.672 414.772 118.938C420.032 114.204 427.471 111.799 437.239 111.799C442.574 111.799 447.157 112.551 450.914 114.129V112.1C450.914 108.719 451.666 106.089 453.244 104.21C454.897 102.257 457.451 101.28 460.833 101.28H472.479V114.129H457.001V117.21C460.382 119.464 463.012 122.394 464.89 125.926C466.769 129.457 467.67 133.365 467.67 137.723C467.67 145.387 465.041 151.624 459.781 156.357C454.521 161.016 447.082 163.345 437.314 163.345C433.632 163.345 430.326 162.97 427.395 162.143C425.442 162.819 423.789 163.796 422.286 165.074C420.858 166.276 420.107 167.779 420.107 169.732C420.107 171.761 421.009 173.264 422.887 174.09C424.766 174.992 427.32 175.368 430.777 175.368H449.411C458.729 175.368 465.491 177.246 469.624 181.078C473.832 184.76 475.936 189.87 475.936 196.407ZM461.058 198.135C461.058 195.505 460.006 193.401 457.977 191.899C456.024 190.321 452.417 189.569 447.232 189.569H421.61C418.078 191.598 416.35 194.529 416.35 198.286C416.35 201.366 417.552 203.846 419.957 205.724C422.511 207.678 426.719 208.655 432.655 208.655H442.574C454.897 208.655 461.058 205.123 461.058 198.135ZM437.314 151.849C441.973 151.849 445.579 150.797 448.059 148.768C450.689 146.664 451.966 143.358 451.966 139V136.07C451.966 131.712 450.689 128.481 448.059 126.452C445.504 124.348 441.973 123.221 437.314 123.221C432.655 123.221 428.973 124.273 426.419 126.452C423.864 128.481 422.662 131.712 422.662 136.07V139C422.662 143.358 423.939 146.589 426.419 148.768C429.049 150.797 432.655 151.849 437.314 151.849ZM516.586 190.997C511.176 190.997 506.292 190.095 502.009 188.217C497.726 186.338 494.12 183.784 491.114 180.327C488.108 176.795 485.779 172.663 484.126 167.779C482.548 162.819 481.797 157.334 481.797 151.323C481.797 145.312 482.548 139.827 484.126 135.018C485.779 130.058 488.108 125.926 491.114 122.469C494.12 118.938 497.801 116.308 502.009 114.429C506.292 112.551 511.101 111.649 516.586 111.649C522.147 111.649 526.956 112.626 531.164 114.58C535.447 116.533 538.978 119.238 541.833 122.77C544.614 126.151 546.718 130.134 548.07 134.717C549.498 139.301 550.249 144.185 550.249 149.445V155.381H498.252V157.86C498.252 163.721 499.981 168.53 503.362 172.287C506.893 175.969 511.778 177.847 518.24 177.847C522.898 177.847 526.806 176.796 530.037 174.767C533.268 172.738 535.973 169.958 538.227 166.426L547.544 175.593C544.764 180.252 540.631 184.009 535.296 186.789C529.961 189.644 523.725 190.997 516.586 190.997ZM516.586 124.122C513.881 124.122 511.327 124.573 508.997 125.55C506.743 126.527 504.789 127.879 503.136 129.608C501.558 131.336 500.356 133.44 499.53 135.844C498.628 138.249 498.252 140.954 498.252 143.884V144.936H533.493V143.509C533.493 137.648 531.99 132.989 528.985 129.533C525.979 125.926 521.846 124.122 516.586 124.122ZM567.832 189.269V113.528H583.686V126.076H584.438C586.091 122.019 588.57 118.562 591.877 115.857C595.258 113.152 599.917 111.799 605.702 111.799C613.442 111.799 619.528 114.354 623.736 119.539C628.094 124.573 630.273 131.862 630.273 141.254V189.344H614.419V143.283C614.419 131.411 609.685 125.475 600.142 125.475C598.113 125.475 596.084 125.776 594.056 126.377C592.102 126.827 590.374 127.654 588.796 128.706C587.218 129.758 586.016 131.11 585.039 132.764C584.137 134.417 583.762 136.37 583.762 138.624V189.344H567.832V189.269ZM660.329 99.9274C657.023 99.9274 654.618 99.176 653.04 97.598C651.613 96.0201 650.861 94.0665 650.861 91.662V89.1824C650.861 86.7779 651.613 84.7491 653.04 83.2463C654.618 81.6684 657.023 80.917 660.329 80.917C663.635 80.917 666.04 81.6684 667.467 83.2463C668.895 84.8243 669.646 86.7779 669.646 89.1824V91.662C669.646 94.0665 668.895 96.0952 667.467 97.598C666.04 99.176 663.635 99.9274 660.329 99.9274ZM652.364 113.528H668.219V189.269H652.364V113.528ZM720.591 190.997C715.331 190.997 710.522 190.095 706.164 188.217C701.881 186.338 698.275 183.784 695.269 180.327C692.263 176.795 689.934 172.663 688.281 167.779C686.628 162.819 685.802 157.334 685.802 151.323C685.802 145.312 686.628 139.827 688.281 135.018C689.934 130.058 692.263 125.926 695.269 122.469C698.275 118.938 701.957 116.308 706.164 114.429C710.522 112.551 715.331 111.649 720.591 111.649C725.851 111.649 730.585 112.551 734.868 114.429C739.226 116.308 742.908 118.938 745.913 122.469C748.919 125.851 751.248 130.058 752.901 135.018C754.555 139.902 755.381 145.312 755.381 151.323C755.381 157.334 754.555 162.819 752.901 167.779C751.248 172.663 748.919 176.795 745.913 180.327C742.908 183.708 739.226 186.338 734.868 188.217C730.66 190.095 725.851 190.997 720.591 190.997ZM720.591 177.923C726.001 177.923 730.435 176.27 733.666 172.963C736.972 169.582 738.625 164.548 738.625 157.785V144.936C738.625 138.249 736.972 133.214 733.666 129.908C730.359 126.527 726.001 124.799 720.591 124.799C715.181 124.799 710.748 126.527 707.517 129.908C704.211 133.214 702.558 138.249 702.558 144.936V157.785C702.558 164.473 704.211 169.507 707.517 172.963C710.823 176.27 715.181 177.923 720.591 177.923ZM819.025 176.72H818.423C817.747 178.599 816.845 180.327 815.643 182.13C814.591 183.859 813.164 185.437 811.435 186.789C809.782 188.066 807.754 189.043 805.349 189.87C803.02 190.621 800.315 191.072 797.159 191.072C789.269 191.072 783.183 188.517 778.825 183.483C774.542 178.449 772.438 171.16 772.438 161.768V113.528H788.292V159.739C788.292 171.461 793.176 177.397 802.869 177.397C804.898 177.397 806.927 177.171 808.806 176.645C810.759 176.044 812.412 175.218 813.915 174.166C815.493 173.114 816.695 171.761 817.522 170.108C818.499 168.455 818.949 166.501 818.949 164.247V113.528H834.804V189.269H819.025V176.72ZM881.691 190.997C874.478 190.997 868.467 189.72 863.658 187.24C858.774 184.685 854.566 181.229 850.959 176.72L861.178 167.403C863.958 170.784 867.114 173.489 870.495 175.443C874.027 177.321 878.009 178.223 882.593 178.223C887.252 178.223 890.708 177.321 892.962 175.593C895.292 173.715 896.494 171.235 896.494 168.004C896.494 165.6 895.667 163.571 894.014 161.918C892.436 160.19 889.656 159.062 885.674 158.537L878.686 157.635C870.946 156.658 864.785 154.404 860.351 150.947C855.993 147.341 853.814 142.081 853.814 135.093C853.814 131.411 854.491 128.18 855.843 125.325C857.196 122.394 859.074 119.99 861.554 118.036C864.108 116.007 867.039 114.429 870.42 113.377C873.952 112.325 877.784 111.799 881.917 111.799C888.679 111.799 894.24 112.851 898.523 115.031C902.881 117.134 906.788 120.14 910.169 123.897L900.401 133.214C898.447 130.885 895.893 128.856 892.662 127.278C889.581 125.55 885.974 124.648 881.917 124.648C877.558 124.648 874.252 125.55 872.148 127.278C870.12 129.007 869.068 131.336 869.068 134.116C869.068 137.046 869.969 139.226 871.848 140.653C873.726 142.081 876.657 143.208 880.714 143.884L887.702 144.786C896.043 146.063 902.129 148.543 905.886 152.225C909.794 155.831 911.747 160.64 911.747 166.802C911.747 170.484 910.996 173.865 909.568 176.871C908.216 179.801 906.187 182.281 903.632 184.46C901.002 186.564 897.846 188.217 894.164 189.419C890.332 190.396 886.2 190.997 881.691 190.997Z" fill="white"/>
<path d="M243.454 271.247H33.0618C16.4559 271.247 3.00586 257.797 3.00586 241.191V30.7991C3.00586 14.1932 16.4559 0.743164 33.0618 0.743164H243.454C260.059 0.743164 273.509 14.1932 273.509 30.7991V241.191C273.509 257.797 260.059 271.247 243.454 271.247Z" fill="#EC7161"/>
<path d="M156.366 83.2467L153.586 79.7903L158.695 73.4034C159.297 72.652 160.198 72.2012 161.1 72.2012H225.119C225.946 72.2012 226.622 72.5017 227.148 72.9526C227.448 73.178 227.674 73.5537 227.899 73.8543C228.2 74.4554 228.35 75.0565 228.2 75.7327V75.8079C228.125 76.1084 228.05 76.409 227.899 76.7096C227.824 76.8598 227.674 77.0101 227.599 77.1604L189.578 124.574L172.221 103.009L156.366 83.2467Z" fill="white"/>
<path d="M228.274 212.187C228.425 212.863 228.274 213.539 227.974 214.14C227.824 214.516 227.523 214.817 227.222 215.042C226.696 215.493 226.02 215.793 225.194 215.793H161.174C160.198 215.793 159.371 215.343 158.77 214.666L140.887 192.35L156.366 173.039L159.446 169.207L176.879 147.491L227.673 210.759C227.824 210.909 227.899 211.06 227.974 211.21C228.124 211.51 228.199 211.811 228.274 212.187Z" fill="white"/>
<path d="M51.17 199.864H115.189C116.166 199.864 116.993 199.413 117.594 198.737L138.182 173.039L172.596 130.059C173.498 128.932 173.498 127.279 172.596 126.152L138.182 83.1716L117.594 57.4738C116.993 56.7224 116.091 56.3467 115.189 56.3467H51.17C48.5401 56.3467 47.1124 59.3523 48.7655 61.381L100.537 125.926C101.514 127.204 101.514 128.932 100.537 130.209L48.7655 194.829C47.1124 196.858 48.5401 199.864 51.17 199.864Z" fill="white"/>
</g>
<defs>
<clipPath id="clip0_529_10912">
<rect width="940" height="276.515" fill="white" transform="translate(0 0.742188)"/>
</clipPath>
</defs>
</svg>
