<svg xmlns="http://www.w3.org/2000/svg" viewBox="0 0 2209.38 446.55">
  <defs>
    <style>
      .cls-1 {
        fill: #f2f2f2;
      }

      .cls-2 {
        fill: #f7931e;
      }

      .cls-3 {
        fill: #29abe2;
      }

      .cls-4 {
        fill: #0071bc;
      }
    </style>
  </defs>
  <title>Asset 1</title>
  <g id="Layer_2" data-name="Layer 2">
    <g id="Layer_1-2" data-name="Layer 1">
      <g>
        <g>
          <path class="cls-1" d="M745.61,93.59l8.74,27.32L584.26,312.85h138.4l-5.46,38.61H533.27l-7.65-27.68L695,135.84H559.49l6.19-42.25Z"/>
          <path class="cls-1" d="M818.81,355.1A86.67,86.67,0,0,1,792,350.92a62.3,62.3,0,0,1-22.4-12.57,55.27,55.27,0,0,1-14.56-20.76,53.42,53.42,0,0,1-3.28-18.94,68.94,68.94,0,0,1,.73-9.83l8.74-62.65a69.13,69.13,0,0,1,10.38-29.32,77.68,77.68,0,0,1,19.85-20.94A86.12,86.12,0,0,1,817,163.34a96.46,96.46,0,0,1,28-4.19,84.19,84.19,0,0,1,26.77,4.19,62.51,62.51,0,0,1,21.85,12.39,48.32,48.32,0,0,1,13.66,20.57,55.19,55.19,0,0,1,2.91,18.21,80.94,80.94,0,0,1-.72,10.57A54.65,54.65,0,0,1,901,248.57a58.9,58.9,0,0,1-16.76,16.57,72,72,0,0,1-23.13,9.65,119.8,119.8,0,0,1-27.68,3.1,106.45,106.45,0,0,1-39.33-7.29l-2.19,18.22a33.91,33.91,0,0,0-.36,4.73A18.71,18.71,0,0,0,793,301.2a21,21,0,0,0,6.2,9.29,29.93,29.93,0,0,0,10.38,5.83,39.56,39.56,0,0,0,12.56,2h1.46A58.77,58.77,0,0,0,844.67,314,45.94,45.94,0,0,0,864,299.38l25.49,18.94q-14.57,18.21-33.32,27.5T818.81,355.1Zm17.12-108.17q16,0,24.77-7.28,9.46-8,9.47-19.67,0-8.74-6.92-15.66Q855.6,197,839.94,197a45.71,45.71,0,0,0-13.48,2,39.88,39.88,0,0,0-12,6,36.17,36.17,0,0,0-9.1,9.65,32.42,32.42,0,0,0-4.74,12.93l-2.18,13.11q6.18,1.83,16,4A98.91,98.91,0,0,0,835.93,246.93Z"/>
          <path class="cls-1" d="M1022.05,159.15a113.12,113.12,0,0,1,28.59,3.47,61.11,61.11,0,0,1,22.94,11.1,43.2,43.2,0,0,1,14,20.4,47.68,47.68,0,0,1,3.28,18.21,75.2,75.2,0,0,1-1.09,12.38l-9.47,67a64.48,64.48,0,0,1-10.38,28,72.38,72.38,0,0,1-20,19.86,89.19,89.19,0,0,1-25.86,11.65,105.54,105.54,0,0,1-27.87,3.82q-18.21,0-32.77-6.55L954.66,413H914.6l33.51-238.93A190.91,190.91,0,0,1,984,163.16,188.85,188.85,0,0,1,1022.05,159.15ZM993.64,319.77h3.27a58.8,58.8,0,0,0,27.32-6.37q12.38-6.36,16-21.67l9.83-67.74a36.44,36.44,0,0,0,.36-5.1,26.87,26.87,0,0,0-1.45-9.11,22.54,22.54,0,0,0-7.65-9.47,32,32,0,0,0-12.2-5.1A75.35,75.35,0,0,0,984.53,200L968.14,315.41A73,73,0,0,0,982,318.68,59.21,59.21,0,0,0,993.64,319.77Z"/>
          <path class="cls-1" d="M1177.93,355.1H1171a72.07,72.07,0,0,1-24.59-4A44.09,44.09,0,0,1,1128,338.9q-7.29-8.2-10.56-20.95a61.32,61.32,0,0,1-1.83-15.66,100.66,100.66,0,0,1,1.1-14.2l24.76-172.28h36.43l-3.65,47h36.06l-4.73,36.78h-36.06l-13.11,88.14a50.62,50.62,0,0,0-.73,8.38,27.52,27.52,0,0,0,1.46,9.47,20.48,20.48,0,0,0,8.19,9.29,30.83,30.83,0,0,0,12.75,3.82q7.46.74,15.84.73l-4.73,34.6A54,54,0,0,1,1177.93,355.1Z"/>
          <path class="cls-1" d="M1314.87,159.15a83.66,83.66,0,0,1,26.23,4.19,62.26,62.26,0,0,1,22,12.39,51.77,51.77,0,0,1,14,20.21,50.51,50.51,0,0,1,3.28,18.57,69,69,0,0,1-.73,9.84l-9.1,65.56a66.27,66.27,0,0,1-10.38,28.59,77.74,77.74,0,0,1-19.85,20.4,85.35,85.35,0,0,1-25.5,12.2,97.94,97.94,0,0,1-27.32,4,89.87,89.87,0,0,1-26.76-4,59.82,59.82,0,0,1-22.22-12.2,50.82,50.82,0,0,1-17.3-39.16,68.94,68.94,0,0,1,.73-9.83l9.1-65.56q2.19-16.4,10.38-28.41a78.52,78.52,0,0,1,19.85-20.21A88.24,88.24,0,0,1,1287,163.34,97,97,0,0,1,1314.87,159.15Zm-5.46,39a50,50,0,0,0-12.57,1.64,44,44,0,0,0-11.83,4.91,31.09,31.09,0,0,0-9.11,8.2,26,26,0,0,0-4.73,11.47l-8.75,63.74a24.7,24.7,0,0,0-.36,4,15.41,15.41,0,0,0,1.82,7.65,21.82,21.82,0,0,0,6.74,9.11,31,31,0,0,0,10.56,5.46,41.65,41.65,0,0,0,12.2,1.82,43.66,43.66,0,0,0,23.68-7.28,33.49,33.49,0,0,0,9.1-8.93,28.88,28.88,0,0,0,4.74-11.83l8.74-63.74a18.72,18.72,0,0,0,.36-3.64,15.51,15.51,0,0,0-1.82-7.65,23.33,23.33,0,0,0-6.92-8.38,30.5,30.5,0,0,0-10.2-4.91A42.56,42.56,0,0,0,1309.41,198.13Z"/>
          <path class="cls-1" d="M1671.08,351.46H1627l-16-67h-92.51l-32.42,67h-45.16L1569.82,93.59h44.07ZM1583.3,136.21l-14.57,41.52-29.87,64.47h63.74l-12-65.2-2.18-40.79Z"/>
          <path class="cls-1" d="M1789.81,159.15a113,113,0,0,1,28.59,3.47,61.23,61.23,0,0,1,22.95,11.1,43.2,43.2,0,0,1,14,20.4,47.68,47.68,0,0,1,3.28,18.21,76.3,76.3,0,0,1-1.09,12.38l-9.47,67a64.48,64.48,0,0,1-10.38,28,72.55,72.55,0,0,1-20,19.86,89,89,0,0,1-25.86,11.65A105.47,105.47,0,0,1,1764,355.1q-18.21,0-32.78-6.55L1722.43,413h-40.06l33.5-238.93a191.24,191.24,0,0,1,35.88-10.93A188.83,188.83,0,0,1,1789.81,159.15ZM1761.4,319.77h3.28A58.83,58.83,0,0,0,1792,313.4q12.38-6.36,16-21.67l9.84-67.74a36.44,36.44,0,0,0,.36-5.1,26.62,26.62,0,0,0-1.46-9.11,22.59,22.59,0,0,0-7.64-9.47,32,32,0,0,0-12.21-5.1A75.32,75.32,0,0,0,1752.3,200l-16.39,115.46a72.84,72.84,0,0,0,13.84,3.27A59.18,59.18,0,0,0,1761.4,319.77Z"/>
          <path class="cls-1" d="M1975.92,159.15a113.15,113.15,0,0,1,28.6,3.47,61.19,61.19,0,0,1,22.94,11.1,43.2,43.2,0,0,1,14,20.4,47.68,47.68,0,0,1,3.28,18.21,75.2,75.2,0,0,1-1.09,12.38l-9.47,67a64.48,64.48,0,0,1-10.38,28,72.52,72.52,0,0,1-20,19.86,89.19,89.19,0,0,1-25.86,11.65,105.54,105.54,0,0,1-27.87,3.82q-18.21,0-32.78-6.55L1908.54,413h-40.06L1902,174.09a190.91,190.91,0,0,1,35.87-10.93A188.83,188.83,0,0,1,1975.92,159.15Zm-28.41,160.62h3.28a58.8,58.8,0,0,0,27.32-6.37q12.38-6.36,16-21.67L2004,224a36.44,36.44,0,0,0,.36-5.1,26.87,26.87,0,0,0-1.45-9.11,22.69,22.69,0,0,0-7.65-9.47,32,32,0,0,0-12.2-5.1,75.35,75.35,0,0,0-44.62,4.74L1922,315.41a72.84,72.84,0,0,0,13.84,3.27A59.18,59.18,0,0,0,1947.51,319.77Z"/>
          <path class="cls-1" d="M2132.53,318a34.79,34.79,0,0,0,18.94-5.28q8.39-5.26,10.2-15.84a11.74,11.74,0,0,0-1.64-8.56,19.73,19.73,0,0,0-6.37-5.83,40,40,0,0,0-8.93-3.82q-4.91-1.46-9.65-2.55a146.19,146.19,0,0,1-20.94-5.65,74.41,74.41,0,0,1-20.4-10.74A50.36,50.36,0,0,1,2079,242.2a41.08,41.08,0,0,1-3.64-17.85,59.39,59.39,0,0,1,.73-9.11q2.19-15.65,9.11-26.4a57.44,57.44,0,0,1,16.93-17.3,70.24,70.24,0,0,1,21.85-9.47,99.63,99.63,0,0,1,23.86-2.92,90.55,90.55,0,0,1,15.84,1.46,91.78,91.78,0,0,1,16.39,4.55,86.53,86.53,0,0,1,15.67,7.83,65.48,65.48,0,0,1,13.65,11.66l-27.68,26.22q-5.82-6.18-16.75-10.38a69.78,69.78,0,0,0-22.95-4.55h-1.45a30.32,30.32,0,0,0-14.94,3.64q-6.92,4-9.47,13.48-1.45,6.19,1.1,10.74a21.68,21.68,0,0,0,7.28,7.65,41.14,41.14,0,0,0,10.74,4.92,111.46,111.46,0,0,0,11.84,2.91,139.48,139.48,0,0,1,21.67,5.46,55.79,55.79,0,0,1,18.58,10.39,42.48,42.48,0,0,1,11.84,16.93,39.61,39.61,0,0,1,3.27,16.39,53.59,53.59,0,0,1-.72,8.74q-2.19,14.94-9.29,25.68a66.85,66.85,0,0,1-17.48,18A73.4,73.4,0,0,1,2152,351.64a94.86,94.86,0,0,1-25.31,3.46,87.7,87.7,0,0,1-21.68-2.73,72.71,72.71,0,0,1-20-8.38,63.78,63.78,0,0,1-16.21-14,59,59,0,0,1-10.56-19.66L2091,291a41,41,0,0,0,17.85,20.22Q2120.88,318,2132.53,318Z"/>
        </g>
        <path class="cls-2" d="M369.77,354c-14.17,24.84-35.68,46.17-62.2,62.09-31.88,19.15-71,30.42-113.28,30.42C93,446.55,9.88,381.89.82,299.34a135.6,135.6,0,0,1-.82-15c0-52.54,29.93-99.28,76.34-128.91l.33-.21c0,.07,0,.14,0,.21q-.16,3.38-.17,6.78a138.08,138.08,0,0,0,.81,15c4.29,39,25.13,74,56.59,100.11l-16.26,16.27L81.93,329.27A14.51,14.51,0,0,0,92.2,354Z"/>
        <path class="cls-3" d="M255.78,155.43,133.88,277.32c-31.46-26.09-52.3-61.1-56.59-100.11a138.08,138.08,0,0,1-.81-15q0-3.41.17-6.78Z"/>
        <path class="cls-3" d="M388.57,284.34c0,2.34-.05,4.67-.18,7-1.2.77-2.42,1.52-3.65,2.26H203.11l126-126C365.78,197.06,388.57,238.48,388.57,284.34Z"/>
        <path class="cls-4" d="M465.05,162.21c0,52.67-30.07,99.49-76.66,129.12.13-2.32.18-4.65.18-7,0-45.86-22.79-87.28-59.44-116.78l12.12-12.13h0L377,119.74v0A14.5,14.5,0,0,0,366.69,95H93.91c30.6-56,98.29-95,176.86-95C378.06,0,465.05,72.62,465.05,162.21Z"/>
      </g>
    </g>
  </g>
</svg>
