<svg width="64" height="65" viewBox="0 0 64 65" fill="none" xmlns="http://www.w3.org/2000/svg">
<circle cx="32" cy="32.5452" r="30.6419" fill="#101021" stroke="#101021" stroke-width="2.71613"/>
<path fill-rule="evenodd" clip-rule="evenodd" d="M46.4925 18.0798C46.4713 17.875 46.3951 17.6796 46.272 17.5145C46.1489 17.3493 45.9834 17.2205 45.7931 17.1417C45.6028 17.0629 45.3947 17.037 45.1909 17.0668C44.9871 17.0965 44.7951 17.1808 44.6353 17.3108C44.5687 17.3635 44.5017 17.4118 44.4333 17.4617C44.2043 17.6266 43.9703 17.7845 43.7317 17.9352C43.0977 18.3374 42.1305 18.8948 40.8257 19.4901C38.2218 20.6769 34.2708 22.0178 28.9592 22.5644L23.2764 23.1493C21.2631 23.3546 19.392 24.2816 18.0091 25.7591C16.6261 27.2366 15.8246 29.1648 15.7527 31.1873C15.6808 33.2098 16.3433 35.19 17.6179 36.762C18.8925 38.3339 20.693 39.3915 22.6867 39.7392L22.7579 40.4317C23.2353 45.0704 24.6531 48.6674 25.3984 50.2998C25.8727 51.3368 26.9445 51.8698 27.9992 51.7612L31.0497 51.4472C33.0107 51.2454 34.0259 49.1163 33.2919 47.4598C32.4697 45.6025 31.4092 42.6487 31.0537 39.1951C31.0491 39.1496 31.0414 39.1045 31.0324 39.0625C36.162 38.5774 40.1724 39.1081 42.9008 39.7569C44.2982 40.0909 45.3601 40.4533 46.0641 40.7315C46.1981 40.7836 46.3382 40.8503 46.483 40.9181C47.0574 41.1867 47.7011 41.4896 48.2526 41.1189C48.425 41.0035 48.5628 40.8434 48.6511 40.6557C48.7395 40.468 48.775 40.2598 48.754 40.0534L46.4925 18.0798ZM30.8061 36.7886C36.2115 36.2767 40.4787 36.8314 43.4301 37.5338C44.5872 37.8099 45.5414 38.1083 46.2839 38.3734L44.4132 20.1975C43.7392 20.5976 42.86 21.0725 41.7747 21.5686C39.0276 22.8223 34.9639 24.1992 29.5719 24.7971L30.8061 36.7886ZM25.0311 40.1978L24.9921 39.8189L28.7806 39.429C29.1683 43.1963 30.3193 46.3889 31.2031 48.3838C31.238 48.4687 31.2531 48.5604 31.2474 48.652C31.2417 48.7435 31.2153 48.8326 31.1702 48.9125C31.0803 49.081 30.9476 49.1605 30.8158 49.1741L27.7653 49.4881C27.6061 49.5045 27.5122 49.4253 27.477 49.3508C26.7969 47.8618 25.4751 44.5122 25.0311 40.1978ZM23.5104 25.4225L27.2989 25.0325L28.5467 37.1559L24.7581 37.5458C23.1505 37.7113 21.5429 37.2313 20.2891 36.2115C19.0354 35.1917 18.238 33.7157 18.0726 32.108C17.9071 30.5003 18.3871 28.8928 19.4068 27.639C20.4266 26.3852 21.9027 25.5879 23.5104 25.4225Z" fill="white"/>
</svg>
